<?xml version="1.0" encoding="UTF-8"?>
<svg width="32px" height="32px" viewBox="0 0 32 32" version="1.1" xmlns="http://www.w3.org/2000/svg" xmlns:xlink="http://www.w3.org/1999/xlink">
    <!-- Generator: Sketch 49.1 (51147) - http://www.bohemiancoding.com/sketch -->
    <title>changeability</title>
    <desc>Created with Sketch.</desc>
    <defs></defs>
    <g id="changeability" stroke="none" stroke-width="1" fill="none" fill-rule="evenodd">
        <g id="Group" transform="translate(1.000000, 0.000000)" fill="#000000">
            <path d="M11.9588845,12.3124143 L13.6524726,12.3124143 L13.6524726,12.9282274 L13.0282305,12.9282274 L12.8436912,12.9282274 L12.6971236,12.9390297 C12.4872152,12.9681632 12.382302,13.1661235 12.382302,13.5330744 L12.382302,13.6584466 L12.382302,15.5441029 C12.382302,16.1689179 12.1560265,16.6448738 11.703721,16.9718071 C12.1560265,17.2734532 12.382302,17.7493273 12.382302,18.399675 L12.382302,20.2798484 L12.382302,20.3997375 C12.382302,20.6793698 12.4219922,20.852043 12.5016183,20.9174297 C12.5811625,20.9828982 12.7947535,21.0155506 13.1421457,21.0155506 L13.6415885,21.0155506 L13.6415885,21.6149965 L11.757978,21.6095953 C11.0487087,21.6095953 10.6940331,21.0755361 10.6940331,20.0073357 L10.6940331,18.0781429 C10.6940331,17.5259161 10.514895,17.2116673 10.1567005,17.1353147 L10.1567005,16.6884922 C10.460638,16.6195048 10.6270916,16.454115 10.6561433,16.1925684 L10.688632,15.9309399 L10.6940331,15.8710362 L10.6940331,13.9636116 C10.694115,12.8628407 11.1156503,12.3124143 11.9588845,12.3124143 L11.9588845,12.3124143 Z" id="Path"></path>
            <path d="M17.3845042,15.5223347 L17.3845042,13.6476443 L17.3845042,13.5277551 C17.3845042,13.2479591 17.3446502,13.0754497 17.265106,13.0099812 C17.1854799,12.9445945 16.9719708,12.9118603 16.6244968,12.9118603 L16.1251358,12.9118603 L16.1251358,12.3124143 L18.0087463,12.3124143 C18.7180156,12.3124143 19.0726911,12.8464736 19.0726911,13.9146739 L19.0726911,15.8438668 C19.0726911,16.3962572 19.2536297,16.7103423 19.6155068,16.786695 L19.6155068,17.2335174 C19.3078867,17.3025867 19.1396327,17.4678947 19.1106629,17.7295231 L19.0780923,17.9910698 L19.0726911,18.0510553 L19.0726911,19.9584799 C19.0726911,21.0593326 18.651074,21.6096772 17.8079217,21.6096772 L16.1197347,21.6096772 L16.1197347,20.9938641 L16.7439768,20.9938641 L16.9230331,20.9938641 L17.0696825,20.98298 C17.2795091,20.9538465 17.3845042,20.7558861 17.3845042,20.3889352 L17.3845042,20.2636449 L17.3845042,18.3779886 C17.3845042,17.7531736 17.610616,17.2771358 18.0630033,16.9502025 C17.6105341,16.652239 17.3845042,16.1762831 17.3845042,15.5223347 L17.3845042,15.5223347 Z" id="Path"></path>
            <path d="M3.78882548,25.3399902 L3.11261776,25.8408242 C1.16157477,23.3169318 0,20.1518574 0,16.7151706 C0,9.46412564 5.16783749,3.42113804 12.0210795,2.06561285 L10.0720824,0.586761386 L10.5172682,0 L13.6465804,2.37446048 L11.2722018,5.50369087 L10.6854404,5.0585051 L12.3546415,2.8586 C5.80345474,4.07091285 0.841433832,9.81307271 0.841433832,16.7152525 C0.841433832,19.9642902 1.94155005,22.9561186 3.78882548,25.3399902 L3.78882548,25.3399902 Z" id="Path"></path>
            <path d="M27.2365306,25.185239 L29.7882471,25.185239 L29.7882471,25.9216777 L25.8601374,25.9216777 L25.8601374,21.993568 L26.5966579,21.993568 L26.5966579,24.6295752 C28.1309121,22.3732853 29.0286488,19.6492231 29.0286488,16.7151706 C29.0286488,9.77002718 24.004842,3.99848833 17.3930151,2.83560419 L17.5018564,2.00071721 C24.5270351,3.21769469 29.8700008,9.34210873 29.8700008,16.7151706 C29.8700008,19.8604408 28.8969753,22.778208 27.2365306,25.185239 L27.2365306,25.185239 Z" id="Path"></path>
            <path d="M6.80144011,31.9802141 L6.17474294,28.1024333 L10.0525237,27.4757361 L10.1700397,28.2028456 L7.430265,28.6456581 C9.60332802,30.0155046 12.1764035,30.8087372 14.9350004,30.8087372 C17.9689741,30.8087372 20.7788001,29.8499511 23.0785447,28.2189672 L23.5934544,28.8854365 C21.1510703,30.626162 18.1626791,31.6501711 14.9349186,31.6501711 C12.0772188,31.6501711 9.40864109,30.8451541 7.13901204,29.4528847 L7.52846775,31.8628618 L6.80144011,31.9802141 L6.80144011,31.9802141 Z" id="Path"></path>
        </g>
    </g>
</svg>