<?xml version="1.0" encoding="UTF-8"?>
<svg width="89px" height="33px" viewBox="0 0 89 33" version="1.1" xmlns="http://www.w3.org/2000/svg" xmlns:xlink="http://www.w3.org/1999/xlink">
    <!-- Generator: Sketch 49.3 (51167) - http://www.bohemiancoding.com/sketch -->
    <title>cwe</title>
    <desc>Created with Sketch.</desc>
    <defs></defs>
    <g id="cwe" stroke="none" stroke-width="1" fill="none" fill-rule="evenodd">
        <path d="M15,1.5 L15,7 C9.4771525,7 5,11.2532949 5,16.5 C5,21.7467051 9.4771525,26 15,26 L15,31.5 C6.71572875,31.5 0,24.7842712 0,16.5 C0,8.21572875 6.71572875,1.5 15,1.5 Z" id="Combined-Shape-Copy-3" fill="#D0D0D0"></path>
        <path d="M18,1.5 L19.8032787,7 L15,7 L15,1.5 L18,1.5 Z M26.0327869,26 L27.8360656,31.5 L15,31.5 L15,26 L26.0327869,26 Z" id="Combined-Shape-Copy-2" fill="#D0D0D0"></path>
        <path d="M15,0.5 L15,6 C9.4771525,6 5,10.2532949 5,15.5 C5,20.7467051 9.4771525,25 15,25 L15,30.5 C6.71572875,30.5 0,23.7842712 0,15.5 C0,7.21572875 6.71572875,0.5 15,0.5 Z" id="Combined-Shape" fill="#000000"></path>
        <path d="M18,0.5 L19.8032787,6 L15,6 L15,0.5 L18,0.5 Z M26.0327869,25 L27.8360656,30.5 L15,30.5 L15,25 L26.0327869,25 Z" id="Combined-Shape" fill="#000000"></path>
        <path d="M82.2736821,13.8000011 L80.0473669,18.5 L70,18.5 L69.5,18.5 L65.5,26.8000011 L77.123809,26.8000011 L74.9603175,31.5 L57.4603175,31.5 L71.2698413,1.5 L88.7698413,1.5 L86.468254,6.5 L76,6.5 L75,6.5 L71.5,13.8000011 L82.2736821,13.8000011 Z" id="Combined-Shape-Copy" fill="#D0D0D0"></path>
        <path d="M82.2736821,12.8000011 L80.0473669,17.5 L70,17.5 L69.5,17.5 L65.5,25.8000011 L77.123809,25.8000011 L74.9603175,30.5 L57.4603175,30.5 L71.2698413,0.5 L88.7698413,0.5 L86.468254,5.5 L76,5.5 L75,5.5 L71.5,12.8000011 L82.2736821,12.8000011 Z" id="Combined-Shape-Copy-5" fill="#000000"></path>
        <g id="Group" transform="translate(20.000000, 0.000000)">
            <path d="M22.9397545,1.5 C23.5300966,3.68026915 26.1562391,12.0136025 30.8181818,26.5 L42.0926916,1.5 L48.8181818,1.5 L48.8181818,2.0862069 L35.2784993,31.5 L26.3004845,31.5 L23.8181818,23 L20.3181818,31.5 L11.9090909,31.5 L1,1.5 L7.94479234,1.5 C8.56523529,3.68026915 11.3563651,12.0136025 16.3181818,26.5 L20.8181818,16 L15.7005348,1.5 L22.9397545,1.5 Z" id="Combined-Shape" fill="#D0D0D0"></path>
            <path d="M22.1215726,0.5 C22.7119148,2.68026915 25.3380573,11.0136025 30,25.5 L41.2745098,0.5 L48,0.5 L48,1.0862069 L34.4603175,30.5 L25.4823027,30.5 L23,22 L19.5,30.5 L11.0909091,30.5 L0.181818182,0.5 L7.12661052,0.5 C7.74705347,2.68026915 10.5381833,11.0136025 15.5,25.5 L20,15 L14.8823529,0.5 L22.1215726,0.5 Z" id="Combined-Shape-Copy-4" stroke="#000000" stroke-width="0.5" fill="#FFFFFF"></path>
        </g>
        <polygon id="Rectangle-5" fill="#FFFFFF" transform="translate(43.313617, 15.878914) rotate(23.000000) translate(-43.313617, -15.878914) " points="40.337125 9.66938016 41.7137615 7.99867225 46.5016084 13.5708745 45.4430264 14.0202159 45.1256253 23.7591565 40.1256253 23.7591565"></polygon>
    </g>
</svg>