<?xml version="1.0" encoding="UTF-8" standalone="no"?>
<!DOCTYPE svg PUBLIC "-//W3C//DTD SVG 1.1//EN" "http://www.w3.org/Graphics/SVG/1.1/DTD/svg11.dtd">
<svg width="100%" height="100%" viewBox="0 0 100 100" version="1.1" xmlns="http://www.w3.org/2000/svg" xmlns:xlink="http://www.w3.org/1999/xlink" xml:space="preserve" xmlns:serif="http://www.serif.com/" style="fill-rule:evenodd;clip-rule:evenodd;stroke-linejoin:round;stroke-miterlimit:1.41421;">
    <g transform="matrix(1,0,0,1,-120,0)">
        <g id="ArrowSideBar" transform="matrix(0.471698,0,0,0.460829,139.811,19.3548)">
            <rect x="-42" y="-42" width="212" height="217" style="fill:none;"/>
            <clipPath id="_clip1">
                <rect x="-42" y="-42" width="212" height="217"/>
            </clipPath>
            <g clip-path="url(#_clip1)">
                <g transform="matrix(-21.2692,-2.66616e-15,2.60473e-15,-21.7708,1127.11,22555.8)">
                    <g transform="matrix(1.04145,0,0,1.04145,45,1027.58)">
                        <path d="M5.922,8.88L2.238,5.201L5.922,1.521L4.801,0.4L0,5.201L4.801,10.002L5.922,8.88Z" style="fill:#595959;"/>
                    </g>
                    <g transform="matrix(1.04145,0,0,1.04145,48.8,1027.58)">
                        <path d="M5.922,8.88L2.238,5.201L5.922,1.521L4.801,0.4L0,5.201L4.801,10.002L5.922,8.88Z" style="fill:#595959;"/>
                    </g>
                </g>
            </g>
        </g>
    </g>
</svg>
