<?xml version="1.0" encoding="UTF-8"?>
<svg width="92px" height="92px" viewBox="0 0 92 92" version="1.1" xmlns="http://www.w3.org/2000/svg" xmlns:xlink="http://www.w3.org/1999/xlink">
    <!-- Generator: Sketch 62 (91390) - https://sketch.com -->
    <title>autosar-cpp-2014</title>
    <desc>Created with Sketch.</desc>
    <defs>
        <polyline id="path-1" points="0 6.91687733 0 0 66.980343 0 66.980343 6.91687733"></polyline>
    </defs>
    <g id="autosar-cpp-2014" stroke="none" stroke-width="1" fill="none" fill-rule="evenodd">
        <g id="owasp_logo_Mx_2016" fill="#1A1919">
            <path d="M61,0 C65.418278,-8.11624501e-16 69,3.581722 69,8 L69.0006918,45.0049891 C55.7001221,45.2709437 45,56.1360134 45,69.5001249 C45,70.0041447 45.0152202,70.5046101 45.045226,71.0010866 L8,71 C3.581722,71 5.41083001e-16,67.418278 0,63 L0,8 C-5.41083001e-16,3.581722 3.581722,8.11624501e-16 8,0 L61,0 Z" id="Fill-1"></path>
            <path d="M69.1444107,92 C56.5214185,92 46.2885884,81.7670411 46.2885884,69.1444107 C46.2885884,56.5215472 56.5214185,46.2885884 69.1444107,46.2885884 C81.7669368,46.2885884 92,56.5215472 92,69.1444107 C92,81.7670411 81.7669368,92 69.1444107,92 M69.1444209,48.1170448 C80.75711,48.1170448 90.1715435,57.5314216 90.1715435,69.1442942 C90.1715435,80.7571667 80.75711,90.1715435 69.1444209,90.1715435 C57.5314784,90.1715435 48.1170448,80.7571667 48.1170448,69.1442942 C48.1170448,57.5314216 57.5314784,48.1170448 69.1444209,48.1170448 Z" id="Fill-1-Copy"></path>
        </g>
        <g id="Autosar_Logo" transform="translate(1.000000, 32.000000)">
            <g id="g2392" transform="translate(33.500000, 3.500000) scale(-1, 1) rotate(-180.000000) translate(-33.500000, -3.500000) translate(0.000000, -0.000000)">
                <g id="g2394">
                    <g id="g2396-Clipped">
                        <mask id="mask-2" fill="white">
                            <use xlink:href="#path-1"></use>
                        </mask>
                        <g id="path2400"></g>
                        <g id="g2396" mask="url(#mask-2)" fill="#FFFFFF" fill-rule="nonzero">
                            <polyline id="path2402" points="28.5959876 0.571489333 27.4752603 0.413261333 27.1694229 1.46289733 28.5959876 0.571489333"></polyline>
                            <path d="M39.7081129,4.84936667 L39.1162796,4.80525733 C39.5661763,4.39436667 39.7929242,3.94557333 39.7929242,3.45821467 C39.7929242,2.624272 39.1648223,1.90221733 37.9089876,1.29190133 C36.6532452,0.681044 35.1438994,0.376068 33.3803967,0.376068 C31.8444725,0.376068 30.6605289,0.548697333 29.5039945,1.02228933 L29.1394628,0.661173333 C30.3562603,0.220574667 31.7487713,0 33.3184725,0 C35.297095,0 36.9906446,0.34216 38.3996749,1.02758133 C39.8086129,1.712452 40.5132204,2.52255733 40.5132204,3.45821467 C40.5132204,3.95778133 40.1293085,4.56645467 39.7081129,4.84936667" id="path2404"></path>
                            <path d="M27.0090289,1.828204 L27.889719,1.89510533 C27.2947479,2.363228 26.9973085,2.88403733 26.9973085,3.45821467 C26.9973085,4.27278133 27.6202424,4.97998667 28.8661102,5.58113733 C30.1117934,6.18219467 31.6072961,6.50184267 33.3520647,6.54080933 C34.9151212,6.506584 36.2757934,6.25638533 37.4340813,5.78976533 L37.8013815,5.98751067 C36.6320193,6.527416 34.9319174,6.880916 33.286449,6.91687733 C31.3290523,6.87316933 29.6510069,6.51460133 28.2534201,5.84017467 C26.8553719,5.16573867 26.1564862,4.37213467 26.1564862,3.45821467 C26.1564862,2.86416667 26.4413747,2.32112533 27.0090289,1.828204" id="path2406"></path>
                            <path d="M37.3787094,4.513768 C37.5131708,3.98649067 37.2325275,3.42636 36.5373333,2.833544 C35.8423237,2.240364 34.93727,1.79867333 33.8228182,1.50773467 C32.7199945,1.22008133 31.7227466,1.16521067 30.8309821,1.34440133 C29.9387562,1.52305067 29.4257355,1.87596267 29.2910895,2.403156 C29.1598581,2.91758133 29.4393939,3.46751067 30.1299738,4.053028 C30.8202769,4.63846133 31.7141639,5.087264 32.8106198,5.39952933 C33.9432521,5.668768 34.9551736,5.717488 35.8455537,5.54476533 C36.736303,5.371912 37.2472934,5.02838 37.3787094,4.513768" id="path2408"></path>
                            <path d="M47.2370303,2.56867333 C47.2370303,2.04112533 46.9478967,1.62130267 46.3694449,1.308496 C45.7909008,0.995493333 44.9804408,0.839094667 43.9384339,0.839094667 L40.4196419,0.839094667 L40.4196419,2.19661867 L43.1320344,2.19661867 C43.2293967,2.19661867 43.7831157,2.19789733 43.8650661,2.19789733 C44.3045344,2.19789733 44.5250069,2.32148933 44.5250069,2.56867333 C44.5250069,2.848496 44.1744105,3.12046933 43.4741405,3.38406133 C42.2683251,3.77950533 41.6083843,4.010188 41.4945028,4.07645467 C40.8102906,4.33950533 40.4519421,4.73489333 40.4196419,5.26253467 C40.3872493,5.67419067 40.7291708,6.077876 41.4458678,6.077876 L46.7730138,6.077876 L47.3104904,6.077876 L47.3104904,5.08935467 L46.7730138,5.08935467 L44.9091033,5.08935467 C44.522792,5.08935467 44.0381033,5.17202933 44.0381033,4.81254667 C44.0381033,4.49809733 44.4966749,4.34880133 44.8599146,4.21900267 C45.5624917,3.967992 46.0747741,3.78643067 46.4823113,3.59674933 C46.8892948,3.40721733 47.2370303,3.16148933 47.2370303,2.56867333" id="path2410"></path>
                            <path d="M54.0780441,6.102124 L58.1100413,0.83818 L47.284927,0.83818 L51.2925606,6.102124 L54.0780441,6.102124 Z M52.6608003,4.56974 L50.9746336,2.14775867 L54.3713306,2.14775867 L52.6608003,4.56974" id="path2412"></path>
                            <path d="M58.8188017,0.839094667 L58.8188017,3.532312 L58.8188017,6.077876 L63.7060179,6.077876 C64.6994821,6.077876 65.4978526,5.896632 66.1007603,5.534424 C66.6058444,5.22143067 66.8583402,4.85037467 66.8583402,4.42244133 C66.8583402,3.84530533 66.4670455,3.48318133 65.6851019,3.33466 C66.5484421,2.906456 66.980343,2.32969333 66.980343,1.60471733 L66.980343,0.839094667 L64.2924986,0.839094667 L64.2924986,1.62969333 C64.3085565,2.02489467 64.113186,2.34627867 63.7060179,2.59346267 C63.3639118,2.807476 63.0298347,2.91466 62.7037865,2.91466 L61.0422603,2.91466 L61.0422603,0.839094667 L58.8188017,0.839094667 Z M61.0422603,4.817652 L61.0422603,4.150468 L63.7060179,4.150468 C63.998843,4.16696 64.1780634,4.28207733 64.2434945,4.49645467 C64.1780634,4.71064533 63.998843,4.817652 63.7060179,4.817652 L61.0422603,4.817652" id="path2414"></path>
                            <path d="M31.2394421,2.91046933 C31.2895537,2.71432933 31.5436185,2.604224 32.0021901,2.579976 C32.4607617,2.55591467 32.932438,2.60732267 33.4169421,2.73382667 C33.9559876,2.84830933 34.4100372,3.018932 34.7786295,3.24589067 C35.147314,3.47288667 35.3124146,3.71196 35.2743926,3.96343733 C35.2364628,4.16240533 35.0027011,4.26822667 34.5731997,4.28025733 C34.1435138,4.292288 33.6501501,4.22557333 33.0930165,4.080188 C32.5352369,3.93471867 32.0744504,3.752336 31.7105647,3.53322667 C31.3463099,3.313884 31.1896997,3.10625467 31.2394421,2.91046933" id="path2416"></path>
                            <polyline id="path2418" points="37.8709656 5.474448 38.695084 6.035904 39.2060744 5.15416533 37.8709656 5.474448"></polyline>
                            <path d="M6.65872948,6.076196 L10.6110096,0.916748 L0,0.916748 L3.92825799,6.076196 L6.65872948,6.076196 Z M5.26943003,4.57429467 L3.61643113,2.20062267 L6.9459989,2.20062267 L5.26943003,4.57429467" id="path2420"></path>
                            <path d="M13.6600634,2.878568 C13.6758444,2.58762933 13.7355537,2.40989467 13.8394683,2.345728 C13.9434752,2.28102 14.3308939,2.248932 15.0017245,2.248932 L16.3188375,2.248932 L16.3188375,6.076196 L19.0016061,6.076196 L19.0016061,0.916748 L15.0017245,0.916748 C13.9478127,0.916748 13.2211488,0.956666667 12.8217328,1.03760533 C12.1990758,1.101772 11.7519477,1.27166667 11.4805331,1.54656133 C11.1610372,1.80450667 11.0012893,2.248932 11.0012893,2.878568 L11.0012893,6.076196 L13.6600634,6.076196 L13.6600634,2.878568" id="path2422"></path>
                            <polyline id="path2424" points="26.3577631 4.96220667 24.1783251 4.96220667 24.1783251 4.09003467 24.1783251 0.916748 21.7351322 0.916748 21.7351322 4.96220667 19.6755744 4.96220667 19.6755744 6.076196 26.3577631 6.076196 26.3577631 4.96220667"></polyline>
                        </g>
                    </g>
                </g>
            </g>
        </g>
        <path d="M67.265543,51.5142494 C68.4051537,50.8464699 69.5183464,50.8224697 70.666471,51.4807982 C74.9251747,53.9229808 79.1893874,56.3552151 83.4494683,58.7949107 C83.965561,59.091743 84.3503142,59.4671669 84.6072337,59.915089 C84.8687858,60.3705966 84.9981219,60.9013383 84.9983723,61.5019667 C85,66.4084669 85,76.2186071 85,76.2186071 C85,76.8061784 84.875672,77.3265987 84.6260144,77.7752669 C84.3689696,78.2363705 83.9788326,78.6223644 83.4508455,78.9257875 C79.1901386,81.365483 74.9256755,83.797593 70.6668466,86.2399 C69.5183464,86.8984772 68.4051537,86.8746013 67.2650421,86.2064488 C65.5697741,85.212987 57.0791605,80.3825913 54.5492797,78.9272797 C54.0212926,78.6237323 53.6311556,78.2379871 53.3741109,77.7765105 C53.1240776,77.3278423 53,76.807422 53,76.219975 C53.0016277,71.3134748 53,66.4072234 53.0016277,61.5008475 C53.0018781,60.3092902 53.5088308,59.3925546 54.5506569,58.7935428 C57.0804125,57.3382313 65.5698993,52.5074625 67.265543,51.5142494 Z M68.9628562,58.4418605 C63.023727,58.4418605 58.2093023,63.1064768 58.2093023,68.8604037 C58.2093023,70.7481003 58.7276268,72.5183222 59.6335226,74.0452475 C61.4891521,77.1729955 64.9722266,79.2790698 68.9628562,79.2790698 C72.9608343,79.2790698 76.4493568,77.1645255 78.3023256,74.0275711 L73.6289166,71.4042154 C72.7106043,72.9820833 70.9655828,74.0484391 68.9628562,74.0484391 C66.9724193,74.0484391 65.2372803,72.9954633 64.3142801,71.4342899 C63.8506071,70.6509247 63.6071,69.7634379 63.6080615,68.8604037 C63.6080615,65.9952245 66.0055813,63.6724911 68.9628562,63.6724911 C70.9404965,63.6724911 72.6665131,64.7123323 73.5940745,66.2575478 L78.2744519,63.6463447 C76.4141346,60.5350457 72.9409426,58.4418605 68.9628562,58.4418605 Z M83.0246143,66.627907 L81.7931614,66.627907 L81.7931614,67.8681745 L80.5620884,67.8681745 L80.5620884,69.1083145 L81.7931614,69.1083145 L81.7931614,70.3488372 L83.0246143,70.3488372 L83.0246143,69.1083145 L84.255814,69.1083145 L84.255814,67.8681745 L83.0246143,67.8681745 L83.0246143,66.627907 Z M78.5321667,66.627907 L77.3009671,66.627907 L77.3009671,67.8681745 L76.0697674,67.8681745 L76.0697674,69.1083145 L77.3009671,69.1083145 L77.3009671,70.3488372 L78.5321667,70.3488372 L78.5321667,69.1083145 L79.7632397,69.1083145 L79.7632397,67.8681745 L78.5321667,67.8681745 L78.5321667,66.627907 Z" id="Path-2" fill="#1A1919" fill-rule="nonzero"></path>
    </g>
</svg>