<?xml version="1.0" encoding="UTF-8"?>
<svg width="140px" height="140px" viewBox="0 0 140 140" version="1.1" xmlns="http://www.w3.org/2000/svg" xmlns:xlink="http://www.w3.org/1999/xlink">
    <!-- Generator: Sketch 62 (91390) - https://sketch.com -->
    <title>c-cpp</title>
    <desc>Created with Sketch.</desc>
    <g id="c-cpp" stroke="none" stroke-width="1" fill="none" fill-rule="evenodd">
        <rect id="Rectangle" fill="#000000" x="0" y="0" width="140" height="140"></rect>
        <text id="STANDARDS" font-family="ArialMT, Arial" font-size="8" font-weight="normal" letter-spacing="2.35" fill="#FFFFFF">
            <tspan x="35.0519531" y="120">STANDARDS</tspan>
        </text>
        <text id="CODING" font-family="Arial-Black, Arial Black" font-size="8" font-weight="700" letter-spacing="2.35" fill="#FFFFFF">
            <tspan x="45.1746094" y="110">CODING</tspan>
        </text>
        <path d="M99.1597369,29.9069672 C101.169636,28.7292233 103.132943,28.6868947 105.157858,29.8479703 C112.668814,34.1551791 120.189486,38.4448423 127.702871,42.7476647 C128.613089,43.2711796 129.291667,43.9333041 129.744789,44.7232916 C130.206081,45.5266577 130.434188,46.4627118 130.434629,47.5220233 C130.435923,51.4208333 130.436633,57.0752261 130.437024,62.1118097 L130.4375,73.4773481 C130.4375,74.5136311 130.218226,75.4314817 129.777912,76.2227852 C129.32457,77.0360206 128.636496,77.7167873 127.7053,78.251926 C120.190811,82.5547484 112.669697,86.8441923 105.158521,91.1516204 C103.132943,92.3131347 101.169636,92.2710254 99.1588536,91.0926236 C96.168957,89.3404829 81.1943007,80.8212498 76.732421,78.2545578 C75.801225,77.7191998 75.1131513,77.0388718 74.6598088,76.2249784 C74.2188322,75.4336749 74,74.5158243 74,73.4797606 C74.0028707,64.8263042 74,56.1732865 74.0028707,47.5200494 C74.0033123,45.4185334 74.8974106,43.8017126 76.73485,42.7452522 C81.1965089,40.1785602 96.1691778,31.6586692 99.1597369,29.9069672 Z M102.15324,42.125 C91.6785653,42.125 83.1875,50.3518526 83.1875,60.4998918 C83.1875,63.8291691 84.1016543,66.9512597 85.6993573,69.6442549 C88.9720788,75.1605761 95.1150793,78.875 102.15324,78.875 C109.204362,78.875 115.356971,75.1456378 118.625,69.6130795 L110.38264,64.9863409 C108.763038,67.769182 105.685393,69.6498838 102.15324,69.6498838 C98.6427629,69.6498838 95.5825471,67.7927801 93.9546777,65.0393824 C93.1369107,63.6577831 92.7074439,62.0925478 92.7091397,60.4998918 C92.7091397,55.4466558 96.937578,51.3501162 102.15324,51.3501162 C105.641149,51.3501162 108.685276,53.1840548 110.32119,55.909308 L118.57584,51.3040025 C115.294851,45.8166919 109.16928,42.125 102.15324,42.125 Z M126.953568,56.5625 L124.781689,56.5625 L124.781689,58.749925 L122.61048,58.749925 L122.61048,60.937125 L124.781689,60.937125 L124.781689,63.125 L126.953568,63.125 L126.953568,60.937125 L129.125,60.937125 L129.125,58.749925 L126.953568,58.749925 L126.953568,56.5625 Z M119.030364,56.5625 L116.858932,56.5625 L116.858932,58.749925 L114.6875,58.749925 L114.6875,60.937125 L116.858932,60.937125 L116.858932,63.125 L119.030364,63.125 L119.030364,60.937125 L121.201573,60.937125 L121.201573,58.749925 L119.030364,58.749925 L119.030364,56.5625 Z" id="Path-2" fill="#FFFFFF" fill-rule="nonzero"></path>
        <path d="M35.9647002,29.9069672 C37.959019,28.7292233 39.9071061,28.6868947 41.9163243,29.8479703 C49.3690557,34.1551791 56.8314279,38.4448423 64.2865695,42.7476647 C65.1897317,43.2711796 65.8630498,43.9333041 66.312659,44.7232916 C66.7703751,45.5266577 66.9967134,46.4627118 66.9971516,47.5220233 C67,56.1754797 67,73.4773481 67,73.4773481 C67,74.5136311 66.782426,75.4314817 66.3455251,76.2227852 C65.8956969,77.0360206 65.2129571,77.7167873 64.2889797,78.251926 C56.8327425,82.5547484 49.3699322,86.8441923 41.9169816,91.1516204 C39.9071061,92.3131347 37.959019,92.2710254 35.9638237,91.0926236 C32.9971046,89.3404829 18.1385309,80.8212498 13.7112394,78.2545578 C12.787262,77.7191998 12.1045222,77.0388718 11.654694,76.2249784 C11.2171358,75.4336749 11,74.5158243 11,73.4797606 C11.0028484,64.8263042 11,56.1732865 11.0028484,47.5200494 C11.0032866,45.4185334 11.8904539,43.8017126 13.7136496,42.7452522 C18.140722,40.1785602 32.9973238,31.6586692 35.9647002,29.9069672 Z M38.7315955,42 C28.3862374,42 20,50.2828176 20,60.499891 C20,63.8518165 20.9028684,66.9951458 22.4808467,69.7064607 C25.7131642,75.2603079 31.7803252,79 38.7315955,79 C45.6956662,79 51.7723171,75.245268 55,69.6750732 L46.8593976,65.0168602 C45.259791,67.8186322 42.2201414,69.7121279 38.7315955,69.7121279 C35.2644572,69.7121279 32.2420218,67.8423908 30.6342495,65.0702626 C29.8265784,63.6792647 29.4024138,62.1033814 29.4040886,60.499891 C29.4040886,55.4122793 33.580324,51.2878721 38.7315955,51.2878721 C42.1764435,51.2878721 45.1829887,53.1342865 46.7987061,55.8780788 L54.9514468,51.2414447 C51.7109636,45.7168054 45.6610168,42 38.7315955,42 Z" id="Path-2" fill="#FFFFFF" fill-rule="nonzero"></path>
    </g>
</svg>