<?xml version="1.0" encoding="UTF-8"?>
<svg width="144px" height="18px" viewBox="0 0 144 18" version="1.1" xmlns="http://www.w3.org/2000/svg" xmlns:xlink="http://www.w3.org/1999/xlink">
    <!-- Generator: Sketch 49.3 (51167) - http://www.bohemiancoding.com/sketch -->
    <title>cast</title>
    <desc>Created with Sketch.</desc>
    <defs></defs>
    <g id="Page-1" stroke="none" stroke-width="1" fill="none" fill-rule="evenodd">
        <g id="MainScreen-Standards" transform="translate(-198.000000, -275.000000)" fill="#000000" fill-rule="nonzero">
            <g id="cast" transform="translate(198.000000, 275.000000)">
                <path d="M0,0 L1.07229405,0 L1.07229405,18 L0,18 L0,0 Z M14.3792951,17.9878966 L19.9000216,17.9878966 L19.9000216,0 L14.3792951,0 L14.3792951,17.9878966 Z M24.5748065,17.9878966 L36.1483589,17.9878966 L36.1483589,0 L24.5748065,0 L24.5748065,17.9878966 Z M42.31872,17.9188448 L60.906707,17.9188448 L60.906707,0 L42.31872,0 L42.31872,17.9188448 Z M6.33164108,18 L8.8595027,18 L8.8595027,0.0192413793 L6.33164108,0.0192413793 L6.33164108,18 Z M98.7846227,7.86537931 L97.5309665,10.3906552 L99.2479135,10.3906552 L98.8087524,7.86537931 L98.7846227,7.86537931 Z M144,0.0291724138 L144,17.9188448 L67.5774097,17.9188448 L67.5774097,0.0291724138 L144,0.0291724138 Z M85.5394249,5.60405172 C84.9666941,5.35174138 84.3807308,5.2047931 83.7159957,5.2047931 C82.5990227,5.2047931 81.3944043,5.68722414 80.484013,6.48744828 C79.6041341,7.26424138 79.0270443,8.30653448 78.8575135,9.39010345 C78.6654097,10.5655345 78.9060843,11.5982069 79.6553514,12.3871034 C80.358227,13.131931 81.3475459,13.554 82.4512865,13.554 C83.0971849,13.554 83.6152735,13.3966552 84.3344951,13.1846897 L84.7267978,10.7132586 C84.210733,11.228431 83.4846616,11.5555345 82.8130768,11.5555345 C81.5264173,11.5555345 80.8054832,10.6490172 81.0022573,9.39615517 C81.1979416,8.16874138 82.2054746,7.19937931 83.4706508,7.19937931 C84.1749276,7.19937931 84.8130422,7.506 85.1449427,8.07424138 L85.5394249,5.60405172 Z M102.057704,13.3451379 L100.325812,5.41474138 L98.0688259,5.41474138 L93.7486703,13.3440517 L95.9440086,13.3440517 L96.7155373,11.9651897 L99.5597319,11.9651897 L99.8566054,13.3440517 L102.058015,13.3440517 L102.057704,13.3451379 Z M114.607031,7.59212069 C114.677397,7.1505 115.218214,6.92782759 115.596195,6.92782759 C116.10432,6.92782759 116.553911,7.1387069 116.883632,7.4547931 L117.958106,5.85512069 C117.314854,5.45586207 116.373172,5.2037069 115.573777,5.2037069 C113.984173,5.2037069 112.665756,6.25562069 112.412471,7.86382759 C112.168528,9.39739655 112.970569,9.73722414 114.209747,10.1007931 C114.62976,10.2317586 115.410474,10.4275862 115.317535,11.006069 C115.229578,11.5653103 114.674906,11.8098621 114.190443,11.8098621 C113.483676,11.8098621 112.932584,11.4407069 112.485172,10.9869828 L111.33971,12.6463966 C112.062201,13.2160345 112.985046,13.5527586 113.988532,13.5527586 C114.787615,13.5527586 115.654884,13.3302414 116.360251,12.8057586 C117.076982,12.2662241 117.396117,11.4582414 117.523459,10.6699655 C117.725838,9.39010345 116.959135,8.829 115.90848,8.50344828 L115.402534,8.34362069 C115.066275,8.235 114.533864,8.05546552 114.607031,7.59212069 Z M133.090093,5.41474138 L127.608908,5.41474138 L127.331183,7.16074138 L129.040502,7.16074138 L128.059278,13.3440517 L130.120268,13.3440517 L131.105384,7.16074138 L132.812523,7.16074138 L133.090093,5.41474138 Z" id="Shape"></path>
            </g>
        </g>
    </g>
</svg>
