<?xml version="1.0" encoding="UTF-8" standalone="no"?>
<!DOCTYPE svg PUBLIC "-//W3C//DTD SVG 1.1//EN" "http://www.w3.org/Graphics/SVG/1.1/DTD/svg11.dtd">
<svg width="100%" height="100%" viewBox="0 0 2084 397" version="1.1" xmlns="http://www.w3.org/2000/svg" xmlns:xlink="http://www.w3.org/1999/xlink" xml:space="preserve" xmlns:serif="http://www.serif.com/" style="fill-rule:evenodd;clip-rule:evenodd;stroke-linejoin:round;stroke-miterlimit:1.41421;">
    <g transform="matrix(4.16667,0,0,4.16667,0,-3.64583)">
        <path d="M352.352,27.231C351.203,29.571 350.055,31.912 348.813,34.442C350.729,34.442 352.296,34.442 354.036,34.442C353.601,31.928 353.196,29.595 352.792,27.262C352.646,27.252 352.498,27.242 352.352,27.231ZM0.327,59.081C1.42,59.081 2.514,59.081 3.706,59.081C3.706,39.392 3.706,20.297 3.706,0.875C2.583,0.875 1.46,0.875 0.327,0.875C0.327,20.386 0.327,39.57 0.327,59.081ZM23.557,58.958C25.266,58.958 26.632,58.958 28.15,58.958C28.15,57.905 28.149,57.004 28.15,56.104C28.168,37.585 28.185,19.394 28.203,0.875C26.654,0.875 25.105,0.875 23.557,0.875C23.557,20.349 23.557,39.495 23.557,58.958ZM58.613,0.875C55.938,0.875 53.263,0.875 50.588,0.875C50.588,20.345 50.588,39.487 50.588,58.957C53.5,58.957 56.063,58.957 58.665,58.957C58.703,58.316 58.757,57.831 58.757,57.345C58.762,38.898 58.762,20.778 58.755,2.332C58.755,1.846 58.663,1.361 58.613,0.875ZM77.054,2.332C77.047,20.779 77.046,38.898 77.055,57.346C77.055,57.88 77.155,58.414 77.21,58.957C83.15,58.957 88.94,58.957 94.879,58.957C94.879,57.969 94.878,57.139 94.879,56.308C94.898,37.721 94.917,19.462 94.936,0.875C89.023,0.875 83.11,0.875 77.197,0.875C77.147,1.361 77.054,1.846 77.054,2.332ZM147.732,0.875C135.202,0.875 122.672,0.875 110.142,0.875C110.142,20.348 110.142,39.493 110.142,58.959C122.907,58.959 135.323,58.959 147.782,58.959C147.821,58.324 147.876,57.839 147.876,57.354C147.881,38.904 147.882,20.782 147.875,2.332C147.874,1.846 147.782,1.361 147.732,0.875ZM168.005,58.895C188.454,58.895 208.53,58.895 228.77,58.895C228.77,57.938 228.769,57.109 228.77,56.28C228.788,37.703 228.807,19.453 228.826,0.875C208.553,0.875 188.279,0.875 168.005,0.875C168.005,20.331 168.005,39.457 168.005,58.895ZM463.729,24.302C463.729,24.302 459.895,24.302 458.267,24.302C457.197,30.923 456.135,37.501 455.055,44.184C452.826,44.184 450.676,44.184 448.216,44.184C449.241,37.612 450.257,31.103 451.315,24.312C449.474,24.312 447.753,24.312 445.787,24.312C446.086,22.445 446.911,18.298 446.911,18.298L464.648,18.298C464.409,20.14 463.729,24.302 463.729,24.302ZM406.552,27.797C408.119,28.403 409.753,28.879 411.241,29.639C413.318,30.7 414.129,32.52 413.972,34.864C413.284,45.106 401.901,47.14 395.271,43.234C394.74,42.922 394.263,42.521 393.586,42.037C394.869,40.187 396.082,38.44 397.243,36.767C398.616,37.556 399.561,38.324 400.923,38.788C402.489,39.322 403.984,39.216 405.159,38.545C406.121,37.996 406.436,37.17 406.461,36.415C406.488,35.682 405.679,34.965 405.031,34.63C403.864,34.028 402.536,33.738 401.282,33.3C397.513,31.986 396.21,29.841 397.059,25.774C398.795,19.382 404.57,16.282 411.557,18.253C412.802,18.604 413.977,19.202 415.412,19.777C414.133,21.682 413.054,23.29 412.144,24.645C409.803,23.974 409.162,23.57 407.097,23.672C405.996,23.726 404.902,24.738 404.572,25.615C404.065,26.966 405.501,27.391 406.552,27.797ZM356.308,44.199C356.197,44.079 354.907,39.271 354.907,39.271L345.96,39.271L343.547,44.305L336.174,44.305C338.234,40.521 340.065,37.16 341.896,33.798C344.44,29.126 347.636,23.048 350.127,18.348C351.753,18.348 357.583,18.348 357.583,18.348C357.583,18.348 358.77,22.843 358.956,23.784C360.266,29.939 361.635,36.082 362.971,42.232C363.103,42.84 363.176,43.461 363.297,44.199C360.89,44.199 358.591,44.199 356.308,44.199ZM308.2,26.561C305.517,23.745 302.64,23.759 299.612,25.025C296.583,26.292 295,28.757 294.685,32.032C294.181,37.247 298.558,39.223 302.521,38.096C303.844,37.72 305.054,36.95 306.734,36.165C306.331,38.732 305.967,41.137 305.552,43.532C305.519,43.725 305.161,43.914 304.917,44.01C296.959,47.143 289.149,43.173 287.605,36.452C286.006,29.482 290.52,21.853 297.838,18.866C303.912,16.66 309.335,19.658 309.335,19.658L308.2,26.561ZM250.789,0.875C250.808,19.397 250.827,37.918 250.846,56.44C250.846,57.263 250.846,57.973 250.846,58.895C334.021,58.895 416.946,58.895 500,58.895L500,0.875L250.789,0.875Z" style="fill:rgb(3,4,4);"/>
    </g>
    <g transform="matrix(4.16667,0,0,4.16667,0,-3.64583)">
        <path d="M7.191,92.256C5.861,92.256 4.588,92.031 3.374,91.58C2.158,91.128 1.034,90.434 0,89.498L1.822,87.332C2.66,88.054 3.505,88.608 4.359,88.994C5.212,89.379 6.181,89.573 7.265,89.573C8.201,89.573 8.943,89.375 9.494,88.981C10.044,88.587 10.319,88.062 10.319,87.405L10.319,87.356C10.319,87.044 10.266,86.769 10.158,86.531C10.051,86.292 9.854,86.067 9.566,85.853C9.277,85.64 8.882,85.443 8.38,85.262C7.878,85.082 7.224,84.901 6.417,84.72C5.496,84.507 4.677,84.265 3.961,83.994C3.245,83.723 2.644,83.395 2.158,83.009C1.673,82.623 1.302,82.151 1.047,81.592C0.792,81.035 0.665,80.361 0.665,79.573L0.665,79.524C0.665,78.785 0.811,78.108 1.104,77.492C1.397,76.876 1.8,76.351 2.313,75.915C2.826,75.481 3.443,75.14 4.164,74.894C4.885,74.648 5.672,74.524 6.526,74.524C7.79,74.524 8.927,74.709 9.937,75.079C10.947,75.448 11.895,75.986 12.782,76.692L11.156,78.982C10.368,78.408 9.588,77.968 8.816,77.665C8.044,77.361 7.265,77.208 6.477,77.208C5.59,77.208 4.901,77.406 4.408,77.8C3.916,78.194 3.669,78.678 3.669,79.253L3.669,79.302C3.669,79.63 3.727,79.922 3.842,80.176C3.957,80.431 4.167,80.661 4.472,80.866C4.776,81.072 5.196,81.264 5.73,81.445C6.266,81.625 6.945,81.814 7.768,82.011C8.673,82.242 9.476,82.496 10.175,82.775C10.875,83.054 11.455,83.395 11.916,83.797C12.377,84.2 12.727,84.667 12.965,85.201C13.204,85.735 13.324,86.354 13.324,87.06L13.324,87.11C13.324,87.914 13.173,88.636 12.872,89.277C12.57,89.917 12.151,90.459 11.613,90.902C11.076,91.345 10.431,91.682 9.677,91.912C8.922,92.142 8.094,92.256 7.191,92.256Z" style="fill:rgb(3,4,4);fill-rule:nonzero;"/>
    </g>
    <g transform="matrix(4.16667,0,0,4.16667,0,-3.64583)">
        <path d="M22.781,89.72C23.384,89.72 23.927,89.609 24.408,89.387C24.89,89.165 25.302,88.867 25.645,88.489C25.987,88.111 26.248,87.672 26.427,87.171C26.607,86.67 26.697,86.141 26.697,85.582L26.697,85.533C26.697,84.958 26.599,84.416 26.403,83.908C26.208,83.399 25.934,82.956 25.583,82.578C25.232,82.201 24.816,81.901 24.335,81.679C23.854,81.457 23.319,81.346 22.732,81.346C22.145,81.346 21.61,81.457 21.128,81.679C20.647,81.901 20.235,82.196 19.893,82.566C19.55,82.935 19.289,83.374 19.109,83.883C18.93,84.392 18.84,84.926 18.84,85.484L18.84,85.533C18.84,86.108 18.938,86.646 19.134,87.146C19.33,87.648 19.603,88.09 19.954,88.476C20.305,88.862 20.721,89.165 21.202,89.387C21.684,89.609 22.21,89.72 22.781,89.72ZM22.731,92.306C21.747,92.306 20.831,92.129 19.986,91.777C19.14,91.423 18.409,90.944 17.793,90.335C17.178,89.728 16.698,89.014 16.353,88.193C16.008,87.373 15.835,86.502 15.835,85.582L15.835,85.533C15.835,84.597 16.012,83.719 16.365,82.898C16.718,82.077 17.203,81.359 17.818,80.743C18.434,80.127 19.165,79.639 20.01,79.278C20.856,78.916 21.779,78.736 22.781,78.736C23.782,78.736 24.706,78.913 25.552,79.265C26.397,79.619 27.128,80.103 27.744,80.718C28.359,81.334 28.839,82.048 29.185,82.861C29.529,83.673 29.702,84.548 29.702,85.484L29.702,85.533C29.702,86.453 29.525,87.323 29.172,88.144C28.819,88.965 28.335,89.683 27.719,90.298C27.103,90.915 26.368,91.403 25.515,91.764C24.661,92.125 23.733,92.306 22.731,92.306Z" style="fill:rgb(3,4,4);fill-rule:nonzero;"/>
    </g>
    <g transform="matrix(4.16667,0,0,4.16667,0,-3.64583)">
        <path d="M33.396,81.568L31.746,81.568L31.746,79.081L33.396,79.081L33.396,78.145C33.396,76.7 33.752,75.624 34.464,74.918C35.159,74.229 36.141,73.884 37.41,73.884C37.936,73.884 38.387,73.916 38.765,73.983C39.142,74.048 39.495,74.13 39.824,74.229L39.824,76.741C39.528,76.642 39.245,76.565 38.974,76.506C38.703,76.45 38.403,76.42 38.075,76.42C36.926,76.42 36.351,77.078 36.351,78.391L36.351,79.105L39.799,79.105L39.799,81.568L36.4,81.568L36.4,92.01L33.396,92.01L33.396,81.568Z" style="fill:rgb(3,4,4);fill-rule:nonzero;"/>
    </g>
    <g transform="matrix(4.16667,0,0,4.16667,0,-3.64583)">
        <path d="M46.375,92.232C45.833,92.232 45.33,92.166 44.866,92.036C44.402,91.904 44.002,91.69 43.662,91.395C43.322,91.099 43.062,90.709 42.88,90.225C42.697,89.741 42.606,89.137 42.606,88.415L42.606,81.568L40.957,81.568L40.957,79.006L42.606,79.006L42.606,75.435L45.611,75.435L45.611,79.006L49.108,79.006L49.108,81.568L45.611,81.568L45.611,87.947C45.611,88.522 45.751,88.936 46.03,89.191C46.309,89.445 46.703,89.573 47.212,89.573C47.853,89.573 48.468,89.424 49.059,89.129L49.059,91.567C48.682,91.781 48.279,91.945 47.853,92.06C47.425,92.174 46.933,92.232 46.375,92.232Z" style="fill:rgb(3,4,4);fill-rule:nonzero;"/>
    </g>
    <g transform="matrix(4.16667,0,0,4.16667,0,-3.64583)">
        <path d="M51.005,79.006L54.059,79.006L56.669,87.922L59.551,78.957L62.087,78.957L64.994,87.922L67.653,79.006L70.634,79.006L66.373,92.109L63.713,92.109L60.807,83.218L57.876,92.109L55.216,92.109L51.005,79.006Z" style="fill:rgb(3,4,4);fill-rule:nonzero;"/>
    </g>
    <g transform="matrix(4.16667,0,0,4.16667,0,-3.64583)">
        <path d="M81.322,86.568C80.944,86.419 80.497,86.296 79.98,86.198C79.463,86.1 78.917,86.05 78.342,86.05C77.406,86.05 76.676,86.231 76.15,86.592C75.625,86.954 75.362,87.446 75.362,88.07L75.362,88.12C75.362,88.744 75.604,89.219 76.089,89.547C76.573,89.876 77.168,90.04 77.874,90.04C78.367,90.04 78.822,89.975 79.241,89.843C79.66,89.712 80.025,89.527 80.337,89.29C80.649,89.051 80.891,88.764 81.064,88.427C81.236,88.09 81.322,87.717 81.322,87.306L81.322,86.568ZM81.249,92.01L81.249,90.41C80.805,90.935 80.239,91.378 79.549,91.74C78.859,92.101 78.022,92.282 77.037,92.282C76.413,92.282 75.822,92.195 75.264,92.023C74.705,91.85 74.217,91.596 73.798,91.259C73.379,90.923 73.043,90.504 72.789,90.003C72.534,89.502 72.407,88.923 72.407,88.267L72.407,88.218C72.407,87.496 72.538,86.868 72.801,86.333C73.063,85.8 73.429,85.357 73.897,85.003C74.365,84.651 74.923,84.388 75.571,84.215C76.22,84.043 76.922,83.957 77.677,83.957C78.465,83.957 79.134,84.006 79.685,84.105C80.234,84.204 80.764,84.334 81.273,84.498L81.273,84.252C81.273,83.35 80.998,82.66 80.448,82.184C79.897,81.707 79.106,81.469 78.071,81.469C77.333,81.469 76.676,81.543 76.101,81.691C75.526,81.839 74.943,82.036 74.353,82.282L73.54,79.893C74.262,79.565 75.001,79.302 75.756,79.105C76.511,78.908 77.422,78.81 78.49,78.81C80.427,78.81 81.864,79.29 82.8,80.25C83.736,81.21 84.204,82.562 84.204,84.302L84.204,92.01L81.249,92.01Z" style="fill:rgb(3,4,4);fill-rule:nonzero;"/>
    </g>
    <g transform="matrix(4.16667,0,0,4.16667,0,-3.64583)">
        <path d="M87.75,79.006L90.755,79.006L90.755,81.937C91.165,80.953 91.748,80.165 92.503,79.573C93.258,78.982 94.211,78.711 95.36,78.76L95.36,81.913L95.188,81.913C94.531,81.913 93.932,82.02 93.39,82.233C92.848,82.447 92.38,82.767 91.986,83.194C91.592,83.621 91.288,84.159 91.075,84.807C90.861,85.456 90.755,86.207 90.755,87.06L90.755,92.01L87.75,92.01L87.75,79.006Z" style="fill:rgb(3,4,4);fill-rule:nonzero;"/>
    </g>
    <g transform="matrix(4.16667,0,0,4.16667,0,-3.64583)">
        <path d="M106.837,84.597C106.788,84.122 106.681,83.673 106.518,83.255C106.353,82.836 106.131,82.475 105.853,82.171C105.573,81.868 105.241,81.625 104.855,81.445C104.469,81.264 104.03,81.174 103.537,81.174C102.618,81.174 101.858,81.491 101.259,82.123C100.66,82.754 100.294,83.58 100.163,84.597L106.837,84.597ZM103.882,92.306C102.946,92.306 102.072,92.142 101.259,91.814C100.446,91.485 99.74,91.025 99.141,90.434C98.541,89.843 98.069,89.133 97.725,88.304C97.38,87.475 97.207,86.559 97.207,85.558L97.207,85.508C97.207,84.573 97.363,83.695 97.675,82.873C97.987,82.052 98.426,81.334 98.993,80.718C99.56,80.103 100.229,79.619 101,79.265C101.772,78.913 102.626,78.736 103.562,78.736C104.596,78.736 105.503,78.924 106.283,79.302C107.063,79.68 107.712,80.189 108.229,80.83C108.746,81.469 109.136,82.212 109.399,83.058C109.662,83.904 109.793,84.794 109.793,85.73C109.793,85.862 109.789,85.998 109.781,86.136C109.772,86.276 109.76,86.419 109.744,86.568L100.188,86.568C100.352,87.635 100.775,88.452 101.456,89.018C102.137,89.584 102.962,89.868 103.931,89.868C104.67,89.868 105.311,89.737 105.853,89.474C106.394,89.211 106.928,88.826 107.453,88.316L109.202,89.868C108.578,90.607 107.835,91.198 106.973,91.641C106.111,92.084 105.081,92.306 103.882,92.306Z" style="fill:rgb(3,4,4);fill-rule:nonzero;"/>
    </g>
    <g transform="matrix(4.16667,0,0,4.16667,0,-3.64583)">
        <rect x="120.703" y="74.771" width="3.005" height="17.239" style="fill:rgb(3,4,4);fill-rule:nonzero;"/>
    </g>
    <g transform="matrix(4.16667,0,0,4.16667,0,-3.64583)">
        <path d="M127.993,79.006L130.996,79.006L130.996,81.047C131.21,80.732 131.443,80.438 131.697,80.165C131.951,79.892 132.246,79.647 132.581,79.432C132.917,79.216 133.285,79.046 133.687,78.922C134.087,78.798 134.542,78.736 135.049,78.736C136.523,78.736 137.661,79.188 138.463,80.09C139.265,80.994 139.667,82.208 139.667,83.736L139.667,92.01L136.662,92.01L136.662,84.639C136.662,83.623 136.421,82.841 135.941,82.292C135.461,81.744 134.781,81.469 133.902,81.469C133.04,81.469 132.34,81.752 131.803,82.317C131.266,82.882 130.996,83.673 130.996,84.688L130.996,92.01L127.993,92.01L127.993,79.006Z" style="fill:rgb(3,4,4);fill-rule:nonzero;"/>
    </g>
    <g transform="matrix(4.16667,0,0,4.16667,0,-3.64583)">
        <path d="M147.646,92.232C147.104,92.232 146.601,92.166 146.138,92.036C145.674,91.904 145.272,91.69 144.933,91.395C144.594,91.099 144.333,90.709 144.151,90.225C143.969,89.741 143.878,89.137 143.878,88.415L143.878,81.568L142.228,81.568L142.228,79.006L143.878,79.006L143.878,75.435L146.882,75.435L146.882,79.006L150.38,79.006L150.38,81.568L146.882,81.568L146.882,87.947C146.882,88.522 147.022,88.936 147.301,89.191C147.58,89.445 147.974,89.573 148.483,89.573C149.124,89.573 149.739,89.424 150.331,89.129L150.331,91.567C149.953,91.781 149.55,91.945 149.124,92.06C148.697,92.174 148.204,92.232 147.646,92.232Z" style="fill:rgb(3,4,4);fill-rule:nonzero;"/>
    </g>
    <g transform="matrix(4.16667,0,0,4.16667,0,-3.64583)">
        <path d="M162.275,84.597C162.226,84.122 162.119,83.673 161.955,83.255C161.791,82.836 161.569,82.475 161.29,82.171C161.01,81.868 160.678,81.625 160.292,81.445C159.906,81.264 159.467,81.174 158.975,81.174C158.055,81.174 157.296,81.491 156.697,82.123C156.097,82.754 155.732,83.58 155.601,84.597L162.275,84.597ZM159.319,92.306C158.384,92.306 157.509,92.142 156.697,91.814C155.884,91.485 155.178,91.025 154.579,90.434C153.979,89.843 153.507,89.133 153.163,88.304C152.818,87.475 152.645,86.559 152.645,85.558L152.645,85.508C152.645,84.573 152.801,83.695 153.113,82.873C153.425,82.052 153.864,81.334 154.431,80.718C154.997,80.103 155.666,79.619 156.438,79.265C157.209,78.913 158.063,78.736 159,78.736C160.034,78.736 160.941,78.924 161.721,79.302C162.5,79.68 163.149,80.189 163.667,80.83C164.184,81.469 164.574,82.212 164.836,83.058C165.099,83.904 165.23,84.794 165.23,85.73C165.23,85.862 165.226,85.998 165.218,86.136C165.209,86.276 165.197,86.419 165.181,86.568L155.625,86.568C155.789,87.635 156.212,88.452 156.894,89.018C157.575,89.584 158.4,89.868 159.369,89.868C160.108,89.868 160.748,89.737 161.29,89.474C161.832,89.211 162.365,88.826 162.891,88.316L164.639,89.868C164.015,90.607 163.272,91.198 162.411,91.641C161.548,92.084 160.518,92.306 159.319,92.306Z" style="fill:rgb(3,4,4);fill-rule:nonzero;"/>
    </g>
    <g transform="matrix(4.16667,0,0,4.16667,0,-3.64583)">
        <rect x="168.407" y="74.032" width="3.005" height="17.978" style="fill:rgb(3,4,4);fill-rule:nonzero;"/>
    </g>
    <g transform="matrix(4.16667,0,0,4.16667,0,-3.64583)">
        <rect x="175.451" y="74.032" width="3.005" height="17.978" style="fill:rgb(3,4,4);fill-rule:nonzero;"/>
    </g>
    <g transform="matrix(4.16667,0,0,4.16667,0,-3.64583)">
        <path d="M182.495,79.006L185.499,79.006L185.499,92.01L182.495,92.01L182.495,79.006ZM182.372,74.179L185.598,74.179L185.598,77.012L182.372,77.012L182.372,74.179Z" style="fill:rgb(3,4,4);fill-rule:nonzero;"/>
    </g>
    <g transform="matrix(4.16667,0,0,4.16667,0,-3.64583)">
        <path d="M195.4,88.464C195.909,88.464 196.397,88.377 196.865,88.206C197.333,88.033 197.74,87.787 198.084,87.466C198.429,87.146 198.704,86.769 198.909,86.333C199.114,85.899 199.217,85.418 199.217,84.893L199.217,84.843C199.217,84.302 199.114,83.813 198.909,83.378C198.704,82.943 198.429,82.566 198.084,82.246C197.74,81.925 197.333,81.679 196.865,81.506C196.397,81.334 195.909,81.248 195.4,81.248C194.874,81.248 194.39,81.334 193.947,81.506C193.503,81.679 193.113,81.921 192.777,82.233C192.44,82.545 192.177,82.918 191.989,83.354C191.8,83.789 191.706,84.277 191.706,84.819L191.706,84.869C191.706,85.41 191.804,85.899 192.001,86.333C192.198,86.769 192.46,87.146 192.789,87.466C193.117,87.787 193.507,88.033 193.959,88.206C194.411,88.377 194.891,88.464 195.4,88.464ZM195.153,96C192.986,96 191.049,95.488 189.341,94.464L190.45,92.232C191.139,92.659 191.861,92.996 192.617,93.242C193.372,93.488 194.193,93.612 195.08,93.612C196.41,93.612 197.427,93.273 198.134,92.596C198.839,91.92 199.193,90.922 199.193,89.602L199.193,88.587C198.651,89.293 198.019,89.868 197.296,90.311C196.574,90.754 195.679,90.976 194.612,90.976C193.84,90.976 193.101,90.836 192.395,90.557C191.689,90.279 191.061,89.88 190.511,89.363C189.961,88.846 189.521,88.209 189.193,87.455C188.865,86.7 188.701,85.845 188.701,84.893L188.701,84.843C188.701,83.891 188.865,83.034 189.193,82.27C189.521,81.506 189.961,80.866 190.511,80.349C191.061,79.832 191.693,79.434 192.408,79.155C193.122,78.875 193.856,78.736 194.612,78.736C195.711,78.736 196.619,78.954 197.333,79.388C198.047,79.824 198.659,80.345 199.168,80.953L199.168,79.006L202.148,79.006L202.148,89.351C202.148,91.518 201.598,93.152 200.498,94.251C199.907,94.842 199.164,95.282 198.269,95.569C197.374,95.856 196.335,96 195.153,96Z" style="fill:rgb(3,4,4);fill-rule:nonzero;"/>
    </g>
    <g transform="matrix(4.16667,0,0,4.16667,0,-3.64583)">
        <path d="M214.782,84.597C214.733,84.122 214.626,83.673 214.462,83.255C214.298,82.836 214.076,82.475 213.797,82.171C213.518,81.868 213.186,81.625 212.8,81.445C212.414,81.264 211.975,81.174 211.482,81.174C210.563,81.174 209.803,81.491 209.204,82.123C208.604,82.754 208.239,83.58 208.108,84.597L214.782,84.597ZM211.827,92.306C210.891,92.306 210.017,92.142 209.204,91.814C208.391,91.485 207.685,91.025 207.086,90.434C206.486,89.843 206.015,89.133 205.67,88.304C205.325,87.475 205.153,86.559 205.153,85.558L205.153,85.508C205.153,84.573 205.309,83.695 205.621,82.873C205.932,82.052 206.372,81.334 206.938,80.718C207.505,80.103 208.173,79.619 208.945,79.265C209.717,78.913 210.571,78.736 211.507,78.736C212.541,78.736 213.448,78.924 214.228,79.302C215.008,79.68 215.657,80.189 216.174,80.83C216.691,81.469 217.081,82.212 217.344,83.058C217.606,83.904 217.738,84.794 217.738,85.73C217.738,85.862 217.733,85.998 217.726,86.136C217.717,86.276 217.705,86.419 217.688,86.568L208.133,86.568C208.297,87.635 208.72,88.452 209.401,89.018C210.082,89.584 210.907,89.868 211.876,89.868C212.615,89.868 213.255,89.737 213.797,89.474C214.339,89.211 214.873,88.826 215.398,88.316L217.147,89.868C216.522,90.607 215.78,91.198 214.918,91.641C214.056,92.084 213.025,92.306 211.827,92.306Z" style="fill:rgb(3,4,4);fill-rule:nonzero;"/>
    </g>
    <g transform="matrix(4.16667,0,0,4.16667,0,-3.64583)">
        <path d="M220.742,79.006L223.747,79.006L223.747,81.047C223.96,80.732 224.193,80.438 224.447,80.165C224.701,79.892 224.995,79.647 225.331,79.432C225.667,79.216 226.035,79.046 226.436,78.922C226.837,78.798 227.292,78.736 227.799,78.736C229.272,78.736 230.411,79.188 231.213,80.09C232.015,80.994 232.416,82.208 232.416,83.736L232.416,92.01L229.412,92.01L229.412,84.639C229.412,83.623 229.171,82.841 228.691,82.292C228.211,81.744 227.531,81.469 226.652,81.469C225.79,81.469 225.09,81.752 224.553,82.317C224.016,82.882 223.747,83.673 223.747,84.688L223.747,92.01L220.742,92.01L220.742,79.006Z" style="fill:rgb(3,4,4);fill-rule:nonzero;"/>
    </g>
    <g transform="matrix(4.16667,0,0,4.16667,0,-3.64583)">
        <path d="M242.046,92.306C241.077,92.306 240.182,92.129 239.36,91.777C238.539,91.423 237.826,90.944 237.222,90.335C236.618,89.728 236.146,89.014 235.807,88.193C235.467,87.373 235.297,86.502 235.297,85.582L235.297,85.533C235.297,84.614 235.467,83.74 235.807,82.911C236.146,82.082 236.618,81.359 237.222,80.743C237.826,80.127 238.543,79.639 239.373,79.278C240.203,78.916 241.102,78.736 242.07,78.736C243.302,78.736 244.324,78.941 245.137,79.351C245.949,79.762 246.66,80.304 247.267,80.977L245.42,82.972C244.96,82.496 244.472,82.106 243.955,81.802C243.438,81.498 242.801,81.346 242.046,81.346C241.504,81.346 241.003,81.457 240.543,81.679C240.083,81.901 239.689,82.196 239.361,82.566C239.033,82.935 238.774,83.374 238.585,83.883C238.396,84.392 238.302,84.926 238.302,85.484L238.302,85.533C238.302,86.108 238.396,86.65 238.585,87.159C238.774,87.667 239.041,88.111 239.386,88.489C239.731,88.867 240.141,89.165 240.617,89.387C241.093,89.609 241.619,89.72 242.194,89.72C242.899,89.72 243.519,89.569 244.053,89.264C244.586,88.96 245.091,88.571 245.568,88.094L247.366,89.868C246.725,90.59 245.995,91.177 245.174,91.628C244.353,92.081 243.31,92.306 242.046,92.306Z" style="fill:rgb(3,4,4);fill-rule:nonzero;"/>
    </g>
    <g transform="matrix(4.16667,0,0,4.16667,0,-3.64583)">
        <path d="M258.989,84.597C258.941,84.122 258.834,83.673 258.67,83.255C258.506,82.836 258.284,82.475 258.005,82.171C257.726,81.868 257.394,81.625 257.008,81.445C256.622,81.264 256.183,81.174 255.69,81.174C254.771,81.174 254.011,81.491 253.412,82.123C252.813,82.754 252.447,83.58 252.315,84.597L258.989,84.597ZM256.035,92.306C255.099,92.306 254.225,92.142 253.412,91.814C252.599,91.485 251.893,91.025 251.294,90.434C250.694,89.843 250.222,89.133 249.877,88.304C249.533,87.475 249.36,86.559 249.36,85.558L249.36,85.508C249.36,84.573 249.516,83.695 249.829,82.873C250.14,82.052 250.58,81.334 251.146,80.718C251.713,80.103 252.381,79.619 253.153,79.265C253.925,78.913 254.778,78.736 255.715,78.736C256.749,78.736 257.656,78.924 258.437,79.302C259.216,79.68 259.864,80.189 260.381,80.83C260.898,81.469 261.289,82.212 261.552,83.058C261.814,83.904 261.945,84.794 261.945,85.73C261.945,85.862 261.941,85.998 261.933,86.136C261.924,86.276 261.911,86.419 261.896,86.568L252.341,86.568C252.505,87.635 252.928,88.452 253.608,89.018C254.29,89.584 255.115,89.868 256.084,89.868C256.823,89.868 257.463,89.737 258.005,89.474C258.547,89.211 259.079,88.826 259.605,88.316L261.354,89.868C260.73,90.607 259.987,91.198 259.126,91.641C258.264,92.084 257.233,92.306 256.035,92.306Z" style="fill:rgb(3,4,4);fill-rule:nonzero;"/>
    </g>
    <g transform="matrix(4.16667,0,0,4.16667,0,-3.64583)">
        <path d="M273.003,81.568L271.354,81.568L271.354,79.081L273.003,79.081L273.003,78.145C273.003,76.7 273.359,75.624 274.071,74.918C274.767,74.229 275.749,73.884 277.018,73.884C277.543,73.884 277.994,73.916 278.372,73.983C278.75,74.048 279.103,74.13 279.432,74.229L279.432,76.741C279.136,76.642 278.853,76.565 278.582,76.506C278.311,76.45 278.011,76.42 277.683,76.42C276.533,76.42 275.959,77.078 275.959,78.391L275.959,79.105L279.406,79.105L279.406,81.568L276.008,81.568L276.008,92.01L273.003,92.01L273.003,81.568Z" style="fill:rgb(3,4,4);fill-rule:nonzero;"/>
    </g>
    <g transform="matrix(4.16667,0,0,4.16667,0,-3.64583)">
        <path d="M287.829,89.72C288.433,89.72 288.976,89.609 289.457,89.387C289.938,89.165 290.351,88.867 290.693,88.489C291.035,88.111 291.297,87.672 291.476,87.171C291.655,86.67 291.745,86.141 291.745,85.582L291.745,85.533C291.745,84.958 291.647,84.416 291.451,83.908C291.256,83.399 290.982,82.956 290.632,82.578C290.28,82.201 289.864,81.901 289.383,81.679C288.902,81.457 288.368,81.346 287.78,81.346C287.192,81.346 286.658,81.457 286.177,81.679C285.695,81.901 285.283,82.196 284.941,82.566C284.599,82.935 284.337,83.374 284.158,83.883C283.979,84.392 283.889,84.926 283.889,85.484L283.889,85.533C283.889,86.108 283.986,86.646 284.183,87.146C284.378,87.648 284.651,88.09 285.002,88.476C285.353,88.862 285.77,89.165 286.25,89.387C286.731,89.609 287.258,89.72 287.829,89.72ZM287.78,92.306C286.795,92.306 285.88,92.129 285.034,91.777C284.188,91.423 283.458,90.944 282.842,90.335C282.227,89.728 281.746,89.014 281.401,88.193C281.057,87.373 280.884,86.502 280.884,85.582L280.884,85.533C280.884,84.597 281.061,83.719 281.414,82.898C281.767,82.077 282.251,81.359 282.867,80.743C283.482,80.127 284.213,79.639 285.059,79.278C285.904,78.916 286.828,78.736 287.829,78.736C288.831,78.736 289.754,78.913 290.601,79.265C291.445,79.619 292.177,80.103 292.792,80.718C293.407,81.334 293.888,82.048 294.232,82.861C294.577,83.673 294.75,84.548 294.75,85.484L294.75,85.533C294.75,86.453 294.573,87.323 294.221,88.144C293.867,88.965 293.383,89.683 292.768,90.298C292.151,90.915 291.417,91.403 290.563,91.764C289.709,92.125 288.781,92.306 287.78,92.306Z" style="fill:rgb(3,4,4);fill-rule:nonzero;"/>
    </g>
    <g transform="matrix(4.16667,0,0,4.16667,0,-3.64583)">
        <path d="M297.779,79.006L300.784,79.006L300.784,81.937C301.194,80.953 301.777,80.165 302.533,79.573C303.288,78.982 304.24,78.711 305.39,78.76L305.39,81.913L305.217,81.913C304.561,81.913 303.961,82.02 303.419,82.233C302.878,82.447 302.409,82.767 302.016,83.194C301.621,83.621 301.317,84.159 301.104,84.807C300.891,85.456 300.784,86.207 300.784,87.06L300.784,92.01L297.779,92.01L297.779,79.006Z" style="fill:rgb(3,4,4);fill-rule:nonzero;"/>
    </g>
    <g transform="matrix(4.16667,0,0,4.16667,0,-3.64583)">
        <path d="M322.087,89.277C322.99,89.277 323.812,89.133 324.55,88.844C325.289,88.555 325.917,88.152 326.435,87.632C326.951,87.113 327.354,86.495 327.641,85.777C327.928,85.06 328.072,84.281 328.072,83.44L328.072,83.39C328.072,82.549 327.928,81.766 327.641,81.041C327.354,80.316 326.951,79.694 326.435,79.174C325.917,78.655 325.289,78.247 324.55,77.95C323.812,77.653 322.99,77.504 322.087,77.504L318.688,77.504L318.688,89.277L322.087,89.277ZM315.684,74.771L322.112,74.771C323.458,74.771 324.693,74.989 325.818,75.423C326.943,75.859 327.912,76.461 328.725,77.234C329.537,78.005 330.165,78.913 330.608,79.955C331.052,80.998 331.273,82.126 331.273,83.341L331.273,83.39C331.273,84.606 331.052,85.739 330.608,86.79C330.165,87.84 329.537,88.751 328.725,89.523C327.912,90.295 326.943,90.902 325.818,91.345C324.693,91.789 323.458,92.01 322.112,92.01L315.684,92.01L315.684,74.771Z" style="fill:rgb(3,4,4);fill-rule:nonzero;"/>
    </g>
    <g transform="matrix(4.16667,0,0,4.16667,0,-3.64583)">
        <path d="M334.771,79.006L337.775,79.006L337.775,92.01L334.771,92.01L334.771,79.006ZM334.647,74.179L337.874,74.179L337.874,77.012L334.647,77.012L334.647,74.179Z" style="fill:rgb(3,4,4);fill-rule:nonzero;"/>
    </g>
    <g transform="matrix(4.16667,0,0,4.16667,0,-3.64583)">
        <path d="M347.676,88.464C348.185,88.464 348.674,88.377 349.142,88.206C349.609,88.033 350.016,87.787 350.36,87.466C350.705,87.146 350.98,86.769 351.186,86.333C351.391,85.899 351.493,85.418 351.493,84.893L351.493,84.843C351.493,84.302 351.391,83.813 351.186,83.378C350.98,82.943 350.705,82.566 350.36,82.246C350.016,81.925 349.609,81.679 349.142,81.506C348.674,81.334 348.185,81.248 347.676,81.248C347.15,81.248 346.666,81.334 346.223,81.506C345.78,81.679 345.39,81.921 345.054,82.233C344.717,82.545 344.454,82.918 344.266,83.354C344.076,83.789 343.981,84.277 343.981,84.819L343.981,84.869C343.981,85.41 344.08,85.899 344.277,86.333C344.475,86.769 344.737,87.146 345.065,87.466C345.394,87.787 345.784,88.033 346.235,88.206C346.687,88.377 347.167,88.464 347.676,88.464ZM347.43,96C345.263,96 343.325,95.488 341.617,94.464L342.726,92.232C343.415,92.659 344.138,92.996 344.894,93.242C345.648,93.488 346.47,93.612 347.356,93.612C348.687,93.612 349.704,93.273 350.41,92.596C351.115,91.92 351.469,90.922 351.469,89.602L351.469,88.587C350.928,89.293 350.295,89.868 349.572,90.311C348.85,90.754 347.955,90.976 346.888,90.976C346.116,90.976 345.377,90.836 344.672,90.557C343.966,90.279 343.338,89.88 342.787,89.363C342.237,88.846 341.798,88.209 341.47,87.455C341.142,86.7 340.978,85.845 340.978,84.893L340.978,84.843C340.978,83.891 341.142,83.034 341.47,82.27C341.798,81.506 342.237,80.866 342.787,80.349C343.338,79.832 343.97,79.434 344.684,79.155C345.398,78.875 346.133,78.736 346.888,78.736C347.988,78.736 348.896,78.954 349.609,79.388C350.324,79.824 350.936,80.345 351.444,80.953L351.444,79.006L354.425,79.006L354.425,89.351C354.425,91.518 353.874,93.152 352.774,94.251C352.184,94.842 351.44,95.282 350.546,95.569C349.65,95.856 348.612,96 347.43,96Z" style="fill:rgb(3,4,4);fill-rule:nonzero;"/>
    </g>
    <g transform="matrix(4.16667,0,0,4.16667,0,-3.64583)">
        <path d="M358.315,79.006L361.32,79.006L361.32,92.01L358.315,92.01L358.315,79.006ZM358.192,74.179L361.419,74.179L361.419,77.012L358.192,77.012L358.192,74.179Z" style="fill:rgb(3,4,4);fill-rule:nonzero;"/>
    </g>
    <g transform="matrix(4.16667,0,0,4.16667,0,-3.64583)">
        <path d="M369.57,92.232C369.028,92.232 368.525,92.166 368.063,92.036C367.599,91.904 367.197,91.69 366.857,91.395C366.519,91.099 366.258,90.709 366.076,90.225C365.894,89.741 365.803,89.137 365.803,88.415L365.803,81.568L364.152,81.568L364.152,79.006L365.803,79.006L365.803,75.435L368.808,75.435L368.808,79.006L372.305,79.006L372.305,81.568L368.808,81.568L368.808,87.947C368.808,88.522 368.946,88.936 369.226,89.191C369.505,89.445 369.899,89.573 370.408,89.573C371.049,89.573 371.664,89.424 372.255,89.129L372.255,91.567C371.877,91.781 371.476,91.945 371.049,92.06C370.621,92.174 370.129,92.232 369.57,92.232Z" style="fill:rgb(3,4,4);fill-rule:nonzero;"/>
    </g>
    <g transform="matrix(4.16667,0,0,4.16667,0,-3.64583)">
        <path d="M383.313,86.568C382.936,86.419 382.488,86.296 381.971,86.198C381.454,86.1 380.907,86.05 380.333,86.05C379.397,86.05 378.666,86.231 378.142,86.592C377.615,86.954 377.353,87.446 377.353,88.07L377.353,88.12C377.353,88.744 377.595,89.219 378.08,89.547C378.563,89.876 379.159,90.04 379.865,90.04C380.357,90.04 380.813,89.975 381.232,89.843C381.65,89.712 382.016,89.527 382.328,89.29C382.64,89.051 382.882,88.764 383.055,88.427C383.227,88.09 383.313,87.717 383.313,87.306L383.313,86.568ZM383.239,92.01L383.239,90.41C382.796,90.935 382.229,91.378 381.54,91.74C380.851,92.101 380.013,92.282 379.028,92.282C378.403,92.282 377.813,92.195 377.255,92.023C376.696,91.85 376.208,91.596 375.789,91.259C375.37,90.923 375.034,90.504 374.779,90.003C374.524,89.502 374.397,88.923 374.397,88.267L374.397,88.218C374.397,87.496 374.528,86.868 374.792,86.333C375.054,85.8 375.42,85.357 375.888,85.003C376.355,84.651 376.913,84.388 377.563,84.215C378.211,84.043 378.913,83.957 379.668,83.957C380.456,83.957 381.125,84.006 381.676,84.105C382.226,84.204 382.755,84.334 383.264,84.498L383.264,84.252C383.264,83.35 382.988,82.66 382.438,82.184C381.889,81.707 381.097,81.469 380.063,81.469C379.323,81.469 378.666,81.543 378.092,81.691C377.517,81.839 376.935,82.036 376.343,82.282L375.53,79.893C376.253,79.565 376.992,79.302 377.747,79.105C378.502,78.908 379.413,78.81 380.48,78.81C382.418,78.81 383.855,79.29 384.791,80.25C385.727,81.21 386.194,82.562 386.194,84.302L386.194,92.01L383.239,92.01Z" style="fill:rgb(3,4,4);fill-rule:nonzero;"/>
    </g>
    <g transform="matrix(4.16667,0,0,4.16667,0,-3.64583)">
        <rect x="389.913" y="74.032" width="3.005" height="17.978" style="fill:rgb(3,4,4);fill-rule:nonzero;"/>
    </g>
    <g transform="matrix(4.16667,0,0,4.16667,0,-3.64583)">
        <path d="M404.518,74.771L407.522,74.771L407.522,89.277L416.586,89.277L416.586,92.01L404.518,92.01L404.518,74.771Z" style="fill:rgb(3,4,4);fill-rule:nonzero;"/>
    </g>
    <g transform="matrix(4.16667,0,0,4.16667,0,-3.64583)">
        <path d="M428.333,84.597C428.284,84.122 428.177,83.673 428.013,83.255C427.849,82.836 427.627,82.475 427.348,82.171C427.068,81.868 426.736,81.625 426.351,81.445C425.965,81.264 425.525,81.174 425.033,81.174C424.113,81.174 423.354,81.491 422.755,82.123C422.155,82.754 421.79,83.58 421.659,84.597L428.333,84.597ZM425.378,92.306C424.442,92.306 423.567,92.142 422.755,91.814C421.942,91.485 421.236,91.025 420.637,90.434C420.037,89.843 419.565,89.133 419.221,88.304C418.876,87.475 418.703,86.559 418.703,85.558L418.703,85.508C418.703,84.573 418.859,83.695 419.172,82.873C419.483,82.052 419.923,81.334 420.489,80.718C421.056,80.103 421.725,79.619 422.496,79.265C423.268,78.913 424.122,78.736 425.058,78.736C426.092,78.736 426.999,78.924 427.779,79.302C428.559,79.68 429.208,80.189 429.725,80.83C430.242,81.469 430.632,82.212 430.895,83.058C431.157,83.904 431.289,84.794 431.289,85.73C431.289,85.862 431.284,85.998 431.276,86.136C431.268,86.276 431.256,86.419 431.239,86.568L421.684,86.568C421.848,87.635 422.271,88.452 422.952,89.018C423.633,89.584 424.458,89.868 425.427,89.868C426.166,89.868 426.807,89.737 427.348,89.474C427.89,89.211 428.424,88.826 428.949,88.316L430.697,89.868C430.073,90.607 429.331,91.198 428.469,91.641C427.606,92.084 426.576,92.306 425.378,92.306Z" style="fill:rgb(3,4,4);fill-rule:nonzero;"/>
    </g>
    <g transform="matrix(4.16667,0,0,4.16667,0,-3.64583)">
        <path d="M442.322,86.568C441.944,86.419 441.497,86.296 440.979,86.198C440.462,86.1 439.916,86.05 439.342,86.05C438.406,86.05 437.675,86.231 437.149,86.592C436.624,86.954 436.361,87.446 436.361,88.07L436.361,88.12C436.361,88.744 436.604,89.219 437.088,89.547C437.572,89.876 438.168,90.04 438.874,90.04C439.366,90.04 439.822,89.975 440.241,89.843C440.659,89.712 441.024,89.527 441.337,89.29C441.648,89.051 441.891,88.764 442.063,88.427C442.235,88.09 442.322,87.717 442.322,87.306L442.322,86.568ZM442.248,92.01L442.248,90.41C441.805,90.935 441.238,91.378 440.549,91.74C439.859,92.101 439.021,92.282 438.036,92.282C437.412,92.282 436.821,92.195 436.264,92.023C435.705,91.85 435.217,91.596 434.798,91.259C434.379,90.923 434.043,90.504 433.788,90.003C433.533,89.502 433.406,88.923 433.406,88.267L433.406,88.218C433.406,87.496 433.537,86.868 433.801,86.333C434.063,85.8 434.429,85.357 434.896,85.003C435.364,84.651 435.922,84.388 436.571,84.215C437.22,84.043 437.922,83.957 438.677,83.957C439.465,83.957 440.134,84.006 440.685,84.105C441.234,84.204 441.764,84.334 442.272,84.498L442.272,84.252C442.272,83.35 441.997,82.66 441.447,82.184C440.897,81.707 440.105,81.469 439.071,81.469C438.332,81.469 437.675,81.543 437.101,81.691C436.525,81.839 435.943,82.036 435.352,82.282L434.539,79.893C435.262,79.565 436,79.302 436.756,79.105C437.511,78.908 438.422,78.81 439.489,78.81C441.427,78.81 442.864,79.29 443.8,80.25C444.735,81.21 445.203,82.562 445.203,84.302L445.203,92.01L442.248,92.01Z" style="fill:rgb(3,4,4);fill-rule:nonzero;"/>
    </g>
    <g transform="matrix(4.16667,0,0,4.16667,0,-3.64583)">
        <path d="M454.82,89.696C455.312,89.696 455.786,89.597 456.244,89.4C456.702,89.203 457.104,88.919 457.447,88.55C457.791,88.181 458.064,87.742 458.27,87.233C458.474,86.724 458.576,86.158 458.576,85.533L458.576,85.484C458.576,84.86 458.474,84.29 458.27,83.772C458.064,83.255 457.791,82.816 457.447,82.455C457.104,82.094 456.702,81.814 456.244,81.618C455.786,81.42 455.312,81.322 454.82,81.322C454.313,81.322 453.835,81.416 453.385,81.605C452.935,81.793 452.537,82.069 452.193,82.43C451.851,82.791 451.58,83.23 451.384,83.748C451.188,84.265 451.089,84.843 451.089,85.484L451.089,85.533C451.089,86.158 451.188,86.728 451.384,87.245C451.58,87.762 451.851,88.202 452.193,88.563C452.537,88.923 452.935,89.203 453.385,89.4C453.835,89.597 454.313,89.696 454.82,89.696ZM454.119,92.282C453.347,92.282 452.6,92.133 451.878,91.838C451.154,91.542 450.515,91.108 449.956,90.533C449.398,89.958 448.946,89.252 448.602,88.415C448.257,87.578 448.085,86.617 448.085,85.533L448.085,85.484C448.085,84.4 448.253,83.44 448.588,82.602C448.924,81.765 449.37,81.059 449.928,80.485C450.484,79.91 451.128,79.475 451.856,79.179C452.585,78.883 453.334,78.736 454.104,78.736C455.169,78.736 456.054,78.966 456.758,79.425C457.462,79.885 458.052,80.418 458.527,81.026L458.527,74.032L461.532,74.032L461.532,92.01L458.527,92.01L458.552,89.843C458.075,90.517 457.48,91.091 456.767,91.567C456.052,92.043 455.169,92.282 454.119,92.282Z" style="fill:rgb(3,4,4);fill-rule:nonzero;"/>
    </g>
    <g transform="matrix(4.16667,0,0,4.16667,0,-3.64583)">
        <path d="M474.166,84.597C474.117,84.122 474.01,83.673 473.847,83.255C473.682,82.836 473.46,82.475 473.182,82.171C472.901,81.868 472.569,81.625 472.184,81.445C471.798,81.264 471.358,81.174 470.866,81.174C469.946,81.174 469.188,81.491 468.588,82.123C467.988,82.754 467.623,83.58 467.492,84.597L474.166,84.597ZM471.211,92.306C470.275,92.306 469.4,92.142 468.588,91.814C467.775,91.485 467.069,91.025 466.47,90.434C465.87,89.843 465.398,89.133 465.054,88.304C464.709,87.475 464.536,86.559 464.536,85.558L464.536,85.508C464.536,84.573 464.692,83.695 465.005,82.873C465.316,82.052 465.756,81.334 466.322,80.718C466.889,80.103 467.558,79.619 468.329,79.265C469.101,78.913 469.955,78.736 470.891,78.736C471.925,78.736 472.832,78.924 473.612,79.302C474.392,79.68 475.041,80.189 475.558,80.83C476.075,81.469 476.465,82.212 476.728,83.058C476.99,83.904 477.122,84.794 477.122,85.73C477.122,85.862 477.118,85.998 477.109,86.136C477.101,86.276 477.089,86.419 477.072,86.568L467.517,86.568C467.681,87.635 468.104,88.452 468.785,89.018C469.466,89.584 470.291,89.868 471.26,89.868C471.999,89.868 472.64,89.737 473.182,89.474C473.724,89.211 474.257,88.826 474.782,88.316L476.53,89.868C475.906,90.607 475.164,91.198 474.302,91.641C473.439,92.084 472.409,92.306 471.211,92.306Z" style="fill:rgb(3,4,4);fill-rule:nonzero;"/>
    </g>
    <g transform="matrix(4.16667,0,0,4.16667,0,-3.64583)">
        <path d="M480.126,79.006L483.131,79.006L483.131,81.937C483.541,80.953 484.124,80.165 484.88,79.573C485.635,78.982 486.587,78.711 487.736,78.76L487.736,81.913L487.564,81.913C486.907,81.913 486.309,82.02 485.767,82.233C485.225,82.447 484.757,82.767 484.362,83.194C483.969,83.621 483.664,84.159 483.451,84.807C483.237,85.456 483.131,86.207 483.131,87.06L483.131,92.01L480.126,92.01L480.126,79.006Z" style="fill:rgb(3,4,4);fill-rule:nonzero;"/>
    </g>
    <g transform="matrix(4.16667,0,0,4.16667,0,-3.64583)">
        <path d="M494.756,92.256C493.819,92.256 492.871,92.09 491.911,91.759C490.95,91.427 490.06,90.938 489.238,90.29L490.568,88.267C491.274,88.792 491.993,89.191 492.724,89.461C493.454,89.732 494.156,89.868 494.829,89.868C495.47,89.868 495.966,89.741 496.319,89.487C496.672,89.233 496.849,88.893 496.849,88.467L496.849,88.417C496.849,88.172 496.771,87.959 496.615,87.78C496.459,87.599 496.245,87.444 495.975,87.312C495.703,87.181 495.392,87.058 495.039,86.944C494.686,86.829 494.32,86.714 493.942,86.599C493.466,86.469 492.986,86.313 492.502,86.132C492.018,85.953 491.582,85.719 491.196,85.432C490.811,85.146 490.495,84.79 490.248,84.364C490.002,83.937 489.879,83.414 489.879,82.79L489.879,82.742C489.879,82.135 489.998,81.586 490.236,81.095C490.474,80.604 490.803,80.186 491.222,79.841C491.64,79.498 492.133,79.236 492.699,79.055C493.266,78.875 493.869,78.785 494.509,78.785C495.33,78.785 496.159,78.917 496.997,79.183C497.834,79.449 498.598,79.814 499.287,80.278L498.105,82.406C497.48,82.028 496.849,81.728 496.209,81.506C495.568,81.285 494.978,81.174 494.436,81.174C493.86,81.174 493.413,81.297 493.093,81.542C492.772,81.789 492.613,82.1 492.613,82.476L492.613,82.526C492.613,82.755 492.694,82.956 492.859,83.127C493.023,83.299 493.241,83.456 493.512,83.594C493.782,83.734 494.095,83.865 494.447,83.988C494.801,84.111 495.166,84.229 495.544,84.344C496.02,84.492 496.496,84.664 496.972,84.86C497.448,85.057 497.879,85.298 498.265,85.585C498.65,85.872 498.967,86.22 499.213,86.629C499.46,87.04 499.583,87.539 499.583,88.128L499.583,88.177C499.583,88.866 499.46,89.463 499.213,89.972C498.967,90.48 498.626,90.902 498.191,91.237C497.756,91.573 497.243,91.827 496.651,91.998C496.061,92.17 495.429,92.256 494.756,92.256Z" style="fill:rgb(3,4,4);fill-rule:nonzero;"/>
    </g>
</svg>
