<?xml version="1.0" encoding="UTF-8" standalone="no"?>
<!DOCTYPE svg PUBLIC "-//W3C//DTD SVG 1.1//EN" "http://www.w3.org/Graphics/SVG/1.1/DTD/svg11.dtd">
<svg width="100%" height="100%" viewBox="0 0 144 144" version="1.1" xmlns="http://www.w3.org/2000/svg" xmlns:xlink="http://www.w3.org/1999/xlink" xml:space="preserve" xmlns:serif="http://www.serif.com/" style="fill-rule:evenodd;clip-rule:evenodd;stroke-linejoin:round;stroke-miterlimit:1.41421;">
    <g id="Artboard1" transform="matrix(1,0,0,1,0,67)">
        <rect x="0" y="-67" width="144" height="144" style="fill:none;"/>
        <g transform="matrix(1,0,0,1,0,-67)">
            <rect x="0" y="0" width="144" height="144"/>
        </g>
        <g id="Shape" transform="matrix(0.826389,0,0,0.826389,12.5,-2.4375)">
            <path d="M0,0L1.072,0L1.072,18L0,18L0,0ZM14.379,17.988L19.9,17.988L19.9,0L14.379,0L14.379,17.988ZM24.575,17.988L36.148,17.988L36.148,0L24.575,0L24.575,17.988ZM42.319,17.919L60.907,17.919L60.907,0L42.319,0L42.319,17.919ZM6.332,18L8.86,18L8.86,0.019L6.332,0.019L6.332,18ZM98.785,7.865L97.531,10.391L99.248,10.391L98.809,7.865L98.785,7.865ZM144,0.029L144,17.919L67.577,17.919L67.577,0.029L144,0.029ZM85.539,5.604C84.967,5.352 84.381,5.205 83.716,5.205C82.599,5.205 81.394,5.687 80.484,6.487C79.604,7.264 79.027,8.307 78.858,9.39C78.665,10.566 78.906,11.598 79.655,12.387C80.358,13.132 81.348,13.554 82.451,13.554C83.097,13.554 83.615,13.397 84.334,13.185L84.727,10.713C84.211,11.228 83.485,11.556 82.813,11.556C81.526,11.556 80.805,10.649 81.002,9.396C81.198,8.169 82.205,7.199 83.471,7.199C84.175,7.199 84.813,7.506 85.145,8.074L85.539,5.604ZM102.058,13.345L100.326,5.415L98.069,5.415L93.749,13.344L95.944,13.344L96.716,11.965L99.56,11.965L99.857,13.344L102.058,13.344L102.058,13.345ZM114.607,7.592C114.677,7.151 115.218,6.928 115.596,6.928C116.104,6.928 116.554,7.139 116.884,7.455L117.958,5.855C117.315,5.456 116.373,5.204 115.574,5.204C113.984,5.204 112.666,6.256 112.412,7.864C112.169,9.397 112.971,9.737 114.21,10.101C114.63,10.232 115.41,10.428 115.318,11.006C115.23,11.565 114.675,11.81 114.19,11.81C113.484,11.81 112.933,11.441 112.485,10.987L111.34,12.646C112.062,13.216 112.985,13.553 113.989,13.553C114.788,13.553 115.655,13.33 116.36,12.806C117.077,12.266 117.396,11.458 117.523,10.67C117.726,9.39 116.959,8.829 115.908,8.503L115.403,8.344C115.066,8.235 114.534,8.055 114.607,7.592ZM133.09,5.415L127.609,5.415L127.331,7.161L129.041,7.161L128.059,13.344L130.12,13.344L131.105,7.161L132.813,7.161L133.09,5.415Z" style="fill:white;fill-rule:nonzero;"/>
        </g>
    </g>
</svg>
