<?xml version="1.0" encoding="UTF-8"?>
<svg width="180px" height="180px" viewBox="0 0 180 180" version="1.1" xmlns="http://www.w3.org/2000/svg" xmlns:xlink="http://www.w3.org/1999/xlink">
    <title>cisq-index</title>
    <g id="cisq-index" stroke="none" stroke-width="1" fill="none" fill-rule="evenodd">
        <path d="M90,10 C134.18278,10 170,45.81722 170,90 C170,134.18278 134.18278,170 90,170 C45.81722,170 10,134.18278 10,90 C10,45.81722 45.81722,10 90,10 Z M90,20 C51.3400675,20 20,51.3400675 20,90 C20,128.659932 51.3400675,160 90,160 C128.659932,160 160,128.659932 160,90 C160,51.3400675 128.659932,20 90,20 Z" id="Combined-Shape" fill="#000000"></path>
        <g id="Group" transform="translate(30.000000, 69.000000)" fill="#000000">
            <path d="M22.516129,0 C28.0389765,-1.01453063e-15 32.516129,4.4771525 32.516129,10 L32.516,11.391 L26.543,11.391 L26.5437788,10.8617512 C26.5437788,8.17299645 24.4214721,5.97993304 21.7606684,5.86637067 L21.5437788,5.86175115 L11.6359447,5.86175115 C8.87452095,5.86175115 6.6359447,8.1003274 6.6359447,10.8617512 L6.6359447,10.8617512 L6.6359447,26.9631336 C6.6359447,29.7245574 8.87452095,31.9631336 11.6359447,31.9631336 L11.6359447,31.9631336 L21.5437788,31.9631336 C24.3052026,31.9631336 26.5437788,29.7245574 26.5437788,26.9631336 L26.5437788,26.9631336 L26.543,25.99 L32.516,25.99 L32.516129,27.8248848 C32.516129,33.3477323 28.0389765,37.8248848 22.516129,37.8248848 L10,37.8248848 C4.4771525,37.8248848 -1.10000309e-15,33.3477323 0,27.8248848 L0,10 C-2.45271059e-15,4.4771525 4.4771525,1.01453063e-15 10,0 L22.516129,0 Z" id="Combined-Shape"></path>
            <rect id="Rectangle-Copy-3" x="37.4930876" y="0" width="6.6359447" height="37.8248848"></rect>
            <path d="M73.0645161,15.8156682 C78.0350789,15.8156682 82.0645161,19.8451055 82.0645161,24.8156682 L82.0645161,28.8248848 C82.0645161,33.7954475 78.0350789,37.8248848 73.0645161,37.8248848 L58.5483871,37.8248848 C53.5778243,37.8248848 49.5483871,33.7954475 49.5483871,28.8248848 L49.5483871,25.8856682 L56.3317698,25.935173 C56.3159884,26.0646096 56.305176,26.1955803 56.2995291,26.3278887 L56.2949309,26.5437788 C56.2949309,29.2924771 58.5231911,31.5207373 61.2718894,31.5207373 L61.2718894,31.5207373 L70.1198157,31.5207373 C72.868514,31.5207373 75.0967742,29.2924771 75.0967742,26.5437788 C75.0967742,23.7950805 72.868514,21.5668203 70.1198157,21.5668203 L70.1198157,21.5668203 L65.6923871,21.5666682 L65.9423871,15.8156682 L73.0645161,15.8156682 Z" id="Rectangle-Copy"></path>
            <path d="M73.0645161,0 C78.0350789,8.63279275e-16 82.0645161,4.02943725 82.0645161,9 L82.0643871,12.303 L74.8476901,12.3977918 C74.9878499,11.9725202 75.0722316,11.5219032 75.092176,11.0545998 L75.0967742,10.8387097 C75.0967742,8.09001138 72.868514,5.86175115 70.1198157,5.86175115 L70.1198157,5.86175115 L61.2718894,5.86175115 C58.5231911,5.86175115 56.2949309,8.09001138 56.2949309,10.8387097 C56.2949309,13.587408 58.5231911,15.8156682 61.2718894,15.8156682 L61.2718894,15.8156682 L66.5473871,15.815 L65.7633871,21.566 L58.5483871,21.5668203 C53.5778243,21.5668203 49.5483871,17.537383 49.5483871,12.5668203 L49.5483871,9 C49.5483871,4.02943725 53.5778243,2.6894344e-15 58.5483871,0 L73.0645161,0 Z" id="Rectangle-Copy-8"></path>
            <path d="M110,0 C115.522847,7.61826213e-16 120,4.4771525 120,10 L120,27.8248848 C120,33.3477323 115.522847,37.8248848 110,37.8248848 L106.948871,37.824 L106.949309,42.9124424 L100.313364,42.9124424 L100.312871,37.824 L97.483871,37.8248848 C91.9610235,37.8248848 87.483871,33.3477323 87.483871,27.8248848 L87.483871,10 C87.483871,4.4771525 91.9610235,2.79088747e-15 97.483871,0 L110,0 Z M106.948871,31.963 L108.695853,31.9631336 C111.457276,31.9631336 113.695853,29.7245574 113.695853,26.9631336 L113.695853,26.9631336 L113.695853,10.8617512 C113.695853,8.1003274 111.457276,5.86175115 108.695853,5.86175115 L108.695853,5.86175115 L98.7880184,5.86175115 C96.0265947,5.86175115 93.7880184,8.1003274 93.7880184,10.8617512 L93.7880184,10.8617512 L93.7880184,26.9631336 C93.7880184,29.7245574 96.0265947,31.9631336 98.7880184,31.9631336 L98.7880184,31.9631336 L100.312871,31.963 L100.313364,26.764977 L106.949309,26.764977 L106.948871,31.963 Z" id="Combined-Shape"></path>
        </g>
    </g>
</svg>