<?xml version="1.0" encoding="UTF-8"?>
<svg width="100px" height="100px" viewBox="0 0 100 100" version="1.1" xmlns="http://www.w3.org/2000/svg" xmlns:xlink="http://www.w3.org/1999/xlink">
    <!-- Generator: Sketch 57.1 (83088) - https://sketch.com -->
    <title>CISQ Measure</title>
    <desc>Created with Sketch.</desc>
    <g id="Page-1" stroke="none" stroke-width="1" fill="none" fill-rule="evenodd">
        <g id="CISQ-Measure">
            <rect id="Rectangle" x="0" y="0" width="100" height="100"></rect>
            <g id="Group" fill="#000000">
                <rect id="Rectangle" x="0" y="0" width="100" height="100"></rect>
            </g>
            <text id="MEASURE" font-family="ArialMT, Arial" font-size="8" font-weight="normal" letter-spacing="2.35" fill="#FFFFFF">
                <tspan x="21.99375" y="78">MEASURE</tspan>
            </text>
            <text id="QUALITY" font-family="Arial-Black, Arial Black" font-size="8" font-weight="700" letter-spacing="2.35" fill="#FFFFFF">
                <tspan x="21.9117187" y="68">QUALITY</tspan>
            </text>
            <g id="Group" transform="translate(19.000000, 25.000000)" fill="#FFFFFF">
                <g id="Combined-Shape" transform="translate(0.666667, 0.102431)">
                    <path d="M16.5508951,5.81107562 L13.5109348,5.81107562 L13.5109348,4.569875 C13.5109348,3.6974238 12.8052136,2.99016512 11.9346591,2.99016512 L4.95400942,2.99016512 C4.08345486,2.99016512 3.3777337,3.6974238 3.3777337,4.569875 L3.3777337,14.7251528 C3.3777337,15.597604 4.08345486,16.3048627 4.95400942,16.3048627 L11.9346591,16.3048627 C12.8052136,16.3048627 13.5109348,15.597604 13.5109348,14.7251528 L13.5109348,13.2582793 L16.5508951,13.2582793 L16.5508951,14.3866435 C16.5508951,17.0974821 14.3581267,19.2950278 11.6531812,19.2950278 L4.89771386,19.2950278 C2.19276842,19.2950278 0,17.0974821 0,14.3866435 L0,4.90838426 C0,2.19754569 2.19276842,0 4.89771386,0 L11.6531812,0 C14.3581267,0 16.5508951,2.19754569 16.5508951,4.90838426 L16.5508951,5.81107562 Z" id="Path"></path>
                </g>
                <g id="Rectangle-Copy-3" transform="translate(18.666667, 0.102431)">
                    <rect id="Rectangle" x="0" y="0" width="3.6559" height="19.2950278"></rect>
                </g>
                <g id="Rectangle-Copy" transform="translate(25.666667, 8.102431)">
                    <path d="M0,5.19823281 L3.43402926,5.19823281 L3.43402926,6.74056563 C3.43402926,7.49773679 4.03892507,8.11152813 4.78512274,8.11152813 L11.6531813,8.11152813 C12.3993789,8.11152813 13.0042747,7.49773679 13.0042747,6.74056563 L13.0042747,4.34138125 C13.0042747,3.58421009 12.3993789,2.97041875 11.6531813,2.97041875 L4.89771386,2.97041875 L4.89771386,0.913975 L2.06655377,0.913975 C2.86595075,0.33834212 3.84290392,0 4.89771386,0 L11.6531813,0 C14.3581267,0 16.5508951,2.22501501 16.5508951,4.96973906 L16.5508951,6.397825 C16.5508951,9.14254905 14.3581267,11.3675641 11.6531813,11.3675641 L4.89771386,11.3675641 C2.19276842,11.3675641 0,9.14254905 0,6.397825 L0,5.19823281 Z" id="Path"></path>
                </g>
                <g id="Rectangle-Copy-8" transform="translate(25.666667, 0.102431)">
                    <path d="M16.548024,6.19979708 L13.0042747,6.19979708 L13.0042747,4.30076014 C13.0042747,3.560415 12.3993789,2.96026347 11.6531813,2.96026347 L4.78512274,2.96026347 C4.03892507,2.96026347 3.43402926,3.560415 3.43402926,4.30076014 L3.43402926,6.64662931 C3.43402926,7.38697444 4.03892507,7.98712597 4.78512274,7.98712597 L11.5968857,7.98712597 L11.5968857,10.3888492 L13.8250077,10.3888492 C13.1705155,10.7106242 12.4331563,10.8915354 11.6531813,10.8915354 L4.89771386,10.8915354 C2.19276842,10.8915354 0,8.71596518 0,6.032235 L0,4.85930042 C0,2.17557024 2.19276842,0 4.89771386,0 L11.6531813,0 C14.3581267,0 16.5508951,2.17557024 16.5508951,4.85930042 L16.5508951,6.032235 C16.5508951,6.08831244 16.5499381,6.14416647 16.548024,6.19979708 L16.548024,6.19979708 Z" id="Path"></path>
                </g>
                <g id="Combined-Shape1" transform="translate(44.666667, 0.102431)">
                    <path d="M6.53028514,16.141814 L6.53028514,13.5166747 L9.90801884,13.5166747 L9.90801884,16.141814 L11.7657724,16.141814 C12.6361018,16.141814 13.3420481,15.4416279 13.3420481,14.5779013 L13.3420481,4.52417625 C13.3420481,3.66044956 12.6361018,2.96026347 11.7657724,2.96026347 L4.78512274,2.96026347 C3.91456817,2.96026347 3.20884701,3.66044956 3.20884701,4.52417625 L3.20884701,14.5779013 C3.20884701,15.4416279 3.91456817,16.141814 4.78512274,16.141814 L6.53028514,16.141814 Z M9.90801884,19.1020775 L9.90801884,21.6713628 L6.53028514,21.6713628 L6.53028514,19.1020775 L4.89771386,19.1020775 C2.19276842,19.1020775 0,16.9265073 0,14.2427771 L0,4.85930042 C0,2.17557024 2.19276842,0 4.89771386,0 L11.6531812,0 C14.358183,0 16.5508951,2.17557024 16.5508951,4.85930042 L16.5508951,14.2427771 C16.5508951,16.9265073 14.358183,19.1020775 11.6531812,19.1020775 L9.90801884,19.1020775 Z" id="Shape"></path>
                </g>
            </g>
        </g>
    </g>
</svg>