<?xml version="1.0" encoding="UTF-8" standalone="no"?>
<!DOCTYPE svg PUBLIC "-//W3C//DTD SVG 1.1//EN" "http://www.w3.org/Graphics/SVG/1.1/DTD/svg11.dtd">
<svg width="100%" height="100%" viewBox="0 0 144 144" version="1.1" xmlns="http://www.w3.org/2000/svg" xmlns:xlink="http://www.w3.org/1999/xlink" xml:space="preserve" xmlns:serif="http://www.serif.com/" style="fill-rule:evenodd;clip-rule:evenodd;stroke-linejoin:round;stroke-miterlimit:1.41421;">
    <g id="Artboard1" transform="matrix(1,0,0,1,0,67)">
        <rect x="0" y="-67" width="144" height="144" style="fill:none;"/>
        <g transform="matrix(1,0,0,1,0,-67)">
            <rect x="0" y="0" width="144" height="144"/>
        </g>
        <g transform="matrix(1,0,0,1,0,46.2525)">
            <g id="Combined-Shape" transform="matrix(0.109677,0,0,0.109677,12.5,-62.53)">
                <path d="M294,103L240,103L240,81C240,65.536 227.464,53 212,53L88,53C72.536,53 60,65.536 60,81L60,261C60,276.464 72.536,289 88,289L212,289C227.464,289 240,276.464 240,261L240,235L294,235L294,255C294,303.049 255.049,342 207,342L87,342C38.951,342 0,303.049 0,255L0,87C0,38.951 38.951,0 87,0L207,0C255.049,0 294,38.951 294,87L294,103Z" style="fill:white;"/>
            </g>
            <g id="Rectangle-Copy-3" transform="matrix(0.109677,0,0,0.109677,12.5,-62.53)">
                <rect x="339" y="0" width="60" height="342" style="fill:white;"/>
            </g>
            <g id="Rectangle-Copy" transform="matrix(0.109677,0,0,0.109677,12.5,-62.53)">
                <path d="M448,234L509,234L509,261C509,274.255 519.745,285 533,285L655,285C668.255,285 679,274.255 679,261L679,219C679,205.745 668.255,195 655,195L535,195L535,159L484.709,159C498.909,148.923 516.263,143 535,143L655,143C703.049,143 742,181.951 742,230L742,255C742,303.049 703.049,342 655,342L535,342C486.951,342 448,303.049 448,255L448,234Z" style="fill:white;"/>
            </g>
            <g id="Rectangle-Copy-8" transform="matrix(0.109677,0,0,0.109677,12.5,-62.53)">
                <path d="M741.949,111L679,111L679,77C679,63.745 668.255,53 655,53L533,53C519.745,53 509,63.745 509,77L509,119C509,132.255 519.745,143 533,143L654,143L654,186L693.579,186C681.953,191.761 668.855,195 655,195L535,195C486.951,195 448,156.049 448,108L448,87C448,38.951 486.951,0 535,0L655,0C703.049,0 742,38.951 742,87L742,108C742,109.004 741.983,110.004 741.949,111L741.949,111Z" style="fill:white;"/>
            </g>
            <g id="Combined-Shape1" serif:id="Combined-Shape" transform="matrix(0.109677,0,0,0.109677,12.5,-62.53)">
                <path d="M907,289L907,242L967,242L967,289L1000,289C1015.46,289 1028,276.464 1028,261L1028,81C1028,65.536 1015.46,53 1000,53L876,53C860.536,53 848,65.536 848,81L848,261C848,276.464 860.536,289 876,289L907,289ZM967,342L967,388L907,388L907,342L878,342C829.951,342 791,303.049 791,255L791,87C791,38.951 829.951,0 878,0L998,0C1046.05,0 1085,38.951 1085,87L1085,255C1085,303.049 1046.05,342 998,342L967,342Z" style="fill:white;"/>
            </g>
        </g>
    </g>
</svg>
