<?xml version="1.0" encoding="UTF-8"?>
<svg width="260px" height="260px" viewBox="0 0 260 260" version="1.1" xmlns="http://www.w3.org/2000/svg" xmlns:xlink="http://www.w3.org/1999/xlink">
    <title>com.castsoftware.iso5055</title>
    <g id="com.castsoftware.iso5055" stroke="none" stroke-width="1" fill="none" fill-rule="evenodd">
        <g id="iso-31" transform="translate(-3.000000, 0.000000)" fill="#000000" fill-rule="nonzero">
            <path d="M203.758969,83.679724 C205.288468,85.9653085 205.186232,88.9555715 205.495251,91.6362381 C205.391282,97.3158318 205.890911,104.077858 204.876636,109.851601 C204.360256,112.248086 202.746427,114.732367 200.202075,115.634586 C196.12938,117.422275 190.630577,116.923224 186.867478,114.835758 C183.70451,112.644323 183.310006,108.967288 182.897596,105.478551 C182.588577,98.605047 182.072775,91.3445474 184.015262,85.0636665 C185.544184,81.188512 189.720271,80.1915651 193.484525,79.8912099 C197.452674,79.8906327 201.318587,80.4919199 203.758969,83.679724" id="Path"></path>
            <path d="M150,170.776038 L149.289533,171.351081 C138.609255,173.536906 126.684933,173.627498 116,171.153876 L116.805312,170.299322 C126.192668,164.489789 140.825609,164.489789 150,170.776038 M114,168.371838 L112.029227,170 C103.759241,167.755953 96.088316,163.883153 89,158.585121 L89,158.276882 C91.3667431,156.745156 93.7300824,155.116995 96.2868683,154 C101.894552,159.799734 107.70022,164.191392 114,168.371838 M178,158.353965 C172.319584,162.908937 165.714299,165.951659 159.004753,168.478933 L154.231048,170 C153.429183,169.589171 152.714006,168.99438 152,168.382544 L152.191534,168.076333 C158.708374,164.22841 164.599067,159.56882 170.175224,154 C172.929329,155.119641 175.560432,156.631892 178,158.353965 M167,153.304499 C163.853182,156.998131 159.82942,160.2004 156.093069,162.900864 C153.838472,164.298956 151.581612,165.80089 149.225177,167 L145,165.101843 L145.302687,164.402797 C148.837624,159.501354 151.985573,154.50477 154.729562,149.206523 L155.01471,149 C159.240453,149.999549 163.264215,151.406923 167,153.304499 M111.768692,149.102138 C114.701519,154.570865 118.350467,159.738371 122,164.905876 C120.57535,165.712596 118.859229,166.211169 117.433995,167 C110.752336,163.721187 104.365654,159.146315 99,153.678165 L99,153.377521 C102.949182,151.489982 107.102804,150.097554 111.355724,149 L111.768692,149.102138 L111.768692,149.102138 Z M151.91452,148.021681 L152,148.326808 C149.21727,153.771643 145.694096,159.016184 141.896577,163.964384 C140.196213,164.164678 138.5975,163.459549 136.878654,163.354717 L135.194461,163.162622 C134.989424,157.203582 134.886039,151.950256 135.194461,146 C140.899692,146.106004 146.604346,146.7063 151.91452,148.021681 M132,162.993031 C129.881856,163.495932 127.551315,163.495932 125.524782,164 C121.371353,159.070755 117.933892,153.741873 115,148.21288 L115.507654,147.805076 C120.768003,146.808025 126.236082,146 131.904304,146 L132,162.993031 L132,162.993031 Z M111.065355,140.117251 C110.058266,140.117251 108.955677,139.912065 108.254188,140.21151 L110.763807,146.050417 L110.466889,146.349862 C105.942513,147.632709 101.525791,149.223623 97.2161442,151.009377 L96.806942,150.80534 C93.9957744,147.744211 91.2876309,144.375014 89.0755077,140.998921 C88.5846965,139.322944 86.5745699,140.306345 85.4725598,140.118401 C87.8785766,144.469848 91.0856343,148.334481 94.3060042,152.293374 C91.5897576,153.884287 88.8821929,155.671191 86.0704466,156.952889 C80.0481699,152.395679 74.4217833,146.453318 70.211688,140.21266 C69.0020236,140.01552 68.2009826,140.118401 67,140.21266 C74.2192079,151.505963 85.4725598,161.407217 97.2161442,167.246698 L97.3110653,167.153013 L97.4187196,167.451885 C105.344047,171.308471 113.77292,174.087397 122.709967,175.274835 C153.523998,179.336033 182.936207,166.161566 200,140.21266 C199.104617,140.118401 197.795401,140.118401 196.780788,140.21266 C192.578217,146.257327 187.258008,152.10428 181.437728,156.653443 L180.438163,156.559183 C177.923335,154.977466 175.203615,153.677951 172.792968,152.10428 C176.012759,148.232175 179.129526,144.376164 181.539595,140.118401 L178.422828,140.118401 C175.908578,143.777847 173.291883,147.633859 169.985274,150.907646 C165.55987,149.129363 161.547719,147.539599 157.036076,146.349862 L156.537741,145.956732 C157.243861,143.973263 158.535134,142.091524 158.947809,140.117251 L156.244875,140.117251 L153.523998,145.460721 C147.600694,144.169828 141.074294,143.477252 135.046808,143.084121 C134.753942,142.19498 135.167774,140.903512 134.753942,140.117251 L132.140719,140.117251 C131.942774,141.297217 132.442267,142.19498 131.847853,143.177806 C125.618371,143.477252 119.596094,144.169828 113.771762,145.358415 L111.065355,140.117251 L111.065355,140.117251 Z M47.3996231,63 L41.2479573,63.1032692 C41.1501467,68.7011038 41.1501467,74.3002423 41.2479573,79.8980769 C44.6255107,80.0094231 47.7994385,79.8980769 51.0751791,80.1986538 L51.0751791,114.012115 L50.9687904,115.393846 L41.1501484,115.599808 C40.9499505,121.064674 40.9499505,126.535134 41.1501484,132 L84.8964713,132 L84.8964713,115.599808 C81.6207307,115.393846 77.9537545,115.693269 74.7798267,115.299231 L74.8776356,80.4046154 L75.0778293,80.1040385 L84.8964713,80.0094231 C85.0034319,74.3365385 85.0966649,68.2776923 84.8032382,63.1026923 L47.3996231,63 L47.3996231,63 Z M217.132025,69.6621007 C204.138051,61.3421179 184.337955,60.7437276 170.967143,68.2681558 C163.664335,72.0303699 158.864556,79.4697244 157.373341,87.0884236 C154.664606,99.6747399 155.367575,114.63105 164.94927,124.045495 C176.161046,133.94739 192.446873,136.127692 206.932063,132.065995 C207.616594,131.929187 209.811931,131.373334 211.303146,130.569157 L211.731842,130.38119 C216.223352,128.500945 220.526443,125.42162 223.714003,121.266228 C231.120528,110.372764 231.617792,94.0230838 227.108996,81.7448724 C225.325645,76.9899396 221.623535,72.7316535 217.132025,69.6621007 M133.006072,66.4441277 C121.945098,61.7760851 106.469587,61.2878033 96.4170535,68.5250832 C89.8818927,73.2875578 87.8690678,81.8186692 89.5805196,89.36458 C90.8909132,96.5080039 97.7233902,101.767397 104.253915,104.242778 C113.207595,107.421216 122.557117,109.699672 131.592516,112.782527 C132.506488,113.176953 133.708503,114.067145 133.519565,115.164052 C133.519565,116.054821 132.601537,116.55174 131.894469,116.945589 C122.449898,119.524615 112.199154,117.545001 105.366677,110.401577 C104.56514,109.408316 104.06092,108.217553 103.25069,107.223715 L89.6802045,107.326784 C89.4866303,115.360977 89.3782518,124.587084 89.6802045,132.526844 L104.759294,132.432988 L104.962141,127.661877 C106.673593,128.466275 108.380408,129.451476 110.09186,130.351457 C120.544872,134.711445 134.020309,135.696069 144.366101,130.351457 C151.901009,126.171696 155.935932,118.137504 154.815056,109.512536 C153.711566,101.075857 145.675336,93.4355139 137.537101,91.3453456 L113.207595,84.3044148 L111.397038,83.405009 C110.595501,82.7111653 110.091281,81.8203966 110.284855,80.7327029 C112.198574,77.460409 116.625862,78.4542466 119.945023,78.5486785 C126.979768,79.5419403 134.208667,81.9234655 138.329945,88.3730456 C142.761289,88.3730456 147.882314,88.4674774 152.71008,88.2791895 C152.900177,80.133291 152.606338,72.9898671 152.503756,64.7501125 C147.986056,64.6556807 142.451222,64.6556807 137.933523,64.8612427 C137.726619,66.0514294 138.122461,67.7304738 137.622297,68.9292976 L133.006072,66.4441277 L133.006072,66.4441277 Z M140.455073,32 C144.455198,37.1139332 148.33266,42.3335532 151,47.9598892 C145.473658,49.2934424 139.858268,50 134.121393,50 C133.91145,44.5856313 134.015832,38.5448608 134.121393,32.9179311 C136.173647,32.609777 138.419921,32.3004354 140.455073,32 M131.836308,32.9190862 C132.137318,38.1882388 131.93106,44.2717419 131.93106,49.8474527 C129.120868,50.2505091 126.623818,49.7509546 123.818248,49.5408945 C121.106852,49.1378382 117.698686,48.8318684 115,47.9216083 C117.904943,42.3458974 121.308488,36.972009 125.416314,32 L131.836308,32.9190862 L131.836308,32.9190862 Z M121,30.8249984 L120.708864,31.6277629 C116.972246,36.4813197 114.031436,41.745061 111.078165,46.9037621 L110.690739,47 C106.663551,45.8909174 102.728689,44.5729282 99,42.8535568 L99.1982441,42.2420943 C104.599547,36.8909174 110.295384,32.4393297 116.58482,29 C118.05919,29.6026602 119.525064,30.1178849 121,30.8249984 M167,42.4784131 L166.809507,42.7736289 C162.846549,44.4836639 158.795356,46.0892649 154.43096,47 C151.301847,41.6627771 147.859531,36.3424737 144,31.2129522 C145.424608,30.4060677 147.146643,29.798133 148.659485,29 C155.24786,32.3156359 161.628211,37.0455076 167,42.4784131 M114,27.640159 C107.680221,31.6149479 101.461577,36.3014628 95.7497852,42 C92.9985526,40.9797017 90.4448867,39.4587125 88,37.7178212 L88,37.523929 C94.4244425,32.7316011 101.561536,29.1700153 109.110227,26.7168068 L110.023972,26.1185787 L110.023972,26.3118797 C110.83717,26.5229147 111.458682,25.5995625 112.167217,26.2149336 L114,27.640159 Z M177,36.8324288 L176.813903,37.2170154 L170.028732,41 L169.521503,41 C164.322697,35.7718681 158.212128,31.2286933 152,27.6455815 L153.890475,26 C162.145133,28.129543 169.926605,31.8047311 177,36.8324288 M150,24.8624211 L150,25.0522831 C141.197116,31.1616329 126.92482,31.7295583 117.618881,26.106211 L116,24.8624211 C126.7299,22.4750309 139.373979,22.2851689 150,24.8624211 M139.392798,20.2799784 C136.687489,19.979072 133.398398,19.8849305 130.499071,20.176596 C129.4029,20.0824544 128.105802,20.176596 126.808128,20.2799784 C102.841468,22.1697396 80.7758354,34.6102825 67,55.8140733 C67.9977233,55.7112685 69.1929186,56.1063164 70.1900662,55.7112685 C72.588517,52.3348797 75.2863423,49.0445467 78.2789365,45.8570185 C80.8737079,43.3654446 83.2761887,40.9859164 86.0724623,39.1902967 C88.6718394,40.8831116 91.5619554,42.2744425 94.0542486,43.8638749 C90.9580248,47.7473573 87.7679585,51.6308397 85.4685317,55.8146509 C86.1709104,56.1068939 87.468584,56.0121748 88.4663073,55.8146509 C90.9580248,52.12927 93.6598801,48.4433115 96.8505221,45.1616418 C101.149426,46.7510743 105.341821,48.4433115 109.735142,49.6376961 L110.128935,50.0333215 L107.636642,55.8152284 C108.732813,56.0127524 109.435192,55.9099475 110.531364,55.8152284 C111.434669,54.1143278 112.128412,52.2239891 113.126135,50.5398376 C118.915578,51.8283636 125.009002,52.5248954 131.200874,52.7310827 C131.997095,53.417796 131.406406,54.9217503 131.705781,55.8152284 L134.390365,55.8152284 C134.698951,54.8102821 134.305734,53.71928 134.698951,52.8252242 C140.488394,52.5243179 146.568576,51.9230827 152.170335,50.5398376 L152.666606,50.6345567 L155.355795,55.8152284 C156.263706,55.8152284 157.462356,56.0127524 158.164735,55.6090412 L155.663806,49.8444609 L155.868762,49.6382736 C160.460131,48.4438891 164.758459,46.6569327 169.143145,44.861313 C172.24455,48.1435603 175.138696,52.0351285 177.742679,55.8152284 C178.838851,55.8152284 179.936174,55.9099475 180.723183,55.6090412 C179.501465,53.3843856 178.067336,51.283975 176.440976,49.3373673 C175.138696,47.4470285 173.734514,45.7634545 172.039018,43.9678349 L172.039018,43.4694046 L179.028263,39.3883982 L180.038652,38.9933503 C186.11941,43.6669285 191.51506,49.3373673 195.796692,55.6090412 C196.995918,55.6090412 198.006307,56.0127524 199,55.5143221 C185.621987,35.2120953 163.560961,22.1703171 139.683537,20.2799784 L139.581059,20.4775023 L139.392798,20.2799784 L139.392798,20.2799784 Z M91.1714286,227.48 C92.5314286,227.48 93.7914286,227.253333 94.9514286,226.8 C96.1114286,226.346667 97.1180952,225.713333 97.9714286,224.9 C98.8247619,224.086667 99.4914286,223.113333 99.9714286,221.98 C100.451429,220.846667 100.691429,219.6 100.691429,218.24 C100.691429,216.933333 100.471429,215.726667 100.031429,214.62 C99.5914286,213.513333 98.9780952,212.553333 98.1914286,211.74 C97.4047619,210.926667 96.4647619,210.293333 95.3714286,209.84 C94.2780952,209.386667 93.0647619,209.16 91.7314286,209.16 C91.0914286,209.16 90.4514286,209.213333 89.8114286,209.32 C89.1714286,209.426667 88.5447619,209.6 87.9314286,209.84 L87.9314286,209.84 L88.0914286,201.32 L99.6914286,201.32 L99.6914286,198.68 L85.2514286,198.68 L84.9714286,213.36 C85.8780952,212.88 86.8314286,212.5 87.8314286,212.22 C88.8314286,211.94 89.8380952,211.8 90.8514286,211.8 C91.8647619,211.8 92.7980952,211.96 93.6514286,212.28 C94.5047619,212.6 95.2380952,213.06 95.8514286,213.66 C96.4647619,214.26 96.9447619,214.973333 97.2914286,215.8 C97.6380952,216.626667 97.8114286,217.533333 97.8114286,218.52 C97.8114286,219.4 97.6447619,220.226667 97.3114286,221 C96.9780952,221.773333 96.5247619,222.44 95.9514286,223 C95.3780952,223.56 94.7047619,224.006667 93.9314286,224.34 C93.1580952,224.673333 92.3180952,224.84 91.4114286,224.84 C90.1580952,224.84 89.0514286,224.513333 88.0914286,223.86 C87.1314286,223.206667 86.3847619,222.32 85.8514286,221.2 L85.8514286,221.2 L83.0114286,222.44 C83.7847619,224.093333 84.8914286,225.346667 86.3314286,226.2 C87.7714286,227.053333 89.3847619,227.48 91.1714286,227.48 Z M120.165714,227.48 C122.192381,227.48 123.832381,227.013333 125.085714,226.08 C126.339048,225.146667 127.312381,223.96 128.005714,222.52 C128.699048,221.08 129.165714,219.5 129.405714,217.78 C129.645714,216.06 129.765714,214.413333 129.765714,212.84 C129.765714,211.266667 129.645714,209.62 129.405714,207.9 C129.165714,206.18 128.699048,204.6 128.005714,203.16 C127.312381,201.72 126.339048,200.533333 125.085714,199.6 C123.832381,198.666667 122.192381,198.2 120.165714,198.2 C118.139048,198.2 116.499048,198.666667 115.245714,199.6 C113.992381,200.533333 113.019048,201.72 112.325714,203.16 C111.632381,204.6 111.165714,206.18 110.925714,207.9 C110.685714,209.62 110.565714,211.266667 110.565714,212.84 C110.565714,214.413333 110.685714,216.06 110.925714,217.78 C111.165714,219.5 111.632381,221.08 112.325714,222.52 C113.019048,223.96 113.992381,225.146667 115.245714,226.08 C116.499048,227.013333 118.139048,227.48 120.165714,227.48 Z M120.165714,224.84 C118.619048,224.84 117.399048,224.426667 116.505714,223.6 C115.612381,222.773333 114.939048,221.746667 114.485714,220.52 C114.032381,219.293333 113.745714,217.986667 113.625714,216.6 C113.505714,215.213333 113.445714,213.96 113.445714,212.84 C113.445714,211.72 113.505714,210.466667 113.625714,209.08 C113.745714,207.693333 114.032381,206.386667 114.485714,205.16 C114.939048,203.933333 115.612381,202.906667 116.505714,202.08 C117.399048,201.253333 118.619048,200.84 120.165714,200.84 C121.712381,200.84 122.932381,201.253333 123.825714,202.08 C124.719048,202.906667 125.392381,203.933333 125.845714,205.16 C126.299048,206.386667 126.585714,207.693333 126.705714,209.08 C126.825714,210.466667 126.885714,211.72 126.885714,212.84 C126.885714,213.96 126.825714,215.213333 126.705714,216.6 C126.585714,217.986667 126.299048,219.293333 125.845714,220.52 C125.392381,221.746667 124.719048,222.773333 123.825714,223.6 C122.932381,224.426667 121.712381,224.84 120.165714,224.84 Z M147.08,227.48 C148.44,227.48 149.7,227.253333 150.86,226.8 C152.02,226.346667 153.026667,225.713333 153.88,224.9 C154.733333,224.086667 155.4,223.113333 155.88,221.98 C156.36,220.846667 156.6,219.6 156.6,218.24 C156.6,216.933333 156.38,215.726667 155.94,214.62 C155.5,213.513333 154.886667,212.553333 154.1,211.74 C153.313333,210.926667 152.373333,210.293333 151.28,209.84 C150.186667,209.386667 148.973333,209.16 147.64,209.16 C147,209.16 146.36,209.213333 145.72,209.32 C145.08,209.426667 144.453333,209.6 143.84,209.84 L143.84,209.84 L144,201.32 L155.6,201.32 L155.6,198.68 L141.16,198.68 L140.88,213.36 C141.786667,212.88 142.74,212.5 143.74,212.22 C144.74,211.94 145.746667,211.8 146.76,211.8 C147.773333,211.8 148.706667,211.96 149.56,212.28 C150.413333,212.6 151.146667,213.06 151.76,213.66 C152.373333,214.26 152.853333,214.973333 153.2,215.8 C153.546667,216.626667 153.72,217.533333 153.72,218.52 C153.72,219.4 153.553333,220.226667 153.22,221 C152.886667,221.773333 152.433333,222.44 151.86,223 C151.286667,223.56 150.613333,224.006667 149.84,224.34 C149.066667,224.673333 148.226667,224.84 147.32,224.84 C146.066667,224.84 144.96,224.513333 144,223.86 C143.04,223.206667 142.293333,222.32 141.76,221.2 L141.76,221.2 L138.92,222.44 C139.693333,224.093333 140.8,225.346667 142.24,226.2 C143.68,227.053333 145.293333,227.48 147.08,227.48 Z M175.034286,227.48 C176.394286,227.48 177.654286,227.253333 178.814286,226.8 C179.974286,226.346667 180.980952,225.713333 181.834286,224.9 C182.687619,224.086667 183.354286,223.113333 183.834286,221.98 C184.314286,220.846667 184.554286,219.6 184.554286,218.24 C184.554286,216.933333 184.334286,215.726667 183.894286,214.62 C183.454286,213.513333 182.840952,212.553333 182.054286,211.74 C181.267619,210.926667 180.327619,210.293333 179.234286,209.84 C178.140952,209.386667 176.927619,209.16 175.594286,209.16 C174.954286,209.16 174.314286,209.213333 173.674286,209.32 C173.034286,209.426667 172.407619,209.6 171.794286,209.84 L171.794286,209.84 L171.954286,201.32 L183.554286,201.32 L183.554286,198.68 L169.114286,198.68 L168.834286,213.36 C169.740952,212.88 170.694286,212.5 171.694286,212.22 C172.694286,211.94 173.700952,211.8 174.714286,211.8 C175.727619,211.8 176.660952,211.96 177.514286,212.28 C178.367619,212.6 179.100952,213.06 179.714286,213.66 C180.327619,214.26 180.807619,214.973333 181.154286,215.8 C181.500952,216.626667 181.674286,217.533333 181.674286,218.52 C181.674286,219.4 181.507619,220.226667 181.174286,221 C180.840952,221.773333 180.387619,222.44 179.814286,223 C179.240952,223.56 178.567619,224.006667 177.794286,224.34 C177.020952,224.673333 176.180952,224.84 175.274286,224.84 C174.020952,224.84 172.914286,224.513333 171.954286,223.86 C170.994286,223.206667 170.247619,222.32 169.714286,221.2 L169.714286,221.2 L166.874286,222.44 C167.647619,224.093333 168.754286,225.346667 170.194286,226.2 C171.634286,227.053333 173.247619,227.48 175.034286,227.48 Z M0,0 L263,0 L263,271 L0,271 L0,0 Z" id="Shape"></path>
        </g>
    </g>
</svg>