<?xml version="1.0" encoding="UTF-8"?>
<svg width="30px" height="24px" viewBox="0 0 30 24" version="1.1" xmlns="http://www.w3.org/2000/svg" xmlns:xlink="http://www.w3.org/1999/xlink">
    <!-- Generator: Sketch 51.3 (57544) - http://www.bohemiancoding.com/sketch -->
    <title>compareWhite</title>
    <desc>Created with Sketch.</desc>
    <defs></defs>
    <g id="Page-1" stroke="none" stroke-width="1" fill="none" fill-rule="evenodd">
        <g id="compareWhite" fill="#FFFFFF">
            <path d="M22.1861852,0.31369592 C21.7676937,-0.10467 21.089293,-0.10454444 20.6709271,0.31394704 C20.4700939,0.51484304 20.3572782,0.78718268 20.3572154,1.0711994 L20.3572154,4.2855354 L12.8570772,4.2855354 C12.2653757,4.2855354 11.7856737,4.76523738 11.7856737,5.35700166 C11.7856737,5.94876594 12.2653757,6.42840514 12.8570772,6.42840514 L21.4286817,6.42840514 C22.0203832,6.42840514 22.5000852,5.94876594 22.5000852,5.35700166 L22.5000852,3.65767262 L27.4137502,8.57133766 L22.5000852,13.4849399 L22.5000852,11.7856737 C22.5000852,11.1939094 22.0203832,10.7142074 21.4286817,10.7142074 L9.64274119,10.7142074 L9.64274119,7.4998714 C9.64261563,6.90810712 9.16285087,6.4285307 8.57108659,6.42865626 C8.28706987,6.42871904 8.01466745,6.5415347 7.81383423,6.74236792 L0.313633186,14.2425062 C-0.104544394,14.6608721 -0.104544394,15.3390844 0.313633186,15.7575131 L7.81383423,23.2575886 C8.01466745,23.4585474 8.28719543,23.5714886 8.57133771,23.5715514 C8.71215325,23.5719909 8.85165041,23.5443049 8.98166779,23.4901257 C9.38195307,23.3241354 9.64286675,22.9334555 9.64274119,22.5000851 L9.64274119,19.2857491 L17.1428794,19.2857491 C17.7346437,19.2857491 18.2143457,18.8060472 18.2143457,18.2143457 C18.2143457,17.6225814 17.7346437,17.1428794 17.1428794,17.1428794 L8.57133771,17.1428794 C7.97957343,17.1428794 7.49987145,17.6225814 7.49987145,18.2143457 L7.49987145,19.9136119 L2.58620641,15.0000097 L7.49987145,10.0863446 L7.49987145,11.7856737 C7.49987145,12.3773752 7.97957343,12.8570771 8.57133771,12.8570771 L20.3572154,12.8570771 L20.3572154,16.0714131 C20.357341,16.6631774 20.8371685,17.1427538 21.42887,17.1426283 C21.7129495,17.1425655 21.9852892,17.0297498 22.1861852,16.8289794 L29.6863234,9.32884114 C30.1045638,8.91041244 30.1045638,8.2322001 29.6863234,7.81383418 L22.1861852,0.31369592 Z" id="Shape"></path>
        </g>
    </g>
</svg>