<?xml version="1.0" encoding="UTF-8" standalone="no"?>
<!DOCTYPE svg PUBLIC "-//W3C//DTD SVG 1.1//EN" "http://www.w3.org/Graphics/SVG/1.1/DTD/svg11.dtd">
<svg width="100%" height="100%" viewBox="0 0 100 80" version="1.1" xmlns="http://www.w3.org/2000/svg" xmlns:xlink="http://www.w3.org/1999/xlink" xml:space="preserve" xmlns:serif="http://www.serif.com/" style="fill-rule:evenodd;clip-rule:evenodd;stroke-linejoin:round;stroke-miterlimit:1.41421;">
    <g transform="matrix(1,0,0,1,-360,-10)">
        <g id="Compare" transform="matrix(0.471698,0,0,0.368664,379.811,25.4839)">
            <rect x="-42" y="-42" width="212" height="217" style="fill:none;"/>
            <clipPath id="_clip1">
                <rect x="-42" y="-42" width="212" height="217"/>
            </clipPath>
            <g clip-path="url(#_clip1)">
                <g transform="matrix(0.443645,0,0,0.567636,-42.0001,-40.368)">
                    <path d="M353.396,5.534C346.73,-1.13 335.924,-1.128 329.26,5.538C326.061,8.738 324.264,13.076 324.263,17.6L324.263,68.8L204.796,68.8C195.371,68.8 187.73,76.441 187.73,85.867C187.73,95.293 195.371,102.933 204.796,102.933L341.33,102.933C350.755,102.933 358.396,95.293 358.396,85.867L358.396,58.799L436.664,137.067L358.396,215.334L358.396,188.267C358.396,178.841 350.755,171.2 341.33,171.2L153.596,171.2L153.596,120C153.594,110.574 145.952,102.935 136.526,102.937C132.002,102.938 127.663,104.735 124.464,107.934L4.996,227.401C-1.665,234.065 -1.665,244.868 4.996,251.533L124.464,370.999C127.663,374.2 132.004,375.999 136.53,376C138.773,376.007 140.995,375.566 143.066,374.703C149.442,372.059 153.598,365.836 153.596,358.933L153.596,307.733L273.063,307.733C282.489,307.733 290.13,300.092 290.13,290.667C290.13,281.241 282.489,273.6 273.063,273.6L136.53,273.6C127.104,273.6 119.463,281.241 119.463,290.667L119.463,317.734L41.195,239.467L119.463,161.199L119.463,188.267C119.463,197.692 127.104,205.333 136.53,205.333L324.263,205.333L324.263,256.533C324.265,265.959 331.908,273.598 341.333,273.596C345.858,273.595 350.196,271.798 353.396,268.6L472.863,149.133C479.525,142.468 479.525,131.665 472.863,125.001L353.396,5.534Z" style="fill-rule:nonzero;"/>
                </g>
            </g>
        </g>
    </g>
</svg>
