<?xml version="1.0" encoding="utf-8"?><!DOCTYPE svg PUBLIC "-//W3C//DTD SVG 1.1//EN" "http://www.w3.org/Graphics/SVG/1.1/DTD/svg11.dtd"><svg version="1.1" xmlns="http://www.w3.org/2000/svg" xmlns:xlink="http://www.w3.org/1999/xlink" width="20" height="20" viewBox="0 0 20 20" data-tags="close-solid"><g fill="#444" transform="scale(0.01953125 0.01953125)"><path d="M150.016 873.984c-96.436-93.233-156.308-223.762-156.308-368.276 0-282.77 229.23-512 512-512 144.514 0 275.043 59.872 368.137 156.164l0.138 0.144c88.925 91.979 143.724 217.436 143.724 355.692 0 282.77-229.23 512-512 512-138.256 0-263.713-54.799-355.836-143.863l0.144 0.138zM583.68 512l144.896-144.896-72.192-72.192-144.384 144.896-144.896-144.896-72.192 72.192 144.896 144.896-144.896 144.896 72.192 72.192 144.896-144.896 144.896 144.896 72.192-72.192-144.896-144.896z" /></g></svg>