<?xml version="1.0" encoding="UTF-8"?>
<svg width="92px" height="92px" viewBox="0 0 92 92" version="1.1" xmlns="http://www.w3.org/2000/svg" xmlns:xlink="http://www.w3.org/1999/xlink">
    <!-- Generator: Sketch 57.1 (83088) - https://sketch.com -->
    <title>cwetop25-2019</title>
    <desc>Created with Sketch.</desc>
    <g id="cwetop25-2019" stroke="none" stroke-width="1" fill="none" fill-rule="evenodd">
        <g id="owasp_logo_Mx_2016" fill="#1A1919">
            <path d="M61,0 C65.418278,-8.11624501e-16 69,3.581722 69,8 L69.0006918,45.0049891 C55.7001221,45.2709437 45,56.1360134 45,69.5001249 C45,70.0041447 45.0152202,70.5046101 45.045226,71.0010866 L8,71 C3.581722,71 5.41083001e-16,67.418278 0,63 L0,8 C-5.41083001e-16,3.581722 3.581722,8.11624501e-16 8,0 L61,0 Z M17.4707031,33.5532227 L9.26318359,33.5532227 L9.26318359,36.6191406 L8.16503906,36.6191406 L8.16503906,29.2431641 L9.26318359,29.2431641 L9.26318359,32.3217773 L17.4707031,32.3217773 L17.4707031,33.5532227 Z M12.9384766,28.5893555 C11.3938725,28.5893555 10.1846561,28.1746461 9.31079102,27.3452148 C8.43692597,26.5157836 8,25.4451563 8,24.1333008 C8,23.274247 8.20523883,22.4998407 8.61572266,21.8100586 C9.02620648,21.1202765 9.59854776,20.5944842 10.3327637,20.232666 C11.0669796,19.8708478 11.8995722,19.6899414 12.8305664,19.6899414 C13.774256,19.6899414 14.6184859,19.8803692 15.3632812,20.2612305 C16.1080766,20.6420917 16.6719545,21.1816371 17.0549316,21.8798828 C17.4379088,22.5781285 17.6293945,23.3313762 17.6293945,24.1396484 C17.6293945,25.0156294 17.4178081,25.7984992 16.9946289,26.4882812 C16.5714497,27.1780633 15.9938188,27.7006818 15.2617188,28.0561523 C14.5296187,28.4116229 13.7552124,28.5893555 12.9384766,28.5893555 Z M12.9575195,27.3198242 C14.0789444,27.3198242 14.9623177,27.0183136 15.607666,26.4152832 C16.2530143,25.8122528 16.5756836,25.0558314 16.5756836,24.1459961 C16.5756836,23.2192336 16.2498405,22.4564646 15.5981445,21.857666 C14.9464486,21.2588674 14.0218159,20.9594727 12.8242188,20.9594727 C12.066728,20.9594727 11.4055204,21.0874824 10.8405762,21.3435059 C10.2756319,21.5995293 9.83764804,21.9740372 9.52661133,22.467041 C9.21557462,22.9600448 9.06005859,23.5133433 9.06005859,24.1269531 C9.06005859,24.9987023 9.35945339,25.7487762 9.95825195,26.3771973 C10.5570505,27.0056184 11.5567964,27.3198242 12.9575195,27.3198242 Z M17.4707031,18.1030273 L8.16503906,18.1030273 L8.16503906,14.5927734 C8.16503906,13.9749318 8.19466116,13.5030941 8.25390625,13.1772461 C8.33007851,12.7202126 8.47501521,12.3372411 8.6887207,12.0283203 C8.9024262,11.7193995 9.20182099,11.4707854 9.58691406,11.2824707 C9.97200713,11.094156 10.39518,11 10.8564453,11 C11.6477904,11 12.3174615,11.2517878 12.8654785,11.7553711 C13.4134956,12.2589543 13.6875,13.168776 13.6875,14.4848633 L13.6875,16.871582 L17.4707031,16.871582 L17.4707031,18.1030273 Z M12.5893555,16.871582 L12.5893555,14.4658203 C12.5893555,13.6702434 12.441245,13.1053077 12.1450195,12.7709961 C11.8487941,12.4366845 11.4319688,12.2695312 10.8945313,12.2695312 C10.5052064,12.2695312 10.1719578,12.3679189 9.89477539,12.5646973 C9.61759302,12.7614756 9.43457076,13.020669 9.34570313,13.3422852 C9.29068983,13.549643 9.26318359,13.9326144 9.26318359,14.4912109 L9.26318359,16.871582 L12.5893555,16.871582 Z M40,33.5033967 L40,39 L20,39 C20.2165831,36.9220911 20.8663228,34.9530211 21.9492386,33.092731 C23.0321543,31.2324409 25.1708808,28.764961 28.3654822,25.6902174 C30.9374071,23.2051506 32.5143795,21.5203849 33.0964467,20.6358696 C33.8815606,19.4143961 34.2741117,18.2069806 34.2741117,17.013587 C34.2741117,15.693834 33.9323215,14.6794646 33.248731,13.9704484 C32.5651404,13.2614321 31.6209874,12.9069293 30.4162437,12.9069293 C29.2250363,12.9069293 28.2774993,13.2789818 27.5736041,14.0230978 C26.8697088,14.7672139 26.4636215,16.0027088 26.3553299,17.7296196 L20.6700508,17.1399457 C21.0084619,13.882683 22.0710571,11.5450705 23.857868,10.127038 C25.644679,8.70900559 27.8781592,8 30.5583756,8 C33.4957846,8 35.8037141,8.82132331 37.4822335,10.4639946 C39.1607529,12.1066658 40,14.1494443 40,16.5923913 C40,17.9823439 39.7597317,19.305587 39.2791878,20.5621603 C38.798644,21.8187336 38.0372303,23.1349569 36.9949239,24.5108696 C36.3045651,25.4234647 35.0592307,26.736178 33.2588832,28.4490489 C31.4585358,30.1619198 30.3181073,31.2991367 29.8375635,31.8607337 C29.3570196,32.4223307 28.9678526,32.9698796 28.6700508,33.5033967 L40,33.5033967 Z M45,30.5282121 L50.6795132,29.9170632 C50.8417858,31.2517628 51.3218351,32.3089696 52.1196755,33.0887152 C52.9175158,33.8684607 53.8370469,34.2583277 54.8782961,34.2583277 C56.0682953,34.2583277 57.0757227,33.7560667 57.9006085,32.7515296 C58.7254943,31.7469925 59.137931,30.2331848 59.137931,28.2100612 C59.137931,26.3133828 58.7288749,24.8908953 57.9107505,23.9425561 C57.0926261,22.9942169 56.027728,22.5200544 54.7160243,22.5200544 C53.0797755,22.5200544 51.6125826,23.2716897 50.3144016,24.774983 L45.6896552,24.0795377 L48.6105477,8 L63.6815416,8 L63.6815416,13.5424881 L52.9310345,13.5424881 L52.0385396,18.7899388 C53.3096751,18.1296137 54.6078365,17.7994562 55.9330629,17.7994562 C58.4618112,17.7994562 60.6051298,18.7548058 62.3630832,20.6655337 C64.1210365,22.5762615 65,25.0559558 65,28.1046907 C65,30.6476447 64.290068,32.9166 62.8701826,34.9116247 C60.9364339,37.6372219 58.2522146,39 54.8174442,39 C52.0723325,39 49.8343562,38.2343154 48.1034483,36.7029232 C46.3725404,35.171531 45.338068,33.1133145 45,30.5282121 Z M15.2578125,56.6484375 L15.2578125,58 L7.6875,58 C7.67708328,57.6614566 7.73177023,57.3359391 7.8515625,57.0234375 C8.0442718,56.5078099 8.35286246,56 8.77734375,55.5 C9.20182504,55 9.81510016,54.4218783 10.6171875,53.765625 C11.8619854,52.7447866 12.7031228,51.9362009 13.140625,51.3398438 C13.5781272,50.7434866 13.796875,50.1796902 13.796875,49.6484375 C13.796875,49.091143 13.5976582,48.6210957 13.1992188,48.2382812 C12.8007793,47.8554668 12.2812532,47.6640625 11.640625,47.6640625 C10.9635383,47.6640625 10.421877,47.8671855 10.015625,48.2734375 C9.60937297,48.6796895 9.40364586,49.2421839 9.3984375,49.9609375 L7.953125,49.8125 C8.05208383,48.7343696 8.42447594,47.9127632 9.0703125,47.3476562 C9.71614906,46.7825493 10.5833279,46.5 11.671875,46.5 C12.7708388,46.5 13.6406218,46.8046845 14.28125,47.4140625 C14.9218782,48.0234405 15.2421875,48.7786413 15.2421875,49.6796875 C15.2421875,50.1380231 15.1484384,50.5885395 14.9609375,51.03125 C14.7734366,51.4739605 14.4622418,51.9401017 14.0273438,52.4296875 C13.5924457,52.9192733 12.8697967,53.5911416 11.859375,54.4453125 C11.0156208,55.1536494 10.4739595,55.6341133 10.234375,55.8867188 C9.99479047,56.1393242 9.79687578,56.3932279 9.640625,56.6484375 L15.2578125,56.6484375 Z M16.765625,52.3515625 C16.765625,50.9973891 16.9049465,49.9075562 17.1835938,49.0820312 C17.462241,48.2565063 17.8762993,47.6197939 18.4257812,47.171875 C18.9752632,46.7239561 19.6666625,46.5 20.5,46.5 C21.1145864,46.5 21.6536435,46.6236967 22.1171875,46.8710938 C22.5807315,47.1184908 22.9635402,47.4752581 23.265625,47.9414062 C23.5677098,48.4075544 23.8046866,48.9752571 23.9765625,49.6445312 C24.1484384,50.3138054 24.234375,51.2161402 24.234375,52.3515625 C24.234375,53.6953192 24.0963555,54.7799438 23.8203125,55.6054688 C23.5442695,56.4309937 23.1315132,57.0690082 22.5820312,57.5195312 C22.0325493,57.9700543 21.3385459,58.1953125 20.5,58.1953125 C19.3958278,58.1953125 18.528649,57.7994831 17.8984375,57.0078125 C17.1432254,56.0546827 16.765625,54.5026149 16.765625,52.3515625 Z M18.2109375,52.3515625 C18.2109375,54.2317802 18.4309874,55.4830698 18.8710938,56.1054688 C19.3112001,56.7278677 19.8541634,57.0390625 20.5,57.0390625 C21.1458366,57.0390625 21.6887999,56.7265656 22.1289062,56.1015625 C22.5690126,55.4765594 22.7890625,54.2265719 22.7890625,52.3515625 C22.7890625,50.4661364 22.5690126,49.2135448 22.1289062,48.59375 C21.6887999,47.9739552 21.1406283,47.6640625 20.484375,47.6640625 C19.8385384,47.6640625 19.3229186,47.9374973 18.9375,48.484375 C18.4531226,49.1822952 18.2109375,50.4713448 18.2109375,52.3515625 Z M30.9609375,58 L29.5546875,58 L29.5546875,49.0390625 C29.2161441,49.3619808 28.7721382,49.6848942 28.2226562,50.0078125 C27.6731743,50.3307308 27.1796897,50.5729159 26.7421875,50.734375 L26.7421875,49.375 C27.5286498,49.0052065 28.2161429,48.5572943 28.8046875,48.03125 C29.3932321,47.5052057 29.8098946,46.9947941 30.0546875,46.5 L30.9609375,46.5 L30.9609375,58 Z M34.7734375,55.3515625 L36.125,55.2265625 C36.2395839,55.8619823 36.4583317,56.3229152 36.78125,56.609375 C37.1041683,56.8958348 37.5182266,57.0390625 38.0234375,57.0390625 C38.4557313,57.0390625 38.8346338,56.9401052 39.1601562,56.7421875 C39.4856787,56.5442698 39.7526031,56.2799496 39.9609375,55.9492188 C40.1692719,55.6184879 40.3437493,55.1718778 40.484375,54.609375 C40.6250007,54.0468722 40.6953125,53.4739613 40.6953125,52.890625 C40.6953125,52.8281247 40.6927084,52.7343756 40.6875,52.609375 C40.4062486,53.0572939 40.0221379,53.4205715 39.5351562,53.6992188 C39.0481746,53.977866 38.5208362,54.1171875 37.953125,54.1171875 C37.0052036,54.1171875 36.2031283,53.7734409 35.546875,53.0859375 C34.8906217,52.3984341 34.5625,51.4921931 34.5625,50.3671875 C34.5625,49.2057234 34.9049445,48.2708369 35.5898438,47.5625 C36.274743,46.8541631 37.1328073,46.5 38.1640625,46.5 C38.9088579,46.5 39.5898407,46.7005188 40.2070312,47.1015625 C40.8242218,47.5026062 41.2929671,48.074215 41.6132812,48.8164062 C41.9335954,49.5585975 42.09375,50.6328055 42.09375,52.0390625 C42.09375,53.5026115 41.9348974,54.6679644 41.6171875,55.5351562 C41.2994776,56.4023481 40.8268261,57.0624977 40.1992188,57.515625 C39.5716114,57.9687523 38.8359417,58.1953125 37.9921875,58.1953125 C37.0963497,58.1953125 36.3645862,57.9466171 35.796875,57.4492188 C35.2291638,56.9518204 34.8880214,56.2526087 34.7734375,55.3515625 Z M40.53125,50.296875 C40.53125,49.4895793 40.3164084,48.8489607 39.8867188,48.375 C39.4570291,47.9010393 38.9401072,47.6640625 38.3359375,47.6640625 C37.7109344,47.6640625 37.166669,47.9192683 36.703125,48.4296875 C36.239581,48.9401067 36.0078125,49.6015584 36.0078125,50.4140625 C36.0078125,51.1432328 36.2278624,51.7356748 36.6679688,52.1914062 C37.1080751,52.6471377 37.6510384,52.875 38.296875,52.875 C38.9479199,52.875 39.4830708,52.6471377 39.9023438,52.1914062 C40.3216167,51.7356748 40.53125,51.1041707 40.53125,50.296875 Z" id="Fill-1"></path>
            <path d="M69.1444107,92 C56.5214185,92 46.2885884,81.7670411 46.2885884,69.1444107 C46.2885884,56.5215472 56.5214185,46.2885884 69.1444107,46.2885884 C81.7669368,46.2885884 92,56.5215472 92,69.1444107 C92,81.7670411 81.7669368,92 69.1444107,92 M69.1444209,48.1170448 C80.75711,48.1170448 90.1715435,57.5314216 90.1715435,69.1442942 C90.1715435,80.7571667 80.75711,90.1715435 69.1444209,90.1715435 C57.5314784,90.1715435 48.1170448,80.7571667 48.1170448,69.1442942 C48.1170448,57.5314216 57.5314784,48.1170448 69.1444209,48.1170448 Z" id="Fill-1-Copy"></path>
        </g>
        <g id="CWE" transform="translate(50.000000, 62.000000)">
            <g id="C">
                <path d="M6.42857143,0.65625 L6.42857143,3.0625 L6.42857143,3.0625 C4.06163679,3.0625 2.14285714,4.92331651 2.14285714,7.21875 C2.14285714,9.51418349 4.06163679,11.375 6.42857143,11.375 L6.42857143,13.78125 L6.42857143,13.78125 C2.87816947,13.78125 0,10.8431187 0,7.21875 C0,3.59438133 2.87816947,0.65625 6.42857143,0.65625 Z" id="Combined-Shape-Copy-3" fill="#D0D0D0"></path>
                <path d="M11.1565714,11.37425 L11.9295714,13.78125 L6.42857143,13.78125 L6.42857143,11.375 L11.1565714,11.37425 Z M7.71428571,0.65625 L8.48657143,3.06225 L6.42857143,3.0625 L6.42857143,0.65625 L7.71428571,0.65625 Z" id="Combined-Shape-Copy-2" fill="#D0D0D0"></path>
                <path d="M6.42857143,0.21875 L6.42857143,2.625 L6.42857143,2.625 C4.06163679,2.625 2.14285714,4.48581651 2.14285714,6.78125 C2.14285714,9.07668349 4.06163679,10.9375 6.42857143,10.9375 L6.42857143,13.34375 L6.42857143,13.34375 C2.87816947,13.34375 0,10.4056187 0,6.78125 C0,3.15688133 2.87816947,0.21875 6.42857143,0.21875 Z" id="Combined-Shape" fill="#000000"></path>
                <path d="M11.1565714,10.93675 L11.9295714,13.34375 L6.42857143,13.34375 L6.42857143,10.9375 L11.1565714,10.93675 Z M7.71428571,0.21875 L8.48657143,2.62475 L6.42857143,2.625 L6.42857143,0.21875 L7.71428571,0.21875 Z" id="Combined-Shape" fill="#000000"></path>
            </g>
            <g id="E" transform="translate(24.000000, 0.000000)">
                <path d="M13.8993889,0.65625 L12.8923889,2.84325 L7.875,2.84375 L6.34375,6.0375005 L11.0573889,6.03725 L10.0833889,8.09325 L5.46875,8.09375 L3.71875,11.7250005 L8.80338889,11.72425 L7.85638889,13.78125 L0.201388889,13.78125 L6.24338889,0.65625 L13.8993889,0.65625 Z" id="Combined-Shape-Copy" fill="#D0D0D0"></path>
                <path d="M13.8993889,0.21875 L12.8923889,2.40575 L7.875,2.40625 L6.34375,5.6000005 L11.0573889,5.59975 L10.0833889,7.65575 L5.46875,7.65625 L3.71875,11.2875005 L8.80338889,11.28675 L7.85638889,13.34375 L0.201388889,13.34375 L6.24338889,0.21875 L13.8993889,0.21875 Z" id="Combined-Shape-Copy-5" fill="#000000"></path>
            </g>
            <g id="W" transform="translate(9.000000, 0.000000)">
                <path d="M3.40473885,0.655632364 C3.66426304,1.58688606 4.81265983,5.09024435 6.84992922,11.1657073 L6.99350649,11.59375 L8.92207792,7 L6.72857143,0.65625 L9.8312562,0.655996848 C10.0841279,1.60947256 11.20964,5.25539027 13.2077922,11.59375 L13.2077922,11.59375 L18.0395714,0.65625 L20.9220779,0.65625 L20.9215714,0.91325 L15.1185714,13.78125 L11.2716362,13.78125 L10.2077922,10.0625 L8.70779221,13.78125 L5.10357143,13.78125 L0.429571429,0.65625 L3.40473885,0.655632364 Z" id="Combined-Shape" fill="#D0D0D0"></path>
                <path d="M3.0540895,0.218132364 C3.31361369,1.14938606 4.46201048,4.65274435 6.49927987,10.7282073 L6.64285714,11.15625 L8.57142857,6.5625 L6.37792208,0.21875 L9.48060685,0.218496848 C9.7334786,1.17197256 10.8589906,4.81789027 12.8571429,11.15625 L12.8571429,11.15625 L17.6889221,0.21875 L20.5714286,0.21875 L20.5709221,0.47575 L14.7679221,13.34375 L10.9209869,13.34375 L9.85714286,9.625 L8.35714286,13.34375 L4.75292208,13.34375 L0.0789220779,0.21875 L3.0540895,0.218132364 Z" id="Combined-Shape-Copy-4" stroke="#000000" stroke-width="0.5" fill="#FFFFFF"></path>
                <polygon id="Rectangle-5" fill="#FFFFFF" transform="translate(10.075410, 6.491346) rotate(23.000000) translate(-10.075410, -6.491346) " points="8.99875462 2.61231885 9.38551409 2.05936381 11.1947679 5.48242782 10.7345155 5.67779338 10.8246323 9.9849826 8.95605144 10.9233275"></polygon>
            </g>
        </g>
    </g>
</svg>