<?xml version="1.0" encoding="UTF-8" standalone="no"?>
<!DOCTYPE svg PUBLIC "-//W3C//DTD SVG 1.1//EN" "http://www.w3.org/Graphics/SVG/1.1/DTD/svg11.dtd">
<svg width="100%" height="100%" viewBox="0 0 1024 1024" version="1.1" xmlns="http://www.w3.org/2000/svg" xmlns:xlink="http://www.w3.org/1999/xlink" xml:space="preserve" xmlns:serif="http://www.serif.com/" style="fill-rule:evenodd;clip-rule:evenodd;stroke-linejoin:round;stroke-miterlimit:1.41421;">
    <path d="M528,96.896C289.408,96.896 96,290.304 96,528.896C96,767.488 289.408,960.896 528,960.896C766.56,960.896 960,767.488 960,528.896C960,290.304 766.56,96.896 528,96.896ZM525.824,898.368C322.592,898.368 157.824,733.6 157.824,530.368C157.824,327.104 322.56,162.368 525.824,162.368C729.024,162.368 893.824,327.104 893.824,530.368C893.824,733.6 728.992,898.368 525.824,898.368Z" style="fill-rule:nonzero;"/>
    <path d="M705.056,345.312L705.056,256L543.2,405.248L352,333.856L352,662.24L543.232,733.6L736,662.208L736,333.856L705.056,345.312ZM676.512,320L676.512,355.872L610.56,380.288L676.512,320ZM704,636.8L543.232,697.6L543.232,441.6L704,380.8L704,636.8Z" style="fill-rule:nonzero;"/>
</svg>
