<?xml version="1.0" encoding="UTF-8"?>
<svg width="323px" height="156px" viewBox="0 0 323 156" version="1.1" xmlns="http://www.w3.org/2000/svg" xmlns:xlink="http://www.w3.org/1999/xlink">
    <!-- Generator: Sketch 55.2 (78181) - https://sketchapp.com -->
    <title>echoowlwithnamewhite</title>
    <desc>Created with Sketch.</desc>
    <g id="echoowlwithnamewhite" stroke="none" stroke-width="1" fill="none" fill-rule="evenodd">
        <path d="M267.369432,20.1092129 C270.469081,19.1324173 275.420659,18.5 281,18.5 C287.493773,18.5 293.137145,19.3567068 296,20.6159758 L296,20.5276493 C296.641877,20.0561367 297.338921,19.6888796 298,19.5 C301.5,18.5 303,17.5 304,14 C307.5,15 311,19 311,22 C311,22.1715729 310.983673,22.3382395 310.951387,22.5 L311,22.5 L311,50.5 L311,101.5 C309.863106,101.5 308.733852,101.471237 307.613128,101.414494 C304.89596,81.9672123 288.19587,67 268,67 C264.097327,67 260.325193,67.5589079 256.759275,68.601048 C254.329989,62.9757441 253,56.8744446 253,50.5 L253,22.5 L253.048613,22.5 C253.016327,22.3382395 253,22.1715729 253,22 C253,19 256.5,15 260,14 C261,17.5 262.5,18.5 266,19.5 C266.4494,19.6284 266.915421,19.8392328 267.369432,20.1092129 Z M259.858038,50.5 C263.910442,56.4537097 271.85834,60.5 281,60.5 C290.14166,60.5 298.089558,56.4537097 302.141962,50.5 C303.96529,47.8212038 305,44.7562627 305,41.5 C305,41.0468052 304.979958,40.5973163 304.940536,40.1520586 C304.979864,39.7731498 305,39.3888284 305,39 C305,32.6487254 299.627417,27.5 293,27.5 C286.372583,27.5 281,32.6487254 281,39 C281,39.1675275 281.003738,39.3342183 281.011138,39.5 L280.988862,39.5 C280.996262,39.3342183 281,39.1675275 281,39 C281,32.6487254 275.627417,27.5 269,27.5 C262.372583,27.5 257,32.6487254 257,39 C257,39.3888284 257.020136,39.7731498 257.059464,40.1520586 C257.020042,40.5973163 257,41.0468052 257,41.5 C257,44.7562627 258.03471,47.8212038 259.858038,50.5 Z M277,49.5 L281,39.5 L285,49.5 L281,54.5 L277,49.5 Z M291.464464,98.534787 C281.615387,95.4374048 272.99706,90.0644055 266.428691,83.1361278 C267.27347,83.0461486 268.131346,83 269,83 C279.275076,83 288.042025,89.4570571 291.464464,98.534787 Z M269,47.5 C264.581722,47.5 261,43.918278 261,39.5 C261,35.081722 264.581722,31.5 269,31.5 C273.418278,31.5 277,35.081722 277,39.5 C277,43.918278 273.418278,47.5 269,47.5 Z M270,44.5 C272.209139,44.5 274,42.709139 274,40.5 C274,38.290861 272.209139,36.5 270,36.5 C267.790861,36.5 266,38.290861 266,40.5 C266,42.709139 267.790861,44.5 270,44.5 Z M293,47.5 C288.581722,47.5 285,43.918278 285,39.5 C285,35.081722 288.581722,31.5 293,31.5 C297.418278,31.5 301,35.081722 301,39.5 C301,43.918278 297.418278,47.5 293,47.5 Z M291.5,44.5 C293.432997,44.5 295,42.9329966 295,41 C295,39.0670034 293.432997,37.5 291.5,37.5 C289.567003,37.5 288,39.0670034 288,41 C288,42.9329966 289.567003,44.5 291.5,44.5 Z" id="Combined-Shape" fill="#FFFFFF"></path>
        <path d="M10.0000005,142 L10.0000005,72 L60.6000005,72 L60.6000005,79.2 L17.9000005,79.2 L17.9000005,103.1 L56.1000005,103.1 L56.1000005,110.3 L17.9000005,110.3 L17.9000005,134.8 L61.1000005,134.8 L61.1000005,142 L10.0000005,142 Z M112,143.2 C91.8000002,143.2 76.9000002,127.3 76.9000002,107.2 L76.9000002,107 C76.9000002,87.2 91.7000002,70.8 112.3,70.8 C125,70.8 132.6,75.3 139.6,81.9 L134.2,87.7 C128.3,82.1 121.7,78.1 112.2,78.1 C96.7000002,78.1 85.1000002,90.7 85.1000002,106.8 L85.1000002,107 C85.1000002,123.2 96.8000002,135.9 112.2,135.9 C121.8,135.9 128.1,132.2 134.8,125.8 L140,130.9 C132.7,138.3 124.7,143.2 112,143.2 Z M156.8,142 L156.8,72 L164.7,72 L164.7,103.1 L205.1,103.1 L205.1,72 L213,72 L213,142 L205.1,142 L205.1,110.5 L164.7,110.5 L164.7,142 L156.8,142 Z M268.3,143.2 C247,143.2 232.7,126.5 232.7,107.2 L232.7,107 C232.7,87.7 247.2,70.8 268.5,70.8 C289.8,70.8 304.1,87.5 304.1,106.8 L304.1,107 C304.1,126.3 289.6,143.2 268.3,143.2 Z M268.5,135.9 C284.5,135.9 295.9,123.1 295.9,107.2 L295.9,107 C295.9,91.1 284.3,78.1 268.3,78.1 C252.3,78.1 240.9,90.9 240.9,106.8 L240.9,107 C240.9,122.9 252.5,135.9 268.5,135.9 Z" id="ECHO" fill="#FFFFFF" fill-rule="nonzero"></path>
    </g>
</svg>