<?xml version="1.0" encoding="UTF-8"?>
<svg width="323px" height="156px" viewBox="0 0 323 156" version="1.1" xmlns="http://www.w3.org/2000/svg" xmlns:xlink="http://www.w3.org/1999/xlink">
    <!-- Generator: Sketch 55.2 (78181) - https://sketchapp.com -->
    <title>echoowlwithnamewhite</title>
    <desc>Created with Sketch.</desc>
    <g id="echoowlwithnamewhite" stroke="none" stroke-width="1" fill="none" fill-rule="evenodd">
        <path d="M267.291713,19.1780394 C270.092752,17.8727698 275.183983,17 281,17 C288.13484,17 294.178924,18.3134598 296.242224,20.1275589 C297.488799,16.6408468 303.398157,14 310.5,14 C310.667344,14 310.834026,14.0014663 311,14.0043754 L311,22 L311,50 L311,101 C309.838194,101 308.684366,100.969963 307.539466,100.910724 C304.606714,81.7093351 288.021132,67 268,67 C264.168152,67 260.462149,67.5388059 256.95362,68.5447879 C254.401012,62.7971328 253,56.5424321 253,50 L253,25.4978123 L253,14.0043754 C253.165974,14.0014663 253.332656,14 253.5,14 C259.941287,14 265.401603,16.172433 267.291713,19.1780394 Z M259.858038,50 C263.910442,55.9537097 271.85834,60 281,60 C290.14166,60 298.089558,55.9537097 302.141962,50 C303.96529,47.3212038 305,44.2562627 305,41 C305,40.5468052 304.979958,40.0973163 304.940536,39.6520586 C304.979864,39.2731498 305,38.8888284 305,38.5 C305,32.1487254 299.627417,27 293,27 C286.372583,27 281,32.1487254 281,38.5 C281,38.6675275 281.003738,38.8342183 281.011138,39 L280.988862,39 C280.996262,38.8342183 281,38.6675275 281,38.5 C281,32.1487254 275.627417,27 269,27 C262.372583,27 257,32.1487254 257,38.5 C257,38.8888284 257.020136,39.2731498 257.059464,39.6520586 C257.020042,40.0973163 257,40.5468052 257,41 C257,44.2562627 258.03471,47.3212038 259.858038,50 Z M276,50 L281,39 L286,50 L281,54 L276,50 Z M291.240844,97.9640037 C281.702309,94.9251638 273.328373,89.7489576 266.867428,83.0934524 C267.570032,83.0315884 268.281327,83 269,83 C279.058387,83 287.671586,89.1875854 291.240844,97.9640037 Z M268,47 C263.029437,47 259,42.9705627 259,38 C259,33.0294373 263.029437,29 268,29 C272.970563,29 277,33.0294373 277,38 C277,42.9705627 272.970563,47 268,47 Z M268,44 C270.209139,44 272,42.209139 272,40 C272,37.790861 270.209139,36 268,36 C265.790861,36 264,37.790861 264,40 C264,42.209139 265.790861,44 268,44 Z M294,47 C289.029437,47 285,42.9705627 285,38 C285,33.0294373 289.029437,29 294,29 C298.970563,29 303,33.0294373 303,38 C303,42.9705627 298.970563,47 294,47 Z M294,44 C296.209139,44 298,42.209139 298,40 C298,37.790861 296.209139,36 294,36 C291.790861,36 290,37.790861 290,40 C290,42.209139 291.790861,44 294,44 Z" id="Combined-Shape" fill="#FFFFFF"></path>
        <path d="M10.0000005,142 L10.0000005,72 L60.6000005,72 L60.6000005,79.2 L17.9000005,79.2 L17.9000005,103.1 L56.1000005,103.1 L56.1000005,110.3 L17.9000005,110.3 L17.9000005,134.8 L61.1000005,134.8 L61.1000005,142 L10.0000005,142 Z M112,143.2 C91.8000002,143.2 76.9000002,127.3 76.9000002,107.2 L76.9000002,107 C76.9000002,87.2 91.7000002,70.8 112.3,70.8 C125,70.8 132.6,75.3 139.6,81.9 L134.2,87.7 C128.3,82.1 121.7,78.1 112.2,78.1 C96.7000002,78.1 85.1000002,90.7 85.1000002,106.8 L85.1000002,107 C85.1000002,123.2 96.8000002,135.9 112.2,135.9 C121.8,135.9 128.1,132.2 134.8,125.8 L140,130.9 C132.7,138.3 124.7,143.2 112,143.2 Z M156.8,142 L156.8,72 L164.7,72 L164.7,103.1 L205.1,103.1 L205.1,72 L213,72 L213,142 L205.1,142 L205.1,110.5 L164.7,110.5 L164.7,142 L156.8,142 Z M268.3,143.2 C247,143.2 232.7,126.5 232.7,107.2 L232.7,107 C232.7,87.7 247.2,70.8 268.5,70.8 C289.8,70.8 304.1,87.5 304.1,106.8 L304.1,107 C304.1,126.3 289.6,143.2 268.3,143.2 Z M268.5,135.9 C284.5,135.9 295.9,123.1 295.9,107.2 L295.9,107 C295.9,91.1 284.3,78.1 268.3,78.1 C252.3,78.1 240.9,90.9 240.9,106.8 L240.9,107 C240.9,122.9 252.5,135.9 268.5,135.9 Z" id="ECHO" fill="#FFFFFF" fill-rule="nonzero"></path>
    </g>
</svg>