<?xml version="1.0" encoding="UTF-8"?>
<svg width="100px" height="100px" viewBox="0 0 100 100" version="1.1" xmlns="http://www.w3.org/2000/svg" xmlns:xlink="http://www.w3.org/1999/xlink">
    <!-- Generator: Sketch 55.2 (78181) - https://sketchapp.com -->
    <title>echoowlblack</title>
    <desc>Created with Sketch.</desc>
    <g id="echoowlblack" stroke="none" stroke-width="1" fill="none" fill-rule="evenodd">
        <path d="M34.4850409,11.6041461 C37.0288177,10.0662059 42.5716964,9 49,9 C56.695927,9 63.1227978,10.5281649 64.6537399,12.5644366 C66.491451,9.91986459 71.9955777,8 78.5,8 C78.6673439,8 78.8340257,8.00127079 79,8.00379201 L79,17.498104 L79,42 L79,93 C46.9674845,93 21,70.1665222 21,42 L21,17.498104 L21,8.00379201 C21.1659743,8.00127079 21.3326561,8 21.5,8 C27.1870397,8 32.1093929,9.46766068 34.4850409,11.6041461 Z M70.141962,42 C71.9652899,39.3212038 73,36.2562627 73,33 C73,32.5608392 72.9811797,32.1251583 72.9441427,31.6934353 C72.9810741,31.301137 73,30.9029892 73,30.5 C73,24.1487254 68.2989899,19 62.5,19 C56.7010101,19 52,24.1487254 52,30.5 C52,30.6675275 52.0032707,30.8342183 52.009746,31 L52,31 L52,42 L49,45 L46,42 L46,31 L45.990254,31 C45.9967293,30.8342183 46,30.6675275 46,30.5 C46,24.1487254 41.2989899,19 35.5,19 C29.7010101,19 25,24.1487254 25,30.5 C25,30.9029892 25.0189259,31.301137 25.0558573,31.6934353 C25.0188203,32.1251583 25,32.5608392 25,33 C25,36.2562627 26.0347101,39.3212038 27.858038,42 C31.9104422,47.9537097 39.85834,52 49,52 C58.14166,52 66.0895578,47.9537097 70.141962,42 Z M32.5,28 L37.5,28 C38.8807119,28 40,29.1192881 40,30.5 L40,31.5 C40,32.8807119 38.8807119,34 37.5,34 L32.5,34 C31.1192881,34 30,32.8807119 30,31.5 L30,30.5 C30,29.1192881 31.1192881,28 32.5,28 Z M60.5,28 L65.5,28 C66.8807119,28 68,29.1192881 68,30.5 L68,31.5 C68,32.8807119 66.8807119,34 65.5,34 L60.5,34 C59.1192881,34 58,32.8807119 58,31.5 L58,30.5 C58,29.1192881 59.1192881,28 60.5,28 Z" id="Combined-Shape" fill="#000000"></path>
    </g>
</svg>