<?xml version="1.0" encoding="UTF-8"?>
<svg width="100px" height="100px" viewBox="0 0 100 100" version="1.1" xmlns="http://www.w3.org/2000/svg" xmlns:xlink="http://www.w3.org/1999/xlink">
    <!-- Generator: Sketch 55.2 (78181) - https://sketchapp.com -->
    <title>echoowlblack</title>
    <desc>Created with Sketch.</desc>
    <g id="echoowlblack" stroke="none" stroke-width="1" fill="none" fill-rule="evenodd">
        <path d="M35.3694324,12.6092129 C38.4690811,11.6324173 43.4206589,11 49,11 C55.4937734,11 61.1371448,11.8567068 64,13.1159758 L64,13.0276493 C64.6418772,12.5561367 65.3389214,12.1888796 66,12 C69.5,11 71,10 72,6.5 C75.5,7.5 79,11.5 79,14.5 C79,14.6715729 78.9836726,14.8382395 78.9513872,15 L79,15 L79,43 L79,94 C46.9674845,94 21,71.1665222 21,43 L21,15 L21.0486128,15 C21.0163274,14.8382395 21,14.6715729 21,14.5 C21,11.5 24.5,7.5 28,6.5 C29,10 30.5,11 34,12 C34.4494,12.1284 34.9154207,12.3392328 35.3694324,12.6092129 Z M27.858038,43 C31.9104422,48.9537097 39.85834,53 49,53 C58.14166,53 66.0895578,48.9537097 70.141962,43 C71.9652899,40.3212038 73,37.2562627 73,34 C73,33.5468052 72.9799576,33.0973163 72.9405362,32.6520586 C72.9798638,32.2731498 73,31.8888284 73,31.5 C73,25.1487254 67.627417,20 61,20 C54.372583,20 49,25.1487254 49,31.5 C49,31.6675275 49.0037379,31.8342183 49.0111383,32 L48.9888617,32 C48.9962621,31.8342183 49,31.6675275 49,31.5 C49,25.1487254 43.627417,20 37,20 C30.372583,20 25,25.1487254 25,31.5 C25,31.8888284 25.0201362,32.2731498 25.0594638,32.6520586 C25.0200424,33.0973163 25,33.5468052 25,34 C25,37.2562627 26.0347101,40.3212038 27.858038,43 Z M45,42 L49,32 L53,42 L49,47 L45,42 Z M37,40 C32.581722,40 29,36.418278 29,32 C29,27.581722 32.581722,24 37,24 C41.418278,24 45,27.581722 45,32 C45,36.418278 41.418278,40 37,40 Z M38,37 C40.209139,37 42,35.209139 42,33 C42,30.790861 40.209139,29 38,29 C35.790861,29 34,30.790861 34,33 C34,35.209139 35.790861,37 38,37 Z M61,40 C56.581722,40 53,36.418278 53,32 C53,27.581722 56.581722,24 61,24 C65.418278,24 69,27.581722 69,32 C69,36.418278 65.418278,40 61,40 Z M59.5,37 C61.4329966,37 63,35.4329966 63,33.5 C63,31.5670034 61.4329966,30 59.5,30 C57.5670034,30 56,31.5670034 56,33.5 C56,35.4329966 57.5670034,37 59.5,37 Z" id="Combined-Shape" fill="#000000"></path>
    </g>
</svg>