<?xml version="1.0" encoding="UTF-8"?>
<svg width="100px" height="100px" viewBox="0 0 100 100" version="1.1" xmlns="http://www.w3.org/2000/svg" xmlns:xlink="http://www.w3.org/1999/xlink">
    <!-- Generator: Sketch 55.2 (78181) - https://sketchapp.com -->
    <title>echoowlblack</title>
    <desc>Created with Sketch.</desc>
    <g id="echoowlblack" stroke="none" stroke-width="1" fill="none" fill-rule="evenodd">
        <path d="M35.3694324,12.6092129 C38.4690811,11.6324173 43.4206589,11 49,11 C55.4937734,11 61.1371448,11.8567068 64,13.1159758 L64,13.0276493 C64.6418772,12.5561367 65.3389214,12.1888796 66,12 C69.5,11 71,10 72,6.5 C75.5,7.5 79,11.5 79,14.5 C79,14.6715729 78.9836726,14.8382395 78.9513872,15 L79,15 L79,43 L79,94 C46.9674845,94 21,71.1665222 21,43 L21,15 L21.0486128,15 C21.0163274,14.8382395 21,14.6715729 21,14.5 C21,11.5 24.5,7.5 28,6.5 C29,10 30.5,11 34,12 C34.4494,12.1284 34.9154207,12.3392328 35.3694324,12.6092129 Z M43,44 L49,50 L55,44 L43,44 Z M36,44 C43.1797017,44 49,38.1797017 49,31 C49,23.8202983 43.1797017,18 36,18 C28.8202983,18 23,23.8202983 23,31 C23,38.1797017 28.8202983,44 36,44 Z M37,40 C32.581722,40 29,36.418278 29,32 C29,27.581722 32.581722,24 37,24 C41.418278,24 45,27.581722 45,32 C45,36.418278 41.418278,40 37,40 Z M40,31 C41.6568542,31 43,29.6568542 43,28 C43,26.3431458 41.6568542,25 40,25 C38.3431458,25 37,26.3431458 37,28 C37,29.6568542 38.3431458,31 40,31 Z M62,44 C69.1797017,44 75,38.1797017 75,31 C75,23.8202983 69.1797017,18 62,18 C54.8202983,18 49,23.8202983 49,31 C49,38.1797017 54.8202983,44 62,44 Z M63,40 C58.581722,40 55,36.418278 55,32 C55,27.581722 58.581722,24 63,24 C67.418278,24 71,27.581722 71,32 C71,36.418278 67.418278,40 63,40 Z M66,31 C67.6568542,31 69,29.6568542 69,28 C69,26.3431458 67.6568542,25 66,25 C64.3431458,25 63,26.3431458 63,28 C63,29.6568542 64.3431458,31 66,31 Z" id="Combined-Shape" fill="#000000"></path>
    </g>
</svg>