<?xml version="1.0" encoding="UTF-8"?>
<svg width="100px" height="100px" viewBox="0 0 100 100" version="1.1" xmlns="http://www.w3.org/2000/svg" xmlns:xlink="http://www.w3.org/1999/xlink">
    <!-- Generator: Sketch 55.2 (78181) - https://sketchapp.com -->
    <title>echoowlblack</title>
    <desc>Created with Sketch.</desc>
    <g id="echoowlblack" stroke="none" stroke-width="1" fill="none" fill-rule="evenodd">
        <path d="M35.2917132,12.1780394 C38.0927522,10.8727698 43.1839827,10 49,10 C56.1348399,10 62.1789243,11.3134598 64.2422242,13.1275589 C65.488799,9.64084677 71.3981568,7 78.5,7 C78.6673439,7 78.8340257,7.00146629 79,7.0043754 L79,15 L79,43 L79,94 C46.9674845,94 21,71.1665222 21,43 L21,18.4978123 L21,7.0043754 C21.1659743,7.00146629 21.3326561,7 21.5,7 C27.9412873,7 33.4016034,9.17243298 35.2917132,12.1780394 Z M27.858038,43 C31.9104422,48.9537097 39.85834,53 49,53 C58.14166,53 66.0895578,48.9537097 70.141962,43 C71.9652899,40.3212038 73,37.2562627 73,34 C73,33.5468052 72.9799576,33.0973163 72.9405362,32.6520586 C72.9798638,32.2731498 73,31.8888284 73,31.5 C73,25.1487254 67.627417,20 61,20 C54.372583,20 49,25.1487254 49,31.5 C49,31.6675275 49.0037379,31.8342183 49.0111383,32 L48.9888617,32 C48.9962621,31.8342183 49,31.6675275 49,31.5 C49,25.1487254 43.627417,20 37,20 C30.372583,20 25,25.1487254 25,31.5 C25,31.8888284 25.0201362,32.2731498 25.0594638,32.6520586 C25.0200424,33.0973163 25,33.5468052 25,34 C25,37.2562627 26.0347101,40.3212038 27.858038,43 Z M44,43 L49,32 L54,43 L49,47 L44,43 Z M36,40 C31.0294373,40 27,35.9705627 27,31 C27,26.0294373 31.0294373,22 36,22 C40.9705627,22 45,26.0294373 45,31 C45,35.9705627 40.9705627,40 36,40 Z M36,37 C38.209139,37 40,35.209139 40,33 C40,30.790861 38.209139,29 36,29 C33.790861,29 32,30.790861 32,33 C32,35.209139 33.790861,37 36,37 Z M62,40 C57.0294373,40 53,35.9705627 53,31 C53,26.0294373 57.0294373,22 62,22 C66.9705627,22 71,26.0294373 71,31 C71,35.9705627 66.9705627,40 62,40 Z M62,37 C64.209139,37 66,35.209139 66,33 C66,30.790861 64.209139,29 62,29 C59.790861,29 58,30.790861 58,33 C58,35.209139 59.790861,37 62,37 Z" id="Combined-Shape" fill="#000000"></path>
    </g>
</svg>