<?xml version="1.0" encoding="UTF-8"?>
<svg width="323px" height="156px" viewBox="0 0 323 156" version="1.1" xmlns="http://www.w3.org/2000/svg" xmlns:xlink="http://www.w3.org/1999/xlink">
    <!-- Generator: Sketch 55.2 (78181) - https://sketchapp.com -->
    <title>echoowlwithnamewhite</title>
    <desc>Created with Sketch.</desc>
    <g id="echoowlwithnamewhite" stroke="none" stroke-width="1" fill="none" fill-rule="evenodd">
        <path d="M267.369432,19.6092129 C270.469081,18.6324173 275.420659,18 281,18 C287.493773,18 293.137145,18.8567068 296,20.1159758 L296,20.0276493 C296.641877,19.5561367 297.338921,19.1888796 298,19 C301.5,18 303,17 304,13.5 C307.5,14.5 311,18.5 311,21.5 C311,21.6715729 310.983673,21.8382395 310.951387,22 L311,22 L311,50 L311,101 C309.838194,101 308.684366,100.969963 307.539466,100.910724 C304.606714,81.7093351 288.021132,67 268,67 C264.168152,67 260.462149,67.5388059 256.95362,68.5447879 C254.401012,62.7971328 253,56.5424321 253,50 L253,22 L253.048613,22 C253.016327,21.8382395 253,21.6715729 253,21.5 C253,18.5 256.5,14.5 260,13.5 C261,17 262.5,18 266,19 C266.4494,19.1284 266.915421,19.3392328 267.369432,19.6092129 Z M291.240844,97.9640037 C281.702309,94.9251638 273.328373,89.7489576 266.867428,83.0934524 C267.570032,83.0315884 268.281327,83 269,83 C279.058387,83 287.671586,89.1875854 291.240844,97.9640037 Z M275,51 L281,57 L287,51 L275,51 Z M268,51 C260.820298,51 255,45.1797017 255,38 C255,30.8202983 260.820298,25 268,25 C275.179702,25 281,30.8202983 281,38 C281,45.1797017 275.179702,51 268,51 Z M268,48 C273.522847,48 278,43.5228475 278,38 C278,32.4771525 273.522847,28 268,28 C262.477153,28 258,32.4771525 258,38 C258,43.5228475 262.477153,48 268,48 Z M269,47 C264.581722,47 261,43.418278 261,39 C261,34.581722 264.581722,31 269,31 C273.418278,31 277,34.581722 277,39 C277,43.418278 273.418278,47 269,47 Z M272,38 C273.656854,38 275,36.6568542 275,35 C275,33.3431458 273.656854,32 272,32 C270.343146,32 269,33.3431458 269,35 C269,36.6568542 270.343146,38 272,38 Z M294,51 C286.820298,51 281,45.1797017 281,38 C281,30.8202983 286.820298,25 294,25 C301.179702,25 307,30.8202983 307,38 C307,45.1797017 301.179702,51 294,51 Z M294,48 C299.522847,48 304,43.5228475 304,38 C304,32.4771525 299.522847,28 294,28 C288.477153,28 284,32.4771525 284,38 C284,43.5228475 288.477153,48 294,48 Z M295,47 C290.581722,47 287,43.418278 287,39 C287,34.581722 290.581722,31 295,31 C299.418278,31 303,34.581722 303,39 C303,43.418278 299.418278,47 295,47 Z M298,38 C299.656854,38 301,36.6568542 301,35 C301,33.3431458 299.656854,32 298,32 C296.343146,32 295,33.3431458 295,35 C295,36.6568542 296.343146,38 298,38 Z" id="Combined-Shape" fill="#FFFFFF"></path>
        <path d="M10.0000005,142 L10.0000005,72 L60.6000005,72 L60.6000005,79.2 L17.9000005,79.2 L17.9000005,103.1 L56.1000005,103.1 L56.1000005,110.3 L17.9000005,110.3 L17.9000005,134.8 L61.1000005,134.8 L61.1000005,142 L10.0000005,142 Z M112,143.2 C91.8000002,143.2 76.9000002,127.3 76.9000002,107.2 L76.9000002,107 C76.9000002,87.2 91.7000002,70.8 112.3,70.8 C125,70.8 132.6,75.3 139.6,81.9 L134.2,87.7 C128.3,82.1 121.7,78.1 112.2,78.1 C96.7000002,78.1 85.1000002,90.7 85.1000002,106.8 L85.1000002,107 C85.1000002,123.2 96.8000002,135.9 112.2,135.9 C121.8,135.9 128.1,132.2 134.8,125.8 L140,130.9 C132.7,138.3 124.7,143.2 112,143.2 Z M156.8,142 L156.8,72 L164.7,72 L164.7,103.1 L205.1,103.1 L205.1,72 L213,72 L213,142 L205.1,142 L205.1,110.5 L164.7,110.5 L164.7,142 L156.8,142 Z M268.3,143.2 C247,143.2 232.7,126.5 232.7,107.2 L232.7,107 C232.7,87.7 247.2,70.8 268.5,70.8 C289.8,70.8 304.1,87.5 304.1,106.8 L304.1,107 C304.1,126.3 289.6,143.2 268.3,143.2 Z M268.5,135.9 C284.5,135.9 295.9,123.1 295.9,107.2 L295.9,107 C295.9,91.1 284.3,78.1 268.3,78.1 C252.3,78.1 240.9,90.9 240.9,106.8 L240.9,107 C240.9,122.9 252.5,135.9 268.5,135.9 Z" id="ECHO" fill="#FFFFFF" fill-rule="nonzero"></path>
    </g>
</svg>