<?xml version="1.0" encoding="UTF-8"?>
<svg width="323px" height="156px" viewBox="0 0 323 156" version="1.1" xmlns="http://www.w3.org/2000/svg" xmlns:xlink="http://www.w3.org/1999/xlink">
    <!-- Generator: Sketch 55.2 (78181) - https://sketchapp.com -->
    <title>echoowlwithnameblack</title>
    <desc>Created with Sketch.</desc>
    <g id="echoowlwithnameblack" stroke="none" stroke-width="1" fill="none" fill-rule="evenodd">
        <path d="M266.485041,19.6041461 C269.028818,18.0662059 274.571696,17 281,17 C288.695927,17 295.122798,18.5281649 296.65374,20.5644366 C298.491451,17.9198646 303.995578,16 310.5,16 C310.667344,16 310.834026,16.0012708 311,16.003792 L311,25.498104 L311,50 L311,101 C309.443937,101 307.902185,100.946118 306.377028,100.84036 C303.08675,82.1653887 287.156271,68 268,68 C264.32213,68 260.763166,68.5221549 257.389737,69.4981295 C254.561027,63.4913076 253,56.9059509 253,50 L253,25.498104 L253,16.003792 C253.165974,16.0012708 253.332656,16 253.5,16 C259.18704,16 264.109393,17.4676607 266.485041,19.6041461 Z M302.141962,50 C303.96529,47.3212038 305,44.2562627 305,41 C305,40.5608392 304.98118,40.1251583 304.944143,39.6934353 C304.981074,39.301137 305,38.9029892 305,38.5 C305,32.1487254 300.29899,27 294.5,27 C288.70101,27 284,32.1487254 284,38.5 C284,38.6675275 284.003271,38.8342183 284.009746,39 L284,39 L284,50 L281,53 L278,50 L278,39 L277.990254,39 C277.996729,38.8342183 278,38.6675275 278,38.5 C278,32.1487254 273.29899,27 267.5,27 C261.70101,27 257,32.1487254 257,38.5 C257,38.9029892 257.018926,39.301137 257.055857,39.6934353 C257.01882,40.1251583 257,40.5608392 257,41 C257,44.2562627 258.03471,47.3212038 259.858038,50 C263.910442,55.9537097 271.85834,60 281,60 C290.14166,60 298.089558,55.9537097 302.141962,50 Z M264.5,36 L269.5,36 C270.880712,36 272,37.1192881 272,38.5 L272,39.5 C272,40.8807119 270.880712,42 269.5,42 L264.5,42 C263.119288,42 262,40.8807119 262,39.5 L262,38.5 C262,37.1192881 263.119288,36 264.5,36 Z M292.5,36 L297.5,36 C298.880712,36 300,37.1192881 300,38.5 L300,39.5 C300,40.8807119 298.880712,42 297.5,42 L292.5,42 C291.119288,42 290,40.8807119 290,39.5 L290,38.5 C290,37.1192881 291.119288,36 292.5,36 Z" id="Combined-Shape" fill="#000000"></path>
        <path d="M10.0000005,142 L10.0000005,72 L60.6000005,72 L60.6000005,79.2 L17.9000005,79.2 L17.9000005,103.1 L56.1000005,103.1 L56.1000005,110.3 L17.9000005,110.3 L17.9000005,134.8 L61.1000005,134.8 L61.1000005,142 L10.0000005,142 Z M112,143.2 C91.8000002,143.2 76.9000002,127.3 76.9000002,107.2 L76.9000002,107 C76.9000002,87.2 91.7000002,70.8 112.3,70.8 C125,70.8 132.6,75.3 139.6,81.9 L134.2,87.7 C128.3,82.1 121.7,78.1 112.2,78.1 C96.7000002,78.1 85.1000002,90.7 85.1000002,106.8 L85.1000002,107 C85.1000002,123.2 96.8000002,135.9 112.2,135.9 C121.8,135.9 128.1,132.2 134.8,125.8 L140,130.9 C132.7,138.3 124.7,143.2 112,143.2 Z M156.8,142 L156.8,72 L164.7,72 L164.7,103.1 L205.1,103.1 L205.1,72 L213,72 L213,142 L205.1,142 L205.1,110.5 L164.7,110.5 L164.7,142 L156.8,142 Z M268.3,143.2 C247,143.2 232.7,126.5 232.7,107.2 L232.7,107 C232.7,87.7 247.2,70.8 268.5,70.8 C289.8,70.8 304.1,87.5 304.1,106.8 L304.1,107 C304.1,126.3 289.6,143.2 268.3,143.2 Z M268.5,135.9 C284.5,135.9 295.9,123.1 295.9,107.2 L295.9,107 C295.9,91.1 284.3,78.1 268.3,78.1 C252.3,78.1 240.9,90.9 240.9,106.8 L240.9,107 C240.9,122.9 252.5,135.9 268.5,135.9 Z" id="ECHO" fill="#000000" fill-rule="nonzero"></path>
    </g>
</svg>