<?xml version="1.0" encoding="UTF-8" standalone="no"?>
<!DOCTYPE svg PUBLIC "-//W3C//DTD SVG 1.1//EN" "http://www.w3.org/Graphics/SVG/1.1/DTD/svg11.dtd">
<svg width="100%" height="100%" viewBox="0 0 1024 1024" version="1.1" xmlns="http://www.w3.org/2000/svg" xmlns:xlink="http://www.w3.org/1999/xlink" xml:space="preserve" xmlns:serif="http://www.serif.com/" style="fill-rule:evenodd;clip-rule:evenodd;stroke-linejoin:round;stroke-miterlimit:1.41421;">
    <path d="M528,96.896C289.408,96.896 96,290.304 96,528.896C96,767.488 289.408,960.896 528,960.896C766.56,960.896 960,767.488 960,528.896C960,290.304 766.56,96.896 528,96.896ZM525.824,898.368C322.592,898.368 157.824,733.6 157.824,530.368C157.824,327.104 322.56,162.368 525.824,162.368C729.024,162.368 893.824,327.104 893.824,530.368C893.824,733.6 728.992,898.368 525.824,898.368Z" style="fill-rule:nonzero;"/>
    <path d="M698.752,276.48C691.488,280.832 684.512,285.216 675.808,290.912C567.936,360.928 552.864,404.48 551.328,486.304C551.328,501.728 551.296,517.888 551.296,533.344C555.04,531.104 558.656,528.864 562.272,526.688C568.864,522.816 575.104,518.784 585.344,512.192C693.184,442.176 708.256,398.624 709.76,316.8C709.76,300.512 709.824,285.856 709.824,269.76C706.016,272.032 702.368,274.24 698.752,276.48ZM683.936,356.448C683.936,392.992 654.336,426.336 602.496,469.312C596.16,474.592 591.392,476.64 586.976,479.296C584.544,480.8 582.112,482.336 579.584,483.872C579.584,473.28 579.808,472.128 579.584,461.536C579.584,410.976 598.784,372.48 663.52,327.584C670.592,322.656 682.784,316.32 684,315.584C683.968,348.224 683.744,345.28 683.936,356.448ZM698.752,474.464C691.488,478.816 684.512,483.2 675.808,488.896C567.936,558.912 552.864,602.464 551.328,684.288C551.328,699.712 551.296,715.872 551.296,731.328C555.04,729.088 558.656,726.848 562.272,724.672C568.864,720.8 575.104,716.768 585.344,710.176C693.184,640.16 708.256,596.608 709.76,514.784C709.76,498.496 709.824,483.84 709.824,467.744C706.016,470.016 702.368,472.256 698.752,474.464ZM364.544,536.352C371.808,540.704 378.816,545.088 387.488,550.784C495.392,620.8 510.464,664.352 512,746.176C512,761.6 512.032,777.76 512.032,793.216C508.256,790.976 504.672,788.736 501.056,786.56C494.464,782.688 488.192,778.656 478.016,772.064C370.144,702.048 355.104,658.496 353.568,576.672C353.568,560.384 353.536,545.728 353.536,529.632C357.28,531.904 360.928,534.112 364.544,536.352ZM364.544,338.336C371.808,342.688 378.816,347.072 387.488,352.768C495.392,422.784 510.464,466.336 512,548.16C512,563.584 512.032,579.744 512.032,595.2C508.256,592.96 504.672,590.72 501.056,588.544C494.464,584.672 488.192,580.64 478.016,574.048C370.144,504.032 355.104,460.48 353.568,378.656C353.568,362.368 353.536,347.712 353.536,331.616C357.28,333.92 360.928,336.128 364.544,338.336Z" style="fill-rule:nonzero;"/>
</svg>
