<?xml version="1.0" encoding="UTF-8"?>
<svg width="200px" height="200px" viewBox="0 0 200 200" version="1.1" xmlns="http://www.w3.org/2000/svg" xmlns:xlink="http://www.w3.org/1999/xlink">
    <title>indexes</title>
    <g id="indexes" stroke="none" stroke-width="1" fill="none" fill-rule="evenodd">
        <path d="M100,27 C140.316787,27 173,59.6832133 173,100 C173,140.316787 140.316787,173 100,173 C59.6832133,173 27,140.316787 27,100 C27,59.6832133 59.6832133,27 100,27 Z M100,38 C65.7583455,38 38,65.7583455 38,100 C38,134.241654 65.7583455,162 100,162 C134.241654,162 162,134.241654 162,100 C162,65.7583455 134.241654,38 100,38 Z" id="Combined-Shape" fill="#000000"></path>
        <polygon id="Rectangle" fill="#000000" points="58 84 101 84 80 111"></polygon>
        <polygon id="Rectangle" fill="#000000" points="51 99 64 99 70 107 51 107"></polygon>
        <polygon id="Rectangle-Copy" fill="#000000" points="94.7575758 99 151 99 151 107 89 107"></polygon>
    </g>
</svg>