<?xml version="1.0" encoding="UTF-8"?>
<svg width="92px" height="92px" viewBox="0 0 92 92" version="1.1" xmlns="http://www.w3.org/2000/svg" xmlns:xlink="http://www.w3.org/1999/xlink">
    <!-- Generator: Sketch 57.1 (83088) - https://sketch.com -->
    <title>latest-cwe</title>
    <desc>Created with Sketch.</desc>
    <g id="latest-cwe" stroke="none" stroke-width="1" fill="none" fill-rule="evenodd">
        <g id="owasp_logo_Mx_2016" fill="#1A1919">
            <path d="M61,0 C65.418278,-8.11624501e-16 69,3.581722 69,8 L69.0006918,45.0049891 C55.7001221,45.2709437 45,56.1360134 45,69.5001249 C45,70.0041447 45.0152202,70.5046101 45.045226,71.0010866 L8,71 C3.581722,71 5.41083001e-16,67.418278 0,63 L0,8 C-5.41083001e-16,3.581722 3.581722,8.11624501e-16 8,0 L61,0 Z" id="Fill-1"></path>
            <path d="M69.1444107,92 C56.5214185,92 46.2885884,81.7670411 46.2885884,69.1444107 C46.2885884,56.5215472 56.5214185,46.2885884 69.1444107,46.2885884 C81.7669368,46.2885884 92,56.5215472 92,69.1444107 C92,81.7670411 81.7669368,92 69.1444107,92 M69.1444209,48.1170448 C80.75711,48.1170448 90.1715435,57.5314216 90.1715435,69.1442942 C90.1715435,80.7571667 80.75711,90.1715435 69.1444209,90.1715435 C57.5314784,90.1715435 48.1170448,80.7571667 48.1170448,69.1442942 C48.1170448,57.5314216 57.5314784,48.1170448 69.1444209,48.1170448 Z" id="Fill-1-Copy"></path>
        </g>
        <g id="CWE" transform="translate(50.000000, 62.000000)">
            <g id="C">
                <path d="M6.42857143,0.65625 L6.42857143,3.0625 L6.42857143,3.0625 C4.06163679,3.0625 2.14285714,4.92331651 2.14285714,7.21875 C2.14285714,9.51418349 4.06163679,11.375 6.42857143,11.375 L6.42857143,13.78125 L6.42857143,13.78125 C2.87816947,13.78125 0,10.8431187 0,7.21875 C0,3.59438133 2.87816947,0.65625 6.42857143,0.65625 Z" id="Combined-Shape-Copy-3" fill="#D0D0D0"></path>
                <path d="M11.1565714,11.37425 L11.9295714,13.78125 L6.42857143,13.78125 L6.42857143,11.375 L11.1565714,11.37425 Z M7.71428571,0.65625 L8.48657143,3.06225 L6.42857143,3.0625 L6.42857143,0.65625 L7.71428571,0.65625 Z" id="Combined-Shape-Copy-2" fill="#D0D0D0"></path>
                <path d="M6.42857143,0.21875 L6.42857143,2.625 L6.42857143,2.625 C4.06163679,2.625 2.14285714,4.48581651 2.14285714,6.78125 C2.14285714,9.07668349 4.06163679,10.9375 6.42857143,10.9375 L6.42857143,13.34375 L6.42857143,13.34375 C2.87816947,13.34375 0,10.4056187 0,6.78125 C0,3.15688133 2.87816947,0.21875 6.42857143,0.21875 Z" id="Combined-Shape" fill="#000000"></path>
                <path d="M11.1565714,10.93675 L11.9295714,13.34375 L6.42857143,13.34375 L6.42857143,10.9375 L11.1565714,10.93675 Z M7.71428571,0.21875 L8.48657143,2.62475 L6.42857143,2.625 L6.42857143,0.21875 L7.71428571,0.21875 Z" id="Combined-Shape" fill="#000000"></path>
            </g>
            <g id="E" transform="translate(24.000000, 0.000000)">
                <path d="M13.8993889,0.65625 L12.8923889,2.84325 L7.875,2.84375 L6.34375,6.0375005 L11.0573889,6.03725 L10.0833889,8.09325 L5.46875,8.09375 L3.71875,11.7250005 L8.80338889,11.72425 L7.85638889,13.78125 L0.201388889,13.78125 L6.24338889,0.65625 L13.8993889,0.65625 Z" id="Combined-Shape-Copy" fill="#D0D0D0"></path>
                <path d="M13.8993889,0.21875 L12.8923889,2.40575 L7.875,2.40625 L6.34375,5.6000005 L11.0573889,5.59975 L10.0833889,7.65575 L5.46875,7.65625 L3.71875,11.2875005 L8.80338889,11.28675 L7.85638889,13.34375 L0.201388889,13.34375 L6.24338889,0.21875 L13.8993889,0.21875 Z" id="Combined-Shape-Copy-5" fill="#000000"></path>
            </g>
            <g id="W" transform="translate(9.000000, 0.000000)">
                <path d="M3.40473885,0.655632364 C3.66426304,1.58688606 4.81265983,5.09024435 6.84992922,11.1657073 L6.99350649,11.59375 L8.92207792,7 L6.72857143,0.65625 L9.8312562,0.655996848 C10.0841279,1.60947256 11.20964,5.25539027 13.2077922,11.59375 L13.2077922,11.59375 L18.0395714,0.65625 L20.9220779,0.65625 L20.9215714,0.91325 L15.1185714,13.78125 L11.2716362,13.78125 L10.2077922,10.0625 L8.70779221,13.78125 L5.10357143,13.78125 L0.429571429,0.65625 L3.40473885,0.655632364 Z" id="Combined-Shape" fill="#D0D0D0"></path>
                <path d="M3.0540895,0.218132364 C3.31361369,1.14938606 4.46201048,4.65274435 6.49927987,10.7282073 L6.64285714,11.15625 L8.57142857,6.5625 L6.37792208,0.21875 L9.48060685,0.218496848 C9.7334786,1.17197256 10.8589906,4.81789027 12.8571429,11.15625 L12.8571429,11.15625 L17.6889221,0.21875 L20.5714286,0.21875 L20.5709221,0.47575 L14.7679221,13.34375 L10.9209869,13.34375 L9.85714286,9.625 L8.35714286,13.34375 L4.75292208,13.34375 L0.0789220779,0.21875 L3.0540895,0.218132364 Z" id="Combined-Shape-Copy-4" stroke="#000000" stroke-width="0.5" fill="#FFFFFF"></path>
                <polygon id="Rectangle-5" fill="#FFFFFF" transform="translate(10.075410, 6.491346) rotate(23.000000) translate(-10.075410, -6.491346) " points="8.99875462 2.61231885 9.38551409 2.05936381 11.1947679 5.48242782 10.7345155 5.67779338 10.8246323 9.9849826 8.95605144 10.9233275"></polygon>
            </g>
        </g>
        <text id="3.3" font-family="Arial-BoldMT, Arial" font-size="36" font-weight="bold" fill="#FFFFFF">
            <tspan x="9.47753906" y="40">3.3</tspan>
        </text>
    </g>
</svg>