<?xml version="1.0" encoding="UTF-8"?>
<svg width="100px" height="100px" viewBox="0 0 100 100" version="1.1" xmlns="http://www.w3.org/2000/svg" xmlns:xlink="http://www.w3.org/1999/xlink">
    <!-- Generator: Sketch 61.2 (89653) - https://sketch.com -->
    <title>MISRA</title>
    <desc>Created with Sketch.</desc>
    <g id="MISRA" stroke="none" stroke-width="1" fill="none" fill-rule="evenodd">
        <rect id="Rectangle" fill="#000000" x="0" y="0" width="100" height="100"></rect>
        <path d="M50,16 L91,81 L9,81 L50,16 Z M47.6397486,63.3523185 C46.2418036,63.3523185 45.1169454,63.6859039 44.2651743,64.3530746 C43.4134031,65.0202453 42.9875175,65.9156586 42.9875175,67.0393145 C42.9875175,67.8820565 43.2524769,68.6226478 43.7823956,69.2610887 C44.3123143,69.8995296 45.1136944,70.4581653 46.186536,70.936996 C47.0903237,71.3647513 47.8283086,71.7318548 48.4004908,72.0383065 C49.0897102,72.4277554 49.4343199,72.9321237 49.4343199,73.5514113 C49.4343199,74.0047043 49.2360068,74.3686156 48.8393805,74.6431452 C48.4427542,74.9176747 47.9225886,75.0549395 47.2788837,75.0549395 C46.071937,75.0549395 44.790699,74.5330889 43.4351698,73.4893878 L43.1630734,73.2736895 L43.1630734,75.8210685 C43.9433218,76.280746 44.6471709,76.6047547 45.2746206,76.7930948 C45.9020704,76.9814348 46.651434,77.0756048 47.5227113,77.0756048 C48.8621378,77.0756048 49.95286,76.7228663 50.7948781,76.0173891 C51.6368961,75.311912 52.0579051,74.3845766 52.0579051,73.2353831 C52.0579051,72.3479503 51.8108265,71.5882056 51.3166692,70.9561492 C50.8225119,70.3240927 50.0162552,69.749496 48.8978991,69.2323589 C47.5909831,68.6449933 46.839994,68.2874664 46.6449319,68.1597782 C45.9492104,67.7320228 45.6013497,67.265961 45.6013497,66.7615927 C45.6013497,66.3402218 45.7882842,66.0034442 46.1621532,65.7512601 C46.5360222,65.4990759 47.0545623,65.3729839 47.7177734,65.3729839 C48.7320964,65.3729839 49.8837755,65.7335564 51.1728109,66.4547014 L51.4727189,66.6275202 L51.4727189,64.3291331 C50.2438276,63.6779234 48.9661709,63.3523185 47.6397486,63.3523185 Z M23.6276042,63.5246976 L21.2575997,63.5246976 L21.2575997,76.9032258 L23.890938,76.9032258 L23.890938,67.5085685 L23.9689628,67.5085685 L27.9092172,72.2202621 L28.2798352,72.2202621 L32.2200896,67.5085685 L32.2981145,67.5085685 L32.2981145,76.9032258 L34.9314528,76.9032258 L34.9314528,63.5246976 L32.5809545,63.5246976 L28.1042793,68.8014113 L23.6276042,63.5246976 Z M40.6272661,63.5246976 L37.9939278,63.5246976 L37.9939278,76.9032258 L40.6272661,76.9032258 L40.6272661,63.5246976 Z M59.2654497,63.5246976 L54.3596379,63.5246976 L54.3596379,76.9032258 L56.9929763,76.9032258 L56.9929763,71.2530242 L57.9487805,71.2530242 C58.3714151,71.2530242 58.7452841,71.3567708 59.0703876,71.5642641 C59.3954911,71.7717574 59.7335988,72.1228999 60.0847105,72.6176915 C60.4358223,73.1124832 60.9884983,74.0717406 61.7427384,75.4954637 C62.0442719,76.0596858 62.2910458,76.4894862 62.48306,76.7848649 L62.5619992,76.9032258 L65.4976838,76.9032258 C65.0945555,76.2903226 64.4768588,75.1730511 63.6445939,73.5514113 C63.1439345,72.6129032 62.7245509,71.9457325 62.3864433,71.5498992 C62.0483357,71.1540659 61.6614625,70.8412298 61.2258238,70.6113911 C62.0125743,70.2857863 62.6058882,69.8404738 63.0057655,69.2754536 C63.4056428,68.7104335 63.6055814,68.0480511 63.6055814,67.2883065 C63.6055814,66.1710349 63.2024531,65.2644489 62.3961964,64.5685484 C61.6519595,63.9261787 60.7055043,63.5802873 59.5568309,63.5308742 L59.2654497,63.5246976 Z M74.1291817,63.5246976 L71.4373247,63.5246976 L65.8195363,76.9032258 L68.579665,76.9032258 L69.8963341,73.6471774 L75.9530123,73.6471774 L77.3672125,76.9032258 L80.1468475,76.9032258 L74.1291817,63.5246976 Z M72.7930063,66.3881048 L75.0947391,71.6839718 L70.6960887,71.6839718 L72.7930063,66.3881048 Z M58.6314979,65.5070565 C59.3532277,65.5070565 59.9091546,65.6586862 60.2992788,65.9619456 C60.689403,66.265205 60.8844651,66.7232863 60.8844651,67.3361895 C60.8844651,67.9235551 60.6877775,68.3864247 60.2944023,68.7247984 C59.9010271,69.063172 59.3597297,69.2323589 58.6705103,69.2323589 L56.9929763,69.2323589 L56.9929763,65.5070565 L58.6314979,65.5070565 Z" id="Triangle-3" fill="#FFFFFF"></path>
        <path d="M50,13.3047333 L93.5260549,82.5 L6.47394515,82.5 L50,13.3047333 Z" id="Triangle" stroke="#FFFFFF" stroke-width="5" stroke-linejoin="round"></path>
    </g>
</svg>