<?xml version="1.0" encoding="UTF-8"?>
<svg width="100px" height="100px" viewBox="0 0 100 100" version="1.1" xmlns="http://www.w3.org/2000/svg" xmlns:xlink="http://www.w3.org/1999/xlink">
    <!-- Generator: Sketch 52.4 (67378) - http://www.bohemiancoding.com/sketch -->
    <title>nistblack</title>
    <desc>Created with Sketch.</desc>
    <g id="nistblack" stroke="none" stroke-width="1" fill="none" fill-rule="evenodd">
        <g id="nist">
            <polygon id="Path" fill="#000000" points="0 0 99.8735751 0 99.8735751 99.8735751 0 99.8735751"></polygon>
            <path d="M30.7046632,62.4544041 C33.6632124,62.4544041 35.8253886,59.8373057 35.8253886,56.8782383 L35.8253886,37.4186528 L30.7046632,37.4186528 L30.7046632,55.9683938 C30.7046632,56.4227979 30.2492228,56.8782383 29.7943005,56.8782383 C29.7943005,56.8782383 29.4528497,56.8782383 29.4528497,56.4227979 L13.634715,39.5813472 C12.2689119,38.3295337 10.5621762,37.419171 8.85492228,37.419171 L8.5134715,37.419171 C5.44093264,37.419171 2.9373057,40.0367876 2.9373057,42.9953368 L2.9373057,62.4549223 L8.5134715,62.4549223 L8.5134715,43.4502591 C8.5134715,43.4502591 8.5134715,42.9953368 8.85492228,42.9953368 L9.76528497,42.9953368 L25.5834197,60.2932642 C26.3803109,61.5450777 28.0870466,62.0005181 29.7937824,62.4549223 L30.7046632,62.4549223 L30.7046632,62.4544041 Z M54.261658,52.5544041 L70.4212435,52.5544041 C71.3321244,52.5544041 72.1284974,53.3507772 72.1284974,54.7170984 C72.1284974,55.9689119 71.3321244,56.8787565 70.4212435,56.8787565 L45.6129534,56.8787565 C44.8165803,56.8787565 44.3611399,56.4233161 44.3611399,55.5134715 L44.3611399,37.4186528 L39.2404145,37.4186528 L39.2404145,55.057513 C39.2404145,59.0409326 42.1989637,62.453886 46.0683938,62.453886 L70.8766839,62.453886 C74.7455959,62.453886 77.7046632,59.0404145 77.7046632,55.057513 L77.7046632,54.2611399 C77.7046632,50.3911917 74.2901554,47.319171 70.8766839,47.319171 L55.0585492,47.319171 C53.3512953,47.2051813 53.0103627,46.1813472 52.8958549,45.1569948 L52.8958549,44.7015544 C52.8958549,43.9051813 53.8067358,42.9948187 55.0585492,42.9948187 L81.1181347,42.9948187 L81.1181347,62.4544041 L86.2398964,62.4544041 L86.2398964,42.9948187 L96.9367876,42.9948187 L96.9367876,37.4186528 L54.2626943,37.4186528 C50.3927461,37.4186528 47.4341969,40.8326425 47.4341969,44.3606218 L47.4341969,45.6124352 C47.4331606,49.4818653 50.3917098,52.5544041 54.261658,52.5544041 Z" id="Shape" stroke="#000000" stroke-width="0.001" fill="#FFFFFF" fill-rule="nonzero"></path>
        </g>
    </g>
</svg>