<?xml version="1.0" encoding="UTF-8"?>
<svg width="160px" height="160px" viewBox="0 0 160 160" version="1.1" xmlns="http://www.w3.org/2000/svg" xmlns:xlink="http://www.w3.org/1999/xlink">
    <title>omg-ascqm-index</title>
    <g id="omg-ascqm-index" stroke="none" stroke-width="1" fill="none" fill-rule="evenodd">
        <g id="OMG-Copy" transform="translate(30.000000, 27.000000)">
            <path d="M1.59484536,71.8912371 C1.67164948,72.8386598 2.49742268,73.5726804 3.46082474,73.5881443 C4.43969072,73.5726804 5.26546392,72.8386598 5.32680412,71.8912371 L4.45463918,71.8912371 C4.39381443,72.3649485 3.96546392,72.7927835 3.46082474,72.7927835 C2.95618557,72.7927835 2.54329897,72.3649485 2.46701031,71.8912371 L1.59484536,71.8912371 L1.59484536,71.8912371 Z M6.90154639,71.8912371 L6.90154639,73.4963918 L8.0943299,73.4963918 C8.99690722,73.4963918 9.36391753,73.0835052 9.36391753,72.5329897 C9.36391753,72.257732 9.27216495,72.0438144 9.11907216,71.8912371 L6.90154639,71.8912371 L6.90154639,71.8912371 Z M11.535567,71.8912371 L11.535567,72.1051546 C11.535567,72.5180412 11.4438144,72.7469072 11.0154639,72.7469072 C10.893299,72.7469072 10.7556701,72.7319588 10.6329897,72.6860825 L10.8474227,73.542268 C10.9541237,73.5726804 11.0613402,73.5726804 11.1685567,73.5881443 C11.978866,73.5726804 12.4072165,73.0680412 12.4072165,72.2731959 L12.4072165,71.8912371 L11.535567,71.8912371 L11.535567,71.8912371 Z M14.1505155,71.8912371 L14.1505155,73.4963918 L16.1690722,73.4963918 L16.3829897,72.7623711 L15.0221649,72.7623711 L15.0221649,72.0896907 L15.9247423,72.0896907 L15.9247423,71.8912371 L14.1505155,71.8912371 L14.1505155,71.8912371 Z M17.7597938,71.8912371 C17.8206186,72.9 18.5546392,73.5726804 19.5639175,73.5881443 C19.7324742,73.5726804 20.0381443,73.5268041 20.1757732,73.4505155 L20.2829897,72.5329897 C20.114433,72.6551546 19.8701031,72.7927835 19.6252577,72.7927835 C19.0592784,72.7927835 18.692268,72.4108247 18.6314433,71.8912371 L17.7597938,71.8912371 L17.7597938,71.8912371 Z M22.5154639,71.8912371 L22.5154639,73.542268 L23.3876289,73.4654639 L23.3876289,71.8912371 L22.5154639,71.8912371 L22.5154639,71.8912371 Z M7.77319588,72.0896907 L7.98762887,72.0896907 C8.2628866,72.0896907 8.50721649,72.135567 8.49226804,72.456701 C8.50721649,72.7469072 8.2628866,72.8082474 8.00257732,72.8082474 L7.77319588,72.8082474 L7.77319588,72.0896907 L7.77319588,72.0896907 Z" id="Fill-2" fill="#1A1919"></path>
            <path d="M2.46701031,71.8912371 L2.46701031,71.7530928 C2.46701031,71.2180412 2.91030928,70.7139175 3.46082474,70.7139175 C4.01134021,70.7139175 4.47010309,71.2180412 4.45463918,71.7530928 C4.47010309,71.7994845 4.45463918,71.8448454 4.45463918,71.8912371 L5.32680412,71.8912371 L5.32680412,71.7530928 C5.32680412,70.728866 4.48556701,69.9185567 3.46082474,69.9185567 C2.45154639,69.9185567 1.59484536,70.728866 1.59484536,71.7530928 L1.59484536,71.8912371 L2.46701031,71.8912371 L2.46701031,71.8912371 Z M9.11907216,71.8912371 C9.02731959,71.7840206 8.92010309,71.7072165 8.79793814,71.6613402 C9.08865979,71.5391753 9.27216495,71.2639175 9.25670103,70.9278351 C9.27216495,70.2092784 8.58402062,70.0103093 7.89587629,70.0103093 L6.90154639,70.0103093 L6.90154639,71.8912371 L9.11907216,71.8912371 L9.11907216,71.8912371 Z M12.4072165,71.8912371 L12.4072165,69.9185567 L11.535567,70.0103093 L11.535567,71.8912371 L12.4072165,71.8912371 L12.4072165,71.8912371 Z M15.9247423,71.8912371 L15.9247423,71.3556701 L15.0221649,71.3556701 L15.0221649,70.7443299 L16.2762887,70.7443299 L16.1231959,70.0103093 L14.1505155,70.0103093 L14.1505155,71.8912371 L15.9247423,71.8912371 L15.9247423,71.8912371 Z M18.6314433,71.8912371 C18.6314433,71.8298969 18.6314433,71.7840206 18.6159794,71.7381443 C18.6314433,71.1417526 19.0443299,70.7139175 19.6252577,70.7139175 C19.8701031,70.7139175 20.0840206,70.8360825 20.2675258,70.9737113 L20.1298969,70.0412371 C19.9618557,69.9494845 19.7628866,69.9185567 19.5639175,69.9185567 C18.5087629,69.9185567 17.7597938,70.7139175 17.7597938,71.7685567 L17.7597938,71.8912371 L18.6314433,71.8912371 L18.6314433,71.8912371 Z M23.3876289,71.8912371 L23.3876289,70.8056701 L24.2283505,70.8056701 L24.2283505,70.0103093 L21.8427835,70.0103093 L21.628866,70.8056701 L22.5154639,70.8056701 L22.5154639,71.8912371 L23.3876289,71.8912371 L23.3876289,71.8912371 Z M7.77319588,70.6984536 L7.95670103,70.6984536 C8.17113402,70.6984536 8.40051546,70.7747423 8.40051546,71.0345361 C8.40051546,71.2489691 8.2628866,71.4015464 7.98762887,71.4015464 L7.77319588,71.4015464 L7.77319588,70.6984536 L7.77319588,70.6984536 Z" id="Fill-3" fill="#1A1919"></path>
            <path d="M29.3974227,72.0592784 L28.2963918,69.9185567 L28.2809278,69.9185567 L27.3329897,73.4654639 L28.2201031,73.5881443 L28.5103093,71.9061856 L28.5257732,71.9061856 L29.3670103,73.5881443 L30.2845361,71.9061856 L30.2994845,71.9061856 L30.6056701,73.5881443 L31.4773196,73.4654639 L30.5443299,69.9185567 L30.528866,69.9185567 L29.3974227,72.0592784 L29.3974227,72.0592784 Z M34.3520619,69.9185567 L32.4865979,73.4046392 L33.3278351,73.5881443 L33.6793814,72.8386598 L35.0097938,72.8386598 L35.3768041,73.5881443 L36.2484536,73.4046392 L34.3675258,69.9185567 L34.3520619,69.9185567 L34.3520619,69.9185567 Z M34.3520619,71.3252577 L34.8262887,72.1814433 L33.893299,72.1814433 L34.3520619,71.3252577 L34.3520619,71.3252577 Z M40.7752577,73.5881443 L40.7752577,69.9185567 L39.9190722,70.0103093 L39.9190722,71.8757732 L37.6247423,69.9185567 L37.6097938,69.9185567 L37.6097938,73.542268 L38.4814433,73.4654639 L38.4814433,71.5850515 L40.7752577,73.5881443 L40.7752577,73.5881443 Z M44.0175258,69.9185567 L42.1515464,73.4046392 L42.9927835,73.5881443 L43.3443299,72.8386598 L44.6747423,72.8386598 L45.0268041,73.5881443 L45.9134021,73.4046392 L44.0324742,69.9185567 L44.0175258,69.9185567 L44.0175258,69.9185567 Z M44.0175258,71.3252577 L44.4762887,72.1814433 L43.5587629,72.1814433 L44.0175258,71.3252577 L44.0175258,71.3252577 Z M50.378866,70.407732 C50.0123711,70.1020619 49.5226804,69.9185567 49.0025773,69.9185567 C47.993299,69.9185567 47.1371134,70.728866 47.1371134,71.7530928 C47.1371134,72.7778351 47.993299,73.5726804 49.0025773,73.5881443 C49.5381443,73.5726804 50.1345361,73.4350515 50.4860825,73.221134 L50.4860825,71.4170103 L48.956701,71.4170103 L48.7123711,72.1510309 L49.614433,72.1510309 L49.614433,72.6551546 C49.5226804,72.7623711 49.2474227,72.7927835 49.1097938,72.7927835 C48.5134021,72.7927835 48.0087629,72.4108247 48.0087629,71.7530928 C48.0087629,71.1572165 48.4520619,70.7139175 49.0484536,70.7139175 C49.3546392,70.7139175 49.6453608,70.8360825 49.8747423,71.0345361 L50.378866,70.407732 L50.378866,70.407732 Z M54.278866,73.4963918 L54.4927835,72.7623711 L53.1319588,72.7623711 L53.1319588,72.0896907 L54.0340206,72.0896907 L54.0340206,71.3556701 L53.1319588,71.3556701 L53.1319588,70.7443299 L54.3860825,70.7443299 L54.2329897,70.0103093 L52.2603093,70.0103093 L52.2603093,73.4963918 L54.278866,73.4963918 L54.278866,73.4963918 Z M57.8113402,72.0592784 L56.7103093,69.9185567 L56.6948454,69.9185567 L55.7469072,73.4654639 L56.6340206,73.5881443 L56.9242268,71.9061856 L56.9396907,71.9061856 L57.7809278,73.5881443 L58.6984536,71.9061856 L58.7134021,71.9061856 L59.0195876,73.5881443 L59.8912371,73.4654639 L58.9582474,69.9185567 L58.943299,69.9185567 L57.8113402,72.0592784 L57.8113402,72.0592784 Z M63.3778351,73.4963918 L63.592268,72.7623711 L62.2159794,72.7623711 L62.2159794,72.0896907 L63.1180412,72.0896907 L63.1180412,71.3556701 L62.2159794,71.3556701 L62.2159794,70.7443299 L63.4850515,70.7443299 L63.3319588,70.0103093 L61.3592784,70.0103093 L61.3592784,73.4963918 L63.3778351,73.4963918 L63.3778351,73.4963918 Z M68.3484536,73.5881443 L68.3484536,69.9185567 L67.4762887,70.0103093 L67.4762887,71.8757732 L65.1824742,69.9185567 L65.1824742,73.542268 L66.0391753,73.4654639 L66.0391753,71.5850515 L68.3329897,73.5881443 L68.3484536,73.5881443 L68.3484536,73.5881443 Z M70.7340206,70.8056701 L70.7340206,73.542268 L71.6056701,73.4654639 L71.6056701,70.8056701 L72.4463918,70.8056701 L72.4463918,70.0103093 L70.0608247,70.0103093 L69.8314433,70.8056701 L70.7340206,70.8056701 L70.7340206,70.8056701 Z" id="Fill-4" fill="#1A1919"></path>
            <path d="M75.535567,71.8912371 C75.6123711,72.8386598 76.4226804,73.5726804 77.4015464,73.5881443 C77.9365979,73.5726804 78.5329897,73.4350515 78.8695876,73.221134 L78.8695876,71.8912371 L77.1871134,71.8912371 L77.0953608,72.1510309 L78.0134021,72.1510309 L78.0134021,72.6551546 C77.9061856,72.7623711 77.6463918,72.7927835 77.5087629,72.7927835 C76.9427835,72.7927835 76.4685567,72.456701 76.407732,71.8912371 L75.535567,71.8912371 L75.535567,71.8912371 Z M80.7659794,71.8912371 L80.7659794,73.542268 L81.6221649,73.4654639 L81.6221649,71.9365979 L81.6376289,71.9365979 L82.6623711,73.5881443 L83.5340206,73.2974227 L82.585567,71.9675258 C82.6623711,71.9520619 82.7082474,71.9216495 82.7541237,71.8912371 L80.7659794,71.8912371 L80.7659794,71.8912371 Z M85.0020619,71.8912371 C85.0783505,72.8386598 85.8891753,73.5726804 86.8680412,73.5881443 C87.8463918,73.5726804 88.6572165,72.8386598 88.7335052,71.8912371 L87.8618557,71.8912371 C87.8005155,72.3649485 87.3721649,72.7927835 86.8680412,72.7927835 C86.3628866,72.7927835 85.95,72.3649485 85.8737113,71.8912371 L85.0020619,71.8912371 L85.0020619,71.8912371 Z M90.5685567,71.8912371 L90.5685567,72.3494845 C90.5840206,73.2056701 91.1494845,73.5726804 91.9603093,73.5881443 C92.8474227,73.5726804 93.4742268,73.0989691 93.4742268,72.2886598 L93.4742268,71.8912371 L92.6025773,71.8912371 L92.6025773,71.9216495 C92.6180412,72.3953608 92.5412371,72.7927835 91.9757732,72.7927835 C91.5474227,72.7927835 91.4402062,72.4721649 91.4402062,72.1051546 L91.4402062,71.8912371 L90.5685567,71.8912371 L90.5685567,71.8912371 Z M95.4623711,71.8912371 L95.4623711,73.542268 L96.3185567,73.4654639 L96.3185567,72.2427835 L96.6247423,72.2427835 C97.0221649,72.2427835 97.3891753,72.1051546 97.6185567,71.8912371 L95.4623711,71.8912371 L95.4623711,71.8912371 Z" id="Fill-5" fill="#1A1919"></path>
            <path d="M76.407732,71.8912371 C76.407732,71.8448454 76.407732,71.7994845 76.392268,71.7530928 C76.407732,71.1572165 76.835567,70.7139175 77.4474227,70.7139175 C77.7530928,70.7139175 78.0438144,70.8360825 78.257732,71.0345361 L78.7778351,70.407732 C78.4108247,70.1020619 77.9216495,69.9185567 77.4015464,69.9185567 C76.3768041,69.9185567 75.535567,70.728866 75.535567,71.7530928 L75.535567,71.8912371 L76.407732,71.8912371 L76.407732,71.8912371 Z M78.8695876,71.8912371 L78.8695876,71.4170103 L77.3556701,71.4170103 L77.1871134,71.8912371 L78.8695876,71.8912371 L78.8695876,71.8912371 Z M82.7541237,71.8912371 C83.0139175,71.7072165 83.1670103,71.3865979 83.1515464,71.0804124 C83.1670103,70.285567 82.5706186,70.0103093 81.7448454,70.0103093 L80.7659794,70.0103093 L80.7659794,71.8912371 L82.7541237,71.8912371 L82.7541237,71.8912371 Z M85.8737113,71.8912371 L85.8737113,71.7530928 C85.8737113,71.2180412 86.3170103,70.7139175 86.8680412,70.7139175 C87.4180412,70.7139175 87.8618557,71.2180412 87.8618557,71.7530928 L87.8618557,71.8912371 L88.7335052,71.8912371 L88.7335052,71.7530928 C88.7335052,70.728866 87.892268,69.9185567 86.8680412,69.9185567 C85.843299,69.9185567 85.0020619,70.728866 85.0020619,71.7530928 L85.0020619,71.8912371 L85.8737113,71.8912371 L85.8737113,71.8912371 Z M91.4402062,71.8912371 L91.4402062,69.9185567 L90.5685567,70.0103093 L90.5685567,71.8912371 L91.4402062,71.8912371 L91.4402062,71.8912371 Z M93.4742268,71.8912371 L93.4742268,69.9185567 L92.6025773,70.0103093 L92.6025773,71.8912371 L93.4742268,71.8912371 L93.4742268,71.8912371 Z M97.6185567,71.8912371 C97.8175258,71.692268 97.9396907,71.4324742 97.9396907,71.1262887 C97.9396907,70.2706186 97.3891753,70.0103093 96.5175258,70.0103093 L95.4623711,70.0103093 L95.4623711,71.8912371 L97.6185567,71.8912371 L97.6185567,71.8912371 Z M81.6221649,70.7443299 C81.9891753,70.728866 82.2953608,70.7902062 82.2953608,71.2180412 C82.2953608,71.6309278 82.0046392,71.7530928 81.6221649,71.7226804 L81.6221649,70.7443299 L81.6221649,70.7443299 Z M96.3185567,70.7443299 L96.578866,70.7443299 C96.9,70.7443299 97.0680412,70.8819588 97.0680412,71.1262887 C97.0680412,71.3556701 96.9,71.493299 96.578866,71.493299 L96.3185567,71.493299 L96.3185567,70.7443299 L96.3185567,70.7443299 Z" id="Fill-6" fill="#1A1919"></path>
            <path d="M13.921134,57.6881443 C4.68402062,57.3670103 -0.622164948,43.2407216 9.77680412,35.1835052 L2.32938144,36.7273196 L2.32938144,60.4092784 L13.921134,57.6881443" id="Fill-7" fill="#1A1919"></path>
            <path d="M11.2752577,45.7474227 C11.2752577,42.8427835 13.3247423,40.4886598 15.8329897,40.4886598 C18.3561856,40.4886598 20.4051546,42.8427835 20.4051546,45.7474227 C20.4051546,48.6371134 18.3561856,50.9917526 15.8329897,50.9917526 C13.3247423,50.9917526 11.2752577,48.6371134 11.2752577,45.7474227 L11.2752577,45.7474227 Z" id="Fill-8" fill="#1A1919"></path>
            <path d="M11.2752577,45.7474227 C11.2752577,42.8427835 13.3247423,40.4886598 15.8329897,40.4886598 C18.3561856,40.4886598 20.4051546,42.8427835 20.4051546,45.7474227 C20.4051546,48.6371134 18.3561856,50.9917526 15.8329897,50.9917526 C13.3247423,50.9917526 11.2752577,48.6371134 11.2752577,45.7474227 L11.2752577,45.7474227 Z" id="Stroke-9" stroke="#1A1919" stroke-width="0.412"></path>
            <path d="M21.4603093,55.9907216 C27.8376289,53.2237113 31.7680412,36.2381443 16.5819588,33.4865979 L29.4891753,30.4592784 L29.4891753,54.1412371 L21.4603093,55.9907216" id="Fill-10" fill="#1A1919"></path>
            <polyline id="Fill-11" fill="#FFFFFE" points="22.7448454 33.792268 22.7448454 34.6943299 24.8706186 33.7005155 22.7448454 33.792268"></polyline>
            <path d="M6.3814433,38.256701 L21.0474227,34.5412371 M4.89845361,40.7025773 L23.693299,36.1314433 M4.25618557,43.0417526 L25.1768041,37.9350515 M3.84329897,45.2582474 L26.3541237,39.7391753 M3.73608247,47.4907216 L27.0881443,41.6505155 M4.04175258,49.5087629 L27.3020619,43.7757732 M4.79123711,51.4195876 L27.5164948,45.9005155 M5.86185567,53.3309278 L27.3020619,48.1324742 M7.13092784,55.0278351 L26.4613402,50.4716495 M9.36391753,56.7247423 L25.2835052,52.9025773" id="Stroke-12" stroke="#1A1919" stroke-width="0.412"></path>
            <polygon id="Fill-13" fill="#1A1919" points="21.5371134 46.9706186 21.5371134 47.9185567 23.5860825 46.8639175"></polygon>
            <polygon id="Stroke-14" stroke="#1A1919" stroke-width="0.206" points="21.5371134 46.9706186 21.5371134 47.9185567 23.5860825 46.8639175"></polygon>
            <polygon id="Fill-15" fill="#1A1919" points="8.82835052 39.2195876 8.82835052 40.1675258 10.8474227 39.25"></polygon>
            <polygon id="Stroke-16" stroke="#1A1919" stroke-width="0.206" points="8.82835052 39.2195876 8.82835052 40.1675258 10.8474227 39.25"></polygon>
            <polygon id="Fill-17" fill="#1A1919" points="30.3912371 36.1314433 30.2386598 37.2015464 32.5170103 36.1314433"></polygon>
            <polygon id="Stroke-18" stroke="#1A1919" stroke-width="0.206" points="30.3912371 36.1314433 30.2386598 37.2015464 32.5170103 36.1314433"></polygon>
            <polygon id="Fill-19" fill="#1A1919" points="35.9123711 35.1835052 41.1118557 33.792268 36.4474227 58.85 35.9123711 58.85"></polygon>
            <polygon id="Stroke-20" stroke="#1A1919" stroke-width="0.206" points="35.9123711 35.1835052 41.1118557 33.792268 36.4474227 58.85 35.9123711 58.85"></polygon>
            <polygon id="Fill-21" fill="#1A1919" points="46.8463918 32.5231959 51.9391753 31.1474227 49.5072165 42.6134021"></polygon>
            <polygon id="Stroke-22" stroke="#1A1919" stroke-width="0.206" points="46.8463918 32.5231959 51.9391753 31.1474227 49.5072165 42.6134021"></polygon>
            <polygon id="Fill-23" fill="#1A1919" points="63.5154639 52.3829897 62.9958763 52.3829897 57.6737113 29.8783505 63.5154639 28.3798969"></polygon>
            <polygon id="Stroke-24" stroke="#1A1919" stroke-width="0.206" points="63.5154639 52.3829897 62.9958763 52.3829897 57.6737113 29.8783505 63.5154639 28.3798969"></polygon>
            <polygon id="Fill-25" fill="#1A1919" points="44.6139175 56.8319588 46.0969072 49.0804124 48.2226804 55.8840206"></polygon>
            <polygon id="Stroke-26" stroke="#1A1919" stroke-width="0.206" points="44.6139175 56.8319588 46.0969072 49.0804124 48.2226804 55.8840206"></polygon>
            <polygon id="Fill-27" fill="#1A1919" points="52.2603093 54.9206186 53.957732 47.0778351 55.8690722 53.9731959"></polygon>
            <polygon id="Stroke-28" stroke="#1A1919" stroke-width="0.206" points="52.2603093 54.9206186 53.957732 47.0778351 55.8690722 53.9731959"></polygon>
            <path d="M40.4695876,36.2381443 L58.5298969,31.7891753 M40.0257732,38.485567 L59.0195876,33.8226804 M39.5824742,40.7484536 L59.5242268,35.8407216 M39.1391753,42.9958763 L60.0134021,37.8742268 M38.6953608,45.243299 L60.5030928,39.892268 M38.221134,47.521134 L61.007732,41.9257732 M37.7778351,49.7685567 L61.4969072,43.9438144 M37.3345361,52.0159794 L61.9865979,45.992268 M36.8907216,54.2634021 L62.5061856,48.0103093 M36.4474227,56.5262887 L62.9958763,50.0438144" id="Stroke-29" stroke="#1A1919" stroke-width="0.412"></path>
            <polygon id="Fill-30" fill="#1A1919" points="65.014433 51.0989691 64.8613402 52.1690722 67.1247423 51.0989691"></polygon>
            <polygon id="Stroke-31" stroke="#1A1919" stroke-width="0.206" points="65.014433 51.0989691 64.8613402 52.1690722 67.1247423 51.0989691"></polygon>
            <polygon id="Fill-32" fill="#1A1919" points="49.1860825 48.6680412 49.0335052 49.7226804 51.3118557 48.6680412"></polygon>
            <polygon id="Stroke-33" stroke="#1A1919" stroke-width="0.206" points="49.1860825 48.6680412 49.0335052 49.7226804 51.3118557 48.6680412"></polygon>
            <polygon id="Fill-34" fill="#1A1919" points="53.8505155 36.7273196 53.7128866 37.7979381 55.9762887 36.7273196"></polygon>
            <polygon id="Stroke-35" stroke="#1A1919" stroke-width="0.206" points="53.8505155 36.7273196 53.7128866 37.7979381 55.9762887 36.7273196"></polygon>
            <path d="M94.4226804,32.9515464 C93.9025773,31.4530928 89.5438144,29.7561856 85.185567,29.8783505 L98.0314433,26.4690722 L98.0314433,50.578866 L91.5628866,52.1690722 L95.0649485,49.1876289 L95.0649485,37.721134 L84.2376289,40.1675258 L84.2376289,44.6314433 L89.1159794,43.5613402 L89.1159794,45.6865979 C88.4886598,47.2768041 86.806701,47.5365979 85.0783505,47.7046392 C80.9340206,48.1324742 79.4963918,45.9159794 79.1293814,43.0417526 C78.7164948,39.6324742 80.9340206,37.293299 84.0231959,36.1314433 C86.0726804,35.3515464 87.8463918,35.8103093 89.6510309,36.2381443 L94.4226804,32.8443299 C94.4226804,32.8747423 95.706701,36.5134021 94.4226804,32.9515464" id="Fill-36" fill="#1A1919"></path>
            <polyline id="Fill-37" fill="#FFFFFE" points="81.4695876 38.6845361 81.3164948 39.7391753 83.5953608 38.6845361 81.4695876 38.6845361"></polyline>
            <polyline id="Fill-38" fill="#FFFFFE" points="94.3154639 29.0221649 94.1778351 30.0768041 96.4412371 29.0221649 94.3154639 29.0221649"></polyline>
            <path d="M70.2139175,33.3793814 L78.7015464,31.2541237 C68.1953608,37.5072165 70.9634021,54.8139175 81.2551546,54.4010309 L70.2139175,57.2597938 L70.2139175,33.3793814" id="Fill-39" fill="#1A1919"></path>
            <polygon id="Fill-40" fill="#1A1919" points="68.9443299 39.5252577 68.7917526 40.5953608 71.0551546 39.5252577"></polygon>
            <polygon id="Stroke-41" stroke="#1A1919" stroke-width="0.206" points="68.9443299 39.5252577 68.7917526 40.5953608 71.0551546 39.5252577"></polygon>
            <path d="M74.2510309,34.4340206 L91.2417526,30.2912371 M73.2876289,36.7273196 L93.8871134,31.8809278 M71.9113402,39.3268041 L95.9056701,33.3793814 M71.6974227,41.4365979 L80.4139175,39.5252577 M71.6974227,43.6685567 L95.4927835,38.042268 M71.9113402,45.6865979 L95.278866,40.2742268 M72.3396907,47.8118557 L95.4927835,42.3994845 M73.1809278,49.8298969 L95.385567,44.5247423 M74.4654639,51.6340206 L95.278866,46.65 M76.4840206,53.3309278 L95.706701,48.7747423" id="Stroke-42" stroke="#1A1919" stroke-width="0.412"></path>
            <polygon id="Fill-43" fill="#1A1919" points="89.8649485 32.3092784 89.7123711 33.3793814 91.9757732 32.3092784"></polygon>
            <polygon id="Stroke-44" stroke="#1A1919" stroke-width="0.206" points="89.8649485 32.3092784 89.7123711 33.3793814 91.9757732 32.3092784"></polygon>
            <polygon id="Fill-45" fill="#1A1919" points="80.2 51.9546392 80.0469072 53.0097938 82.3257732 51.9546392"></polygon>
            <polygon id="Stroke-46" stroke="#1A1919" stroke-width="0.206" points="80.2 51.9546392 80.0469072 53.0097938 82.3257732 51.9546392"></polygon>
            <path d="M6.70309278,38.1494845 L2.32938144,39.1123711 M5.32680412,40.5953608 L2.32938144,41.3448454 M20.6195876,34.6484536 L29.642268,32.5231959 M4.3628866,43.0417526 L2.32938144,43.4546392 M4.04175258,45.2582474 L2.32938144,45.5793814 M4.04175258,47.3835052 L2.32938144,47.8118557 M4.47010309,49.5087629 L2.32938144,50.0438144 M5.11237113,51.4195876 L2.45154639,52.0618557 M6.27474227,53.2237113 L2.32938144,54.1412371 M7.66649485,54.9206186 L2.32938144,56.4190722 M9.88402062,56.6329897 L2.32938144,58.6360825 M24.8706186,53.0097938 L29.4891753,51.9546392 M26.0329897,50.578866 L29.4891753,49.8298969 M26.7824742,48.2396907 L29.4891753,47.5974227 M27.0881443,46.007732 L29.4891753,45.4726804 M26.9809278,43.7757732 L29.4891753,43.1484536 M26.6752577,41.7572165 L29.4891753,41.1304124 M26.0329897,39.8463918 L29.4891753,39.0056701 M24.9778351,38.042268 L29.4891753,36.8804124 M23.157732,36.3453608 L29.4891753,34.7551546 M40.6835052,36.2381443 L35.9123711,37.3082474 M40.2706186,38.4706186 L35.9123711,39.5252577 M39.842268,40.7025773 L35.9123711,41.6505155 M39.414433,42.9345361 L35.9123711,43.7757732 M38.9860825,45.1664948 L35.9123711,45.9005155 M38.557732,47.3835052 L35.9123711,48.0257732 M38.2520619,49.6154639 L35.9123711,50.1510309 M37.7164948,52.0618557 L35.9123711,52.3829897 M37.2886598,54.2938144 L35.9123711,54.6149485 M36.9675258,56.5262887 L35.9123711,56.7247423 M47.3819588,34.5412371 L51.4190722,33.593299 M47.9170103,36.5592784 L50.9907216,35.8103093 M48.5438144,38.5773196 L50.4556701,38.042268 M48.9721649,40.5953608 L50.0273196,40.3814433 M46.0051546,49.9365979 L46.4185567,49.8298969 M53.743299,48.1324742 L54.278866,48.0257732 M45.4701031,52.2757732 L47.0608247,51.8479381 M53.3304124,50.3649485 L54.8139175,50.0438144 M45.0417526,54.4010309 L47.7030928,53.8659794 M52.7953608,52.5969072 L55.3494845,52.0618557 M58.2092784,31.8809278 L63.5154639,30.6123711 M58.6371134,33.8989691 L63.5154639,32.8443299 M59.1726804,35.9175258 L63.5154639,34.9695876 M59.585567,37.9350515 L63.5154639,37.0943299 M60.1206186,39.9536082 L63.5154639,39.2195876 M60.6561856,42.0783505 L63.5154639,41.4365979 M61.0840206,44.0963918 L63.5154639,43.5613402 M61.6041237,46.1149485 L63.5154639,45.6865979 M62.0324742,48.1324742 L63.5154639,47.8118557 M62.5675258,50.1510309 L63.5154639,49.9365979 M74.9850515,34.3273196 L70.2139175,35.3974227 M73.5020619,36.7731959 L70.2139175,37.4154639 M72.5536082,39.2195876 L70.2139175,39.6324742 M72.1252577,41.4365979 L70.2139175,41.864433 M71.9113402,43.6685567 L70.2139175,43.9896907 M72.1252577,45.6865979 L70.2139175,46.1149485 M72.6608247,47.8118557 L70.2139175,48.3469072 M73.5020619,49.8298969 L70.321134,50.578866 M74.771134,51.6340206 L70.2139175,52.7041237 M76.6829897,53.3309278 L70.2139175,55.0278351 M90.3850515,30.5051546 L98.0314433,28.5943299 M93.6881443,31.9881443 L98.0314433,30.8262887 M92.4036082,34.3273196 L98.0314433,32.9515464 M79.7716495,39.6324742 L98.0314433,35.0762887" id="Stroke-47" stroke="#FFFFFE" stroke-width="0.412"></path>
            <path d="M79.0226804,41.9716495 L84.1304124,40.8097938 M79.2365979,43.9896907 L84.1304124,42.8278351 M95.0649485,38.1494845 L98.0314433,37.4154639 M95.0649485,40.3814433 L98.0314433,39.6324742 M80.3072165,46.007732 L89.1159794,43.9896907 M95.0649485,42.506701 L98.0314433,41.864433 M82.9525773,47.5974227 L89.0087629,46.1149485 M95.0649485,44.6314433 L98.0314433,43.9896907 M95.0649485,46.756701 L98.0314433,46.1149485 M95.0649485,48.9891753 L98.0314433,48.2396907 M11.5963918,43.3474227 L18.707732,41.543299 M11.0613402,45.6865979 L19.9768041,43.3474227 M11.4896907,47.5974227 L20.5123711,45.3654639 M12.5448454,49.5087629 L19.9768041,47.7046392" id="Stroke-48" stroke="#FFFFFE" stroke-width="0.412"></path>
        </g>
        <path d="M80,7 C120.316787,7 153,39.6832133 153,80 C153,120.316787 120.316787,153 80,153 C39.6832133,153 7,120.316787 7,80 C7,39.6832133 39.6832133,7 80,7 Z M80,18 C45.7583455,18 18,45.7583455 18,80 C18,114.241654 45.7583455,142 80,142 C114.241654,142 142,114.241654 142,80 C142,45.7583455 114.241654,18 80,18 Z" id="Combined-Shape" fill="#000000"></path>
    </g>
</svg>