<?xml version="1.0" encoding="UTF-8"?>
<svg width="100px" height="100px" viewBox="0 0 100 100" version="1.1" xmlns="http://www.w3.org/2000/svg" xmlns:xlink="http://www.w3.org/1999/xlink">
    <!-- Generator: Sketch 57.1 (83088) - https://sketch.com -->
    <title>OMG-ASCQM-Standard</title>
    <desc>Created with Sketch.</desc>
    <g id="OMG-ASCQM-Standard" stroke="none" stroke-width="1" fill="none" fill-rule="evenodd">
        <g id="ASC-CISQ" fill="#000000">
            <rect id="Rectangle" x="0" y="0" width="100" height="100"></rect>
        </g>
        <g id="OMG" transform="translate(6.000000, -11.000000)">
            <path d="M1.44098969,64.7793766 C1.51038448,65.6354008 2.25649485,66.2986101 3.12695694,66.3125822 C4.01139115,66.2986101 4.75750152,65.6354008 4.8129242,64.7793766 L4.02489751,64.7793766 C3.96994057,65.2073887 3.58291328,65.5939503 3.12695694,65.5939503 C2.67100061,65.5939503 2.29794542,65.2073887 2.22901637,64.7793766 L1.44098969,64.7793766 L1.44098969,64.7793766 Z M6.23575015,64.7793766 L6.23575015,66.229681 L7.31346513,66.229681 C8.12897029,66.229681 8.46057489,65.8566258 8.46057489,65.3592189 C8.46057489,65.1105155 8.37767374,64.9172347 8.23934991,64.7793766 L6.23575015,64.7793766 L6.23575015,64.7793766 Z M10.4227241,64.7793766 L10.4227241,64.9726574 C10.4227241,65.3457126 10.3398229,65.5524997 9.95279563,65.5524997 C9.84241601,65.5524997 9.71806428,65.5389933 9.60721892,65.4975428 L9.80096543,66.2711316 C9.89737295,66.2986101 9.99424621,66.2986101 10.0911195,66.3125822 C10.8232577,66.2986101 11.210285,65.8426537 11.210285,65.1244876 L11.210285,64.7793766 L10.4227241,64.7793766 L10.4227241,64.7793766 Z M12.7854069,64.7793766 L12.7854069,66.229681 L14.6092323,66.229681 L14.802513,65.5664718 L13.5729679,65.5664718 L13.5729679,64.9586853 L14.388473,64.9586853 L14.388473,64.7793766 L12.7854069,64.7793766 L12.7854069,64.7793766 Z M16.0464961,64.7793766 C16.101453,65.6908235 16.7646622,66.2986101 17.6765749,66.3125822 C17.8288708,66.2986101 18.1050528,66.2571595 18.2294045,66.1882304 L18.3262777,65.3592189 C18.1739818,65.4695985 17.9532226,65.5939503 17.7319976,65.5939503 C17.2206186,65.5939503 16.8890139,65.2488393 16.834057,64.7793766 L16.0464961,64.7793766 L16.0464961,64.7793766 Z M20.3433839,64.7793766 L20.3433839,66.2711316 L21.1314106,66.2017368 L21.1314106,64.7793766 L20.3433839,64.7793766 L20.3433839,64.7793766 Z M7.0233111,64.9586853 L7.21705761,64.9586853 C7.46576107,64.9586853 7.68652032,65.0001358 7.67301395,65.2902899 C7.68652032,65.5524997 7.46576107,65.6079224 7.23056398,65.6079224 L7.0233111,65.6079224 L7.0233111,64.9586853 L7.0233111,64.9586853 Z" id="Fill-2" fill="#FFFFFF"></path>
            <path d="M2.22901637,64.7793766 L2.22901637,64.6545591 C2.22901637,64.1711243 2.62955003,63.7156337 3.12695694,63.7156337 C3.62436386,63.7156337 4.03886962,64.1711243 4.02489751,64.6545591 C4.03886962,64.6964754 4.02489751,64.7374603 4.02489751,64.7793766 L4.8129242,64.7793766 L4.8129242,64.6545591 C4.8129242,63.7291401 4.05284172,62.9970018 3.12695694,62.9970018 C2.21504427,62.9970018 1.44098969,63.7291401 1.44098969,64.6545591 L1.44098969,64.7793766 L2.22901637,64.7793766 L2.22901637,64.7793766 Z M8.23934991,64.7793766 C8.15644876,64.6825033 8.0595755,64.6131086 7.94919588,64.571658 C8.21187144,64.4612784 8.37767374,64.2125749 8.36370164,63.9089145 C8.37767374,63.2596774 7.7559151,63.079903 7.13415646,63.079903 L6.23575015,63.079903 L6.23575015,64.7793766 L8.23934991,64.7793766 L8.23934991,64.7793766 Z M11.210285,64.7793766 L11.210285,62.9970018 L10.4227241,63.079903 L10.4227241,64.7793766 L11.210285,64.7793766 L11.210285,64.7793766 Z M14.388473,64.7793766 L14.388473,64.295476 L13.5729679,64.295476 L13.5729679,63.7431122 L14.7061055,63.7431122 L14.5677817,63.079903 L12.7854069,63.079903 L12.7854069,64.7793766 L14.388473,64.7793766 L14.388473,64.7793766 Z M16.834057,64.7793766 C16.834057,64.7239539 16.834057,64.6825033 16.8200849,64.6410528 C16.834057,64.1021953 17.2071122,63.7156337 17.7319976,63.7156337 C17.9532226,63.7156337 18.1465033,63.8260133 18.3123056,63.9503651 L18.1879539,63.1078472 C18.0361237,63.024946 17.8563493,62.9970018 17.6765749,62.9970018 C16.7232116,62.9970018 16.0464961,63.7156337 16.0464961,64.6685312 L16.0464961,64.7793766 L16.834057,64.7793766 L16.834057,64.7793766 Z M21.1314106,64.7793766 L21.1314106,63.7985349 L21.8910273,63.7985349 L21.8910273,63.079903 L19.7355973,63.079903 L19.5423166,63.7985349 L20.3433839,63.7985349 L20.3433839,64.7793766 L21.1314106,64.7793766 L21.1314106,64.7793766 Z M7.0233111,63.7016616 L7.1891134,63.7016616 C7.38285992,63.7016616 7.5901128,63.7705907 7.5901128,64.005322 C7.5901128,64.1990685 7.46576107,64.3369266 7.21705761,64.3369266 L7.0233111,64.3369266 L7.0233111,63.7016616 L7.0233111,63.7016616 Z" id="Fill-3" fill="#FFFFFF"></path>
            <path d="M26.561436,64.9312068 L25.5666222,62.9970018 L25.5526501,62.9970018 L24.6961601,66.2017368 L25.4976931,66.3125822 L25.759903,64.792883 L25.7738751,64.792883 L26.5339576,66.3125822 L27.3629691,64.792883 L27.3764754,64.792883 L27.6531231,66.3125822 L28.4406841,66.2017368 L27.5977004,62.9970018 L27.5837283,62.9970018 L26.561436,64.9312068 L26.561436,64.9312068 Z M31.0380982,62.9970018 L29.3525967,66.1467799 L30.1126792,66.3125822 L30.4303117,65.6354008 L31.6323784,65.6354008 L31.963983,66.3125822 L32.751544,66.1467799 L31.0520703,62.9970018 L31.0380982,62.9970018 L31.0380982,62.9970018 Z M31.0380982,64.2679976 L31.4665761,65.0415864 L30.6235925,65.0415864 L31.0380982,64.2679976 L31.0380982,64.2679976 Z M36.8416446,66.3125822 L36.8416446,62.9970018 L36.0680558,63.079903 L36.0680558,64.7654045 L33.9950612,62.9970018 L33.9815549,62.9970018 L33.9815549,66.2711316 L34.7691158,66.2017368 L34.7691158,64.5027289 L36.8416446,66.3125822 L36.8416446,66.3125822 Z M39.7711292,62.9970018 L38.0851619,66.1467799 L38.8452444,66.3125822 L39.1628769,65.6354008 L40.3649436,65.6354008 L40.6830418,66.3125822 L41.4841092,66.1467799 L39.7846355,62.9970018 L39.7711292,62.9970018 L39.7711292,62.9970018 Z M39.7711292,64.2679976 L40.1856349,65.0415864 L39.3566234,65.0415864 L39.7711292,64.2679976 L39.7711292,64.2679976 Z M45.5187871,63.4389861 C45.1876483,63.1628041 44.7451983,62.9970018 44.2752699,62.9970018 C43.3633572,62.9970018 42.5897683,63.7291401 42.5897683,64.6545591 C42.5897683,65.5804439 43.3633572,66.2986101 44.2752699,66.3125822 C44.7591704,66.2986101 45.2980279,66.1742583 45.6156604,65.9809776 L45.6156604,64.3508987 L44.2338193,64.3508987 L44.01306,65.0141079 L44.8280995,65.0141079 L44.8280995,65.4695985 C44.7451983,65.5664718 44.4964948,65.5939503 44.3721431,65.5939503 C43.8332856,65.5939503 43.3773293,65.2488393 43.3773293,64.6545591 C43.3773293,64.1161674 43.7778629,63.7156337 44.3167204,63.7156337 C44.5933681,63.7156337 44.8560437,63.8260133 45.0632965,64.005322 L45.5187871,63.4389861 L45.5187871,63.4389861 Z M49.0425518,66.229681 L49.2358326,65.5664718 L48.0062874,65.5664718 L48.0062874,64.9586853 L48.8213269,64.9586853 L48.8213269,64.295476 L48.0062874,64.295476 L48.0062874,63.7431122 L49.1394251,63.7431122 L49.0011013,63.079903 L47.2187265,63.079903 L47.2187265,66.229681 L49.0425518,66.229681 L49.0425518,66.229681 Z M52.2342462,64.9312068 L51.2394324,62.9970018 L51.2254603,62.9970018 L50.3689703,66.2017368 L51.1705033,66.3125822 L51.4327132,64.792883 L51.4466853,64.792883 L52.2067677,66.3125822 L53.0357793,64.792883 L53.0492856,64.792883 L53.3259333,66.3125822 L54.1134942,66.2017368 L53.2705106,62.9970018 L53.2570042,62.9970018 L52.2342462,64.9312068 L52.2342462,64.9312068 Z M57.263738,66.229681 L57.4574845,65.5664718 L56.2139673,65.5664718 L56.2139673,64.9586853 L57.0290067,64.9586853 L57.0290067,64.295476 L56.2139673,64.295476 L56.2139673,63.7431122 L57.3606113,63.7431122 L57.2222874,63.079903 L55.4399127,63.079903 L55.4399127,66.229681 L57.263738,66.229681 L57.263738,66.229681 Z M61.7548381,66.3125822 L61.7548381,62.9970018 L60.9668114,63.079903 L60.9668114,64.7654045 L58.8942826,62.9970018 L58.8942826,66.2711316 L59.6683372,66.2017368 L59.6683372,64.5027289 L61.740866,66.3125822 L61.7548381,66.3125822 L61.7548381,66.3125822 Z M63.910268,63.7985349 L63.910268,66.2711316 L64.697829,66.2017368 L64.697829,63.7985349 L65.4574457,63.7985349 L65.4574457,63.079903 L63.3020158,63.079903 L63.0947629,63.7985349 L63.910268,63.7985349 L63.910268,63.7985349 Z" id="Fill-4" fill="#FFFFFF"></path>
            <path d="M68.2486064,64.7793766 C68.3180012,65.6354008 69.0501395,66.2986101 69.9345737,66.3125822 C70.4180085,66.2986101 70.956866,66.1742583 71.2609921,65.9809776 L71.2609921,64.7793766 L69.7408272,64.7793766 L69.657926,65.0141079 L70.4874033,65.0141079 L70.4874033,65.4695985 C70.39053,65.5664718 70.1557987,65.5939503 70.0314469,65.5939503 C69.5200679,65.5939503 69.0915901,65.2902899 69.0366331,64.7793766 L68.2486064,64.7793766 L68.2486064,64.7793766 Z M72.9744378,64.7793766 L72.9744378,66.2711316 L73.7480267,66.2017368 L73.7480267,64.8203614 L73.7619988,64.8203614 L74.6878836,66.3125822 L75.4754445,66.0499066 L74.6184888,64.8483056 C74.6878836,64.8343335 74.7293341,64.8068551 74.7707847,64.7793766 L72.9744378,64.7793766 L72.9744378,64.7793766 Z M76.8018629,64.7793766 C76.870792,65.6354008 77.603396,66.2986101 78.4878302,66.3125822 C79.3717987,66.2986101 80.1044027,65.6354008 80.1733317,64.7793766 L79.3857708,64.7793766 C79.3303481,65.2073887 78.9433208,65.5939503 78.4878302,65.5939503 C78.0314081,65.5939503 77.6583529,65.2073887 77.5894239,64.7793766 L76.8018629,64.7793766 L76.8018629,64.7793766 Z M81.8313548,64.7793766 L81.8313548,65.1934166 C81.8453269,65.9670055 82.3562401,66.2986101 83.0888441,66.3125822 C83.8903772,66.2986101 84.4567132,65.8705979 84.4567132,65.1384597 L84.4567132,64.7793766 L83.6691522,64.7793766 L83.6691522,64.8068551 C83.6831243,65.2348672 83.6137295,65.5939503 83.1028163,65.5939503 C82.715789,65.5939503 82.6189157,65.304262 82.6189157,64.9726574 L82.6189157,64.7793766 L81.8313548,64.7793766 L81.8313548,64.7793766 Z M86.25306,64.7793766 L86.25306,66.2711316 L87.0266489,66.2017368 L87.0266489,65.0970091 L87.3032965,65.0970091 C87.6623796,65.0970091 87.9939842,64.9726574 88.2012371,64.7793766 L86.25306,64.7793766 L86.25306,64.7793766 Z" id="Fill-5" fill="#FFFFFF"></path>
            <path d="M69.0366331,64.7793766 C69.0366331,64.7374603 69.0366331,64.6964754 69.022661,64.6545591 C69.0366331,64.1161674 69.4231947,63.7156337 69.9760243,63.7156337 C70.2522062,63.7156337 70.5148817,63.8260133 70.7081625,64.005322 L71.178091,63.4389861 C70.8464864,63.1628041 70.4045021,62.9970018 69.9345737,62.9970018 C69.0086889,62.9970018 68.2486064,63.7291401 68.2486064,64.6545591 L68.2486064,64.7793766 L69.0366331,64.7793766 L69.0366331,64.7793766 Z M71.2609921,64.7793766 L71.2609921,64.3508987 L69.8931231,64.3508987 L69.7408272,64.7793766 L71.2609921,64.7793766 L71.2609921,64.7793766 Z M74.7707847,64.7793766 C75.0055161,64.6131086 75.1438399,64.3234203 75.1298678,64.0467726 C75.1438399,63.3286064 74.6049824,63.079903 73.858872,63.079903 L72.9744378,63.079903 L72.9744378,64.7793766 L74.7707847,64.7793766 L74.7707847,64.7793766 Z M77.5894239,64.7793766 L77.5894239,64.6545591 C77.5894239,64.1711243 77.9899576,63.7156337 78.4878302,63.7156337 C78.9847714,63.7156337 79.3857708,64.1711243 79.3857708,64.6545591 L79.3857708,64.7793766 L80.1733317,64.7793766 L80.1733317,64.6545591 C80.1733317,63.7291401 79.4132492,62.9970018 78.4878302,62.9970018 C77.5619454,62.9970018 76.8018629,63.7291401 76.8018629,64.6545591 L76.8018629,64.7793766 L77.5894239,64.7793766 L77.5894239,64.7793766 Z M82.6189157,64.7793766 L82.6189157,62.9970018 L81.8313548,63.079903 L81.8313548,64.7793766 L82.6189157,64.7793766 L82.6189157,64.7793766 Z M84.4567132,64.7793766 L84.4567132,62.9970018 L83.6691522,63.079903 L83.6691522,64.7793766 L84.4567132,64.7793766 L84.4567132,64.7793766 Z M88.2012371,64.7793766 C88.3810115,64.5996022 88.4913911,64.3648708 88.4913911,64.0882232 C88.4913911,63.3151001 87.9939842,63.079903 87.2064233,63.079903 L86.25306,63.079903 L86.25306,64.7793766 L88.2012371,64.7793766 L88.2012371,64.7793766 Z M73.7480267,63.7431122 C74.0796313,63.7291401 74.356279,63.7845628 74.356279,64.1711243 C74.356279,64.5441795 74.0936034,64.6545591 73.7480267,64.6270807 L73.7480267,63.7431122 L73.7480267,63.7431122 Z M87.0266489,63.7431122 L87.261846,63.7431122 C87.552,63.7431122 87.7038302,63.8674639 87.7038302,64.0882232 C87.7038302,64.295476 87.552,64.4198278 87.261846,64.4198278 L87.0266489,64.4198278 L87.0266489,63.7431122 L87.0266489,63.7431122 Z" id="Fill-6" fill="#FFFFFF"></path>
            <path d="M12.578154,51.9464645 C4.23215039,51.6563105 -0.56214433,38.8927932 8.83363008,31.6128611 L2.10466465,33.0077429 L2.10466465,54.4050891 L12.578154,51.9464645" id="Fill-7" fill="#FFFFFF"></path>
            <path d="M10.187527,41.1576713 C10.187527,38.5332444 12.0392965,36.4062244 14.3055719,36.4062244 C16.5853535,36.4062244 18.4366574,38.5332444 18.4366574,41.1576713 C18.4366574,43.7685919 16.5853535,45.8960776 14.3055719,45.8960776 C12.0392965,45.8960776 10.187527,43.7685919 10.187527,41.1576713 L10.187527,41.1576713 Z" id="Fill-8" fill="#FFFFFF"></path>
            <path d="M10.187527,41.1576713 C10.187527,38.5332444 12.0392965,36.4062244 14.3055719,36.4062244 C16.5853535,36.4062244 18.4366574,38.5332444 18.4366574,41.1576713 C18.4366574,43.7685919 16.5853535,45.8960776 14.3055719,45.8960776 C12.0392965,45.8960776 10.187527,43.7685919 10.187527,41.1576713 L10.187527,41.1576713 Z" id="Stroke-9" stroke="#FFFFFF" stroke-width="0.412"></path>
            <path d="M26.6443372,27.3443833 L26.6443372,48.7417295 L19.3900206,50.4127932 C25.1521164,47.912718 28.7033596,32.5657586 14.9822874,30.0796555 L26.6443372,27.3443833 Z M22.4713354,30.2729363 L20.5506367,30.3558375 L20.5506367,31.1708769 L22.4713354,30.2729363 Z" id="Combined-Shape" fill="#FFFFFE"></path>
            <path d="M5.76582171,34.389584 L19.0169654,31.0325531 M4.42589691,36.5995052 L21.4075925,32.4693511 M3.84558884,38.7130188 L22.747983,34.0989642 M3.47253366,40.7156871 L23.8117259,35.7290431 M3.3756604,42.7327932 L24.4749351,37.4559951 M3.65184233,44.5561528 L24.6682159,39.376228 M4.32902365,46.2826392 L24.8619624,41.2959951 M5.29635901,48.0095913 L24.6682159,43.3126355 M6.44300303,49.5427968 L23.9085992,45.4261492 M8.46057489,51.0760024 L22.8443905,47.622564" id="Stroke-12" stroke="#FFFFFF" stroke-width="0.412"></path>
            <polygon id="Fill-13" fill="#FFFFFF" points="19.4594154 42.2628648 19.4594154 43.1193548 21.3107192 42.1664572"></polygon>
            <polygon id="Stroke-14" stroke="#FFFFFF" stroke-width="0.206" points="19.4594154 42.2628648 19.4594154 43.1193548 21.3107192 42.1664572"></polygon>
            <polygon id="Fill-15" fill="#FFFFFF" points="7.97667435 35.2595804 7.97667435 36.1160703 9.80096543 35.2870588"></polygon>
            <polygon id="Stroke-16" stroke="#FFFFFF" stroke-width="0.206" points="7.97667435 35.2595804 7.97667435 36.1160703 9.80096543 35.2870588"></polygon>
            <polygon id="Fill-17" fill="#FFFFFF" points="27.4593766 32.4693511 27.3215185 33.4362207 29.3800752 32.4693511"></polygon>
            <polygon id="Stroke-18" stroke="#FFFFFF" stroke-width="0.206" points="27.4593766 32.4693511 27.3215185 33.4362207 29.3800752 32.4693511"></polygon>
            <polygon id="Fill-19" fill="#FFFFFF" points="32.4478836 31.6128611 37.1457708 30.3558375 32.9313184 52.9962353 32.4478836 52.9962353"></polygon>
            <polygon id="Stroke-20" stroke="#FFFFFF" stroke-width="0.206" points="32.4478836 31.6128611 37.1457708 30.3558375 32.9313184 52.9962353 32.4478836 52.9962353"></polygon>
            <polygon id="Fill-21" fill="#FFFFFF" points="42.3270928 29.2091935 46.9285725 27.9661419 44.7312262 38.3259915"></polygon>
            <polygon id="Stroke-22" stroke="#FFFFFF" stroke-width="0.206" points="42.3270928 29.2091935 46.9285725 27.9661419 44.7312262 38.3259915"></polygon>
            <polygon id="Fill-23" fill="#FFFFFF" points="57.3880898 47.1531013 56.918627 47.1531013 52.1098945 26.8194979 57.3880898 25.465601"></polygon>
            <polygon id="Stroke-24" stroke="#FFFFFF" stroke-width="0.206" points="57.3880898 47.1531013 56.918627 47.1531013 52.1098945 26.8194979 57.3880898 25.465601"></polygon>
            <polygon id="Fill-25" fill="#FFFFFF" points="40.3099867 51.1728757 41.6499115 44.1691255 43.5706101 50.3163857"></polygon>
            <polygon id="Stroke-26" stroke="#FFFFFF" stroke-width="0.206" points="40.3099867 51.1728757 41.6499115 44.1691255 43.5706101 50.3163857"></polygon>
            <polygon id="Fill-27" fill="#FFFFFF" points="47.2187265 49.4459236 48.7523978 42.359738 50.4793499 48.5898993"></polygon>
            <polygon id="Stroke-28" stroke="#FFFFFF" stroke-width="0.206" points="47.2187265 49.4459236 48.7523978 42.359738 50.4793499 48.5898993"></polygon>
            <path d="M36.5654627,32.5657586 L52.8834833,28.5459842 M36.1644633,34.5963711 L53.3259333,30.3833159 M35.7639297,36.6409557 L53.7818896,32.2066756 M35.363396,38.6715682 L54.2238739,34.0440073 M34.9623966,40.7021807 L54.6663238,35.8673669 M34.5339187,42.7602717 L55.1222802,37.7046986 M34.1333851,44.7908842 L55.5642644,39.5280582 M33.7328514,46.8214967 L56.0067144,41.3788963 M33.331852,48.8521092 L56.4761771,43.2022559 M32.9313184,50.8966938 L56.918627,45.0395876" id="Stroke-29" stroke="#FFFFFF" stroke-width="0.412"></path>
            <polygon id="Fill-30" fill="#FFFFFF" points="58.7424524 45.9929509 58.6041286 46.9598205 60.6491789 45.9929509"></polygon>
            <polygon id="Stroke-31" stroke="#FFFFFF" stroke-width="0.206" points="58.7424524 45.9929509 58.6041286 46.9598205 60.6491789 45.9929509"></polygon>
            <polygon id="Fill-32" fill="#FFFFFF" points="44.4410722 43.7965361 44.3032141 44.7494336 46.3617708 43.7965361"></polygon>
            <polygon id="Stroke-33" stroke="#FFFFFF" stroke-width="0.206" points="44.4410722 43.7965361 44.3032141 44.7494336 46.3617708 43.7965361"></polygon>
            <polygon id="Fill-34" fill="#FFFFFF" points="48.6555246 33.0077429 48.5311728 33.9750782 50.5762232 33.0077429"></polygon>
            <polygon id="Stroke-35" stroke="#FFFFFF" stroke-width="0.206" points="48.6555246 33.0077429 48.5311728 33.9750782 50.5762232 33.0077429"></polygon>
            <path d="M88.5742923,23.7391146 L88.5742923,45.5230224 L82.7297611,46.9598205 L85.893977,44.2659988 L85.893977,33.9056834 L76.1111753,36.1160703 L76.1111753,40.1493511 L80.5189084,39.1824815 L80.5189084,41.1027144 C79.9521067,42.5395124 78.4324075,42.7742438 76.870792,42.926074 C73.126268,43.3126355 71.8273281,41.3099673 71.4957235,38.7130188 C71.1226683,35.6326355 73.126268,33.5191219 75.9174287,32.4693511 C77.7691983,31.7646913 79.3717987,32.1791971 81.0023432,32.5657586 L85.2830055,29.5201146 L85.2731444,29.4968616 C84.65163,28.1685111 80.809426,26.7118104 76.9676653,26.8194979 L88.5742923,23.7391146 Z M75.5308672,34.7761455 L73.6101686,34.7761455 L73.4718448,35.7290431 L75.5308672,34.7761455 Z M85.3136689,29.4993475 L85.2830055,29.5201146 L85.3136689,29.5962207 C86.4506163,32.7500973 85.3591468,29.655729 85.3150332,29.5048303 L85.3136689,29.4993475 Z M87.1374942,26.045909 L85.2167956,26.045909 L85.0924439,26.9988065 L87.1374942,26.045909 Z" id="Combined-Shape" fill="#FFFFFE"></path>
            <path d="M63.4403396,29.9827823 L71.1091619,28.0625494 C61.6165143,33.7124027 64.1175209,49.3495161 73.4164221,48.9764609 L63.4403396,51.5594372 L63.4403396,29.9827823" id="Fill-39" fill="#FFFFFF"></path>
            <polygon id="Fill-40" fill="#FFFFFF" points="62.2932298 35.5357623 62.1553717 36.5026319 64.2004221 35.5357623"></polygon>
            <polygon id="Stroke-41" stroke="#FFFFFF" stroke-width="0.206" points="62.2932298 35.5357623 62.1553717 36.5026319 64.2004221 35.5357623"></polygon>
            <path d="M67.0879903,30.9356798 L82.439607,27.1925531 M66.2175282,33.0077429 L84.8297683,28.6288854 M64.9740109,35.3564536 L86.6535937,29.9827823 M64.7807301,37.2627144 L72.6563396,35.5357623 M64.7807301,39.2793548 L86.2805385,34.1958375 M64.9740109,41.1027144 L86.0872577,36.2124779 M65.3610382,43.0229472 L86.2805385,38.1327107 M66.1211207,44.8463069 L86.1836653,40.0529436 M67.2817368,46.4763857 L86.0872577,41.9731765 M69.1055622,48.0095913 L86.4738193,43.8929436" id="Stroke-42" stroke="#FFFFFF" stroke-width="0.412"></path>
            <polygon id="Fill-43" fill="#FFFFFF" points="81.195624 29.0159127 81.0577659 29.9827823 83.1028163 29.0159127"></polygon>
            <polygon id="Stroke-44" stroke="#FFFFFF" stroke-width="0.206" points="81.195624 29.0159127 81.0577659 29.9827823 83.1028163 29.0159127"></polygon>
            <polygon id="Fill-45" fill="#FFFFFF" points="72.4630588 46.766074 72.324735 47.7194372 74.3837574 46.766074"></polygon>
            <polygon id="Stroke-46" stroke="#FFFFFF" stroke-width="0.206" points="72.4630588 46.766074 72.324735 47.7194372 74.3837574 46.766074"></polygon>
            <path d="M6.05644148,34.2927107 L2.10466465,35.1627071 M4.8129242,36.5026319 L2.10466465,37.1798132 M18.6304039,31.1294263 L26.782661,29.2091935 M3.94199636,38.7130188 L2.10466465,39.086074 M3.65184233,40.7156871 L2.10466465,41.0058411 M3.65184233,42.63592 L2.10466465,43.0229472 M4.03886962,44.5561528 L2.10466465,45.0395876 M4.61917768,46.2826392 L2.21504427,46.8629472 M5.66941419,47.912718 L2.10466465,48.7417295 M6.92690358,49.4459236 L2.10466465,50.7998205 M8.93050334,50.9931013 L2.10466465,52.8029545 M22.4713354,47.7194372 L26.6443372,46.766074 M23.5215719,45.5230224 L26.6443372,44.8463069 M24.1987532,43.4095088 L26.6443372,42.8292007 M24.4749351,41.3928684 L26.6443372,40.9094336 M24.3780619,39.376228 L26.6443372,38.8094263 M24.1018799,37.5524027 L26.6443372,36.9860667 M23.5215719,35.8259163 L26.6443372,35.0662996 M22.5682086,34.1958375 L26.6443372,33.1460667 M20.9236919,32.6626319 L26.6443372,31.2258338 M36.7587435,32.5657586 L32.4478836,33.5326283 M36.3856883,34.5828648 L32.4478836,35.5357623 M35.998661,36.5995052 L32.4478836,37.4559951 M35.6120995,38.6161455 L32.4478836,39.376228 M35.2250722,40.6327859 L32.4478836,41.2959951 M34.8380449,42.63592 L32.4478836,43.216228 M34.5618629,44.6525603 L32.4478836,45.1364609 M34.0779624,46.8629472 L32.4478836,47.1531013 M33.6914008,48.8795876 L32.4478836,49.1697417 M33.4012468,50.8966938 L32.4478836,51.0760024 M42.8109933,31.0325531 L46.458644,30.1760631 M43.2944281,32.8559127 L46.0716167,32.1791971 M43.8607641,34.6792723 L45.5881819,34.1958375 M44.2477914,36.5026319 L45.2011546,36.3093511 M41.5670103,44.9427144 L41.9405312,44.8463069 M48.5586513,43.3126355 L49.0425518,43.216228 M41.0835755,47.056228 L42.5208393,46.6696665 M48.1855961,45.3297417 L49.5259867,45.0395876 M40.6965482,48.9764609 L43.1011474,48.4930261 M47.7021613,47.346382 L50.0098872,46.8629472 M52.593795,28.6288854 L57.3880898,27.4827071 M52.9803566,30.452245 L57.3880898,29.4993475 M53.4642571,32.2760703 L57.3880898,31.4195804 M53.8373123,34.0989642 L57.3880898,33.3393475 M54.3207471,35.9227896 L57.3880898,35.2595804 M54.8046477,37.8425567 L57.3880898,37.2627144 M55.1912092,39.6659163 L57.3880898,39.1824815 M55.6611377,41.4897417 L57.3880898,41.1027144 M56.0481649,43.3126355 L57.3880898,43.0229472 M56.5315998,45.1364609 L57.3880898,44.9427144 M67.7511995,30.8392723 L63.4403396,31.8061419 M66.4112747,33.0491935 L63.4403396,33.6295015 M65.554319,35.2595804 L63.4403396,35.6326355 M65.1672917,37.2627144 L63.4403396,37.6492759 M64.9740109,39.2793548 L63.4403396,39.5695088 M65.1672917,41.1027144 L63.4403396,41.4897417 M65.6511922,43.0229472 L63.4403396,43.506382 M66.4112747,44.8463069 L63.5372129,45.5230224 M67.5579187,46.4763857 L63.4403396,47.4432553 M69.2853366,48.0095913 L63.4403396,49.5427968 M81.6655525,27.3858338 L88.5742923,25.6593475 M84.6499939,28.7257586 L88.5742923,27.6759879 M83.4893778,30.8392723 L88.5742923,29.5962207 M72.0760315,35.6326355 L88.5742923,31.5159879" id="Stroke-47" stroke="#FFFFFE" stroke-width="0.412"></path>
            <path d="M71.3993159,37.7461492 L76.014302,36.6963784 M71.5925967,39.5695088 L76.014302,38.519738 M85.893977,34.2927107 L88.5742923,33.6295015 M85.893977,36.3093511 L88.5742923,35.6326355 M72.5599321,41.3928684 L80.5189084,39.5695088 M85.893977,38.229584 L88.5742923,37.6492759 M74.9500934,42.8292007 L80.4220352,41.4897417 M85.893977,40.1493511 L88.5742923,39.5695088 M85.893977,42.069584 L88.5742923,41.4897417 M85.893977,44.0866901 L88.5742923,43.4095088 M10.477681,38.9892007 L16.9029861,37.3591219 M9.99424621,41.1027144 L18.0496301,38.9892007 M10.3812735,42.8292007 L18.5335306,40.8125603 M11.3346367,44.5561528 L18.0496301,42.926074" id="Stroke-48" stroke="#FFFFFE" stroke-width="0.412"></path>
        </g>
        <text id="MEASURE" font-family="ArialMT, Arial" font-size="8" font-weight="normal" letter-spacing="2.35" fill="#FFFFFF">
            <tspan x="21.99375" y="78">MEASURE</tspan>
        </text>
        <text id="QUALITY" font-family="Arial-Black, Arial Black" font-size="8" font-weight="700" letter-spacing="2.35" fill="#FFFFFF">
            <tspan x="21.9117187" y="68">QUALITY</tspan>
        </text>
    </g>
</svg>