<?xml version="1.0" encoding="UTF-8"?>
<svg width="100px" height="100px" viewBox="0 0 100 100" version="1.1" xmlns="http://www.w3.org/2000/svg" xmlns:xlink="http://www.w3.org/1999/xlink">
    <!-- Generator: Sketch 64 (93537) - https://sketch.com -->
    <title>owasp</title>
    <desc>Created with Sketch.</desc>
    <g id="Page-1" stroke="none" stroke-width="1" fill="none" fill-rule="evenodd">
        <g id="owasp">
            <rect id="Rectangle" x="0" y="0" width="100" height="100"></rect>
            <g id="Group" fill="#000000">
                <rect id="Rectangle" x="0" y="0" width="100" height="100"></rect>
            </g>
            <g id="Group" transform="translate(19.000000, 7.000000)" fill="#FFFFFF">
                <g transform="translate(0.666667, 0.400000)" fill-rule="nonzero" id="Shape">
                    <path d="M30.8671554,0.00190773519 C44.7936223,0.267082927 57.7719448,10.979016 60.4027116,24.7070785 C63.0258475,38.3950784 54.9275116,53.4108621 41.993067,58.6952886 C31.1838394,63.1116956 17.909818,60.6011161 9.4490124,52.5333039 C-0.0667707317,43.4620231 -2.67082927,27.9769366 3.50450955,16.2729812 C8.58480836,6.64464167 19.0525514,0.211758606 30.0811685,0.00190773519 C30.4741619,0.000476933798 30.4741619,0.000476933798 30.8671554,0.00190773519 Z M30.1040613,1.90964293 C17.0208134,2.15955624 4.88380209,12.2018743 2.41900822,25.0657327 C-0.040062439,37.9028828 7.55272362,51.9762453 19.6763808,56.9287258 C29.8102701,61.0685112 42.2506113,58.714366 50.1829742,51.1521037 C59.0863743,42.6626821 61.5435373,28.1314631 55.7554687,17.1619858 C51.0052081,8.15938341 41.2662199,2.10804739 30.8442626,1.90964293 C30.4741619,1.90821212 30.4741619,1.90821212 30.1040613,1.90964293 Z"></path>
                </g>
                <g id="Fill-4" transform="translate(8.666667, 11.400000)">
                    <path d="M31.7697819,40.5903466 C30.8024401,40.5903466 27.2732578,34.311177 26.8000395,32.5209295 C25.8079916,28.7731926 26.0227452,27.1900969 26.08166,26.6845705 C26.2622051,25.1375838 27.7616799,24.3659909 27.8529027,22.2754683 C27.8814099,21.6293068 28.2063911,18.4023001 28.4667562,15.8822702 C27.8262961,15.7568388 27.185836,15.4660662 26.6175939,15.017554 C28.3242206,17.3076265 25.8117925,20.0519125 22.1609799,23.7027251 C18.2859112,27.5777938 9.68436103,31.1734926 9.68436103,31.1734926 C9.68436103,31.1734926 13.2819603,22.5719425 17.157029,18.6987743 C20.0058412,15.8499621 22.301615,13.6948234 24.2591044,13.6948234 C24.8121426,13.6948234 25.3385742,13.8658661 25.8422001,14.2402597 C25.3917875,13.6720177 25.1029153,13.0334581 24.9774839,12.3910975 C22.4555535,12.6514626 19.2285468,12.9783443 18.5823853,13.0049509 C16.4918627,13.0961737 15.7202699,14.5956486 14.1751836,14.7780942 C13.996539,14.7989994 13.6867615,14.8389094 13.196439,14.8389094 C12.2899124,14.8389094 10.7695323,14.7020752 8.3369242,14.0578141 C6.39083772,13.5427854 -0.865176112,9.41685399 0.419545038,8.8980243 C1.07330846,8.63195779 3.15812962,8.45331313 5.9043161,8.45331313 C8.54597646,8.45331313 11.7995898,8.61865446 14.9752836,9.03295803 C18.9377742,9.54988725 22.569582,10.2017502 25.0459011,10.6882718 C25.085811,10.5552386 25.1333229,10.4260063 25.1922376,10.3005749 L22.6608048,9.08617133 C22.6608048,9.08617133 20.6386994,6.76759174 20.8553535,6.60795183 C20.8629554,6.60034993 20.8743583,6.59844946 20.8876616,6.59844946 C21.2050409,6.59844946 22.8204447,8.44761171 22.9762837,8.65666396 C23.0960136,8.69657394 23.7820851,8.92653142 24.5042657,9.16599128 L23.7877866,8.54073498 C23.7877866,8.54073498 22.8071414,4.91082759 23.0637055,4.82530621 C23.065606,4.82530621 23.069407,4.82340574 23.0732079,4.82340574 C23.3411749,4.82340574 24.2305972,7.98009484 24.3066162,8.20625137 C24.48146,8.36018985 25.0725077,8.59014734 25.809892,9.01395328 L25.0344982,7.02035492 C25.0344982,7.02035492 25.3860861,3.7287321 25.6483517,3.7287321 C25.6502521,3.7287321 25.6521526,3.7287321 25.6540531,3.7287321 C25.9182191,3.7819454 25.6027402,6.47491858 25.5362236,6.80940219 C25.6312474,6.95763925 26.2260961,7.86986728 26.8228452,8.78399579 C27.1896369,8.64526111 27.5849358,8.57874449 27.9897369,8.57874449 C28.4553533,8.57874449 28.9342731,8.66806681 29.397989,8.844811 C28.8031403,7.5790946 28.8487517,6.2601649 29.6374488,5.47146774 C29.8864111,5.2225055 30.1885866,5.0476618 30.5268712,4.94503614 C30.5686816,4.71317818 30.6751082,4.49652403 30.8499519,4.31977984 C31.0780089,4.09172284 31.378284,3.97959481 31.68236,3.97959481 C31.9997393,3.97959481 32.3228201,4.10312569 32.5698819,4.35018745 C32.8074413,4.58774683 32.9290717,4.89182284 32.9404745,5.19589885 C33.3205695,4.41100265 33.7709821,3.35243803 33.738674,3.01035252 C33.6645555,2.23495869 32.7656308,0.860915209 32.7561284,0.847611883 C32.6991142,0.758289555 32.7219199,0.638559625 32.8112422,0.579644898 C32.8435503,0.558739672 32.8815598,0.547336821 32.9176688,0.547336821 C32.9803845,0.547336821 33.0411997,0.577744423 33.0792092,0.634758675 C33.1172187,0.693673402 34.0408496,2.10192543 34.12257,2.97424349 C34.1681814,3.47406844 33.5961384,4.73028246 33.2844605,5.37264304 C33.7215698,5.61210289 34.1491767,5.92948223 34.538774,6.31907962 C34.9302719,6.70867701 35.2457508,7.1362839 35.4871111,7.57529365 C36.1047655,7.27501858 37.2887615,6.73338319 37.822795,6.73338319 C37.8456007,6.73338319 37.8646054,6.73528366 37.8836102,6.73528366 C38.7559282,6.81890457 40.1641803,7.74063498 40.223095,7.78054495 C40.3124173,7.83755921 40.3371235,7.95728914 40.2782088,8.04661147 C40.2420997,8.10362572 40.1793841,8.13403332 40.1166684,8.13403332 C40.0805594,8.13403332 40.0444503,8.12263047 40.0121423,8.10172524 C39.9988389,8.09222287 38.6247955,7.19329816 37.8494016,7.1210801 C37.8360983,7.11917963 37.8246955,7.11917963 37.8113921,7.11917963 C37.4331976,7.11917963 36.4202444,7.55058747 35.6619548,7.91737916 C35.9660308,7.92878201 36.2720073,8.05231289 36.5076662,8.2879718 C36.9922874,8.77259294 37.0055907,9.54228535 36.5380738,10.0079017 C36.3632301,10.1827454 36.1446755,10.2910725 35.914718,10.3309825 C35.8101919,10.6692671 35.6353482,10.9733431 35.3863859,11.2223053 C34.9511771,11.6575141 34.3563284,11.8646659 33.6968636,11.8646659 C33.1590291,11.8646659 32.5812847,11.7278317 32.0130427,11.4617652 C32.3456258,12.3283818 32.370332,13.2482117 32.0738579,14.0350084 C32.9879864,14.6317576 33.9021149,15.2266063 34.0484515,15.3235305 C34.2898118,15.2760186 35.7322724,15.1011749 36.5551781,15.1011749 C36.8839603,15.1011749 37.1139178,15.1277816 37.1291216,15.2038006 C37.1823349,15.4679666 33.8393992,15.8252559 33.8393992,15.8252559 L31.8439004,15.0479616 C32.2696068,15.7872464 32.4995643,16.3763937 32.6516023,16.5512374 C32.8834603,16.6291569 36.1180688,17.5413849 36.0325475,17.7960486 C36.0230451,17.8245557 35.9660308,17.837859 35.8729076,17.837859 C35.1602294,17.837859 32.3190192,17.0700671 32.3190192,17.0700671 L31.6918624,16.3554885 C31.9332227,17.0757685 32.1612797,17.76184 32.2011897,17.88157 C32.4197443,18.0431104 34.4114422,19.785846 34.2518023,20.0025002 C34.2422999,20.013903 34.2289966,20.0196044 34.2099919,20.0196044 C33.8603044,20.0196044 31.7716823,18.1970488 31.7716823,18.1970488 L30.5591792,15.6675165 C30.4337479,15.7245308 30.3045156,15.7720426 30.1695819,15.8119526 C30.6561035,18.2882716 31.3098669,21.9200795 31.8267961,25.88257 C32.6706071,32.36319 32.4805595,39.155488 31.9617298,40.4402091 C31.9199194,40.5428348 31.8553032,40.5903466 31.7697819,40.5903466" id="Path"></path>
                </g>
            </g>
            <g id="Group-2" transform="translate(8.000000, 76.000000)" fill="#FFFFFF">
                <path d="M11.1991692,4.77785705 C11.1991692,2.70478837 10.8438135,1.59235128 6.60281694,1.59235128 C2.38711624,1.59235128 2.03155815,2.70478837 2.03155815,4.77785705 L2.03155815,12.4625082 C2.03155815,14.5353761 2.38711624,15.6478132 6.60281694,15.6478132 C10.8438135,15.6478132 11.1991692,14.5353761 11.1991692,12.4625082 L11.1991692,4.77785705 Z M6.60281694,17.240566 C0.685415624,17.240566 0,15.4203057 0,12.6902164 L0,4.55014881 C0,1.84515964 0.685415624,0 6.60281694,0 C12.5453117,0 13.2311321,1.84515964 13.2311321,4.55014881 L13.2311321,12.6902164 C13.2311321,15.4203057 12.5453117,17.240566 6.60281694,17.240566 L6.60281694,17.240566 Z" id="Fill-5"></path>
                <path d="M27.2643221,0.400943396 L27.2643221,12.4934885 C27.2643221,14.5421541 27.665294,15.6414042 30.6723838,15.6414042 C33.7293953,15.6414042 34.0804454,14.5421541 34.0804454,12.4934885 L34.0804454,0.400943396 L36.0849057,0.400943396 L36.0849057,12.7433451 C36.0849057,15.4415586 35.3834045,17.240566 30.6723838,17.240566 C27.9909839,17.240566 26.7882678,16.1411175 26.2618923,15.291724 C25.7357165,16.1411175 24.5328007,17.240566 21.8514008,17.240566 C17.1403801,17.240566 16.4386792,15.4415586 16.4386792,12.7433451 L16.4386792,0.400943396 L18.4433392,0.400943396 L18.4433392,12.4934885 C18.4433392,14.5421541 18.7943893,15.6414042 21.8514008,15.6414042 C24.8584906,15.6414042 25.2594625,14.5421541 25.2594625,12.4934885 L25.2594625,0.400943396 L27.2643221,0.400943396" id="Fill-6"></path>
                <path d="M50.4721199,4.71518153 C50.4721199,2.66930719 50.1901456,1.57146296 45.9078145,1.57146296 C41.6256878,1.57146296 41.3437135,2.66930719 41.3437135,4.71518153 L41.3437135,8.93118082 L50.4721199,8.93118082 L50.4721199,4.71518153 Z M52.5235849,16.8396226 L50.4721199,16.8396226 L50.4721199,10.6776251 L41.3437135,10.6776251 L41.3437135,16.8396226 L39.2924528,16.8396226 L39.2924528,4.49046035 C39.2924528,1.82095499 39.9334335,0 45.9078145,0 C51.8826043,0 52.5235849,1.82095499 52.5235849,4.49046035 L52.5235849,16.8396226 L52.5235849,16.8396226 Z" id="Fill-7"></path>
                <path d="M62.3466981,17.240566 C56.3721127,17.240566 55.7311321,15.3952056 55.7311321,12.6904172 L55.7311321,11.3506735 L57.7823928,11.3506735 L57.7823928,12.462709 C57.7823928,14.5357777 58.0645714,15.648014 62.3466981,15.648014 C66.6288249,15.648014 66.9110035,14.5357777 66.9110035,12.462709 L66.9110035,12.2099006 C66.9110035,10.6679504 66.1414997,10.0613308 64.5775642,9.80852245 L59.2439594,8.97419464 C56.8081512,8.5950825 55.7311321,7.25533878 55.7311321,5.38467742 L55.7311321,4.55034961 C55.7311321,1.82005952 56.3721127,0 62.3466981,0 C68.3212835,0 68.9622642,1.82005952 68.9622642,4.55034961 L68.9622642,5.13186907 L66.9110035,5.13186907 L66.9110035,4.77785705 C66.9110035,2.70498917 66.6288249,1.59275288 62.3466981,1.59275288 C58.0645714,1.59275288 57.7823928,2.70498917 57.7823928,4.77785705 L57.7823928,5.1822701 C57.7823928,6.29450638 58.1928901,6.97722951 59.7055391,7.22983706 L65.3981502,8.14006762 C67.7313851,8.51917976 68.9622642,9.68201787 68.9622642,11.7803875 L68.9622642,12.6904172 C68.9622642,15.3952056 68.3212835,17.240566 62.3466981,17.240566" id="Fill-8"></path>
                <path d="M82.948535,4.74640279 C82.948535,2.67621874 81.9998346,1.59069068 79.5127397,1.59069068 L73.8203329,1.59069068 L73.8203329,10.4016571 L79.5127397,10.4016571 C82.02558,10.4016571 82.948535,9.2910614 82.948535,7.22067681 L82.948535,4.74640279 Z M79.5127397,11.9923478 L73.8203329,11.9923478 L73.8203329,16.8396226 L71.7688679,16.8396226 L71.7688679,0 L79.5127397,0 C83.7178344,0 85,1.81790355 85,4.54445807 L85,7.44788969 C85,10.1491761 83.7178344,11.9923478 79.5127397,11.9923478 L79.5127397,11.9923478 Z" id="Fill-9"></path>
            </g>
        </g>
    </g>
</svg>