<?xml version="1.0" encoding="UTF-8"?>
<svg width="100px" height="116px" viewBox="0 0 100 116" version="1.1" xmlns="http://www.w3.org/2000/svg" xmlns:xlink="http://www.w3.org/1999/xlink">
    <!-- Generator: Sketch 51.3 (57544) - http://www.bohemiancoding.com/sketch -->
    <title>owasp_logo_Mx_2016</title>
    <desc>Created with Sketch.</desc>
    <defs></defs>
    <g id="Page-1" stroke="none" stroke-width="1" fill="none" fill-rule="evenodd">
        <g id="MainScreen-Standards" transform="translate(-704.000000, -239.000000)">
            <g id="owasp_logo_Mx_2016" transform="translate(704.000000, 239.000000)">
                <path d="M50.0002549,100 C22.3857234,100 0,77.613995 0,50.0002549 C0,22.386005 22.3857234,7.10542736e-15 50.0002549,7.10542736e-15 C77.6137667,7.10542736e-15 100,22.386005 100,50.0002549 C100,77.613995 77.6137667,100 50.0002549,100 M50.0002772,4 C75.4046318,4 96,24.5952441 96,50 C96,75.4047559 75.4046318,96 50.0002772,96 C24.5953682,96 4,75.4047559 4,50 C4,24.5952441 24.5953682,4 50.0002772,4 Z" id="Fill-1" fill="#1A1919"></path>
                <path d="M65.5225074,85.2459016 C63.9371514,85.2448906 58.1599039,74.9629226 57.383403,72.031356 C55.7601319,65.8937202 56.1094562,63.3008585 56.2065188,62.4717899 C56.5037731,59.9406028 58.9596593,58.6757675 59.1082865,55.2528261 C59.1542901,54.1957636 59.6881345,48.9109564 60.1143,44.7828011 C59.0627884,44.577556 58.015321,44.1023581 57.0841266,43.367318 C59.879732,47.1168316 55.7651873,51.6104848 49.786737,57.5893843 C43.4407633,63.9347927 29.3565739,69.8242134 29.3565739,69.8242134 C29.3565739,69.8242134 35.2465556,55.7396512 41.5915183,49.3942428 C46.2560845,44.730226 50.0157441,41.2006178 53.2238656,41.2006178 C54.1282668,41.2006178 54.9891919,41.4811868 55.8137186,42.0954053 C55.0776604,41.1647252 54.6039747,40.1177732 54.3977166,39.0662715 C50.2695224,39.4934441 44.9841599,40.0267779 43.9275929,40.0727811 C40.5041137,40.2214068 39.2392666,42.67727 36.7095723,42.9740159 C36.4183844,43.0083919 35.9093113,43.0741108 35.1060171,43.0741108 C33.6212624,43.0741108 31.1309998,42.8506667 27.1494106,41.7971428 C23.9610049,40.9539193 12.0804402,34.1949876 14.1819468,33.3456977 C15.2536798,32.9119533 18.6685649,32.6187461 23.1663048,32.6187461 C27.4916574,32.6187461 32.8179682,32.88971 38.0209286,33.5676253 C44.508452,34.4128709 50.4570757,35.4820661 54.5109563,36.2772643 C54.5766758,36.059381 54.6555392,35.8475641 54.7500741,35.6418135 L50.6057028,33.6555874 C50.6057028,33.6555874 47.2954633,29.8570375 47.6488319,29.5951731 C47.6624813,29.5850625 47.680175,29.5800072 47.700902,29.5800072 C48.2200858,29.5800072 50.8680752,32.6076244 51.1228645,32.9523957 C51.3190119,33.017609 52.4418039,33.3922065 53.6227323,33.785003 L52.450398,32.7597889 C52.450398,32.7597889 50.8458317,26.8172875 51.2639086,26.6772558 C51.268964,26.6757392 51.2745249,26.6747282 51.2805913,26.6747282 C51.7209118,26.6747282 53.1768509,31.841747 53.301718,32.2138168 C53.5878504,32.4645595 54.5544323,32.8406736 55.762154,33.5372935 L54.4922515,30.2705607 C54.4922515,30.2705607 55.0670442,24.8811089 55.497254,24.8811089 C55.5007927,24.8811089 55.5038259,24.8816144 55.5073647,24.88212 C55.9406077,24.9685655 55.4224349,29.3772898 55.3127339,29.9268006 C55.4699551,30.1674327 56.44412,31.6617784 57.4208125,33.1601684 C58.021893,32.9336911 58.6684715,32.821969 59.3322382,32.821969 C60.0940786,32.821969 60.877657,32.9695837 61.6379808,33.2602632 C60.6643215,31.187086 60.7381295,29.0264522 62.0292644,27.7363405 C62.4377363,27.3268615 62.9341711,27.0412372 63.4872257,26.8718848 C63.5539563,26.4947596 63.7288712,26.1373501 64.0155092,25.8502093 C64.3890992,25.4766229 64.8809842,25.2910935 65.3789356,25.2910935 C65.9001416,25.2910935 66.4284251,25.4948219 66.8328526,25.8997512 C67.2205975,26.2864814 67.4218002,26.7864502 67.4389884,27.2849025 C68.0623124,25.9998461 68.797865,24.2663848 68.7463005,23.7047414 C68.6264888,22.4338398 67.1523504,20.1842327 67.138701,20.1619894 C67.0426494,20.0163969 67.0825866,19.8202513 67.2286861,19.7236952 C67.2817672,19.6888136 67.3419258,19.6721311 67.4015789,19.6721311 C67.5042024,19.6721311 67.6048037,19.7221786 67.6649623,19.8146905 C67.7301762,19.9117522 69.2407131,22.2184841 69.3751853,23.6460999 C69.4500044,24.4630359 68.512238,26.5215527 68.0011427,27.5730544 C68.7190016,27.965851 69.4186613,28.4845244 70.0576568,29.1235139 C70.6961468,29.7619979 71.2148251,30.4621565 71.6081309,31.1800086 C72.6197053,30.6881283 74.560452,29.8019347 75.4355321,29.8019347 C75.470414,29.8019347 75.5037792,29.8034513 75.5351224,29.805979 C76.9627516,29.9404499 79.2695052,31.4509725 79.3660623,31.5156803 C79.5116562,31.6107199 79.552099,31.8068654 79.4560475,31.952458 C79.3953833,32.0444644 79.294782,32.0945118 79.1921585,32.0945118 C79.1330109,32.0945118 79.0728523,32.0778293 79.0197712,32.0429478 C78.9970222,32.0277819 76.7478995,30.5541629 75.4764804,30.4353634 C75.4572701,30.4333413 75.4365432,30.4323302 75.4148052,30.4323302 C74.7965366,30.4323302 73.1363615,31.1390607 71.89578,31.7416521 C72.3947425,31.7588401 72.894716,31.9605464 73.2809443,32.3482877 C74.0731168,33.1394416 74.0948548,34.4002326 73.3309922,35.164088 C73.0443542,35.4512288 72.6869414,35.6276587 72.3098127,35.6933775 C72.1394476,36.2469325 71.8533151,36.7433627 71.4448433,37.1518307 C70.7330508,37.864122 69.7573693,38.2053545 68.6765367,38.2053545 C67.7979179,38.2053545 66.8500408,37.9793827 65.920363,37.5431106 C66.4648236,38.9646601 66.5062774,40.4696219 66.0209643,41.7597336 C67.5183573,42.736417 69.0147392,43.7110782 69.2543626,43.8682979 C69.6476684,43.7899408 72.0095252,43.5033055 73.3577856,43.5033055 C73.8966853,43.5033055 74.2743195,43.5488031 74.2985852,43.6721524 C74.3860426,44.1048858 68.9111047,44.6892781 68.9111047,44.6892781 L65.6438356,43.417871 C66.3409676,44.6265924 66.7160742,45.5926596 66.9673248,45.8792949 C67.344959,46.0056774 72.6424543,47.499012 72.5029268,47.917085 C72.4872553,47.9656159 72.3942369,47.9868481 72.2420711,47.9868481 C71.0742865,47.9868481 66.4213476,46.7301014 66.4213476,46.7301014 L65.3951127,45.5577781 C65.788924,46.7392009 66.162514,47.8609713 66.228739,48.0581278 C66.5876684,48.3230254 69.8468489,51.1767404 69.5854876,51.5311167 C69.5718382,51.5493157 69.5495947,51.5574042 69.5187571,51.5574042 C68.9469976,51.5574042 65.5255406,48.5752847 65.5255406,48.5752847 L63.5387902,44.4304469 C63.3335433,44.5254865 63.1212188,44.603338 62.9028279,44.6695624 C63.6980336,48.7234049 64.7677445,54.6719725 65.6140091,61.1589293 C66.9961402,71.7725248 66.6852366,82.8951887 65.8359387,84.9981921 C65.7676916,85.1675445 65.6610238,85.2459016 65.5225074,85.2459016" id="Fill-4" fill="#000000"></path>
                <rect id="Rectangle-10" fill="#000000" x="14" y="88" width="74" height="28" rx="8"></rect>
                <path d="M19.539,94.148 L20.673,94.148 L25.695,106.118 L25.731,106.118 L30.699,94.148 L31.833,94.148 L31.833,107 L31.041,107 L31.041,95.12 L31.005,95.12 L26.109,107 L25.317,107 L20.367,95.12 L20.331,95.12 L20.331,107 L19.539,107 L19.539,94.148 Z M36.095,102.14 L32.711,97.748 L33.665,97.748 L36.563,101.618 L39.479,97.748 L40.361,97.748 L37.013,102.14 L40.667,107 L39.731,107 L36.563,102.662 L33.323,107 L32.459,107 L36.095,102.14 Z M45.591,107 C45.6270002,106.423997 45.7589989,105.905002 45.987,105.443 C46.2150011,104.980998 46.5059982,104.561002 46.86,104.183 C47.2140018,103.804998 47.6099978,103.454002 48.048,103.13 C48.4860022,102.805998 48.9329977,102.494001 49.389,102.194 C49.8330022,101.893999 50.2709978,101.591002 50.703,101.285 C51.1350022,100.978998 51.5219983,100.652002 51.864,100.304 C52.2060017,99.9559983 52.478999,99.5750021 52.683,99.161 C52.887001,98.7469979 52.989,98.2760026 52.989,97.748 C52.989,97.3279979 52.9050008,96.9470017 52.737,96.605 C52.5689992,96.2629983 52.3440014,95.9690012 52.062,95.723 C51.7799986,95.4769988 51.4560018,95.2880007 51.09,95.156 C50.7239982,95.0239993 50.337002,94.958 49.929,94.958 C49.3649972,94.958 48.8730021,95.056999 48.453,95.255 C48.0329979,95.453001 47.6850014,95.7229983 47.409,96.065 C47.1329986,96.4070017 46.9260007,96.8089977 46.788,97.271 C46.6499993,97.7330023 46.581,98.2339973 46.581,98.774 L45.897,98.774 C45.9690004,97.2619924 46.3319967,96.1490036 46.986,95.435 C47.6400033,94.7209964 48.5849938,94.364 49.821,94.364 C50.3490026,94.364 50.8469977,94.4329993 51.315,94.571 C51.7830023,94.7090007 52.1909983,94.9189986 52.539,95.201 C52.8870017,95.4830014 53.162999,95.8369979 53.367,96.263 C53.571001,96.6890021 53.673,97.1899971 53.673,97.766 C53.673,98.4980037 53.5020017,99.1429972 53.16,99.701 C52.8179983,100.259003 52.3860026,100.765998 51.864,101.222 C51.3419974,101.678002 50.778003,102.103998 50.172,102.5 C49.565997,102.896002 48.9960027,103.288998 48.462,103.679 C47.9279973,104.069002 47.4720019,104.476998 47.094,104.903 C46.7159981,105.329002 46.5030002,105.799997 46.455,106.316 L53.871,106.316 L53.871,107 L45.591,107 Z M59.375,107.216 C58.4749955,107.216 57.7370029,107.021002 57.161,106.631 C56.5849971,106.240998 56.1260017,105.737003 55.784,105.119 C55.4419983,104.500997 55.2050007,103.811004 55.073,103.049 C54.9409993,102.286996 54.875,101.534004 54.875,100.79 C54.875,100.045996 54.9409993,99.2930038 55.073,98.531 C55.2050007,97.7689962 55.4419983,97.0790031 55.784,96.461 C56.1260017,95.8429969 56.5849971,95.3390019 57.161,94.949 C57.7370029,94.558998 58.4749955,94.364 59.375,94.364 C60.2750045,94.364 61.0129971,94.558998 61.589,94.949 C62.1650029,95.3390019 62.6239983,95.8429969 62.966,96.461 C63.3080017,97.0790031 63.5449993,97.7689962 63.677,98.531 C63.8090007,99.2930038 63.875,100.045996 63.875,100.79 C63.875,101.534004 63.8090007,102.286996 63.677,103.049 C63.5449993,103.811004 63.3080017,104.500997 62.966,105.119 C62.6239983,105.737003 62.1650029,106.240998 61.589,106.631 C61.0129971,107.021002 60.2750045,107.216 59.375,107.216 Z M59.375,106.622 C60.1430038,106.622 60.7759975,106.436002 61.274,106.064 C61.7720025,105.691998 62.1619986,105.218003 62.444,104.642 C62.7260014,104.065997 62.9209995,103.436003 63.029,102.752 C63.1370005,102.067997 63.191,101.414003 63.191,100.79 C63.191,100.165997 63.1370005,99.5120034 63.029,98.828 C62.9209995,98.1439966 62.7260014,97.5140029 62.444,96.938 C62.1619986,96.3619971 61.7720025,95.8880019 61.274,95.516 C60.7759975,95.1439981 60.1430038,94.958 59.375,94.958 C58.5949961,94.958 57.9590025,95.1439981 57.467,95.516 C56.9749975,95.8880019 56.5880014,96.3619971 56.306,96.938 C56.0239986,97.5140029 55.8290005,98.1439966 55.721,98.828 C55.6129995,99.5120034 55.559,100.165997 55.559,100.79 C55.559,101.414003 55.6129995,102.067997 55.721,102.752 C55.8290005,103.436003 56.0239986,104.065997 56.306,104.642 C56.5880014,105.218003 56.9749975,105.691998 57.467,106.064 C57.9590025,106.436002 58.5949961,106.622 59.375,106.622 Z M69.253,95.912 C68.8089978,96.3800023 68.2990029,96.7459987 67.723,97.01 C67.1469971,97.2740013 66.5470031,97.4359997 65.923,97.496 L65.923,96.902 C66.6430036,96.7939995 67.296997,96.542002 67.885,96.146 C68.4730029,95.749998 68.9529981,95.2280032 69.325,94.58 L69.937,94.58 L69.937,107 L69.253,107 L69.253,95.912 Z M78.771,107.216 C77.9069957,107.216 77.1900028,107.054002 76.62,106.73 C76.0499971,106.405998 75.5970017,105.977003 75.261,105.443 C74.9249983,104.908997 74.6880007,104.291004 74.55,103.589 C74.4119993,102.886996 74.343,102.158004 74.343,101.402 C74.343,100.897997 74.3669997,100.373003 74.415,99.827 C74.4630002,99.2809973 74.5499994,98.7470026 74.676,98.225 C74.8020006,97.7029974 74.9729989,97.2080023 75.189,96.74 C75.4050011,96.2719977 75.6839983,95.8610018 76.026,95.507 C76.3680017,95.1529982 76.7759976,94.874001 77.25,94.67 C77.7240024,94.465999 78.2789968,94.364 78.915,94.364 C79.9710053,94.364 80.8379966,94.6459972 81.516,95.21 C82.1940034,95.7740028 82.5929994,96.5839947 82.713,97.64 L82.029,97.64 C81.9569996,97.243998 81.8310009,96.8810017 81.651,96.551 C81.4709991,96.2209984 81.2460013,95.9390012 80.976,95.705 C80.7059986,95.4709988 80.3970017,95.2880007 80.049,95.156 C79.7009982,95.0239993 79.323002,94.958 78.915,94.958 C78.0629957,94.958 77.3790026,95.1799978 76.863,95.624 C76.3469974,96.0680022 75.9540013,96.6169967 75.684,97.271 C75.4139986,97.9250033 75.2370004,98.6269962 75.153,99.377 C75.0689996,100.127004 75.027,100.807997 75.027,101.42 L75.063,101.456 C75.1950006,101.059998 75.3869987,100.697002 75.639,100.367 C75.8910012,100.036998 76.1789984,99.7550012 76.503,99.521 C76.8270016,99.2869988 77.1809981,99.1070006 77.565,98.981 C77.9490019,98.8549994 78.3509979,98.792 78.771,98.792 C79.383003,98.792 79.9439974,98.8999989 80.454,99.116 C80.9640025,99.3320011 81.4019982,99.6289981 81.768,100.007 C82.1340018,100.385002 82.418999,100.831997 82.623,101.348 C82.827001,101.864003 82.929,102.427997 82.929,103.04 C82.929,103.640003 82.824001,104.194997 82.614,104.705 C82.4039989,105.215003 82.1160018,105.655998 81.75,106.028 C81.3839982,106.400002 80.9460025,106.690999 80.436,106.901 C79.9259974,107.111001 79.371003,107.216 78.771,107.216 Z M75.261,103.04 C75.261,103.556003 75.3539991,104.032998 75.54,104.471 C75.7260009,104.909002 75.9749984,105.286998 76.287,105.605 C76.5990015,105.923002 76.9679979,106.171999 77.394,106.352 C77.8200021,106.532001 78.2789975,106.622 78.771,106.622 C79.2750025,106.622 79.7369979,106.526001 80.157,106.334 C80.5770021,106.141999 80.9429984,105.884002 81.255,105.56 C81.5670015,105.235998 81.8099991,104.858002 81.984,104.426 C82.1580009,103.993998 82.245,103.532002 82.245,103.04 C82.245,102.559998 82.1580009,102.098002 81.984,101.654 C81.8099991,101.209998 81.5700015,100.820002 81.264,100.484 C80.9579985,100.147998 80.5920021,99.881001 80.166,99.683 C79.7399979,99.484999 79.2750025,99.386 78.771,99.386 C78.2549974,99.386 77.7840021,99.481999 77.358,99.674 C76.9319979,99.866001 76.5630015,100.126998 76.251,100.457 C75.9389984,100.787002 75.6960009,101.173998 75.522,101.618 C75.3479991,102.062002 75.261,102.535997 75.261,103.04 Z" id="Mx-2016" fill="#FFFFFF"></path>
            </g>
        </g>
    </g>
</svg>