<?xml version="1.0" encoding="UTF-8"?>
<svg width="92px" height="92px" viewBox="0 0 92 92" version="1.1" xmlns="http://www.w3.org/2000/svg" xmlns:xlink="http://www.w3.org/1999/xlink">
    <!-- Generator: Sketch 51.3 (57544) - http://www.bohemiancoding.com/sketch -->
    <title>owasp_logo_Mx_2016</title>
    <desc>Created with Sketch.</desc>
    <defs></defs>
    <g id="Page-1" stroke="none" stroke-width="1" fill="none" fill-rule="evenodd">
        <g id="owasp_logo_Mx_2016">
            <path d="M69,45.005003 C55.6997511,45.2713204 45,56.1362451 45,69.5001249 C45,70.003777 45.015198,70.5038799 45.0451604,71 L8,71 C3.581722,71 5.41083001e-16,67.418278 0,63 L0,8 C-5.41083001e-16,3.581722 3.581722,8.11624501e-16 8,0 L61,0 C65.418278,-8.11624501e-16 69,3.581722 69,8 L69,45.005003 Z M7.89173794,39 L11.8180075,39 L11.8180075,12.796875 L20.7203512,39 L24.3946676,39 L33.3390036,13.237793 L33.3390036,39 L37.2652731,39 L37.2652731,8.21972656 L31.7852926,8.21972656 L24.4156637,29.6357422 C23.673798,31.8053494 23.1279051,33.450027 22.7779684,34.5698242 C22.4700242,33.5620067 21.9801202,32.0433044 21.3082418,30.0136719 L14.0225973,8.21972656 L7.89173794,8.21972656 L7.89173794,39 Z M39.9746094,39 L44.5517578,39 L50.409668,30.2026367 L51.6274414,32.0712891 L56.2045898,39 L60.8447266,39 L52.5512695,27.2001953 L60.2568359,16.7021484 L55.7426758,16.7021484 L51.984375,21.972168 C51.4664688,22.6860387 50.8995799,23.5048782 50.2836914,24.4287109 C49.8917624,23.7568326 49.3738639,22.9239959 48.7299805,21.9301758 L45.3076172,16.7021484 L40.5834961,16.7021484 L48.1210938,27.4101562 L39.9746094,39 Z M15.500039,57.4794922 L9.1807031,57.4794922 C9.35648523,57.1923814 9.57913926,56.9067397 9.84867185,56.6225586 C10.1182045,56.3383775 10.7275734,55.7978555 11.6767969,55.0009766 C12.8135213,54.0400343 13.6265014,53.2841824 14.1157617,52.7333984 C14.605022,52.1826144 14.9551161,51.6582056 15.1660547,51.1601562 C15.3769932,50.6621069 15.4824609,50.155276 15.4824609,49.6396484 C15.4824609,48.6259715 15.122113,47.7763706 14.4014062,47.0908203 C13.6806995,46.40527 12.7021937,46.0625 11.4658594,46.0625 C10.2412439,46.0625 9.26566767,46.3803679 8.53910154,47.0161133 C7.81253541,47.6518586 7.39359429,48.5761658 7.2822656,49.7890625 L8.90824217,49.9560547 C8.91410157,49.1474569 9.14554457,48.5146507 9.6025781,48.0576172 C10.0596116,47.6005837 10.6689805,47.3720703 11.4307031,47.3720703 C12.1514098,47.3720703 12.7358766,47.5874002 13.1841211,48.0180664 C13.6323655,48.4487326 13.8564844,48.9775359 13.8564844,49.6044922 C13.8564844,50.2021514 13.6103931,50.8364224 13.1182031,51.5073242 C12.6260131,52.178226 11.6797335,53.0878849 10.2793359,54.2363281 C9.37698765,54.9746131 8.68705315,55.6249972 8.2095117,56.1875 C7.73197025,56.7500028 7.38480575,57.3212862 7.16800779,57.9013672 C7.03324149,58.2529314 6.97171867,58.6191387 6.98343748,59 L15.500039,59 L15.500039,57.4794922 Z M16.7163281,52.6455078 C16.7163281,55.0654418 17.1411286,56.8115181 17.9907422,57.8837891 C18.6997301,58.7744185 19.6753063,59.2197266 20.9175,59.2197266 C21.8608641,59.2197266 22.641618,58.9663111 23.2597851,58.4594727 C23.8779523,57.9526342 24.3423031,57.2348679 24.6528516,56.3061523 C24.9634,55.3774368 25.1186719,54.1572341 25.1186719,52.6455078 C25.1186719,51.3681577 25.0219931,50.3530311 24.8286328,49.6000977 C24.6352725,48.8471642 24.3686736,48.2084987 24.0288281,47.684082 C23.6889827,47.1596653 23.2583229,46.7583022 22.7368359,46.4799805 C22.2153489,46.2016588 21.6089097,46.0625 20.9175,46.0625 C19.9799953,46.0625 19.202171,46.3144506 18.5840039,46.8183594 C17.9658367,47.3222681 17.5000211,48.0385696 17.186543,48.9672852 C16.8730648,49.8960007 16.7163281,51.1220627 16.7163281,52.6455078 Z M32.2060547,59 L32.2060547,46.0625 L31.1865234,46.0625 C30.9111314,46.6191434 30.4423861,47.1933564 29.7802734,47.7851562 C29.1181608,48.3769561 28.344731,48.8808573 27.4599609,49.296875 L27.4599609,50.8261719 C27.9521509,50.6445303 28.5073211,50.3720721 29.1254883,50.0087891 C29.7436554,49.645506 30.2431622,49.2822284 30.6240234,48.9189453 L30.6240234,59 L32.2060547,59 Z M43.9867969,49.2705078 C43.85789,48.2685497 43.4697103,47.4834013 42.8222461,46.9150391 C42.1747819,46.3466768 41.3442238,46.0625 40.3305469,46.0625 C38.9711651,46.0625 37.8901212,46.5546826 37.0873828,47.5390625 C36.1674563,48.6699275 35.7075,50.4804563 35.7075,52.9707031 C35.7075,55.1972768 36.1235115,56.7954053 36.9555469,57.7651367 C37.7875823,58.7348681 38.8627669,59.2197266 40.1811328,59.2197266 C40.9545742,59.2197266 41.6459735,59.0351581 42.2553516,58.6660156 C42.8647296,58.2968732 43.3437287,57.7651402 43.6923633,57.0708008 C44.0409978,56.3764614 44.2153125,55.625004 44.2153125,54.8164062 C44.2153125,53.5859313 43.8447107,52.5825234 43.1034961,51.8061523 C42.3622815,51.0297813 41.4643412,50.6416016 40.4096484,50.6416016 C39.8061298,50.6416016 39.2289871,50.7822252 38.6782031,51.0634766 C38.1274191,51.344728 37.6616035,51.7753877 37.2807422,52.3554688 C37.292461,51.0663998 37.4418736,50.0732457 37.7289844,49.3759766 C38.0160952,48.6787075 38.4086694,48.1484393 38.9067188,47.7851562 C39.28758,47.5039048 39.7299584,47.3632812 40.2338672,47.3632812 C40.8608235,47.3632812 41.3881619,47.5888649 41.8158984,48.0400391 C42.0737122,48.3212905 42.272929,48.7724578 42.4135547,49.3935547 L43.9867969,49.2705078 Z M37.5268359,54.8251953 C37.5268359,53.9931599 37.7758569,53.3208033 38.2739063,52.8081055 C38.7719556,52.2954076 39.3783949,52.0390625 40.0932422,52.0390625 C40.8139489,52.0390625 41.4115992,52.2954076 41.8862109,52.8081055 C42.3608227,53.3208033 42.598125,54.0224565 42.598125,54.9130859 C42.598125,55.8388718 42.357893,56.5712864 41.8774219,57.1103516 C41.3969507,57.6494168 40.8227377,57.9189453 40.1547656,57.9189453 C39.6977321,57.9189453 39.261213,57.7885755 38.8451953,57.527832 C38.4291776,57.2670885 38.1054504,56.8876978 37.8740039,56.3896484 C37.6425574,55.8915991 37.5268359,55.3701199 37.5268359,54.8251953 Z M18.3423047,52.6455078 C18.3423047,54.7607528 18.5898608,56.1684535 19.0849805,56.8686523 C19.5801001,57.5688512 20.1909339,57.9189453 20.9175,57.9189453 C21.6440661,57.9189453 22.2548999,57.5673863 22.7500195,56.8642578 C23.2451392,56.1611293 23.4926953,54.7548934 23.4926953,52.6455078 C23.4926953,50.5244035 23.2451392,49.1152379 22.7500195,48.4179688 C22.2548999,47.7206996 21.6382068,47.3720703 20.8999219,47.3720703 C20.1733557,47.3720703 19.5932834,47.6796844 19.1596875,48.2949219 C18.6147629,49.0800821 18.3423047,50.5302629 18.3423047,52.6455078 Z" id="Fill-1" fill="#1A1919"></path>
            <path d="M69.1444107,92 C56.5214185,92 46.2885884,81.7670411 46.2885884,69.1444107 C46.2885884,56.5215472 56.5214185,46.2885884 69.1444107,46.2885884 C81.7669368,46.2885884 92,56.5215472 92,69.1444107 C92,81.7670411 81.7669368,92 69.1444107,92 M69.1444209,48.1170448 C80.75711,48.1170448 90.1715435,57.5314216 90.1715435,69.1442942 C90.1715435,80.7571667 80.75711,90.1715435 69.1444209,90.1715435 C57.5314784,90.1715435 48.1170448,80.7571667 48.1170448,69.1442942 C48.1170448,57.5314216 57.5314784,48.1170448 69.1444209,48.1170448 Z" id="Fill-1-Copy" fill="#1A1919"></path>
            <path d="M76.2398514,85.2556934 C75.5151628,85.2552312 72.8743014,80.5551985 72.5193519,79.215138 C71.7773318,76.4095381 71.9370128,75.2243044 71.9813815,74.8453254 C72.1172607,73.688284 73.2398809,73.11011 73.3078205,71.5454352 C73.3288494,71.0622369 73.5728772,68.646477 73.7676835,66.7594389 C73.2870227,66.6656185 72.8082106,66.4483988 72.3825484,66.1124016 C73.6604591,67.8263572 71.7796427,69.8804695 69.0468087,72.6135089 C66.1459745,75.5140846 59.7078927,78.206222 59.7078927,78.206222 C59.7078927,78.206222 62.4002865,71.7679698 65.3006585,68.867394 C67.4328976,66.7354061 69.151491,65.1219724 70.6179687,65.1219724 C71.0313832,65.1219724 71.4249242,65.2502244 71.801827,65.5309924 C71.4653644,65.1055653 71.248836,64.6269888 71.1545525,64.1463325 C69.2674967,64.3415992 66.8514829,64.5853936 66.3685112,64.6064223 C64.8035905,64.6743612 64.225411,65.7969709 63.0690521,65.9326177 C62.935946,65.9483314 62.7032414,65.9783724 62.3360443,65.9783724 C61.657342,65.9783724 60.5190078,65.876233 58.6989672,65.3946524 C57.2415019,65.009203 51.8107281,61.9195999 52.7713564,61.5313775 C53.2612607,61.3331068 54.8222529,61.1990776 56.8782333,61.1990776 C58.855413,61.1990776 61.2901449,61.3229391 63.6684915,61.6328237 C66.6340301,62.0191974 69.3532299,62.5079417 71.206316,62.871438 C71.2363573,62.7718405 71.2724068,62.6750159 71.3156201,62.5809645 L69.4211695,61.6730325 C69.4211695,61.6730325 67.9080123,59.9366617 68.0695421,59.8169598 C68.0757814,59.8123381 68.0838694,59.8100272 68.093344,59.8100272 C68.3306703,59.8100272 69.5411036,61.1939938 69.6575714,61.3515936 C69.7472331,61.3814035 70.2604772,61.5526373 70.8002963,61.7321902 L70.2644057,61.2635503 C70.2644057,61.2635503 69.5309358,58.5471491 69.7220447,58.4831386 C69.7243555,58.4824453 69.7268975,58.4819832 69.7296705,58.4819832 C69.9309472,58.4819832 70.5964776,60.8439004 70.6535561,61.0139788 C70.7843513,61.1285968 71.2261895,61.3005239 71.7782561,61.6189586 L71.1977658,60.125689 C71.1977658,60.125689 71.4605116,57.6620945 71.6571666,57.6620945 C71.6587842,57.6620945 71.6601707,57.6623255 71.6617883,57.6625566 C71.8598298,57.7020721 71.6229657,59.7173622 71.5728199,59.9685514 C71.6446879,60.0785477 72.0899924,60.7616342 72.5364523,61.4465694 C72.8112147,61.3430434 73.1067749,61.2919737 73.410192,61.2919737 C73.75844,61.2919737 74.1166247,61.3594505 74.4641795,61.4923242 C74.0191061,60.5446456 74.0528447,59.5569894 74.6430408,58.9672611 C74.829759,58.7800825 75.0566864,58.6495196 75.3094955,58.5721062 C75.3399989,58.399717 75.419955,58.2363401 75.5509813,58.1050839 C75.7217545,57.9343123 75.9466021,57.8495042 76.1742227,57.8495042 C76.4124734,57.8495042 76.6539592,57.9426314 76.8388287,58.1277302 C77.0160724,58.3045101 77.108045,58.5330529 77.115902,58.7609024 C77.4008321,58.173485 77.7370636,57.3810954 77.7134927,57.1243603 C77.6587251,56.5434132 76.9848757,55.5150861 76.9786363,55.5049183 C76.9347298,55.4383659 76.9529857,55.348705 77.0197698,55.3045678 C77.0440339,55.288623 77.0715333,55.2809972 77.0988015,55.2809972 C77.1457122,55.2809972 77.1916985,55.3038746 77.2191978,55.3461631 C77.249008,55.3905314 77.9394958,56.4449711 78.0009649,57.0975544 C78.0351657,57.4709874 77.6064995,58.4119645 77.3728706,58.8926208 C77.7010141,59.0721736 78.0208384,59.3092666 78.3129322,59.6013577 C78.604795,59.8932177 78.8418902,60.2132701 79.0216758,60.5414104 C79.4840808,60.316565 80.3712235,59.9114734 80.771235,59.9114734 C80.78718,59.9114734 80.8024317,59.9121667 80.8167591,59.9133221 C81.4693486,59.9747906 82.5237982,60.6652719 82.5679358,60.6948507 C82.6344888,60.7382947 82.6529758,60.8279555 82.6090693,60.8945079 C82.5813389,60.9365654 82.5353526,60.9594428 82.4884419,60.9594428 C82.4614047,60.9594428 82.4339054,60.951817 82.4096413,60.9358721 C82.3992424,60.9289396 81.3711366,60.2553275 80.789953,60.2010226 C80.7811717,60.2000983 80.7716971,60.1996361 80.7617604,60.1996361 C80.4791411,60.1996361 79.7202516,60.5226926 79.1531643,60.7981456 C79.3812471,60.8060025 79.6097921,60.8982053 79.7863425,61.0754473 C80.1484557,61.4370949 80.1583924,62.0134203 79.8092201,62.3625894 C79.6781938,62.4938455 79.5148153,62.5744941 79.3424245,62.6045351 C79.2645482,62.8575729 79.133753,63.0844981 78.9470348,63.2712146 C78.6216644,63.596813 78.1756666,63.7527952 77.6816028,63.7527952 C77.2799737,63.7527952 76.8466857,63.6495003 76.4217168,63.4500742 C76.6705974,64.0998845 76.6895466,64.7878238 76.4677031,65.3775521 C77.1521826,65.8240078 77.8361999,66.2695392 77.9457351,66.3414066 C78.1255207,66.3055884 79.2051589,66.1745634 79.8214677,66.1745634 C80.0678064,66.1745634 80.2404283,66.195361 80.2515205,66.2517457 C80.2914985,66.4495542 77.7888271,66.7166882 77.7888271,66.7166882 L76.2953123,66.1355101 C76.6139812,66.6880337 76.7854477,67.1296367 76.9002979,67.2606617 C77.0729198,67.3184329 79.4944797,68.0010573 79.4306997,68.1921643 C79.423536,68.2143485 79.381016,68.224054 79.3114588,68.224054 C78.777648,68.224054 76.650724,67.6495774 76.650724,67.6495774 L76.1816175,67.1136918 C76.3616342,67.6537369 76.5324075,68.1665139 76.5626799,68.256637 C76.7267516,68.3777254 78.216569,69.6821988 78.097097,69.8441892 C78.0908577,69.8525083 78.0806899,69.8562056 78.0665936,69.8562056 C77.8052343,69.8562056 76.2412379,68.4930367 76.2412379,68.4930367 L75.3330663,66.5983728 C75.239245,66.6418168 75.1421885,66.6774038 75.042359,66.7076759 C75.4058587,68.5607445 75.8948386,71.2799188 76.2816782,74.2451983 C76.9134698,79.0968226 76.7713513,84.1811493 76.3831253,85.1424618 C76.3519286,85.2198752 76.3031692,85.2556934 76.2398514,85.2556934" id="Fill-4" fill="#000000"></path>
        </g>
    </g>
</svg>