<?xml version="1.0" encoding="UTF-8"?>
<svg width="100px" height="116px" viewBox="0 0 100 116" version="1.1" xmlns="http://www.w3.org/2000/svg" xmlns:xlink="http://www.w3.org/1999/xlink">
    <!-- Generator: Sketch 51.3 (57544) - http://www.bohemiancoding.com/sketch -->
    <title>owasp_logo_Ax_2017</title>
    <desc>Created with Sketch.</desc>
    <defs></defs>
    <g id="Page-1" stroke="none" stroke-width="1" fill="none" fill-rule="evenodd">
        <g id="MainScreen-Standards" transform="translate(-704.000000, -239.000000)">
            <g id="owasp_logo_Ax_2017" transform="translate(704.000000, 239.000000)">
                <path d="M50.0002549,100 C22.3857234,100 0,77.613995 0,50.0002549 C0,22.386005 22.3857234,7.10542736e-15 50.0002549,7.10542736e-15 C77.6137667,7.10542736e-15 100,22.386005 100,50.0002549 C100,77.613995 77.6137667,100 50.0002549,100 M50.0002772,4 C75.4046318,4 96,24.5952441 96,50 C96,75.4047559 75.4046318,96 50.0002772,96 C24.5953682,96 4,75.4047559 4,50 C4,24.5952441 24.5953682,4 50.0002772,4 Z" id="Fill-1" fill="#1A1919"></path>
                <path d="M65.5225074,85.2459016 C63.9371514,85.2448906 58.1599039,74.9629226 57.383403,72.031356 C55.7601319,65.8937202 56.1094562,63.3008585 56.2065188,62.4717899 C56.5037731,59.9406028 58.9596593,58.6757675 59.1082865,55.2528261 C59.1542901,54.1957636 59.6881345,48.9109564 60.1143,44.7828011 C59.0627884,44.577556 58.015321,44.1023581 57.0841266,43.367318 C59.879732,47.1168316 55.7651873,51.6104848 49.786737,57.5893843 C43.4407633,63.9347927 29.3565739,69.8242134 29.3565739,69.8242134 C29.3565739,69.8242134 35.2465556,55.7396512 41.5915183,49.3942428 C46.2560845,44.730226 50.0157441,41.2006178 53.2238656,41.2006178 C54.1282668,41.2006178 54.9891919,41.4811868 55.8137186,42.0954053 C55.0776604,41.1647252 54.6039747,40.1177732 54.3977166,39.0662715 C50.2695224,39.4934441 44.9841599,40.0267779 43.9275929,40.0727811 C40.5041137,40.2214068 39.2392666,42.67727 36.7095723,42.9740159 C36.4183844,43.0083919 35.9093113,43.0741108 35.1060171,43.0741108 C33.6212624,43.0741108 31.1309998,42.8506667 27.1494106,41.7971428 C23.9610049,40.9539193 12.0804402,34.1949876 14.1819468,33.3456977 C15.2536798,32.9119533 18.6685649,32.6187461 23.1663048,32.6187461 C27.4916574,32.6187461 32.8179682,32.88971 38.0209286,33.5676253 C44.508452,34.4128709 50.4570757,35.4820661 54.5109563,36.2772643 C54.5766758,36.059381 54.6555392,35.8475641 54.7500741,35.6418135 L50.6057028,33.6555874 C50.6057028,33.6555874 47.2954633,29.8570375 47.6488319,29.5951731 C47.6624813,29.5850625 47.680175,29.5800072 47.700902,29.5800072 C48.2200858,29.5800072 50.8680752,32.6076244 51.1228645,32.9523957 C51.3190119,33.017609 52.4418039,33.3922065 53.6227323,33.785003 L52.450398,32.7597889 C52.450398,32.7597889 50.8458317,26.8172875 51.2639086,26.6772558 C51.268964,26.6757392 51.2745249,26.6747282 51.2805913,26.6747282 C51.7209118,26.6747282 53.1768509,31.841747 53.301718,32.2138168 C53.5878504,32.4645595 54.5544323,32.8406736 55.762154,33.5372935 L54.4922515,30.2705607 C54.4922515,30.2705607 55.0670442,24.8811089 55.497254,24.8811089 C55.5007927,24.8811089 55.5038259,24.8816144 55.5073647,24.88212 C55.9406077,24.9685655 55.4224349,29.3772898 55.3127339,29.9268006 C55.4699551,30.1674327 56.44412,31.6617784 57.4208125,33.1601684 C58.021893,32.9336911 58.6684715,32.821969 59.3322382,32.821969 C60.0940786,32.821969 60.877657,32.9695837 61.6379808,33.2602632 C60.6643215,31.187086 60.7381295,29.0264522 62.0292644,27.7363405 C62.4377363,27.3268615 62.9341711,27.0412372 63.4872257,26.8718848 C63.5539563,26.4947596 63.7288712,26.1373501 64.0155092,25.8502093 C64.3890992,25.4766229 64.8809842,25.2910935 65.3789356,25.2910935 C65.9001416,25.2910935 66.4284251,25.4948219 66.8328526,25.8997512 C67.2205975,26.2864814 67.4218002,26.7864502 67.4389884,27.2849025 C68.0623124,25.9998461 68.797865,24.2663848 68.7463005,23.7047414 C68.6264888,22.4338398 67.1523504,20.1842327 67.138701,20.1619894 C67.0426494,20.0163969 67.0825866,19.8202513 67.2286861,19.7236952 C67.2817672,19.6888136 67.3419258,19.6721311 67.4015789,19.6721311 C67.5042024,19.6721311 67.6048037,19.7221786 67.6649623,19.8146905 C67.7301762,19.9117522 69.2407131,22.2184841 69.3751853,23.6460999 C69.4500044,24.4630359 68.512238,26.5215527 68.0011427,27.5730544 C68.7190016,27.965851 69.4186613,28.4845244 70.0576568,29.1235139 C70.6961468,29.7619979 71.2148251,30.4621565 71.6081309,31.1800086 C72.6197053,30.6881283 74.560452,29.8019347 75.4355321,29.8019347 C75.470414,29.8019347 75.5037792,29.8034513 75.5351224,29.805979 C76.9627516,29.9404499 79.2695052,31.4509725 79.3660623,31.5156803 C79.5116562,31.6107199 79.552099,31.8068654 79.4560475,31.952458 C79.3953833,32.0444644 79.294782,32.0945118 79.1921585,32.0945118 C79.1330109,32.0945118 79.0728523,32.0778293 79.0197712,32.0429478 C78.9970222,32.0277819 76.7478995,30.5541629 75.4764804,30.4353634 C75.4572701,30.4333413 75.4365432,30.4323302 75.4148052,30.4323302 C74.7965366,30.4323302 73.1363615,31.1390607 71.89578,31.7416521 C72.3947425,31.7588401 72.894716,31.9605464 73.2809443,32.3482877 C74.0731168,33.1394416 74.0948548,34.4002326 73.3309922,35.164088 C73.0443542,35.4512288 72.6869414,35.6276587 72.3098127,35.6933775 C72.1394476,36.2469325 71.8533151,36.7433627 71.4448433,37.1518307 C70.7330508,37.864122 69.7573693,38.2053545 68.6765367,38.2053545 C67.7979179,38.2053545 66.8500408,37.9793827 65.920363,37.5431106 C66.4648236,38.9646601 66.5062774,40.4696219 66.0209643,41.7597336 C67.5183573,42.736417 69.0147392,43.7110782 69.2543626,43.8682979 C69.6476684,43.7899408 72.0095252,43.5033055 73.3577856,43.5033055 C73.8966853,43.5033055 74.2743195,43.5488031 74.2985852,43.6721524 C74.3860426,44.1048858 68.9111047,44.6892781 68.9111047,44.6892781 L65.6438356,43.417871 C66.3409676,44.6265924 66.7160742,45.5926596 66.9673248,45.8792949 C67.344959,46.0056774 72.6424543,47.499012 72.5029268,47.917085 C72.4872553,47.9656159 72.3942369,47.9868481 72.2420711,47.9868481 C71.0742865,47.9868481 66.4213476,46.7301014 66.4213476,46.7301014 L65.3951127,45.5577781 C65.788924,46.7392009 66.162514,47.8609713 66.228739,48.0581278 C66.5876684,48.3230254 69.8468489,51.1767404 69.5854876,51.5311167 C69.5718382,51.5493157 69.5495947,51.5574042 69.5187571,51.5574042 C68.9469976,51.5574042 65.5255406,48.5752847 65.5255406,48.5752847 L63.5387902,44.4304469 C63.3335433,44.5254865 63.1212188,44.603338 62.9028279,44.6695624 C63.6980336,48.7234049 64.7677445,54.6719725 65.6140091,61.1589293 C66.9961402,71.7725248 66.6852366,82.8951887 65.8359387,84.9981921 C65.7676916,85.1675445 65.6610238,85.2459016 65.5225074,85.2459016" id="Fill-4" fill="#000000"></path>
                <rect id="Rectangle-10" fill="#000000" x="14" y="88" width="74" height="28" rx="8"></rect>
                <path d="M25.341,94.148 L26.205,94.148 L31.281,107 L30.435,107 L28.815,102.878 L22.659,102.878 L21.021,107 L20.175,107 L25.341,94.148 Z M28.563,102.194 L25.809,94.922 L25.773,94.922 L22.911,102.194 L28.563,102.194 Z M34.233,102.14 L30.849,97.748 L31.803,97.748 L34.701,101.618 L37.617,97.748 L38.499,97.748 L35.151,102.14 L38.805,107 L37.869,107 L34.701,102.662 L31.461,107 L30.597,107 L34.233,102.14 Z M43.809,107 C43.8450002,106.423997 43.9769989,105.905002 44.205,105.443 C44.4330011,104.980998 44.7239982,104.561002 45.078,104.183 C45.4320018,103.804998 45.8279978,103.454002 46.266,103.13 C46.7040022,102.805998 47.1509977,102.494001 47.607,102.194 C48.0510022,101.893999 48.4889978,101.591002 48.921,101.285 C49.3530022,100.978998 49.7399983,100.652002 50.082,100.304 C50.4240017,99.9559983 50.696999,99.5750021 50.901,99.161 C51.105001,98.7469979 51.207,98.2760026 51.207,97.748 C51.207,97.3279979 51.1230008,96.9470017 50.955,96.605 C50.7869992,96.2629983 50.5620014,95.9690012 50.28,95.723 C49.9979986,95.4769988 49.6740018,95.2880007 49.308,95.156 C48.9419982,95.0239993 48.555002,94.958 48.147,94.958 C47.5829972,94.958 47.0910021,95.056999 46.671,95.255 C46.2509979,95.453001 45.9030014,95.7229983 45.627,96.065 C45.3509986,96.4070017 45.1440007,96.8089977 45.006,97.271 C44.8679993,97.7330023 44.799,98.2339973 44.799,98.774 L44.115,98.774 C44.1870004,97.2619924 44.5499967,96.1490036 45.204,95.435 C45.8580033,94.7209964 46.8029938,94.364 48.039,94.364 C48.5670026,94.364 49.0649977,94.4329993 49.533,94.571 C50.0010023,94.7090007 50.4089983,94.9189986 50.757,95.201 C51.1050017,95.4830014 51.380999,95.8369979 51.585,96.263 C51.789001,96.6890021 51.891,97.1899971 51.891,97.766 C51.891,98.4980037 51.7200017,99.1429972 51.378,99.701 C51.0359983,100.259003 50.6040026,100.765998 50.082,101.222 C49.5599974,101.678002 48.996003,102.103998 48.39,102.5 C47.783997,102.896002 47.2140027,103.288998 46.68,103.679 C46.1459973,104.069002 45.6900019,104.476998 45.312,104.903 C44.9339981,105.329002 44.7210002,105.799997 44.673,106.316 L52.089,106.316 L52.089,107 L43.809,107 Z M57.633,107.216 C56.7329955,107.216 55.9950029,107.021002 55.419,106.631 C54.8429971,106.240998 54.3840017,105.737003 54.042,105.119 C53.6999983,104.500997 53.4630006,103.811004 53.331,103.049 C53.1989993,102.286996 53.133,101.534004 53.133,100.79 C53.133,100.045996 53.1989993,99.2930038 53.331,98.531 C53.4630006,97.7689962 53.6999983,97.0790031 54.042,96.461 C54.3840017,95.8429969 54.8429971,95.3390019 55.419,94.949 C55.9950029,94.558998 56.7329955,94.364 57.633,94.364 C58.5330045,94.364 59.2709971,94.558998 59.847,94.949 C60.4230029,95.3390019 60.8819983,95.8429969 61.224,96.461 C61.5660017,97.0790031 61.8029993,97.7689962 61.935,98.531 C62.0670006,99.2930038 62.133,100.045996 62.133,100.79 C62.133,101.534004 62.0670006,102.286996 61.935,103.049 C61.8029993,103.811004 61.5660017,104.500997 61.224,105.119 C60.8819983,105.737003 60.4230029,106.240998 59.847,106.631 C59.2709971,107.021002 58.5330045,107.216 57.633,107.216 Z M57.633,106.622 C58.4010038,106.622 59.0339975,106.436002 59.532,106.064 C60.0300025,105.691998 60.4199986,105.218003 60.702,104.642 C60.9840014,104.065997 61.1789994,103.436003 61.287,102.752 C61.3950005,102.067997 61.449,101.414003 61.449,100.79 C61.449,100.165997 61.3950005,99.5120034 61.287,98.828 C61.1789994,98.1439966 60.9840014,97.5140029 60.702,96.938 C60.4199986,96.3619971 60.0300025,95.8880019 59.532,95.516 C59.0339975,95.1439981 58.4010038,94.958 57.633,94.958 C56.8529961,94.958 56.2170024,95.1439981 55.725,95.516 C55.2329975,95.8880019 54.8460014,96.3619971 54.564,96.938 C54.2819986,97.5140029 54.0870005,98.1439966 53.979,98.828 C53.8709994,99.5120034 53.817,100.165997 53.817,100.79 C53.817,101.414003 53.8709994,102.067997 53.979,102.752 C54.0870005,103.436003 54.2819986,104.065997 54.564,104.642 C54.8460014,105.218003 55.2329975,105.691998 55.725,106.064 C56.2170024,106.436002 56.8529961,106.622 57.633,106.622 Z M67.551,95.912 C67.1069978,96.3800023 66.5970029,96.7459987 66.021,97.01 C65.4449971,97.2740013 64.8450031,97.4359997 64.221,97.496 L64.221,96.902 C64.9410036,96.7939995 65.594997,96.542002 66.183,96.146 C66.7710029,95.749998 67.2509981,95.2280032 67.623,94.58 L68.235,94.58 L68.235,107 L67.551,107 L67.551,95.912 Z M74.805,107 C74.8770003,106.111996 74.9999991,105.212005 75.174,104.3 C75.3480008,103.387995 75.632998,102.449005 76.029,101.483 C76.4250019,100.516995 76.9619966,99.5120052 77.64,98.468 C78.3180033,97.4239948 79.1909946,96.3260058 80.259,95.174 L72.933,95.174 L72.933,94.58 L80.943,94.58 L80.943,95.264 C80.3189968,95.9600035 79.7160029,96.6739963 79.134,97.406 C78.551997,98.1380037 78.0240023,98.9599954 77.55,99.872 C77.0759976,100.784005 76.6680017,101.818994 76.326,102.977 C75.9839982,104.135006 75.7410007,105.475992 75.597,107 L74.805,107 Z" id="Ax-2017" fill="#FFFFFF"></path>
            </g>
        </g>
    </g>
</svg>