<?xml version="1.0" encoding="UTF-8" standalone="no"?>
<!DOCTYPE svg PUBLIC "-//W3C//DTD SVG 1.1//EN" "http://www.w3.org/Graphics/SVG/1.1/DTD/svg11.dtd">
<svg width="100%" height="100%" viewBox="0 0 144 144" version="1.1" xmlns="http://www.w3.org/2000/svg" xmlns:xlink="http://www.w3.org/1999/xlink" xml:space="preserve" xmlns:serif="http://www.serif.com/" style="fill-rule:evenodd;clip-rule:evenodd;stroke-linejoin:round;stroke-miterlimit:1.41421;">
    <g id="Artboard1" transform="matrix(1,0,0,1,0,67)">
        <rect x="0" y="-67" width="144" height="144" style="fill:none;"/>
        <g transform="matrix(1,0,0,1,0,-67)">
            <rect x="0" y="0" width="144" height="144"/>
        </g>
        <g transform="matrix(1,0,0,1,2.84217e-14,-15.616)">
            <g transform="matrix(3.73791,0,0,3.73791,12.1855,-39.0012)">
                <path d="M16.18,0.001C23.48,0.14 30.283,5.755 31.662,12.951C33.037,20.126 28.792,27.997 22.012,30.767C16.346,33.082 9.388,31.766 4.953,27.537C-0.035,22.782 -1.4,14.665 1.837,8.53C4.5,3.483 9.987,0.111 15.768,0.001C15.974,0 15.974,0 16.18,0.001ZM15.78,1.001C8.922,1.132 2.56,6.396 1.268,13.139C-0.021,19.868 3.959,27.245 10.314,29.841C15.626,32.011 22.147,30.777 26.305,26.813C30.972,22.363 32.26,14.746 29.226,8.996C26.736,4.277 21.631,1.105 16.168,1.001C15.974,1 15.974,1 15.78,1.001Z" style="fill:white;fill-rule:nonzero;"/>
            </g>
            <g id="Fill-4" transform="matrix(3.73791,0,0,3.73791,12.1855,-39.0012)">
                <path d="M21.102,27.358C20.593,27.358 18.736,24.054 18.487,23.112C17.965,21.14 18.078,20.307 18.109,20.041C18.204,19.227 18.993,18.821 19.041,17.721C19.056,17.381 19.227,15.683 19.364,14.357C19.027,14.291 18.69,14.138 18.391,13.902C19.289,15.107 17.967,16.551 16.046,18.472C14.007,20.511 9.481,22.403 9.481,22.403C9.481,22.403 11.374,17.877 13.413,15.839C14.912,14.34 16.12,13.206 17.15,13.206C17.441,13.206 17.718,13.296 17.983,13.493C17.746,13.194 17.594,12.858 17.528,12.52C16.201,12.657 14.503,12.829 14.163,12.843C13.063,12.891 12.657,13.68 11.844,13.776C11.75,13.787 11.587,13.808 11.329,13.808C10.852,13.808 10.052,13.736 8.772,13.397C7.748,13.126 3.93,10.955 4.606,10.682C4.95,10.542 6.047,10.448 7.492,10.448C8.882,10.448 10.594,10.535 12.265,10.753C14.35,11.025 16.261,11.368 17.564,11.624C17.585,11.554 17.61,11.486 17.641,11.42L16.309,10.781C16.309,10.781 15.245,9.561 15.359,9.477C15.363,9.473 15.369,9.472 15.376,9.472C15.543,9.472 16.393,10.445 16.475,10.555C16.538,10.576 16.899,10.697 17.279,10.823L16.902,10.494C16.902,10.494 16.386,8.584 16.521,8.539C16.522,8.539 16.524,8.538 16.526,8.538C16.667,8.538 17.135,10.199 17.175,10.318C17.267,10.399 17.578,10.52 17.966,10.743L17.558,9.694C17.558,9.694 17.743,7.962 17.881,7.962C17.882,7.962 17.883,7.962 17.884,7.962C18.023,7.99 17.857,9.407 17.822,9.583C17.872,9.661 18.185,10.141 18.499,10.622C18.692,10.549 18.9,10.514 19.113,10.514C19.358,10.514 19.61,10.561 19.854,10.654C19.541,9.988 19.565,9.294 19.98,8.879C20.111,8.748 20.27,8.656 20.448,8.602C20.47,8.48 20.526,8.366 20.618,8.273C20.738,8.153 20.896,8.094 21.056,8.094C21.223,8.094 21.393,8.159 21.523,8.289C21.648,8.414 21.712,8.574 21.718,8.734C21.918,8.321 22.155,7.764 22.138,7.584C22.099,7.176 21.626,6.453 21.621,6.446C21.591,6.399 21.603,6.336 21.65,6.305C21.667,6.294 21.687,6.288 21.706,6.288C21.739,6.288 21.771,6.304 21.791,6.334C21.811,6.365 22.297,7.106 22.34,7.565C22.364,7.828 22.063,8.489 21.899,8.827C22.129,8.953 22.354,9.12 22.559,9.325C22.765,9.53 22.931,9.755 23.058,9.986C23.383,9.828 24.006,9.543 24.287,9.543C24.299,9.543 24.309,9.544 24.319,9.544C24.778,9.588 25.519,10.073 25.55,10.094C25.597,10.124 25.61,10.187 25.579,10.234C25.56,10.264 25.527,10.28 25.494,10.28C25.475,10.28 25.456,10.274 25.439,10.263C25.432,10.258 24.709,9.785 24.301,9.747C24.294,9.746 24.288,9.746 24.281,9.746C24.082,9.746 23.549,9.973 23.15,10.166C23.31,10.172 23.471,10.237 23.595,10.361C23.85,10.616 23.857,11.021 23.611,11.266C23.519,11.358 23.404,11.415 23.283,11.436C23.228,11.614 23.136,11.774 23.005,11.905C22.776,12.134 22.463,12.243 22.116,12.243C21.833,12.243 21.529,12.171 21.23,12.031C21.405,12.487 21.418,12.971 21.262,13.385C21.743,13.699 22.224,14.012 22.301,14.063C22.428,14.038 23.187,13.946 23.62,13.946C23.793,13.946 23.914,13.96 23.922,14C23.95,14.139 22.191,14.327 22.191,14.327L21.141,13.918C21.365,14.307 21.486,14.617 21.566,14.709C21.688,14.75 23.39,15.23 23.345,15.364C23.34,15.379 23.31,15.386 23.261,15.386C22.886,15.386 21.391,14.982 21.391,14.982L21.061,14.606C21.188,14.985 21.308,15.346 21.329,15.409C21.444,15.494 22.492,16.411 22.408,16.525C22.403,16.531 22.396,16.534 22.386,16.534C22.202,16.534 21.103,15.575 21.103,15.575L20.465,14.244C20.399,14.274 20.331,14.299 20.26,14.32C20.516,15.623 20.86,17.534 21.132,19.619C21.576,23.029 21.476,26.603 21.203,27.279C21.181,27.333 21.147,27.358 21.102,27.358" style="fill:white;"/>
            </g>
        </g>
    </g>
</svg>
