<?xml version="1.0" encoding="UTF-8"?>
<svg width="100px" height="100px" viewBox="0 0 100 100" version="1.1" xmlns="http://www.w3.org/2000/svg" xmlns:xlink="http://www.w3.org/1999/xlink">
    <!-- Generator: Sketch 52.4 (67378) - http://www.bohemiancoding.com/sketch -->
    <title>pcidssblack</title>
    <desc>Created with Sketch.</desc>
    <g id="pcidssblack" stroke="none" stroke-width="1" fill="none" fill-rule="evenodd">
        <rect id="Rectangle" fill="#000000" x="0" y="0" width="100" height="100"></rect>
        <g id="pci-logo-copy" transform="translate(5.000000, 22.000000)" fill="#FFFFFF">
            <g id="Group">
                <path d="M22.2710363,21.7478238 L21.2453627,21.7478238 L21.2453627,27.6302332 L22.1903627,27.6302332 C23.5846632,27.6302332 24.652772,27.3865803 25.3942228,26.8990415 C26.1340415,26.407772 26.5026684,25.6467358 26.5026684,24.6063731 C26.5026684,22.7014508 25.0913472,21.7478238 22.2710363,21.7478238 Z" id="Path"></path>
                <path d="M0.0298445596,3.90357513 L18.8277202,55.020544 L51.7901036,44.6577202 C51.7691192,44.5961658 51.7493005,44.5364767 51.7273834,44.4732902 C51.384171,43.4718653 50.9145855,42.1001813 51.2354145,40.6366321 C51.3373057,40.1731088 51.5518135,39.7189119 51.8504922,39.2873316 C51.5310622,39.2975907 51.2058031,39.3041192 50.8716839,39.3041192 C48.5554663,39.3041192 46.4894301,39.0390155 44.667513,38.5071762 C42.8532902,37.9797668 41.3148964,37.2271244 40.0539637,36.2501813 C38.7934974,35.2711399 37.8354404,34.0866839 37.1786269,32.690285 C36.5218135,31.2854922 36.1932902,29.727513 36.1932902,28.0116839 C36.1932902,26.3145078 36.5427979,24.7672539 37.2422798,23.3668912 C37.9436269,21.9660622 38.930829,20.7708808 40.2045855,19.7727202 C41.4757772,18.7771244 42.9950518,18.0079275 44.7579793,17.4653627 C46.5148446,16.9269948 48.4556736,16.6539637 50.5706736,16.6539637 C52.2023316,16.6539637 53.7153109,16.7026943 55.0396632,16.9887824 C56.3700777,17.2793005 56.3978238,17.3194041 57.4552073,17.7013212 L57.4405181,23.5897927 C56.6141969,23.1234715 55.6796891,22.738057 54.6519171,22.4286528 C53.6241451,22.1234456 52.5201295,21.9667617 51.3482642,21.9667617 C49.4559326,21.9667617 47.9198705,22.4881088 46.728886,23.5242746 C45.5420984,24.5669689 44.9487047,26.0501036 44.9487047,27.9788083 C44.9487047,28.9788342 45.1352332,29.8517876 45.5038601,30.6037306 C45.8790155,31.3582383 46.3814767,31.9835751 47.0084456,32.4813731 C47.6400777,32.9817358 48.375,33.3589896 49.2206736,33.6089378 C50.0663472,33.8654145 50.973342,33.992487 51.9477202,33.992487 C52.9479793,33.992487 53.9312176,33.886399 54.8890415,33.6751554 C55.846399,33.4629793 56.8678756,33.1554404 57.9572021,32.7506736 L57.9644301,35.9498705 C58.0304145,35.9470725 58.096399,35.9449741 58.1612176,35.9449741 C58.4533679,35.9449741 58.7371244,35.9713212 59.0038601,36.0237824 C60.1092746,36.2417876 60.8612176,36.8510363 61.400285,37.5980829 L61.400285,17.0079016 L69.8173834,17.0079016 L69.8173834,30.0457772 C71.5754145,27.6348964 73.4423316,25.2027979 75.4542746,22.7091451 C75.8035492,22.2766321 76.1437306,21.8298964 76.5039637,21.357513 C76.655285,21.1586269 76.8103368,20.9560104 76.9679534,20.7517617 L67.681399,0.104222798 L0.0298445596,3.90357513 Z M33.6816839,27.933342 C33.1118394,28.920544 32.3046373,29.7408031 31.2640415,30.3957513 C30.2236788,31.0565285 28.9734715,31.5482642 27.5071244,31.8767876 C26.0428756,32.2050777 24.421943,32.3685233 22.6398964,32.3685233 L21.3304663,32.3685233 L21.3304663,38.9520466 L12.9516062,38.9520466 L12.9516062,17.0079016 L22.7646373,17.0079016 C26.432487,17.0079016 29.3166839,17.6285751 31.4060363,18.8682902 C33.5014508,20.1073057 34.5462435,21.9917098 34.5462435,24.513342 C34.5462435,25.8078497 34.2622539,26.9435751 33.6816839,27.933342 Z M70.7218135,10.1312953 C70.7218135,11.6083679 70.230544,12.7695078 69.253601,13.6107513 C68.2745596,14.4517617 67.0623575,14.8716839 65.6214249,14.8716839 C64.1804922,14.8716839 62.9685233,14.4517617 61.9894819,13.6107513 C61.0085751,12.7697409 60.5210363,11.6083679 60.5210363,10.1312953 C60.5210363,8.62274611 61.0085751,7.44481865 61.9894819,6.60544041 C62.9685233,5.76209845 64.1804922,5.34031088 65.6214249,5.34031088 C67.0623575,5.34031088 68.2745596,5.76209845 69.253601,6.60544041 C70.230544,7.44458549 70.7218135,8.62274611 70.7218135,10.1312953 Z" id="Shape" fill-rule="nonzero"></path>
                <path d="M62.1342746,38.9520466 C62.3534456,39.4850518 62.5171244,40.016658 62.657487,40.4794819 C62.6642487,40.5023316 62.6714767,40.5258808 62.6789378,40.5501295 C63.0466321,40.0385751 63.4043005,39.5020725 63.7619689,38.9520466 L62.1342746,38.9520466 Z" id="Path"></path>
            </g>
            <g id="jXyYm9_2_" transform="translate(53.160622, 16.787565)">
                <path d="M35.6621503,0.0508290155 C36.0179534,0.110284974 36.4192228,0.247150259 36.5476943,0.587331606 C36.5476943,0.587331606 36.6826943,0.879248705 36.5476943,1.01634715 C36.5476943,1.01634715 20.3397668,21.1812435 13.1880311,31.8082383 C12.2393005,33.2181606 10.8951295,35.716943 9.75590674,36.2072798 C8.70178756,36.6607772 5.6030829,36.8039378 4.5526943,36.3143005 C3.14673575,35.658886 2.36611399,32.5196114 1.78507772,30.8427202 C1.41528497,29.7739119 1.1007513,28.7988342 0.788782383,27.7314249 C0.484274611,26.6870984 -0.126839378,25.443886 0.124274611,24.2981347 C0.443238342,22.845544 3.72031088,20.9560104 5.4384715,21.2938601 C7.70898964,21.7410622 7.17225389,26.1424352 9.20261658,27.4094301 C11.1278238,25.4825907 12.5183938,23.0061917 14.0740415,20.6501036 C17.1662176,15.9635751 20.3964249,11.6155959 23.9271762,7.23917098 C26.4115026,4.16098446 28.4873316,0.393108808 33.3373057,0.0508290155 L35.6621503,0.0508290155" id="Path"></path>
            </g>
        </g>
    </g>
</svg>