<?xml version="1.0" encoding="UTF-8" standalone="no"?>
<!DOCTYPE svg PUBLIC "-//W3C//DTD SVG 1.1//EN" "http://www.w3.org/Graphics/SVG/1.1/DTD/svg11.dtd">
<svg width="100%" height="100%" viewBox="0 0 1024 1024" version="1.1" xmlns="http://www.w3.org/2000/svg" xmlns:xlink="http://www.w3.org/1999/xlink" xml:space="preserve" xmlns:serif="http://www.serif.com/" style="fill-rule:evenodd;clip-rule:evenodd;stroke-linejoin:round;stroke-miterlimit:1.41421;">
    <path d="M869.344,399.328C884.896,440.096 893.824,484.128 893.824,530.368C893.824,733.6 729.024,898.368 525.824,898.368C322.592,898.368 157.824,733.6 157.824,530.368C157.824,327.104 322.56,162.368 525.824,162.368C569.536,162.368 611.264,170.368 650.176,184.384L701.248,133.312C648.192,110.016 589.696,96.896 528.032,96.896C289.408,96.896 96,290.304 96,528.896C96,767.488 289.408,960.896 528,960.896C766.56,960.896 960,767.488 960,528.896C960,464.416 945.504,403.456 920.16,348.512L869.344,399.328Z" style="fill-rule:nonzero;"/>
    <path d="M810.624,354.112L794.976,338.496L824.416,231.904L756.32,299.904L702.016,245.696L848.352,208.032L810.624,354.112ZM485.088,570.72L523.776,609.344L794.976,338.528L810.624,354.144L658.336,506.272L631.488,748.064L308.32,425.536L548.544,399.008L701.952,245.696L756.32,299.904L485.088,570.72ZM354.336,440.224L430.784,516.512L526.56,420.928L354.336,440.224Z" style="fill-rule:nonzero;"/>
    <path d="M445.344,636.768L408.32,599.744L311.52,696.576L137.376,700.8L355.584,918.624L352,736.288L445.344,636.768Z" style="fill-rule:nonzero;"/>
</svg>
