<?xml version="1.0" encoding="UTF-8" standalone="no"?>
<!DOCTYPE svg PUBLIC "-//W3C//DTD SVG 1.1//EN" "http://www.w3.org/Graphics/SVG/1.1/DTD/svg11.dtd">
<svg width="100%" height="100%" viewBox="0 0 100 100" version="1.1" xmlns="http://www.w3.org/2000/svg" xmlns:xlink="http://www.w3.org/1999/xlink" xml:space="preserve" xmlns:serif="http://www.serif.com/" style="fill-rule:evenodd;clip-rule:evenodd;stroke-linejoin:round;stroke-miterlimit:1.41421;">
    <g transform="matrix(1,0,0,1,-240,0)">
        <g id="Search" transform="matrix(0.471698,0,0,0.460829,259.811,19.3548)">
            <rect x="-42" y="-42" width="212" height="217" style="fill:none;"/>
            <clipPath id="_clip1">
                <rect x="-42" y="-42" width="212" height="217"/>
            </clipPath>
            <g clip-path="url(#_clip1)">
                <g transform="matrix(0.310464,0,0,0.317787,-48.5669,-103.096)">
                    <path d="M432,192.032C281.792,192.032 160.032,313.824 160,464.032C160,614.208 281.792,736.032 432,736.032C582.24,736.032 704,614.24 704,464.032C704,313.824 582.24,192.032 432,192.032ZM432.32,224.224C564.896,224.224 672.32,331.68 672.32,464.224C672.32,596.768 564.896,704.224 432.32,704.224C299.776,704.224 192.32,596.768 192.32,464.224C192.32,331.68 299.776,224.224 432.32,224.224ZM43.776,875.328L21.152,852.704L228.48,644.512C228.48,644.512 232.192,648.448 239.168,655.84C246.144,663.232 251.104,667.168 251.104,667.168L43.776,875.328Z" style="fill-rule:nonzero;"/>
                </g>
            </g>
        </g>
    </g>
</svg>
