<?xml version="1.0" encoding="UTF-8" standalone="no"?>
<!DOCTYPE svg PUBLIC "-//W3C//DTD SVG 1.1//EN" "http://www.w3.org/Graphics/SVG/1.1/DTD/svg11.dtd">
<svg width="100%" height="100%" viewBox="0 0 1024 1024" version="1.1" xmlns="http://www.w3.org/2000/svg" xmlns:xlink="http://www.w3.org/1999/xlink" xml:space="preserve" xmlns:serif="http://www.serif.com/" style="fill-rule:evenodd;clip-rule:evenodd;stroke-linejoin:round;stroke-miterlimit:1.41421;">
    <path d="M528,96.896C289.408,96.896 96,290.304 96,528.896C96,767.488 289.408,960.896 528,960.896C766.56,960.896 960,767.488 960,528.896C960,290.304 766.56,96.896 528,96.896ZM525.824,898.368C322.592,898.368 157.824,733.6 157.824,530.368C157.824,327.104 322.56,162.368 525.824,162.368C729.024,162.368 893.824,327.104 893.824,530.368C893.824,733.6 728.992,898.368 525.824,898.368Z" style="fill-rule:nonzero;"/>
    <path d="M415.904,667.2C410.176,667.2 405.216,663.648 403.2,658.208C401.856,654.624 401.952,650.816 403.456,647.456C404.992,644.128 407.872,641.568 411.52,640.128C431.616,632.32 446.464,622.752 458.144,610.208C473.12,594.176 481.6,575.008 483.424,553.28C484.416,541.216 484.448,529.248 484.48,517.184L484.544,505.312C484.704,491.872 488.064,481.056 494.816,472.192C503.296,461.056 516.224,454.72 530.368,454.72C534.528,454.72 538.72,455.296 542.816,456.352C560.704,461.152 574.784,477.088 576.416,494.208C578.016,511.232 578.336,528.608 578.592,546.432C578.592,550.016 577.248,553.504 574.688,556.128C572.128,558.752 568.672,560.256 565.088,560.256C556.768,560 551.2,553.728 551.072,545.056C550.816,531.552 550.336,518.048 549.824,504.544L549.728,501.088C549.376,491.392 542.4,484.096 532.32,482.88C532.224,482.88 532.064,482.848 531.936,482.848C522.016,482.848 515.488,488.16 513.12,496.256C512.512,498.464 512.16,500.928 512.16,503.424C512.064,508.128 512.128,527.68 512.128,527.68C512.8,546.336 510.88,563.36 506.464,578.496C495.776,615.328 472.576,641.92 435.648,660.16C430.944,662.368 426.112,664.416 421.216,666.176C419.424,666.848 417.664,667.2 415.904,667.2Z" style="fill-rule:nonzero;"/>
    <path d="M508.992,709.44C505.952,709.44 503.04,708.32 500.544,706.208C494.24,701.12 493.664,692.704 499.072,685.76C518.56,660.928 532.48,633.024 540.416,602.784C542.336,595.712 547.008,591.52 553.28,591.328C560.224,591.328 565.12,594.944 567.008,600.992C567.328,601.952 567.424,602.912 567.68,604.064L566.784,610.048C566.144,612.672 565.376,615.552 564.64,618.24C555.648,648.992 540.768,677.568 520.512,703.296C517.376,707.296 513.28,709.44 508.992,709.44Z" style="fill-rule:nonzero;"/>
    <path d="M367.616,610.752C361.6,610.752 356.384,606.752 354.624,600.768C352.384,593.248 356.256,585.984 363.808,583.488C367.456,582.24 385.088,576.8 385.088,576.8C387.904,575.904 390.656,574.656 393.376,573.408C404.928,568.096 411.04,558.464 411.648,544.704L411.712,541.376C411.776,538.944 411.808,536.512 412.192,534.208C413.216,527.424 418.848,522.336 425.376,522.336C433.952,523.072 439.232,528.832 439.36,536.48L439.36,539.808C438.848,552.48 436.96,568.64 426.432,581.952C418.976,591.296 408.544,598.144 393.632,603.424C386.336,605.984 378.88,608.128 371.424,610.176C370.08,610.56 368.832,610.752 367.616,610.752Z" style="fill-rule:nonzero;"/>
    <path d="M595.68,696.704C592.736,696.704 589.76,695.616 587.168,693.568C581.984,689.504 580.576,682.4 583.776,675.84C593.12,656.576 600.032,637.952 604.8,618.912C612.608,587.712 615.648,560.352 615.264,524.32C615.072,520.704 614.976,517.12 614.88,513.504C614.656,505.568 614.432,497.312 613.12,489.28C607.232,453.28 586.208,429.44 550.624,418.464C542.848,416.096 534.912,414.88 527.04,414.88C514.368,414.88 501.504,417.984 488.8,424.128C479.328,428.8 470.944,435.04 463.84,442.752C450.24,457.376 442.272,474.336 439.904,493.184C439.008,500.448 433.28,505.888 426.56,505.888C416.384,504.48 411.616,497.632 412.736,488.864C415.68,466.848 424.288,446.976 438.368,429.856L440.928,426.944C452.64,414.464 469.792,401.92 483.648,395.744C493.792,391.52 504.864,388.672 514.72,387.744C518.976,387.296 523.2,387.104 527.36,387.104C552.32,387.104 575.008,394.624 594.784,409.472C625.056,432.224 640.864,463.008 641.664,500.96L641.952,511.872C642.24,522.4 642.528,532.8 642.304,543.2C641.088,595.776 629.792,644.256 608.64,687.456C605.856,693.312 601.024,696.704 595.68,696.704Z" style="fill-rule:nonzero;"/>
    <path d="M687.584,629.312C680.288,629.088 674.784,624.064 674.144,616.832C673.952,614.016 674.496,611.008 675.04,607.872L675.488,605.312C680.16,577.984 682.08,549.152 681.024,519.52L680.896,514.848C680.576,504.288 680.224,493.632 679.04,483.104C675.424,450.976 662.208,422.24 639.84,397.696C615.776,371.36 586.08,355.2 551.68,349.728C542.976,348.352 534.4,347.648 526.08,347.648C490.304,347.648 457.344,360.32 428.16,385.344C421.376,391.168 415.36,397.984 409.536,404.608L406.08,408.512C395.424,422.304 388.352,434.144 383.712,445.824C376.192,466.464 372.832,488.128 373.376,512.192C373.504,518.592 373.44,524.96 373.376,531.424C373.28,539.136 367.392,544.992 359.776,544.992C352.576,544.992 346.688,539.872 346.4,533.344C345.12,505.12 345.344,468.256 358.816,434.08C364.896,419.552 377.088,401.408 382.048,394.368C395.904,376.672 412.8,360.48 428.448,350.144C453.728,333.28 480.864,323.36 509.024,320.704C515.424,320.064 521.696,319.808 527.904,319.808C568.512,319.808 605.728,332.896 638.496,358.752C672.608,385.728 694.624,421.28 704,464.576C707.424,480.416 707.904,496.832 708.256,512.736L708.448,522.816C709.248,555.424 706.976,586.336 701.536,616.704C700.064,624.416 694.816,629.376 687.744,629.376L687.584,629.376L687.584,629.312Z" style="fill-rule:nonzero;"/>
</svg>
