<?xml version="1.0" encoding="UTF-8" standalone="no"?>
<!DOCTYPE svg PUBLIC "-//W3C//DTD SVG 1.1//EN" "http://www.w3.org/Graphics/SVG/1.1/DTD/svg11.dtd">
<svg width="100%" height="100%" viewBox="0 0 26 26" version="1.1" xmlns="http://www.w3.org/2000/svg" xmlns:xlink="http://www.w3.org/1999/xlink" xml:space="preserve" xmlns:serif="http://www.serif.com/" style="fill-rule:evenodd;clip-rule:evenodd;stroke-linejoin:round;stroke-miterlimit:1.41421;">
    <g transform="matrix(0.282353,0,0,0.282353,-271.034,-195.235)">
        <path d="M1003.19,761.845L1003.16,761.845L1003.22,761.845L1003.19,761.845ZM1003.42,761.843L1003.42,761.843L1003.42,761.843L1003.42,761.843ZM1003.64,761.838L1003.62,761.838L1003.67,761.837L1003.64,761.838ZM1003.87,761.831L1003.86,761.831L1003.87,761.831L1003.87,761.831ZM1004.09,761.823L1004.06,761.824L1004.11,761.822L1004.09,761.823ZM1004.3,761.812L1004.3,761.813L1004.3,761.812L1004.3,761.812ZM1004.52,761.8L1004.49,761.801L1004.54,761.799L1004.52,761.8ZM1004.73,761.786L1004.72,761.786L1004.73,761.786L1004.73,761.786ZM1004.93,761.77L1004.91,761.772L1004.96,761.768L1004.93,761.77ZM1005.14,761.752L1005.14,761.752L1005.14,761.752L1005.14,761.752ZM1005.34,761.732L1005.32,761.734L1005.36,761.73L1005.34,761.732ZM1005.54,761.711L1005.54,761.711L1005.54,761.71L1005.54,761.711ZM1005.74,761.687L1005.72,761.689L1005.76,761.684L1005.74,761.687ZM1005.93,761.662L1005.93,761.662L1005.93,761.661L1005.93,761.662ZM1006.12,761.634L1006.11,761.636L1006.14,761.631L1006.12,761.634ZM991.193,741.567C978.742,732.34 983.618,708.729 1010.97,713.021C1009.97,712.921 1008.99,712.871 1008.05,712.871C1005.14,712.871 1003.03,713.38 1001.71,714.398C1000.39,715.416 999.735,716.679 999.735,718.187C999.735,719.808 1000.57,721.26 1002.25,722.542C1003.93,723.823 1008.48,726.161 1015.91,729.554C1019.48,731.16 1022.5,732.824 1024.98,734.548C1024.82,734.435 1024.65,734.323 1024.49,734.21C1033.26,742.956 1025.65,759.839 1006.31,761.605C1007.97,761.336 1009.29,760.841 1010.25,760.121C1011.8,758.972 1012.57,757.492 1012.57,755.682C1012.57,754.551 1012.26,753.561 1011.64,752.713C1011.02,751.865 1010.02,751.007 1008.64,750.14C1007.27,749.273 1003.6,747.501 997.642,744.824C995.22,743.723 993.07,742.637 991.193,741.567ZM989.786,759.872L989.902,759.903L989.859,759.892L989.786,759.872ZM989.383,759.76L989.502,759.793L989.43,759.773L989.383,759.76ZM988.996,759.65L989.03,759.659L989.001,759.651L988.996,759.65ZM988.497,759.504L988.612,759.538L988.573,759.526L988.497,759.504ZM988.094,759.383L988.219,759.42L988.146,759.399L988.094,759.383ZM987.709,759.265L987.777,759.286L987.721,759.268L987.709,759.265ZM987.21,759.108L987.335,759.147L987.296,759.135L987.21,759.108ZM986.809,758.978L986.951,759.024L986.872,758.999L986.809,758.978ZM986.426,758.852L986.541,758.891L986.449,758.86L986.426,758.852ZM985.916,758.68L986.072,758.733L986.028,758.719L985.916,758.68ZM985.523,758.545L985.7,758.606L985.607,758.574L985.523,758.545ZM985.145,758.412L985.326,758.476L985.187,758.427L985.145,758.412ZM1033.8,745.853L1033.8,745.855L1033.79,745.846L1033.8,745.853ZM1033.73,745.64L1033.73,745.642L1033.72,745.626L1033.73,745.64ZM1033.66,745.428L1033.66,745.431L1033.65,745.408L1033.66,745.428ZM1033.59,745.217L1033.59,745.221L1033.58,745.191L1033.59,745.217ZM1033.51,745.008L1033.51,745.012L1033.5,744.976L1033.51,745.008ZM1033.43,744.799L1033.44,744.805L1033.42,744.762L1033.43,744.799ZM1033.36,744.593L1033.36,744.599L1033.34,744.551L1033.36,744.593ZM1033.28,744.388L1033.28,744.394L1033.26,744.341L1033.28,744.388ZM1033.19,744.184L1033.2,744.19L1033.17,744.133L1033.19,744.184ZM1033.11,743.981L1033.11,743.988L1033.09,743.926L1033.11,743.981ZM1033.03,743.78L1033.03,743.787L1033,743.721L1033.03,743.78ZM1032.94,743.58L1032.94,743.587L1032.91,743.518L1032.94,743.58ZM1032.85,743.382L1032.85,743.389L1032.82,743.316L1032.85,743.382ZM1032.76,743.185L1032.76,743.192L1032.72,743.116L1032.76,743.185ZM1032.66,742.989L1032.66,742.996L1032.63,742.917L1032.66,742.989ZM1032.57,742.795L1032.57,742.801L1032.53,742.72L1032.57,742.795ZM1032.47,742.602L1032.47,742.608L1032.43,742.525L1032.47,742.602ZM1032.37,742.411L1032.37,742.417L1032.32,742.331L1032.37,742.411ZM1032.27,742.221L1032.27,742.226L1032.22,742.139L1032.27,742.221ZM1032.16,742.032L1032.16,742.037L1032.11,741.949L1032.16,742.032ZM1032.05,741.845L1032.06,741.849L1032.01,741.76L1032.05,741.845ZM1031.95,741.659L1031.95,741.663L1031.89,741.572L1031.95,741.659ZM990.349,741.076C990.624,741.239 990.905,741.403 991.193,741.567C990.905,741.403 990.624,741.239 990.349,741.076ZM1031.84,741.474L1031.84,741.478L1031.78,741.386L1031.84,741.474ZM1031.72,741.291L1031.73,741.295L1031.67,741.201L1031.72,741.291ZM1031.61,741.109L1031.61,741.112L1031.55,741.018L1031.61,741.109ZM990.152,740.959L990.346,741.074L990.191,740.982L990.152,740.959ZM989.958,740.841L990.119,740.939L990.006,740.871L989.958,740.841ZM1031.49,740.929L1031.5,740.931L1031.43,740.835L1031.49,740.929ZM989.765,740.724L989.911,740.813L989.823,740.76L989.765,740.724ZM1031.38,740.75L1031.38,740.752L1031.31,740.654L1031.38,740.75ZM989.573,740.606L989.712,740.691L989.643,740.649L989.573,740.606ZM1031.26,740.572L1031.26,740.574L1031.19,740.474L1031.26,740.572ZM989.382,740.487L989.518,740.572L989.464,740.538L989.382,740.487ZM989.19,740.366L989.328,740.453L989.287,740.428L989.19,740.366ZM1031.13,740.396L1031.13,740.397L1031.06,740.292L1031.13,740.396ZM988.992,740.24L989.141,740.335L989.113,740.317L988.992,740.24ZM1031.01,740.221L1031.01,740.222L1030.92,740.106L1031.01,740.221ZM988.775,740.1L988.957,740.218C988.833,740.138 988.711,740.059 988.591,739.98L988.775,740.1ZM1030.62,739.697C1030.66,739.757 1030.71,739.816 1030.75,739.875C1030.8,739.933 1030.84,739.99 1030.88,740.048L1030.75,739.875L1030.62,739.697ZM988.415,739.864L988.57,739.966L988.433,739.876L988.415,739.864ZM988.242,739.748L988.364,739.83L988.269,739.766L988.242,739.748ZM988.071,739.632L988.181,739.707L988.106,739.656L988.071,739.632ZM1030.49,739.531L1030.57,739.639L1030.48,739.52L1030.49,739.531ZM987.901,739.516L988.005,739.588L987.945,739.547L987.901,739.516ZM987.733,739.4L987.834,739.47L987.786,739.437L987.733,739.4ZM1030.35,739.36L1030.42,739.45L1030.34,739.343L1030.35,739.36ZM987.566,739.283L987.667,739.354L987.629,739.327L987.566,739.283ZM1030.21,739.189L1030.27,739.268L1030.19,739.166L1030.21,739.189ZM987.4,739.165L987.502,739.238L987.474,739.218L987.4,739.165ZM987.231,739.044L987.34,739.122L987.321,739.109L987.231,739.044ZM1030.07,739.018L1030.13,739.089L1030.04,738.99L1030.07,739.018ZM987.035,738.901L987.18,739.007L987.17,739L987.035,738.901ZM1029.92,738.848L1029.97,738.911L1029.89,738.814L1029.92,738.848ZM986.867,738.776L987.022,738.892C986.97,738.853 986.918,738.815 986.867,738.776ZM986.714,738.662L986.822,738.742L986.729,738.673L986.714,738.662ZM1029.77,738.678L1029.82,738.734L1029.73,738.638L1029.77,738.678ZM986.563,738.547L986.657,738.618L986.585,738.564L986.563,738.547ZM1029.61,738.508L1029.66,738.558L1029.57,738.462L1029.61,738.508ZM986.415,738.432L986.502,738.5L986.444,738.455L986.415,738.432ZM986.268,738.318L986.353,738.384L986.305,738.347L986.268,738.318ZM1029.46,738.338L1029.5,738.383L1029.41,738.287L1029.46,738.338ZM986.123,738.203L986.206,738.269L986.168,738.238L986.123,738.203ZM1029.3,738.169L1029.33,738.207L1029.24,738.111L1029.3,738.169ZM985.98,738.087L986.062,738.154L986.033,738.13L985.98,738.087ZM985.836,737.97L985.921,738.039L985.899,738.022L985.836,737.97ZM1029.13,738.001L1029.16,738.033L1029.07,737.936L1029.13,738.001ZM985.691,737.849L985.782,737.925L985.768,737.914L985.691,737.849ZM1028.97,737.832L1028.99,737.859L1028.89,737.76L1028.97,737.832ZM985.646,737.812C985.6,737.774 985.556,737.736 985.511,737.698L985.646,737.812ZM1028.8,737.664L1028.82,737.685L1028.71,737.583L1028.8,737.664ZM1028.62,737.497L1028.64,737.512L1028.53,737.404L1028.62,737.497ZM1028.45,737.329L1028.46,737.339L1028.32,737.214L1028.45,737.329ZM1028.08,736.994C1028.15,737.051 1028.21,737.109 1028.27,737.167L1028.08,736.994ZM1027.9,736.83L1028.06,736.97L1027.89,736.822L1027.9,736.83ZM1027.71,736.664L1027.83,736.765L1027.69,736.651L1027.71,736.664ZM1027.52,736.498L1027.62,736.584L1027.5,736.479L1027.52,736.498ZM1027.32,736.333L1027.41,736.409L1027.29,736.309L1027.32,736.333ZM1027.13,736.168L1027.21,736.236L1027.09,736.138L1027.13,736.168ZM1026.92,736.003L1027,736.065L1026.88,735.968L1026.92,736.003ZM1026.72,735.839L1026.79,735.894L1026.66,735.797L1026.72,735.839ZM1026.51,735.675L1026.57,735.724L1026.45,735.627L1026.51,735.675ZM1026.3,735.512L1026.35,735.555L1026.23,735.457L1026.3,735.512ZM1026.08,735.349L1026.13,735.386L1026,735.287L1026.08,735.349ZM1025.87,735.186L1025.91,735.217L1025.77,735.116L1025.87,735.186ZM1025.65,735.023L1025.68,735.049L1025.54,734.945L1025.65,735.023ZM1025.42,734.861L1025.45,734.882L1025.29,734.77L1025.42,734.861ZM1025.19,734.699L1025.22,734.715L1025.04,734.588L1025.19,734.699ZM979.411,729.534L979.428,729.574L979.418,729.551L979.411,729.534ZM979.312,729.295L979.328,729.332L979.322,729.319L979.312,729.295ZM979.227,729.08L979.234,729.098L979.228,729.084L979.227,729.08ZM979.13,728.828L979.146,728.871L979.137,728.848L979.13,728.828ZM979.041,728.587L979.053,728.62L979.049,728.61L979.041,728.587ZM978.96,728.36L978.971,728.39L978.963,728.369L978.96,728.36ZM978.872,728.103L978.887,728.148L978.88,728.126L978.872,728.103ZM978.794,727.865L978.801,727.887L978.799,727.881L978.794,727.865ZM978.717,727.621L978.729,727.659L978.721,727.634L978.717,727.621ZM978.638,727.36L978.651,727.404L978.645,727.385L978.638,727.36ZM978.571,727.13L978.573,727.135L978.572,727.134L978.571,727.13ZM978.497,726.863L978.509,726.905L978.502,726.88L978.497,726.863ZM978.428,726.6L978.438,726.64L978.434,726.625L978.428,726.6ZM978.368,726.364L978.371,726.375L978.369,726.367L978.368,726.364ZM978.301,726.087L978.312,726.131L978.306,726.107L978.301,726.087ZM978.241,725.823L978.248,725.855L978.246,725.845L978.241,725.823ZM978.187,725.574L978.191,725.597L978.188,725.581L978.187,725.574ZM978.129,725.293L978.137,725.335L978.133,725.314L978.129,725.293ZM978.078,725.033L978.081,725.05L978.08,725.046L978.078,725.033ZM978.028,724.765L978.034,724.793L978.03,724.775L978.028,724.765ZM977.979,724.481L977.985,724.519L977.983,724.502L977.979,724.481ZM977.894,723.939L977.898,723.968L977.895,723.95L977.894,723.939ZM977.853,723.654L977.857,723.681L977.856,723.671L977.853,723.654ZM977.782,723.095L977.785,723.119L977.784,723.105L977.782,723.095ZM977.751,722.813L977.752,722.823L977.752,722.82L977.751,722.813ZM977.694,722.234L977.696,722.25L977.695,722.242L977.694,722.234ZM1027.73,718.034C1027.85,718.085 1027.96,718.136 1028.07,718.187L1027.73,718.034ZM1027.47,717.914L1027.63,717.986L1027.4,717.883L1027.47,717.914ZM1027.17,717.78L1027.28,717.828L1027.06,717.732L1027.17,717.78ZM1026.87,717.649L1026.94,717.678L1026.71,717.578L1026.87,717.649ZM1026.28,717.389C1026.39,717.437 1026.5,717.484 1026.61,717.532L1026.28,717.389ZM1025.99,717.264L1026.26,717.383L1025.95,717.249L1025.99,717.264ZM1025.69,717.139L1025.84,717.204L1025.62,717.11L1025.69,717.139ZM1025.4,717.016L1025.5,717.059L1025.29,716.971L1025.4,717.016ZM1025.11,716.895L1025.17,716.921L1024.95,716.829L1025.11,716.895ZM1024.53,716.657C1024.63,716.7 1024.74,716.743 1024.85,716.787L1024.53,716.657ZM1024.24,716.542L1024.49,716.644L1024.2,716.528L1024.24,716.542ZM1023.95,716.428L1024.1,716.486L1023.88,716.401L1023.95,716.428ZM1023.67,716.316L1023.76,716.354L1023.56,716.275L1023.67,716.316ZM1023.38,716.206L1023.44,716.229L1023.23,716.145L1023.38,716.206ZM1022.81,715.989C1022.92,716.028 1023.02,716.067 1023.13,716.107L1022.81,715.989ZM1022.53,715.886L1022.76,715.971L1022.5,715.873L1022.53,715.886ZM1022.25,715.782L1022.39,715.832L1022.19,715.758L1022.25,715.782ZM1021.98,715.681L1022.07,715.714L1021.87,715.644L1021.98,715.681ZM1021.7,715.581L1021.75,715.601L1021.54,715.527L1021.7,715.581ZM1021.14,715.386C1021.24,715.421 1021.34,715.456 1021.44,715.491L1021.14,715.386ZM1020.87,715.294L1021.07,715.364L1020.83,715.282L1020.87,715.294ZM1020.59,715.201L1020.72,715.243L1020.53,715.179L1020.59,715.201ZM1020.32,715.111L1020.4,715.138L1020.22,715.078L1020.32,715.111ZM1020.05,715.022L1020.1,715.038L1019.9,714.975L1020.05,715.022ZM1019.5,714.849C1019.6,714.879 1019.7,714.909 1019.8,714.94L1019.5,714.849ZM1019.24,714.766L1019.42,714.821L1019.21,714.756L1019.24,714.766ZM1018.97,714.685L1019.08,714.719L1018.91,714.666L1018.97,714.685ZM1018.71,714.605L1018.78,714.627L1018.61,714.577L1018.71,714.605ZM1018.44,714.527L1018.48,714.539L1018.31,714.488L1018.44,714.527ZM1017.91,714.376C1018,714.401 1018.1,714.428 1018.19,714.454L1017.91,714.376ZM1017.65,714.303L1017.8,714.345L1017.62,714.296L1017.65,714.303ZM1017.39,714.233L1017.49,714.259L1017.33,714.218L1017.39,714.233ZM1017.13,714.164L1017.19,714.181L1017.04,714.142L1017.13,714.164ZM1016.87,714.096L1016.9,714.105L1016.75,714.067L1016.87,714.096ZM1016.61,714.031L1016.62,714.033L1016.37,713.971L1016.61,714.031ZM1016.1,713.905L1016.22,713.934L1016.07,713.9L1016.1,713.905ZM1015.84,713.845L1015.93,713.865L1015.79,713.834L1015.84,713.845ZM1015.59,713.787L1015.64,713.8L1015.52,713.771L1015.59,713.787ZM1015.34,713.731L1015.36,713.737L1015.24,713.71L1015.34,713.731ZM1015.09,713.676L1015.09,713.676L1015.05,713.668L1015.09,713.676ZM1014.59,713.572L1014.67,713.59L1014.57,713.568L1014.59,713.572ZM1014.34,713.523L1014.4,713.536L1014.3,713.515L1014.34,713.523ZM1014.09,713.475L1014.13,713.484L1014.03,713.464L1014.09,713.475ZM1013.84,713.43L1013.86,713.433L1013.77,713.417L1013.84,713.43ZM1013.11,713.303L1013.17,713.313L1013.1,713.301L1013.11,713.303ZM1012.87,713.265L1012.92,713.273L1012.84,713.26L1012.87,713.265ZM1012.63,713.228L1012.66,713.233L1012.58,713.221L1012.63,713.228ZM1012.39,713.193L1012.4,713.195L1012.35,713.188L1012.39,713.193ZM1011.68,713.099L1011.7,713.102L1011.67,713.099L1011.68,713.099ZM1011.44,713.072L1011.47,713.075L1011.42,713.069L1011.44,713.072ZM1011.21,713.046L1011.22,713.048L1011.18,713.043L1011.21,713.046Z" style="fill:url(#_Radial1);"/>
        <path d="M1024.49,734.21C1027.19,736.032 1029.28,737.92 1030.75,739.875C1033.53,743.551 1034.91,748.179 1034.91,753.759C1034.91,758.887 1033.61,763.439 1031.01,767.417C1028.41,771.394 1024.66,774.486 1019.75,776.692C1014.85,778.897 1009.1,780 1002.51,780C997.001,780 992.383,779.614 988.65,778.841C984.917,778.068 981.034,776.72 977,774.797L977,754.89C981.26,757.077 985.69,758.783 990.29,760.008C994.89,761.234 999.112,761.846 1002.96,761.846C1004.2,761.846 1005.32,761.766 1006.31,761.605C1025.65,759.839 1033.26,742.956 1024.49,734.21Z" style="fill:rgb(26,26,26);"/>
        <path d="M991.193,741.567C988.89,740.254 986.996,738.965 985.511,737.698C982.816,735.398 980.817,732.759 979.517,729.78C978.216,726.802 977.566,723.277 977.566,719.205C977.566,711.589 980.337,705.651 985.879,701.391C991.421,697.13 999.037,695 1008.73,695C1017.28,695 1026.01,696.979 1034.91,700.938L1028.07,718.187C1021.64,715.239 1015.94,713.517 1010.97,713.021C983.618,708.729 978.742,732.341 991.193,741.567Z" style="fill:rgb(26,26,26);"/>
    </g>
    <defs>
        <radialGradient id="_Radial1" cx="0" cy="0" r="1" gradientUnits="userSpaceOnUse" gradientTransform="matrix(28.0506,0,0,28.0506,1005.74,737.175)"><stop offset="0" style="stop-color:rgb(199,199,199);stop-opacity:1"/><stop offset="0.55" style="stop-color:rgb(211,211,211);stop-opacity:1"/><stop offset="1" style="stop-color:white;stop-opacity:1"/></radialGradient>
    </defs>
</svg>
