<?xml version="1.0" encoding="UTF-8"?>
<svg width="100px" height="100px" viewBox="0 0 100 100" version="1.1" xmlns="http://www.w3.org/2000/svg" xmlns:xlink="http://www.w3.org/1999/xlink">
    <title>stigblack</title>
    <g id="stigblack" stroke="none" stroke-width="1" fill="none" fill-rule="evenodd">
        <rect id="Rectangle" fill="#000000" x="-12" y="-14" width="146" height="136"></rect>
        <path d="M21.545,59.63 C22.525,59.63 23.4991667,59.4666667 24.4675,59.14 C25.4358333,58.8133333 26.3108333,58.3466667 27.0925,57.74 C27.8741667,57.1333333 28.5041667,56.3808333 28.9825,55.4825 C29.4608333,54.5841667 29.7,53.575 29.7,52.455 C29.7,50.9616667 29.385,49.7833333 28.755,48.92 C28.125,48.0566667 27.3433333,47.3625 26.41,46.8375 C25.4766667,46.3125 24.4558333,45.8925 23.3475,45.5775 C22.2391667,45.2625 21.2183333,44.9066667 20.285,44.51 C19.3516667,44.1133333 18.57,43.6058333 17.94,42.9875 C17.31,42.3691667 16.995,41.5 16.995,40.38 C16.995,39.61 17.1466667,38.9391667 17.45,38.3675 C17.7533333,37.7958333 18.1558333,37.3291667 18.6575,36.9675 C19.1591667,36.6058333 19.725,36.3375 20.355,36.1625 C20.985,35.9875 21.6266667,35.9 22.28,35.9 C24.38,35.9 25.9783333,36.705 27.075,38.315 L27.075,38.315 L29.28,36.6 C28.3,35.48 27.2383333,34.6983333 26.095,34.255 C24.9516667,33.8116667 23.68,33.59 22.28,33.59 C21.2766667,33.59 20.2966667,33.73 19.34,34.01 C18.3833333,34.29 17.5258333,34.7216667 16.7675,35.305 C16.0091667,35.8883333 15.4025,36.6233333 14.9475,37.51 C14.4925,38.3966667 14.265,39.435 14.265,40.625 C14.265,41.7683333 14.4458333,42.7191667 14.8075,43.4775 C15.1691667,44.2358333 15.6475,44.8658333 16.2425,45.3675 C16.8375,45.8691667 17.5141667,46.2833333 18.2725,46.61 C19.0308333,46.9366667 19.8125,47.2283333 20.6175,47.485 C21.4225,47.7416667 22.2041667,47.9983333 22.9625,48.255 C23.7208333,48.5116667 24.3975,48.8325 24.9925,49.2175 C25.5875,49.6025 26.0658333,50.0808333 26.4275,50.6525 C26.7891667,51.2241667 26.97,51.9416667 26.97,52.805 C26.97,53.5283333 26.8066667,54.17 26.48,54.73 C26.1533333,55.29 25.7391667,55.7625 25.2375,56.1475 C24.7358333,56.5325 24.17,56.8241667 23.54,57.0225 C22.91,57.2208333 22.28,57.32 21.65,57.32 C20.3433333,57.32 19.2116667,57.0458333 18.255,56.4975 C17.2983333,55.9491667 16.5516667,55.22 16.015,54.31 L16.015,54.31 L13.74,55.955 C14.6966667,57.2616667 15.8575,58.2008333 17.2225,58.7725 C18.5875,59.3441667 20.0283333,59.63 21.545,59.63 Z M42.755,59 L42.755,36.53 L51.05,36.53 L51.05,34.22 L31.94,34.22 L31.94,36.53 L40.235,36.53 L40.235,59 L42.755,59 Z M57.42,59 L57.42,34.22 L54.9,34.22 L54.9,59 L57.42,59 Z M75.375,59.63 C76.8916667,59.63 78.4841667,59.4141667 80.1525,58.9825 C81.8208333,58.5508333 83.355,57.9266667 84.755,57.11 L84.755,57.11 L84.755,44.965 L76.32,44.965 L76.32,47.275 L82.235,47.275 L82.235,55.57 C81.3016667,56.1066667 80.2458333,56.5325 79.0675,56.8475 C77.8891667,57.1625 76.6583333,57.32 75.375,57.32 C73.7883333,57.32 72.365,57.0283333 71.105,56.445 C69.845,55.8616667 68.7775,55.08 67.9025,54.1 C67.0275,53.12 66.3566667,51.9825 65.89,50.6875 C65.4233333,49.3925 65.19,48.0333333 65.19,46.61 C65.19,45.1866667 65.4233333,43.8275 65.89,42.5325 C66.3566667,41.2375 67.0275,40.1 67.9025,39.12 C68.7775,38.14 69.845,37.3583333 71.105,36.775 C72.365,36.1916667 73.7883333,35.9 75.375,35.9 C76.915,35.9 78.2683333,36.1566667 79.435,36.67 C80.6016667,37.1833333 81.605,37.8833333 82.445,38.77 L82.445,38.77 L84.335,36.915 C83.215,35.795 81.9375,34.9608333 80.5025,34.4125 C79.0675,33.8641667 77.3583333,33.59 75.375,33.59 C73.5316667,33.59 71.8225,33.9166667 70.2475,34.57 C68.6725,35.2233333 67.3075,36.1275 66.1525,37.2825 C64.9975,38.4375 64.0933333,39.8083333 63.44,41.395 C62.7866667,42.9816667 62.46,44.72 62.46,46.61 C62.46,48.5 62.7866667,50.2383333 63.44,51.825 C64.0933333,53.4116667 64.9975,54.7825 66.1525,55.9375 C67.3075,57.0925 68.6725,57.9966667 70.2475,58.65 C71.8225,59.3033333 73.5316667,59.63 75.375,59.63 Z" id="STIG" fill="#FFFFFF" fill-rule="nonzero"></path>
        <rect id="Rectangle" fill="#FFFFFF" x="68" y="45" width="15" height="2.3"></rect>
        <path d="M75,50 L75.3,50 C75.8522847,50 76.3,50.4477153 76.3,51 L76.3,54 L76.3,54 L74,54 L74,51 C74,50.4477153 74.4477153,50 75,50 Z" id="Rectangle" fill="#FFFFFF"></path>
    </g>
</svg>