<?xml version="1.0" encoding="UTF-8" standalone="no"?>
<!DOCTYPE svg PUBLIC "-//W3C//DTD SVG 1.1//EN" "http://www.w3.org/Graphics/SVG/1.1/DTD/svg11.dtd">
<svg width="100%" height="100%" viewBox="0 0 17 25" version="1.1" xmlns="http://www.w3.org/2000/svg" xmlns:xlink="http://www.w3.org/1999/xlink" xml:space="preserve" xmlns:serif="http://www.serif.com/" style="fill-rule:evenodd;clip-rule:evenodd;stroke-linejoin:round;stroke-miterlimit:1.41421;">
    <g transform="matrix(0.190713,0,0,0.190713,-88.7623,-73.3512)">
        <path d="M512.207,473.754L507.781,473.754C506.849,473.754 506.046,473.129 505.803,472.236L505.37,470.59C503.979,470.373 502.92,469.187 502.92,467.733L502.92,465.921C502.92,464.952 503.698,464.173 504.668,464.173L515.32,464.173C516.29,464.186 517.068,464.964 517.068,465.934L517.068,467.745C517.068,469.187 516.009,470.386 514.631,470.59L514.185,472.236C513.942,473.129 513.139,473.754 512.207,473.754Z" style="fill:url(#_Linear1);"/>
    </g>
    <g transform="matrix(0.35999,0,0,0.35999,-6.79949,-94.5971)">
        <path d="M41.323,303.694L39.986,303.694C39.331,303.694 38.763,303.221 38.668,302.573C38.432,301.065 37.736,299.633 36.668,298.531C35.289,297.098 34.431,295.152 34.41,293.009C34.369,289.057 37.126,285.766 40.846,285L36.834,289.012C36.533,288.885 36.171,288.943 35.927,289.188C35.604,289.511 35.604,290.035 35.927,290.358C36.249,290.68 36.774,290.68 37.096,290.358C37.341,290.113 37.399,289.752 37.272,289.45L41.58,285.143L42.092,285.654L40.219,287.528C40.16,287.586 40.128,287.665 40.128,287.747L40.128,288.634C40.009,288.673 39.897,288.739 39.803,288.833C39.48,289.155 39.481,289.68 39.803,290.002C40.126,290.325 40.65,290.325 40.973,290.002C41.295,289.68 41.295,289.155 40.973,288.833C40.905,288.766 40.829,288.714 40.748,288.674L40.748,287.876L42.531,286.093L44.313,287.875L44.313,288.674C44.232,288.713 44.156,288.766 44.089,288.833C43.766,289.156 43.766,289.68 44.089,290.003C44.411,290.325 44.936,290.325 45.258,290.003C45.581,289.68 45.581,289.155 45.258,288.833C45.164,288.739 45.052,288.673 44.933,288.634L44.933,287.747C44.933,287.665 44.901,287.586 44.843,287.528L42.969,285.654L43.481,285.143L47.789,289.45C47.662,289.752 47.72,290.113 47.965,290.358C48.288,290.68 48.812,290.68 49.135,290.358C49.457,290.035 49.457,289.511 49.135,289.188C48.89,288.943 48.528,288.885 48.227,289.012L44.231,285.016C47.868,285.806 50.59,289.046 50.59,292.921C50.59,295.104 49.725,297.085 48.319,298.538C47.251,299.646 46.562,301.059 46.332,302.566C46.231,303.215 45.67,303.694 45.008,303.694L43.783,303.694L43.503,303.415L42.991,302.903L44.864,301.029C44.923,300.971 44.955,300.893 44.955,300.81L44.955,299.924C45.074,299.884 45.186,299.819 45.28,299.724C45.603,299.402 45.602,298.877 45.28,298.555C44.958,298.232 44.433,298.232 44.111,298.555C43.788,298.877 43.788,299.402 44.111,299.724C44.178,299.791 44.254,299.844 44.335,299.883L44.335,300.682L42.552,302.464L40.77,300.682L40.77,299.883C40.851,299.844 40.927,299.791 40.994,299.724C41.317,299.402 41.317,298.877 40.994,298.555C40.672,298.232 40.147,298.232 39.825,298.555C39.503,298.877 39.502,299.402 39.825,299.724C39.919,299.818 40.031,299.884 40.15,299.924L40.15,300.81C40.15,300.893 40.182,300.971 40.241,301.03L42.114,302.903L41.602,303.415L41.323,303.694ZM40.264,299.286C40.183,299.205 40.183,299.074 40.264,298.993C40.344,298.913 40.475,298.913 40.556,298.993C40.637,299.074 40.637,299.205 40.556,299.286C40.475,299.366 40.344,299.366 40.264,299.286ZM44.549,298.993C44.63,298.913 44.761,298.913 44.842,298.993C44.922,299.074 44.922,299.205 44.842,299.286C44.761,299.366 44.63,299.366 44.549,299.286C44.469,299.205 44.469,299.074 44.549,298.993ZM36.365,289.919C36.284,289.839 36.284,289.707 36.365,289.627C36.446,289.546 36.577,289.546 36.658,289.627C36.738,289.707 36.738,289.839 36.658,289.919C36.577,290 36.446,290 36.365,289.919ZM48.696,289.627C48.777,289.707 48.777,289.839 48.696,289.919C48.615,290 48.484,290 48.403,289.919C48.323,289.839 48.323,289.707 48.403,289.627C48.484,289.546 48.615,289.546 48.696,289.627ZM44.82,289.272C44.9,289.352 44.9,289.483 44.82,289.564C44.739,289.645 44.608,289.645 44.527,289.564C44.447,289.483 44.447,289.352 44.527,289.272C44.608,289.191 44.739,289.191 44.82,289.272ZM40.534,289.564C40.453,289.645 40.322,289.645 40.241,289.564C40.161,289.483 40.161,289.352 40.241,289.272C40.322,289.191 40.453,289.191 40.534,289.272C40.614,289.352 40.614,289.483 40.534,289.564Z" style="fill:url(#_Linear2);"/>
    </g>
    <defs>
        <linearGradient id="_Linear1" x1="0" y1="0" x2="1" y2="0" gradientUnits="userSpaceOnUse" gradientTransform="matrix(16.9884,1.8876,-1.8876,16.9884,502.28,468.092)"><stop offset="0" style="stop-color:rgb(179,179,179);stop-opacity:1"/><stop offset="0.19" style="stop-color:rgb(145,145,145);stop-opacity:1"/><stop offset="1" style="stop-color:rgb(152,152,152);stop-opacity:1"/></linearGradient>
        <linearGradient id="_Linear2" x1="0" y1="0" x2="1" y2="0" gradientUnits="userSpaceOnUse" gradientTransform="matrix(-16.4946,18.6944,-18.6944,-16.4946,50.9046,285)"><stop offset="0" style="stop-color:rgb(53,185,224);stop-opacity:1"/><stop offset="0.46" style="stop-color:rgb(94,134,233);stop-opacity:1"/><stop offset="1" style="stop-color:rgb(201,4,255);stop-opacity:1"/></linearGradient>
    </defs>
</svg>
