<?xml version="1.0" encoding="UTF-8"?>
<svg width="26px" height="26px" viewBox="0 0 26 26" version="1.1" xmlns="http://www.w3.org/2000/svg" xmlns:xlink="http://www.w3.org/1999/xlink">
    <!-- Generator: Sketch 51.3 (57544) - http://www.bohemiancoding.com/sketch -->
    <title>Technologies</title>
    <desc>Created with Sketch.</desc>
    <defs>
        <linearGradient x1="0%" y1="0%" x2="99.9978796%" y2="99.9964513%" id="linearGradient-1">
            <stop stop-color="#B3B3B3" offset="0%"></stop>
            <stop stop-color="#919191" offset="54%"></stop>
            <stop stop-color="#151515" offset="100%"></stop>
        </linearGradient>
        <linearGradient x1="101.944322%" y1="0%" x2="0.00278925481%" y2="100.00214%" id="linearGradient-2">
            <stop stop-color="#00BAFF" offset="0%"></stop>
            <stop stop-color="#FF00AB" offset="100%"></stop>
        </linearGradient>
    </defs>
    <g id="Technologies" stroke="none" stroke-width="1" fill="none" fill-rule="evenodd">
        <g transform="translate(4.000000, 0.000000)" id="Group">
            <g transform="translate(4.851544, 19.832208)" fill="url(#linearGradient-1)">
                <path d="M5.4073828,5.16739609 L3.06261193,5.16739609 C2.56886443,5.16739609 2.14345751,4.83628859 2.01472292,4.36320219 L1.78533164,3.49119748 C1.04841879,3.37623696 0.48739024,2.74792736 0.48739024,1.97763888 L0.48739024,1.01769201 C0.48739024,0.504342944 0.899552856,0.091650556 1.4134317,0.091650556 L7.05656304,0.091650556 C7.57044188,0.098537592 7.9826045,0.510700208 7.9826045,1.02457905 L7.9826045,1.98399614 C7.9826045,2.74792736 7.42157595,3.38312399 6.69155013,3.49119748 L6.45527182,4.36320219 C6.32653722,4.83628859 5.90113031,5.16739609 5.4073828,5.16739609 Z" id="Shape"></path>
            </g>
            <g transform="translate(0.590100, 0.000000)" fill="url(#linearGradient-2)">
                <path d="M7.323,18.694 L5.986,18.694 C5.331,18.694 4.763,18.221 4.668,17.573 C4.432,16.065 3.736,14.633 2.668,13.531 C1.289,12.098 0.431,10.152 0.41,8.009 C0.369,4.057 3.126,0.766 6.846,0 L2.834,4.012 C2.533,3.885 2.171,3.943 1.927,4.188 C1.604,4.511 1.604,5.035 1.927,5.358 C2.249,5.68 2.774,5.68 3.096,5.358 C3.341,5.113 3.399,4.752 3.272,4.45 L7.58,0.143 L8.092,0.654 L6.219,2.528 C6.16,2.586 6.128,2.665 6.128,2.747 L6.128,3.634 C6.009,3.673 5.897,3.739 5.803,3.833 C5.48,4.155 5.481,4.68 5.803,5.002 C6.126,5.325 6.65,5.325 6.973,5.002 C7.295,4.68 7.295,4.155 6.973,3.833 C6.905,3.766 6.829,3.714 6.748,3.674 L6.748,2.876 L8.531,1.093 L10.313,2.875 L10.313,3.674 C10.232,3.713 10.156,3.766 10.089,3.833 C9.766,4.156 9.766,4.68 10.089,5.003 C10.411,5.325 10.936,5.325 11.258,5.003 C11.581,4.68 11.581,4.155 11.258,3.833 C11.164,3.739 11.052,3.673 10.933,3.634 L10.933,2.747 C10.933,2.665 10.901,2.586 10.843,2.528 L8.969,0.654 L9.481,0.143 L13.789,4.45 C13.662,4.752 13.72,5.113 13.965,5.358 C14.288,5.68 14.812,5.68 15.135,5.358 C15.457,5.035 15.457,4.511 15.135,4.188 C14.89,3.943 14.528,3.885 14.227,4.012 L10.231,0.016 C13.868,0.806 16.59,4.046 16.59,7.921 C16.59,10.104 15.725,12.085 14.319,13.538 C13.251,14.646 12.562,16.059 12.332,17.566 C12.231,18.215 11.67,18.694 11.008,18.694 L9.783,18.694 L9.503,18.415 L8.991,17.903 L10.864,16.029 C10.923,15.971 10.955,15.893 10.955,15.81 L10.955,14.924 C11.074,14.884 11.186,14.819 11.28,14.724 C11.603,14.402 11.602,13.877 11.28,13.555 C10.958,13.232 10.433,13.232 10.111,13.555 C9.788,13.877 9.788,14.402 10.111,14.724 C10.178,14.791 10.254,14.844 10.335,14.883 L10.335,15.682 L8.552,17.464 L6.77,15.682 L6.77,14.883 C6.851,14.844 6.927,14.791 6.994,14.724 C7.317,14.402 7.317,13.877 6.994,13.555 C6.672,13.232 6.147,13.232 5.825,13.555 C5.503,13.877 5.502,14.402 5.825,14.724 C5.919,14.818 6.031,14.884 6.15,14.924 L6.15,15.81 C6.15,15.893 6.182,15.971 6.241,16.03 L8.114,17.903 L7.602,18.415 L7.323,18.694 Z M6.264,14.286 C6.183,14.205 6.183,14.074 6.264,13.993 C6.344,13.913 6.475,13.913 6.556,13.993 C6.637,14.074 6.637,14.205 6.556,14.286 C6.475,14.366 6.344,14.366 6.264,14.286 Z M10.549,13.993 C10.63,13.913 10.761,13.913 10.842,13.993 C10.922,14.074 10.922,14.205 10.842,14.286 C10.761,14.366 10.63,14.366 10.549,14.286 C10.469,14.205 10.469,14.074 10.549,13.993 Z M2.365,4.919 C2.284,4.839 2.284,4.707 2.365,4.627 C2.446,4.546 2.577,4.546 2.658,4.627 C2.738,4.707 2.738,4.839 2.658,4.919 C2.577,5 2.446,5 2.365,4.919 Z M14.696,4.627 C14.777,4.707 14.777,4.839 14.696,4.919 C14.615,5 14.484,5 14.403,4.919 C14.323,4.839 14.323,4.707 14.403,4.627 C14.484,4.546 14.615,4.546 14.696,4.627 Z M10.82,4.272 C10.9,4.352 10.9,4.483 10.82,4.564 C10.739,4.645 10.608,4.645 10.527,4.564 C10.447,4.483 10.447,4.352 10.527,4.272 C10.608,4.191 10.739,4.191 10.82,4.272 Z M6.534,4.564 C6.453,4.645 6.322,4.645 6.241,4.564 C6.161,4.483 6.161,4.352 6.241,4.272 C6.322,4.191 6.453,4.191 6.534,4.272 C6.614,4.352 6.614,4.483 6.534,4.564 Z" id="Shape"></path>
            </g>
        </g>
    </g>
</svg>
