<?xml version="1.0" encoding="UTF-8"?>
<svg width="100px" height="134px" viewBox="0 0 100 134" version="1.1" xmlns="http://www.w3.org/2000/svg" xmlns:xlink="http://www.w3.org/1999/xlink">
    <title>Artboard</title>
    <g id="Artboard" stroke="none" stroke-width="1" fill="none" fill-rule="evenodd">
        <g id="weightred" fill="#DB0303" fill-rule="nonzero">
            <path d="M38.7492497,34.8109653 L35.1526323,26.4432503 C35.1023718,25.7312706 35.159924,24.4247591 35.8219037,23.6398627 C36.6515918,22.6565285 38.4739891,22.4497575 39.8562819,22.4497575 L59.9966626,22.4497575 C61.3789554,22.4497575 63.2010922,22.6562681 64.0307804,23.6396022 C64.6930205,24.4244987 64.7508331,25.7310102 64.7003122,26.4429899 L61.0977051,34.8242466 C57.4935356,33.9956001 53.7417097,33.5567977 49.8896232,33.5567977 C46.0614952,33.5570581 42.3315443,33.9903918 38.7492497,34.8109653 Z M82.4675139,45.6906616 C82.4669931,45.6904011 82.4664722,45.6896199 82.4659514,45.6893595 L91.8341881,23.8937691 L91.9183027,23.4724146 C91.9956465,23.0838726 93.7492937,13.8770944 88.0904351,6.97969308 C84.290432,2.34843938 78.3112606,0 70.3185458,0 L50.8253011,0 L49.027383,0 L29.5343986,0 C21.5411631,0 15.562252,2.34843938 11.7625094,6.97969308 C6.10365072,13.8773549 7.85729795,23.0841331 7.93464176,23.4724146 L8.01875641,23.8937691 L17.3666806,45.6432657 C17.3664201,45.6437865 17.3661597,45.6440469 17.3658993,45.6443073 C6.74010956,54.8003043 0,68.349013 0,83.4438168 C0,110.952953 22.3799658,133.33344 49.8893628,133.33344 C77.3984994,133.33344 99.7789861,110.952953 99.7789861,83.4438168 C99.7789861,68.3763568 93.0630953,54.8466585 82.4675139,45.6906616 Z" id="Shape"></path>
        </g>
    </g>
</svg>