<?xml version="1.0" encoding="UTF-8" standalone="no"?>
<!DOCTYPE svg PUBLIC "-//W3C//DTD SVG 1.1//EN" "http://www.w3.org/Graphics/SVG/1.1/DTD/svg11.dtd">
<svg width="100%" height="100%" viewBox="0 0 1600 2134" version="1.1" xmlns="http://www.w3.org/2000/svg" xmlns:xlink="http://www.w3.org/1999/xlink" xml:space="preserve" xmlns:serif="http://www.serif.com/" style="fill-rule:evenodd;clip-rule:evenodd;stroke-linejoin:round;stroke-miterlimit:1.41421;">
    <g transform="matrix(4.16667,0,0,4.16667,0,0)">
        <path d="M148.797,133.674L134.986,101.542C134.793,98.808 135.014,93.791 137.556,90.777C140.742,87.001 147.74,86.207 153.048,86.207L230.387,86.207C235.695,86.207 242.692,87 245.878,90.776C248.421,93.79 248.643,98.807 248.449,101.541L234.615,133.725C220.775,130.543 206.368,128.858 191.576,128.858C176.876,128.859 162.553,130.523 148.797,133.674ZM316.675,175.452C316.673,175.451 316.671,175.448 316.669,175.447L352.643,91.752L352.966,90.134C353.263,88.642 359.997,53.288 338.267,26.802C323.675,9.018 300.715,0 270.023,0L195.169,0L188.265,0L113.412,0C82.718,0 59.759,9.018 45.168,26.802C23.438,53.289 30.172,88.643 30.469,90.134L30.792,91.752L66.688,175.27C66.687,175.272 66.686,175.273 66.685,175.274C25.882,210.433 0,262.46 0,320.424C-0.001,426.059 85.939,512 191.575,512C297.21,512 383.151,426.059 383.151,320.424C383.151,262.565 357.362,210.611 316.675,175.452Z" style="fill:rgb(3,4,4);fill-rule:nonzero;"/>
    </g>
</svg>
