<?xml version="1.0" encoding="UTF-8"?>
<svg width="1085px" height="388px" viewBox="0 0 1085 388" version="1.1" xmlns="http://www.w3.org/2000/svg" xmlns:xlink="http://www.w3.org/1999/xlink">
    <!-- Generator: Sketch 49.3 (51167) - http://www.bohemiancoding.com/sketch -->
    <title>cisq</title>
    <desc>Created with Sketch.</desc>
    <defs></defs>
    <g id="cisq" stroke="none" stroke-width="1" fill="none" fill-rule="evenodd">
        <g id="Group" fill="#000000">
            <path d="M294,103 L240,103 L240,81 C240,65.536027 227.463973,53 212,53 L88,53 C72.536027,53 60,65.536027 60,81 L60,261 C60,276.463973 72.536027,289 88,289 L212,289 C227.463973,289 240,276.463973 240,261 L240,235 L294,235 L294,255 C294,303.048773 255.048773,342 207,342 L87,342 C38.9512268,342 5.88427763e-15,303.048773 0,255 L0,87 C-5.88427763e-15,38.9512268 38.9512268,8.82641645e-15 87,0 L207,0 C255.048773,-8.82641645e-15 294,38.9512268 294,87 L294,103 Z" id="Combined-Shape"></path>
            <rect id="Rectangle-Copy-3" x="339" y="0" width="60" height="342"></rect>
            <path d="M448,234 L509,234 L509,261 C509,274.254834 519.745166,285 533,285 L655,285 C668.254834,285 679,274.254834 679,261 L679,219 C679,205.745166 668.254834,195 655,195 L535,195 L535,159 L484.708636,159 C498.908626,148.923481 516.262562,143 535,143 L655,143 C703.048773,143 742,181.951227 742,230 L742,255 C742,303.048773 703.048773,342 655,342 L535,342 C486.951227,342 448,303.048773 448,255 L448,234 Z" id="Rectangle-Copy"></path>
            <path d="M741.949245,111 L679,111 L679,77 C679,63.745166 668.254834,53 655,53 L533,53 C519.745166,53 509,63.745166 509,77 L509,119 C509,132.254834 519.745166,143 533,143 L654,143 L654,186 L693.579299,186 C681.953083,191.761427 668.854746,195 655,195 L535,195 C486.951227,195 448,156.048773 448,108 L448,87 C448,38.9512268 486.951227,8.82641645e-15 535,0 L655,0 C703.048773,-8.82641645e-15 742,38.9512268 742,87 L742,108 C742,109.004069 741.982991,110.004166 741.949245,111.000017 Z" id="Rectangle-Copy-8"></path>
            <path d="M907,289 L907,242 L967,242 L967,289 L1000,289 C1015.46397,289 1028,276.463973 1028,261 L1028,81 C1028,65.536027 1015.46397,53 1000,53 L876,53 C860.536027,53 848,65.536027 848,81 L848,261 C848,276.463973 860.536027,289 876,289 L907,289 Z M967,342 L967,388 L907,388 L907,342 L878,342 C829.951227,342 791,303.048773 791,255 L791,87 C791,38.9512268 829.951227,8.82641645e-15 878,0 L998,0 C1046.04877,-8.82641645e-15 1085,38.9512268 1085,87 L1085,255 C1085,303.048773 1046.04877,342 998,342 L967,342 Z" id="Combined-Shape"></path>
        </g>
    </g>
</svg>