<?xml version="1.0" encoding="UTF-8"?>
<svg width="89px" height="33px" viewBox="0 0 89 33" version="1.1" xmlns="http://www.w3.org/2000/svg" xmlns:xlink="http://www.w3.org/1999/xlink">
    <!-- Generator: Sketch 49.3 (51167) - http://www.bohemiancoding.com/sketch -->
    <title>cwe</title>
    <desc>Created with Sketch.</desc>
    <defs></defs>
    <g id="cwe" stroke="none" stroke-width="1" fill="none" fill-rule="evenodd">
        <path d="M15,0.5 L15,6 C9.4771525,6 5,10.2532949 5,15.5 C5,20.7467051 9.4771525,25 15,25 L15,30.5 C6.71572875,30.5 0,23.7842712 0,15.5 C0,7.21572875 6.71572875,0.5 15,0.5 Z" id="Combined-Shape" fill="#000000"></path>
        <path d="M18,0.5 L19.8032787,6 L15,6 L15,0.5 L18,0.5 Z M26.0327869,25 L27.8360656,30.5 L15,30.5 L15,25 L26.0327869,25 Z" id="Combined-Shape" fill="#000000"></path>
        <path d="M82.2736821,12.8000011 L80.0473669,17.5 L70,17.5 L69.5,17.5 L65.5,25.8000011 L77.123809,25.8000011 L74.9603175,30.5 L57.4603175,30.5 L71.2698413,0.5 L88.7698413,0.5 L86.468254,5.5 L76,5.5 L75,5.5 L71.5,12.8000011 L82.2736821,12.8000011 Z" id="Combined-Shape-Copy" fill="#000000"></path>
        <g id="Group" transform="translate(20.000000, 0.000000)" stroke="#000000" stroke-width="0.5">
            <path d="M22.1215726,0.5 C22.7119148,2.68026915 25.3380573,11.0136025 30,25.5 L41.2745098,0.5 L48,0.5 L48,1.0862069 L34.4603175,30.5 L25.4823027,30.5 L23,22 L19.5,30.5 L11.0909091,30.5 L0.181818182,0.5 L7.12661052,0.5 C7.74705347,2.68026915 10.5381833,11.0136025 15.5,25.5 L20,15 L14.8823529,0.5 L22.1215726,0.5 Z" id="Combined-Shape"></path>
        </g>
    </g>
</svg>