<?xml version="1.0" encoding="UTF-8"?>
<svg width="32px" height="32px" viewBox="0 0 32 32" version="1.1" xmlns="http://www.w3.org/2000/svg" xmlns:xlink="http://www.w3.org/1999/xlink">
    <!-- Generator: Sketch 49.1 (51147) - http://www.bohemiancoding.com/sketch -->
    <title>documentation</title>
    <desc>Created with Sketch.</desc>
    <defs></defs>
    <g id="documentation" stroke="none" stroke-width="1" fill="none" fill-rule="evenodd">
        <g id="Group">
            <path d="M15.9739362,0.5 C7.4278919,0.5 0.5,7.42783633 0.5,15.9738435 C0.5,24.5198506 7.4278919,31.447687 15.9739362,31.447687 C24.519962,31.447687 31.4477797,24.5198692 31.4477797,15.9738435 C31.4477797,7.42785022 24.5199017,0.5 15.9739362,0.5 Z" id="Path" stroke="#000000"></path>
            <path d="M8.04350145,21.8638841 L8.04350145,9.06388406 L16.1130667,11.8464928 L22.420313,6.65228986 L22.420313,9.6716058 L24.1826319,9.06388406 L24.1826319,21.8638841 L16.1130667,24.6464928 L8.04350145,21.8638841 Z M23.0695884,10.5478493 L16.1130667,13.0521971 L16.1130667,23.5333565 L23.0695884,21.1217623 L23.0695884,10.5478493 Z" id="Combined-Shape" fill="#000000"></path>
            <polygon id="Path" fill="#000000" points="21.3072696 9.0637913 18.9634783 10.8634899 21.3072696 10.0552348"></polygon>
        </g>
    </g>
</svg>