<?xml version="1.0" encoding="UTF-8"?>
<svg width="32px" height="32px" viewBox="0 0 32 32" version="1.1" xmlns="http://www.w3.org/2000/svg" xmlns:xlink="http://www.w3.org/1999/xlink">
    <!-- Generator: Sketch 49.1 (51147) - http://www.bohemiancoding.com/sketch -->
    <title>efficiency</title>
    <desc>Created with Sketch.</desc>
    <defs></defs>
    <g id="efficiency" stroke="none" stroke-width="1" fill="none" fill-rule="evenodd">
        <g id="Group">
            <path d="M22.7230865,2.03059126 C22.853065,2.09327489 22.982236,2.1578117 23.1105678,2.22418827 L22.9867206,1.42652332 L22.5655894,1.84765446 C20.5265864,0.899985161 18.2981879,0.401523288 16.0000877,0.401523288 C7.38516783,0.401523288 0.401435616,7.38519948 0.401435616,16.0000877 C0.401435616,24.614918 7.38519766,31.5986521 16.0000877,31.5986521 C24.6149917,31.5986521 31.5986521,24.6149917 31.5986521,16.0000877 C31.5986521,13.6706687 31.0865122,11.4131032 30.1138589,9.35208623 L30.5317452,8.93419997 L29.7353782,8.81284497 C29.8015324,8.93900437 29.8659027,9.06598511 29.9284761,9.19375675 L29.8620246,9.60392051 L30.0398632,9.42608193 C30.9961385,11.46401 31.5,13.6955946 31.5,16.0000877 C31.5,24.5604297 24.5604034,31.5 16,31.5 C7.43958347,31.5 0.5,24.5604165 0.5,16 C0.5,7.43958347 7.43958347,0.5 16,0.5 C18.2735668,0.5 20.4761714,0.990133571 22.49183,1.92141393 L22.3153343,2.09790962 L22.7230865,2.03059126 Z" id="Path" stroke="#000000"></path>
            <polygon id="Path" fill="#000000" points="21.7829699 5.59666849 23.7851178 7.59487123 13.7909479 17.5744 15.2162192 18.9968658 25.210389 9.01742466 25.7873534 9.59307397 20.1749041 15.1995616 19.1865863 24.1101151 15.2165699 20.1480767 15.2162192 20.1483397 11.2118356 16.1519342 11.2121863 16.1515836 7.27609863 12.2233863 16.1281753 11.245326"></polygon>
            <polygon id="Path" fill="#000000" points="8.97209863 12.7651068 11.7888 15.5761973 15.3180932 12.0539178"></polygon>
            <polygon id="Path" fill="#000000" points="25.7872658 9.59228493 25.2106521 9.01681096 26.2964603 5.0886137 23.7855562 7.59452055 21.7837589 5.59675616 27.1784329 4.20839452"></polygon>
            <polygon id="Path" fill="#000000" points="7.24620274 24.9606137 9.22967671 17.5230247 14.6837918 22.9771397"></polygon>
        </g>
    </g>
</svg>