<?xml version="1.0" encoding="UTF-8"?>
<svg width="32px" height="32px" viewBox="0 0 32 32" version="1.1" xmlns="http://www.w3.org/2000/svg" xmlns:xlink="http://www.w3.org/1999/xlink">
    <!-- Generator: Sketch 49.1 (51147) - http://www.bohemiancoding.com/sketch -->
    <title>maintainability</title>
    <desc>Created with Sketch.</desc>
    <defs></defs>
    <g id="maintainability" stroke="none" stroke-width="1" fill="none" fill-rule="evenodd">
        <g id="Group">
            <path d="M15.9739362,0.5 C7.42792438,0.5 0.5,7.4278966 0.5,15.9738435 C0.5,24.5198692 7.42791049,31.4477797 15.9739362,31.4477797 C24.5199759,31.4477797 31.4477797,24.5199481 31.4477797,15.9738435 C31.4477797,7.42791049 24.5198692,0.5 15.9739362,0.5 Z" id="Path" stroke="#000000"></path>
            <polygon id="Path" fill="#000000" points="14.2103188 18.3314551 11.8563246 15.9907246 13.4425971 15.998887 15.0020638 17.5496348 18.6284522 13.9686957 20.2095304 13.9686957 14.9993739 19.116058"></polygon>
            <path d="M23.7022609,17.1025623 L23.6652522,17.3981681 L23.6591304,17.4658783 L23.6591304,20.5485449 C23.6591304,21.792371 23.180058,22.4141913 22.2220058,22.4141913 L20.3038609,22.4141913 L20.3038609,21.7184464 L21.0131478,21.7184464 L21.2166493,21.7184464 L21.3832348,21.7061101 C21.6216116,21.6732754 21.7408928,21.4495536 21.7408928,21.0350377 L21.7408928,20.8934029 L21.7408928,17.8354087 C21.7408928,17.1294609 21.9978203,16.5915826 22.5119536,16.2221449 C21.997913,15.8856348 21.7408928,15.3478493 21.7408928,14.6089739 L21.7408928,11.5633159 L21.7408928,11.4278029 C21.7408928,11.1117913 21.695629,10.9167304 21.605287,10.8428986 C21.5147594,10.7689739 21.2722087,10.732058 20.8774493,10.732058 L20.3100754,10.732058 L20.3100754,10.054771 L22.4502725,10.054771 C23.2561159,10.054771 23.6591304,10.6582261 23.6591304,11.8650435 L23.6591304,14.9722899 C23.6591304,15.5963362 23.8647652,15.9513043 24.2758493,16.0374725 L24.2758493,16.5423304 C23.9263536,16.6203362 23.7350957,16.8070493 23.7022609,17.1025623 L23.7022609,17.1025623 Z" id="Path" fill="#000000"></path>
            <path d="M11.002342,10.7504232 L10.8358493,10.7627594 C10.597287,10.795687 10.4781913,11.0193159 10.4781913,11.4338319 L10.4781913,11.5754667 L10.4781913,14.6334609 C10.4781913,15.3395014 10.221171,15.8771942 9.70713043,16.2467246 C10.2210783,16.5875014 10.4781913,17.1251014 10.4781913,17.8599884 L10.4781913,20.9117681 L10.4781913,21.0471884 C10.4781913,21.3632 10.5233623,21.5582609 10.6137971,21.6320928 C10.7042319,21.7059246 10.9468754,21.7429333 11.3416348,21.7429333 L11.9090087,21.7429333 L11.9090087,22.4204058 L9.76881159,22.4141913 C8.96287536,22.4141913 8.55995362,21.810829 8.55995362,20.6039188 L8.55995362,17.4966725 C8.55995362,16.8727188 8.35645217,16.517658 7.94935652,16.4314899 L7.94935652,15.9266319 C8.29477101,15.8487188 8.4838029,15.661913 8.51682319,15.3662145 L8.55383188,15.0707014 L8.55995362,15.0029913 L8.55995362,11.9204174 C8.55995362,10.6766841 9.03893333,10.0546783 9.99707826,10.0546783 L11.9214377,10.0546783 L11.9214377,10.7504232 L11.2121507,10.7504232 L11.002342,10.7504232 L11.002342,10.7504232 Z" id="Path" fill="#000000"></path>
        </g>
    </g>
</svg>