<?xml version="1.0" encoding="UTF-8"?>
<svg width="32px" height="32px" viewBox="0 0 32 32" version="1.1" xmlns="http://www.w3.org/2000/svg" xmlns:xlink="http://www.w3.org/1999/xlink">
    <!-- Generator: Sketch 49.1 (51147) - http://www.bohemiancoding.com/sketch -->
    <title>owasp</title>
    <desc>Created with Sketch.</desc>
    <defs></defs>
    <g id="owasp" stroke="none" stroke-width="1" fill="none" fill-rule="evenodd">
        <g id="Group" stroke="#000000">
            <path d="M15.9739362,0.5 C7.4278919,0.5 0.5,7.42783633 0.5,15.9738435 C0.5,24.5198506 7.4278919,31.447687 15.9739362,31.447687 C24.519962,31.447687 31.4477797,24.5198692 31.4477797,15.9738435 C31.4477797,7.42785022 24.5199017,0.5 15.9739362,0.5 Z" id="Path"></path>
        </g>
        <g id="owasp_logo_1c_icon" fill="#4A4B4A">
            <path d="M21.102132,27.3583756 C20.592731,27.3580508 18.7364061,24.0542538 18.4869036,23.1122843 C17.9653198,21.1401421 18.0775635,20.3070051 18.1087513,20.0406091 C18.204264,19.2272893 18.9933807,18.8208731 19.0411371,17.7210152 C19.0559188,17.3813604 19.2274518,15.6832487 19.3643858,14.3567919 C19.0265178,14.2908426 18.6899492,14.1381523 18.3907411,13.9019695 C19.2890152,15.1067614 17.9669442,16.5506599 16.0459695,18.471797 C14.0069036,20.5107005 9.48142132,22.4030863 9.48142132,22.4030863 C9.48142132,22.4030863 11.3739695,17.8774416 13.4127107,15.8385381 C14.9115127,14.3398985 16.1195533,13.2057665 17.1503756,13.2057665 C17.4409746,13.2057665 17.7176041,13.2959188 17.9825381,13.4932792 C17.7460305,13.1942335 17.5938274,12.8578274 17.5275533,12.5199594 C16.2010964,12.6572183 14.5028223,12.8285888 14.1633299,12.8433706 C13.0633096,12.8911269 12.6568934,13.6802437 11.8440609,13.7755939 C11.7504975,13.7866396 11.5869239,13.8077563 11.3288122,13.8077563 C10.851736,13.8077563 10.0515736,13.7359594 8.77222335,13.3974416 C7.74773604,13.1264975 3.93031472,10.9547208 4.60556345,10.6818274 C4.94992893,10.5424569 6.04718782,10.4482437 7.49238579,10.4482437 C8.88219289,10.4482437 10.5936244,10.5353096 12.2654213,10.7531371 C14.3499695,11.024731 16.2613604,11.3682843 17.5639391,11.623797 C17.5850558,11.5537868 17.6103959,11.4857259 17.6407716,11.4196142 L16.3091168,10.781401 C16.3091168,10.781401 15.2454822,9.56085279 15.3590254,9.47671066 C15.3634112,9.47346193 15.3690964,9.47183756 15.3757563,9.47183756 C15.5425787,9.47183756 16.3934213,10.4446701 16.4752893,10.5554518 C16.5383147,10.5764061 16.8990863,10.6967716 17.2785381,10.8229848 L16.9018477,10.4935635 C16.9018477,10.4935635 16.3862741,8.58412183 16.5206091,8.5391269 C16.5222335,8.53863959 16.5240203,8.53831472 16.5259695,8.53831472 C16.6674518,8.53831472 17.135269,10.1985787 17.1753909,10.318132 C17.2673299,10.3987005 17.5779086,10.5195533 17.9659695,10.7433909 L17.5579289,9.69372589 C17.5579289,9.69372589 17.7426193,7.96198985 17.8808528,7.96198985 C17.8819898,7.96198985 17.8829645,7.96215228 17.8841015,7.96231472 C18.0233096,7.99009137 17.8568122,9.40670051 17.8215635,9.58326904 C17.8720812,9.66058883 18.1850964,10.1407513 18.4989239,10.6222132 C18.6920609,10.5494416 18.8998173,10.5135431 19.1130964,10.5135431 C19.3578883,10.5135431 19.609665,10.5609746 19.8539695,10.6543756 C19.5411168,9.98822335 19.5648325,9.29396954 19.9796954,8.87943147 C20.1109442,8.74785787 20.2704569,8.65608122 20.4481624,8.60166497 C20.4696041,8.48048731 20.5258071,8.36564467 20.6179086,8.27338071 C20.7379492,8.1533401 20.896,8.09372589 21.056,8.09372589 C21.2234721,8.09372589 21.3932183,8.15918782 21.5231675,8.28929949 C21.6477563,8.41356345 21.7124061,8.5742132 21.7179289,8.73437563 C21.9182132,8.32146193 22.1545584,7.76446701 22.1379898,7.584 C22.0994924,7.17563452 21.6258274,6.45279188 21.6214416,6.44564467 C21.5905787,6.39886294 21.6034112,6.33583756 21.6503553,6.30481218 C21.6674112,6.29360406 21.6867411,6.28824365 21.7059086,6.28824365 C21.7388832,6.28824365 21.7712081,6.30432487 21.7905381,6.33405076 C21.8114924,6.36523858 22.2968528,7.10643655 22.3400609,7.56515736 C22.3641015,7.82765482 22.0627817,8.48909645 21.8985584,8.82696447 C22.1292183,8.95317766 22.3540305,9.11983756 22.5593503,9.32515736 C22.7645076,9.53031472 22.9311675,9.75528934 23.0575431,9.98594924 C23.3825787,9.82789848 24.0061726,9.54314721 24.2873503,9.54314721 C24.2985584,9.54314721 24.3092792,9.54363452 24.3193503,9.5444467 C24.7780711,9.58765482 25.519269,10.0730152 25.5502944,10.0938071 C25.5970761,10.1243452 25.6100711,10.1873706 25.5792081,10.2341523 C25.5597157,10.2637157 25.5273909,10.279797 25.4944162,10.279797 C25.4754112,10.279797 25.4560812,10.2744365 25.4390254,10.2632284 C25.4317157,10.2583553 24.7090355,9.78485279 24.3005076,9.7466802 C24.294335,9.74603046 24.2876751,9.74570558 24.2806904,9.74570558 C24.0820305,9.74570558 23.5485888,9.97279188 23.1499695,10.1664162 C23.3102944,10.1719391 23.4709442,10.2367513 23.5950457,10.3613401 C23.8495838,10.6155533 23.8565685,11.0206701 23.6111269,11.2661117 C23.5190254,11.3583756 23.4041827,11.415066 23.2830051,11.4361827 C23.228264,11.6140508 23.1363249,11.7735635 23.0050761,11.9048122 C22.7763655,12.1336853 22.4628629,12.2433299 22.1155736,12.2433299 C21.8332589,12.2433299 21.5286904,12.1707208 21.2299695,12.0305381 C21.4049137,12.4873096 21.4182335,12.9708832 21.2622944,13.3854213 C21.7434315,13.6992487 22.2242437,14.0124264 22.3012386,14.0629442 C22.4276142,14.0377665 23.1865178,13.945665 23.619736,13.945665 C23.7928934,13.945665 23.9142335,13.9602843 23.9220305,13.9999188 C23.950132,14.1389645 22.1909442,14.3267411 22.1909442,14.3267411 L21.1411168,13.9182132 C21.3651168,14.306599 21.4856447,14.6170152 21.5663756,14.7091168 C21.6877157,14.7497259 23.3898883,15.2295635 23.3450558,15.3638985 C23.3400203,15.3794924 23.310132,15.3863147 23.2612386,15.3863147 C22.8860102,15.3863147 21.3909442,14.9824975 21.3909442,14.9824975 L21.061198,14.6058071 C21.187736,14.9854213 21.3077766,15.345868 21.3290558,15.4092183 C21.4443858,15.494335 22.4916142,16.4112893 22.4076345,16.5251574 C22.4032487,16.5310051 22.3961015,16.5336041 22.3861929,16.5336041 C22.2024772,16.5336041 21.1031066,15.5753909 21.1031066,15.5753909 L20.464731,14.2435736 C20.3987817,14.2741117 20.3305584,14.2991269 20.2603858,14.3204061 C20.5158985,15.6229848 20.8596142,17.5343756 21.131533,19.6187614 C21.5756345,23.0291168 21.475736,26.6030457 21.2028426,27.2787817 C21.1809137,27.333198 21.1466396,27.3583756 21.102132,27.3583756" id="Fill-4"></path>
        </g>
    </g>
</svg>