<?xml version="1.0" encoding="UTF-8"?>
<svg width="32px" height="32px" viewBox="0 0 32 32" version="1.1" xmlns="http://www.w3.org/2000/svg" xmlns:xlink="http://www.w3.org/1999/xlink">
    <!-- Generator: Sketch 49.1 (51147) - http://www.bohemiancoding.com/sketch -->
    <title>security</title>
    <desc>Created with Sketch.</desc>
    <defs></defs>
    <g id="security" stroke="none" stroke-width="1" fill="none" fill-rule="evenodd">
        <g id="Group">
            <path d="M15.9739362,0.5 C7.42787801,0.5 0.5,7.42785022 0.5,15.9739362 C0.5,24.5199017 7.42794297,31.4478725 15.9739362,31.4478725 C24.5199434,31.4478725 31.4477797,24.5199806 31.4477797,15.9739362 C31.4477797,7.42792438 24.5198831,0.5 15.9739362,0.5 Z" id="Path" stroke="#000000"></path>
            <path d="M22.3384116,20.4770319 L22.3308986,20.4770319 C22.0449391,20.4722087 21.8275246,20.2724174 21.8031304,19.9904464 C21.7937623,19.8796058 21.8153739,19.7610667 21.8380058,19.6357565 L21.8558145,19.5372522 C22.0411362,18.464742 22.1145043,17.3306435 22.0740638,16.1672348 L22.0684058,15.9856232 C22.0561623,15.5688812 22.0439188,15.1511188 21.9968928,14.7382725 C21.8530319,13.4745043 21.3337043,12.3456 20.453287,11.3824464 C19.5041391,10.3471304 18.334887,9.71334493 16.9798493,9.49778551 C16.638887,9.4438029 16.2998725,9.41662609 15.9714319,9.41662609 C14.5632464,9.41662609 13.2657159,9.91415652 12.114829,10.8953971 C11.8481623,11.1237565 11.6115478,11.3924638 11.3830029,11.6519884 L11.2460986,11.806887 C10.8274087,12.3474551 10.5489623,12.8115942 10.3641971,13.2723014 C10.0693333,14.0809275 9.93623188,14.9326841 9.95691594,15.8799768 C9.96257391,16.1315246 9.96016232,16.3827942 9.95691594,16.6341565 C9.95264928,16.9371826 9.72271304,17.1656348 9.42265507,17.1656348 C9.13808696,17.1656348 8.90666667,16.9653797 8.89535072,16.7097507 C8.84461449,15.5988406 8.85444638,14.1516058 9.38453333,12.8089971 C9.6243942,12.2388406 10.1045797,11.5280696 10.2997333,11.2494377 C10.8439188,10.5550841 11.5104464,9.91981449 12.1259594,9.51216232 C13.1215768,8.85017971 14.1898203,8.46107826 15.3007304,8.35589565 C15.5514435,8.33205797 15.7988174,8.32055652 16.0434087,8.32055652 C17.6425739,8.32055652 19.1080812,8.83533913 20.3995826,9.8509913 C21.7428406,10.9092174 22.610087,12.3072 22.9788754,14.0064464 C23.1153159,14.6282667 23.1312696,15.2744812 23.1463884,15.8990841 L23.1529739,16.2939362 C23.186829,17.5767188 23.0946319,18.7916986 22.879258,19.9828406 C22.8247188,20.2877217 22.6176928,20.4770319 22.3384116,20.4770319 L22.3384116,20.4770319 Z" id="Path" fill="#000000"></path>
            <path d="M11.4583188,20.9034203 C12.250713,20.5965913 12.8345043,20.223629 13.2953971,19.7294377 C13.8846609,19.0995478 14.2195942,18.3462957 14.2905507,17.4926841 C14.3295072,17.0217739 14.3309913,16.5476174 14.3319188,16.0740174 L14.3347014,15.6075594 C14.3413797,15.0803478 14.4735536,14.6554435 14.7386435,14.3083594 C15.0726493,13.8706551 15.582887,13.6201275 16.1389449,13.6201275 C16.3025623,13.6201275 16.4672,13.6421101 16.6284986,13.6857043 C17.3324986,13.8745507 17.888,14.4992464 17.9500522,15.1717101 C18.0139594,15.8408348 18.0272232,16.5229449 18.0375188,17.2211942 C18.0384464,17.3655188 17.9839072,17.5021449 17.8841971,17.6054725 C17.7835594,17.7077797 17.6461913,17.767142 17.5060406,17.767142 C17.178713,17.7555478 16.9605565,17.510029 16.9538783,17.170087 C16.9434899,16.6395362 16.9237333,16.1085217 16.9039768,15.5778783 L16.8992464,15.4412522 C16.8860754,15.0617971 16.6114319,14.7735188 16.2158377,14.7251942 C16.2107362,14.7251942 16.205542,14.7247304 16.2003478,14.7247304 C15.8095768,14.7247304 15.5528348,14.9326841 15.4605449,15.2518493 C15.436058,15.3389449 15.4219594,15.4355014 15.4209391,15.5315942 C15.4176928,15.7164522 15.4195478,16.4855652 15.4195478,16.4855652 C15.4453333,17.2154435 15.3706667,17.8854029 15.1971246,18.4819942 C14.7751884,19.9273739 13.8628638,20.9750261 12.4075594,21.6871884 C12.2227014,21.7761391 12.0313507,21.8554435 11.8399072,21.927142 C11.770713,21.9528348 11.7002203,21.9662841 11.6300986,21.9662841 C11.4052638,21.9662841 11.2091826,21.8277101 11.1301565,21.613542 C11.0779362,21.4730203 11.0817391,21.3238725 11.1409159,21.1929971 C11.2010203,21.0611014 11.3139014,20.958887 11.4583188,20.9034203 L11.4583188,20.9034203 Z" id="Path" fill="#000000"></path>
            <path d="M19.0715362,20.0716058 C19.3790145,18.8480928 19.4985739,17.771687 19.4834551,16.3564522 C19.475942,16.2130551 19.4722319,16.0730899 19.468429,15.9330319 C19.4599884,15.6199884 19.4514551,15.2959072 19.3997913,14.9813797 C19.1684638,13.5661449 18.3396174,12.6298899 16.9381101,12.198771 C16.6323942,12.1050899 16.3200928,12.057229 16.0096464,12.057229 C15.5096116,12.057229 15.0031768,12.179571 14.5036986,12.4210087 C14.1302725,12.6034551 13.7996986,12.8486957 13.5206957,13.1507942 C12.9858783,13.7271652 12.6698667,14.3931362 12.5776696,15.1338667 C12.5419594,15.4188058 12.3161971,15.6339014 12.0528696,15.6339014 C11.6521739,15.5778783 11.4638841,15.3108406 11.5096116,14.9632928 C11.6248116,14.0986435 11.9644754,13.3190493 12.518029,12.6465855 L12.6182029,12.5327768 C13.0790957,12.0428522 13.7558261,11.5492174 14.3011246,11.3077797 C14.7008928,11.1419362 15.1359072,11.0295188 15.5248232,10.9927884 C15.6928,10.9765565 15.8587362,10.9683942 16.0224464,10.9683942 C17.004429,10.9683942 17.8975536,11.2642783 18.6774261,11.8478841 C19.8702377,12.7407304 20.4919652,13.9490319 20.5239652,15.4397681 L20.5351884,15.8718145 C20.5465043,16.2824348 20.5587478,16.6930551 20.5484522,17.1025623 C20.5014261,19.1663304 20.0555594,21.0715826 19.2230029,22.7654493 C19.1129971,22.9919536 18.9220174,23.1267246 18.7122087,23.1267246 C18.5965449,23.1267246 18.4808812,23.0848 18.3774609,23.0043826 C18.1723826,22.8449391 18.1179362,22.565658 18.2438957,22.3076174 C18.6124058,21.5514899 18.8833391,20.8202203 19.0715362,20.0716058 L19.0715362,20.0716058 Z" id="Path" fill="#000000"></path>
            <path d="M9.57977971,18.6790029 C9.72317681,18.6320696 10.4168812,18.4170667 10.4168812,18.4170667 C10.5279072,18.3817275 10.6365217,18.3339594 10.7437449,18.2842435 C11.1976812,18.0748058 11.4393971,17.695258 11.4624,17.1561739 L11.4662029,17.0233507 C11.4685217,16.9292058 11.4700058,16.8355246 11.4836406,16.7433275 C11.5244522,16.4780522 11.7475246,16.2782609 12.0024116,16.2782609 C12.3401275,16.3054377 12.5493797,16.5334261 12.5521623,16.8345971 L12.5521623,16.966029 C12.5334261,17.4630957 12.4586667,18.0997565 12.0428522,18.6216812 C11.7493797,18.9888 11.3393159,19.2563942 10.7513507,19.4628638 C10.4644638,19.5632232 10.1704348,19.6503188 9.87649855,19.7305507 C9.82761739,19.744 9.77864348,19.7504928 9.73022609,19.7504928 L9.72976232,19.7504928 C9.49268406,19.7504928 9.28723478,19.5939246 9.21850435,19.359629 C9.13066667,19.0622609 9.28250435,18.7763942 9.57977971,18.6790029 L9.57977971,18.6790029 Z" id="Path" fill="#000000"></path>
            <path d="M14.9062493,22.6986667 C15.6738783,21.7216928 16.2222377,20.6252522 16.5354667,19.4389333 C16.6089275,19.1607652 16.793229,18.9973333 17.0415304,18.9887072 L17.0419942,18.9887072 C17.3119072,18.9887072 17.5071536,19.1301565 17.5823768,19.367142 C17.5936,19.404429 17.5983304,19.4418087 17.6058435,19.4877217 L17.5738435,19.7237797 C17.5475942,19.8270145 17.5183768,19.9369275 17.4873043,20.0449855 C17.131687,21.2494841 16.5470609,22.3735652 15.7494725,23.385971 C15.6271304,23.5417043 15.4662029,23.6268522 15.2973913,23.6268522 C15.1789449,23.6268522 15.0636522,23.5838145 14.964313,23.5017275 C14.7161971,23.2998957 14.6927304,22.9700638 14.9062493,22.6986667 L14.9062493,22.6986667 Z" id="Path" fill="#000000"></path>
        </g>
    </g>
</svg>