<?xml version="1.0" encoding="UTF-8" standalone="no"?>
<!DOCTYPE svg PUBLIC "-//W3C//DTD SVG 1.1//EN" "http://www.w3.org/Graphics/SVG/1.1/DTD/svg11.dtd">
<svg width="100%" height="100%" viewBox="0 0 50 51" version="1.1" xmlns="http://www.w3.org/2000/svg" xmlns:xlink="http://www.w3.org/1999/xlink" xml:space="preserve" xmlns:serif="http://www.serif.com/" style="fill-rule:evenodd;clip-rule:evenodd;stroke-linejoin:round;stroke-miterlimit:1.41421;">
    <g transform="matrix(0.485649,0,0,0.485649,-332.392,-149.206)">
        <path d="M695.101,317.477C695.143,317.445 695.188,317.416 695.235,317.388L715.235,307.388C715.518,307.266 715.598,307.247 715.906,307.229L755.906,307.229C755.964,307.233 756.022,307.236 756.079,307.239C756.185,307.258 756.27,307.256 756.577,307.388L776.425,317.312C776.745,317.41 776.998,317.61 777.248,318.059L787.248,338.058C787.593,338.83 787.257,339.738 786.504,340.105L780.688,342.634L786.843,347.558C787.129,347.826 787.294,348.166 787.34,348.515C787.408,348.901 787.33,349.32 787.058,349.69L737.058,409.69L737.05,409.698C737.012,409.743 736.971,409.784 736.928,409.822C736.148,410.584 735.758,410.338 735.223,410.065C735.077,409.99 734.95,409.892 734.842,409.777C734.812,409.749 734.782,409.72 734.754,409.69L684.754,349.69C684.546,349.408 684.453,349.079 684.458,348.756C684.445,348.332 684.607,347.897 684.969,347.558L691.124,342.634L685.308,340.105C684.548,339.735 684.222,338.823 684.564,338.058L694.564,318.059C694.7,317.814 694.882,317.617 695.101,317.477ZM711.421,360.229L735.906,405.572L760.391,360.229L711.421,360.229ZM763.979,359.898L744.343,396.261L780.707,352.626C775.131,355.05 769.555,357.474 763.979,359.898ZM691.105,352.626L727.468,396.261L707.832,359.898L705.448,358.862L691.105,352.626ZM708.301,350.102L694.236,343.987L688.786,348.346L709.218,357.229L762.594,357.229L783.026,348.346L777.593,344L763.502,350.106L763.498,350.107C763.462,350.121 763.425,350.133 763.388,350.144C763.112,350.233 763.019,350.222 762.906,350.229L708.906,350.229C708.802,350.222 708.714,350.231 708.486,350.163C708.427,350.147 708.368,350.128 708.308,350.105L708.305,350.104L708.305,350.104L708.301,350.102ZM713.451,347.229L758.361,347.229L735.906,330.596L713.451,347.229ZM739.351,329.414L762.281,346.4L768.896,331.133L773.321,320.922L739.351,329.414ZM709.531,346.399L732.461,329.414L698.491,320.922L709.531,346.399ZM776.003,322.278L771.649,332.326L765.794,345.838L783.857,337.985L776.003,322.278ZM687.955,337.985L694.341,340.761C694.436,340.781 694.482,340.796 694.638,340.851L706.013,345.827L695.809,322.278L687.955,337.985ZM755.528,322.278L771.608,318.258L755.552,310.229C742.455,310.229 729.357,310.229 716.26,310.229L700.204,318.258L735.906,327.183L755.528,322.278Z" style="fill:white;fill-rule:nonzero;"/>
    </g>
</svg>
