<?xml version="1.0" encoding="UTF-8" standalone="no"?>
<!DOCTYPE svg PUBLIC "-//W3C//DTD SVG 1.1//EN" "http://www.w3.org/Graphics/SVG/1.1/DTD/svg11.dtd">
<svg width="100%" height="100%" viewBox="0 0 1024 1024" version="1.1" xmlns="http://www.w3.org/2000/svg" xmlns:xlink="http://www.w3.org/1999/xlink" xml:space="preserve" xmlns:serif="http://www.serif.com/" style="fill-rule:evenodd;clip-rule:evenodd;stroke-linejoin:round;stroke-miterlimit:1.41421;">
    <path d="M528,96.896C289.408,96.896 96,290.304 96,528.896C96,767.488 289.408,960.896 528,960.896C766.56,960.896 960,767.488 960,528.896C960,290.304 766.56,96.896 528,96.896ZM525.824,898.368C322.56,898.368 157.824,733.6 157.824,530.368C157.824,327.104 322.56,162.368 525.824,162.368C729.024,162.368 893.824,327.104 893.824,530.368C893.824,733.6 728.992,898.368 525.824,898.368Z" style="fill-rule:nonzero;"/>
    <path d="M691.2,556.672C729.312,556.672 760.256,587.584 760.256,625.696C760.256,663.776 729.312,694.688 691.2,694.688C653.088,694.688 622.208,663.776 622.208,625.696C622.176,587.552 653.056,556.672 691.2,556.672ZM457.952,608L588.864,608L588.864,640L457.952,640L457.952,608ZM524.576,294.944C486.496,294.944 455.584,325.856 455.584,363.936C455.584,380.608 461.728,395.712 471.584,407.648L382.752,561.44C375.04,558.432 366.752,556.672 357.984,556.672C319.872,556.672 288.96,587.584 288.96,625.696C288.96,663.776 319.872,694.688 357.984,694.688C396.064,694.688 426.976,663.776 426.976,625.696C426.976,604.928 417.6,586.464 403.072,573.824L489.984,423.36C500.192,429.312 511.904,432.992 524.576,432.992C562.688,432.992 593.632,402.08 593.632,363.968C593.632,325.856 562.688,294.944 524.576,294.944ZM631.488,555.008L565.984,441.696L586.624,429.792L652.064,543.136L631.488,555.008Z" style="fill-rule:nonzero;"/>
</svg>
