<?xml version="1.0" encoding="UTF-8" standalone="no"?>
<!DOCTYPE svg PUBLIC "-//W3C//DTD SVG 1.1//EN" "http://www.w3.org/Graphics/SVG/1.1/DTD/svg11.dtd">
<svg width="100%" height="100%" viewBox="0 0 159 19" version="1.1" xmlns="http://www.w3.org/2000/svg" xmlns:xlink="http://www.w3.org/1999/xlink" xml:space="preserve" xmlns:serif="http://www.serif.com/" style="fill-rule:evenodd;clip-rule:evenodd;stroke-linejoin:round;stroke-miterlimit:1.41421;">
    <g transform="matrix(0.0161779,0,0,0.0161779,-0.687657,-0.468835)">
        <path d="M9843.92,61.826C9843.92,51.2 9841.99,39.608 9841.03,28.98L4953.84,28.98C4953.84,392.21 4954.81,755.44 4954.81,1118.67C4954.81,1135.09 4954.81,1150.55 4954.81,1168.9L9841.03,1168.9C9841.99,1154.41 9843.92,1142.82 9843.92,1130.26C9843.92,774.76 9843.92,418.292 9843.92,61.824L9843.92,61.826ZM6080.24,532.286C6028.08,477.222 5971.08,477.222 5912.15,502.338C5853.22,527.454 5821.34,575.756 5815.55,639.516C5805.89,741.916 5891.86,780.558 5969.15,758.338C5995.23,750.61 6018.42,736.12 6052.23,720.662C6044.5,770.896 6036.77,818.232 6029.04,865.568C6028.08,869.432 6021.32,873.296 6016.49,875.228C5859.99,937.054 5707.35,858.806 5677.41,727.424C5646.49,591.212 5734.4,441.476 5878.34,382.548C5997.16,339.076 6103.43,398.004 6103.43,398.004L6080.24,532.284L6080.24,532.286ZM7023.09,878.128C7021.16,876.196 6996.04,781.524 6996.04,781.524L6820.23,781.524L6772.89,880.06L6627.98,880.06C6668.56,805.676 6704.3,739.984 6740.04,674.294C6790.28,582.52 6853.07,463.698 6901.37,370.958C6933.25,370.958 7047.24,370.958 7047.24,370.958C7047.24,370.958 7070.43,458.868 7074.29,477.222C7100.38,597.976 7126.46,718.732 7152.54,838.52C7155.44,850.112 7156.41,862.67 7159.31,877.162L7023.09,877.162L7023.09,878.128ZM8008.45,557.404C8039.37,568.996 8071.24,578.656 8100.23,593.148C8140.8,614.4 8157.22,649.178 8153.36,695.548C8139.83,896.484 7916.68,936.092 7786.26,859.774C7775.64,853.978 7766.94,846.25 7753.42,836.59C7778.53,799.88 7802.69,766.07 7824.9,733.224C7851.95,748.68 7870.31,764.138 7897.36,772.832C7928.27,783.458 7957.25,781.526 7980.44,768.002C7999.76,757.376 8005.55,740.952 8005.55,726.462C8006.52,711.972 7990.1,698.446 7977.54,691.684C7954.35,680.092 7928.27,674.296 7904.12,665.6C7829.73,639.516 7804.62,597.978 7821.04,517.796C7854.85,392.212 7967.88,331.35 8105.05,369.992C8129.2,376.754 8152.39,388.346 8180.4,399.94C8155.29,437.616 8134.03,468.528 8116.65,495.578C8070.28,482.054 8057.72,474.326 8018.11,476.258C7996.86,477.224 7974.64,497.51 7968.84,513.934C7960.15,540.984 7988.16,548.712 8008.45,557.406L8008.45,557.404ZM9130.02,488.816C9130.02,488.816 9054.67,488.816 9022.79,488.816C9001.54,618.266 8981.25,747.714 8960,879.096L8825.72,879.096C8846.01,750.612 8865.33,622.13 8886.58,489.782L8778.38,489.782C8784.18,453.072 8800.6,371.926 8800.6,371.926L9148.38,371.926C9143.55,406.704 9130.02,488.816 9130.02,488.816ZM3330.9,1166.97L4522.99,1166.97C4522.99,1148.62 4522.99,1132.2 4522.99,1115.77C4522.99,751.578 4523.95,393.178 4523.95,28.982L3330.9,28.982L3330.9,1166.97ZM2932.89,28.982L2195.8,28.982L2195.8,1167.94L2933.86,1167.94C2934.82,1155.38 2935.79,1145.72 2935.79,1136.06C2935.79,773.796 2935.79,419.26 2935.79,56.996C2935.79,48.302 2933.86,38.642 2932.89,28.98L2932.89,28.982ZM1546.63,57.962C1546.63,419.26 1546.63,774.762 1546.63,1137.03C1546.63,1147.65 1548.56,1158.28 1549.52,1168.91L1896.33,1168.91C1896.33,1149.59 1896.33,1133.16 1896.33,1116.74C1896.33,752.544 1897.3,394.144 1897.3,29.948L1549.52,29.948C1548.56,38.642 1546.63,48.302 1546.63,57.964L1546.63,57.962ZM1185.33,28.982L1027.86,28.982L1027.86,1167.94L1186.29,1167.94C1187.26,1155.38 1188.23,1145.72 1188.23,1136.06C1188.23,774.762 1188.23,419.26 1188.23,56.996C1188.23,48.302 1186.29,38.642 1185.33,28.98L1185.33,28.982ZM497.51,1167.94L587.352,1167.94C587.352,1147.65 587.352,1129.3 587.352,1111.91C588.318,748.68 588.318,392.212 589.284,28.982L498.476,28.982L498.476,1167.94L497.51,1167.94ZM42.506,1170.84L109.162,1170.84L109.162,28.982L42.506,28.982L42.506,1170.84ZM6945.81,545.812C6923.59,592.182 6900.41,637.586 6876.26,686.854L6978.66,686.854C6969.96,637.586 6962.24,592.182 6954.51,545.812C6951.61,545.812 6948.71,545.812 6945.81,545.812Z" style="fill:white;fill-rule:nonzero;"/>
    </g>
</svg>
