<?xml version="1.0" encoding="UTF-8" standalone="no"?>
<!DOCTYPE svg PUBLIC "-//W3C//DTD SVG 1.1//EN" "http://www.w3.org/Graphics/SVG/1.1/DTD/svg11.dtd">
<svg width="100%" height="100%" viewBox="0 0 1024 1024" version="1.1" xmlns="http://www.w3.org/2000/svg" xmlns:xlink="http://www.w3.org/1999/xlink" xml:space="preserve" xmlns:serif="http://www.serif.com/" style="fill-rule:evenodd;clip-rule:evenodd;stroke-linejoin:round;stroke-miterlimit:1.41421;">
    <path d="M151.968,526.72C151.968,612.704 180.576,691.904 228.672,755.328L190.368,753.504L183.808,787.68C128.704,714.816 96,623.872 96,525.248C96,306.848 256.384,126.112 465.216,95.552L494.592,122.304L472.16,153.856C291.104,180.128 151.968,337.024 151.968,526.72ZM742.688,833.632C681.504,877.6 606.688,903.456 525.824,903.456C446.912,903.456 373.76,878.816 313.44,836.768L272.832,841.824L281.888,882.24C351.744,930.944 436.512,959.584 527.968,959.584C620.544,959.584 706.272,930.272 776.608,880.448L741.92,871.552L742.688,833.632ZM593.44,95.936L613.696,130.528L586.432,154.944C764.064,184.16 899.68,339.488 899.68,526.72C899.68,611.84 871.616,690.368 824.352,753.472L832.608,788.672L872.224,787.648C927.328,714.72 960,623.84 960,525.248C960,307.776 800.928,127.616 593.44,95.936ZM480,381.504L480,349.504L384,349.504L384,509.504L352,509.504L352,541.504L384,541.504L384,701.504L480,701.504L480,669.504L416,669.504L416,381.504L480,381.504ZM640,381.504L640,669.504L576,669.504L576,701.504L672,701.504L672,541.504L704,541.504L704,509.504L672,509.504L672,349.504L576,349.504L576,381.504L640,381.504Z" style="fill-rule:nonzero;"/>
</svg>
