<?xml version="1.0" encoding="UTF-8"?>
<svg width="100px" height="100px" viewBox="0 0 100 100" version="1.1" xmlns="http://www.w3.org/2000/svg" xmlns:xlink="http://www.w3.org/1999/xlink">
    <!-- Generator: Sketch 62 (91390) - https://sketch.com -->
    <title>CISQ Measure</title>
    <desc>Created with Sketch.</desc>
    <g id="CISQ-Measure" stroke="none" stroke-width="1" fill="none" fill-rule="evenodd">
        <g>
            <rect id="Rectangle" x="0" y="0" width="100" height="100"></rect>
            <g id="Group" fill="#000000">
                <rect id="Rectangle" x="0" y="0" width="100" height="100"></rect>
            </g>
            <path d="M23.3179687,78 L23.3179687,73.125 L24.9742187,78 L25.6578125,78 L27.321875,73.2070312 L27.321875,78 L28.0523437,78 L28.0523437,72.2734375 L27.0328125,72.2734375 L25.6617187,76.2578125 C25.5236979,76.6614583 25.4221354,76.9674479 25.3570312,77.1757812 C25.2997396,76.9882812 25.2085937,76.7057292 25.0835937,76.328125 L25.0835937,76.328125 L23.728125,72.2734375 L22.5875,72.2734375 L22.5875,78 L23.3179687,78 Z M35.9140625,78 L35.9140625,77.3242188 L32.3984375,77.3242188 L32.3984375,75.375 L35.5664062,75.375 L35.5664062,74.703125 L32.3984375,74.703125 L32.3984375,72.9492188 L35.78125,72.9492188 L35.78125,72.2734375 L31.640625,72.2734375 L31.640625,78 L35.9140625,78 Z M39.4867187,78 L40.115625,76.265625 L42.5101562,76.265625 L43.178125,78 L44.0414062,78 L41.6976562,72.2734375 L40.88125,72.2734375 L38.6820312,78 L39.4867187,78 Z M42.2757812,75.6484375 L40.334375,75.6484375 L40.9632812,73.96875 C41.0960937,73.6067708 41.1989583,73.2421875 41.271875,72.875 C41.3604167,73.1848958 41.4958333,73.5807292 41.678125,74.0625 L41.678125,74.0625 L42.2757812,75.6484375 Z M49.1804687,78.0976562 C49.5893229,78.0976562 49.9571615,78.0227865 50.2839844,77.8730469 C50.6108073,77.7233073 50.8614583,77.5136719 51.0359375,77.2441406 C51.2104167,76.9746094 51.2976562,76.6875 51.2976562,76.3828125 C51.2976562,76.0755208 51.2182292,75.8040365 51.059375,75.5683594 C50.9005208,75.3326823 50.6544271,75.1380208 50.3210937,74.984375 C50.0919271,74.8802083 49.669401,74.7584635 49.0535156,74.6191406 C48.4376302,74.4798177 48.0567708,74.34375 47.9109375,74.2109375 C47.7625,74.078125 47.6882812,73.9088542 47.6882812,73.703125 C47.6882812,73.4661458 47.793099,73.2636719 48.0027344,73.0957031 C48.2123698,72.9277344 48.5463542,72.84375 49.0046875,72.84375 C49.4447917,72.84375 49.777474,72.9361979 50.0027344,73.1210938 C50.2279948,73.3059896 50.3601562,73.5794271 50.3992187,73.9414062 L50.3992187,73.9414062 L51.1257812,73.8867188 C51.1127604,73.5507812 51.0190104,73.25 50.8445312,72.984375 C50.6700521,72.71875 50.4207031,72.5175781 50.0964844,72.3808594 C49.7722656,72.2441406 49.3979167,72.1757812 48.9734375,72.1757812 C48.5880208,72.1757812 48.2377604,72.2408854 47.9226562,72.3710938 C47.6075521,72.5013021 47.3679687,72.6920573 47.2039062,72.9433594 C47.0398437,73.1946615 46.9578125,73.4648438 46.9578125,73.7539062 C46.9578125,74.0169271 47.0248698,74.2545573 47.1589844,74.4667969 C47.293099,74.6790365 47.496875,74.8567708 47.7703125,75 C47.98125,75.1119792 48.3497396,75.2311198 48.8757812,75.3574219 C49.4018229,75.483724 49.7416667,75.5768229 49.8953125,75.6367188 C50.1348958,75.7278646 50.3067708,75.8404948 50.4109375,75.9746094 C50.5151042,76.108724 50.5671875,76.265625 50.5671875,76.4453125 C50.5671875,76.6223958 50.513151,76.7858073 50.4050781,76.9355469 C50.2970052,77.0852865 50.1322917,77.203125 49.9109375,77.2890625 C49.6895833,77.375 49.434375,77.4179688 49.1453125,77.4179688 C48.8197917,77.4179688 48.5268229,77.3613281 48.2664062,77.2480469 C48.0059896,77.1347656 47.8139323,76.9863281 47.6902344,76.8027344 C47.5665365,76.6191406 47.4877604,76.3841146 47.4539062,76.0976562 L47.4539062,76.0976562 L46.7390625,76.1601562 C46.7494792,76.5429688 46.8542969,76.8860677 47.0535156,77.1894531 C47.2527344,77.4928385 47.527474,77.7200521 47.8777344,77.8710938 C48.2279948,78.0221354 48.6622396,78.0976562 49.1804687,78.0976562 Z M56.9601562,78.0976562 C57.5122396,78.0976562 57.9582031,77.9915365 58.2980469,77.7792969 C58.6378906,77.5670573 58.8729167,77.2916667 59.003125,76.953125 C59.1333333,76.6145833 59.1984375,76.1575521 59.1984375,75.5820312 L59.1984375,75.5820312 L59.1984375,72.2734375 L58.440625,72.2734375 L58.440625,75.578125 C58.440625,76.296875 58.3221354,76.7825521 58.0851562,77.0351562 C57.8481771,77.2877604 57.4510417,77.4140625 56.89375,77.4140625 C56.5682292,77.4140625 56.2928385,77.3502604 56.0675781,77.2226562 C55.8423177,77.0950521 55.6834635,76.9134115 55.5910156,76.6777344 C55.4985677,76.4420573 55.4523437,76.0755208 55.4523437,75.578125 L55.4523437,75.578125 L55.4523437,72.2734375 L54.6945312,72.2734375 L54.6945312,75.5820312 C54.6945312,76.1888021 54.7674479,76.6673177 54.9132812,77.0175781 C55.0591146,77.3678385 55.3026042,77.6354167 55.64375,77.8203125 C55.9848958,78.0052083 56.4236979,78.0976562 56.9601562,78.0976562 Z M63.5796875,78 L63.5796875,75.4570312 L64.4585938,75.4570312 C64.6539063,75.4570312 64.7945313,75.4661458 64.8804688,75.484375 C64.9976563,75.5130208 65.1128906,75.5638021 65.2261719,75.6367188 C65.3394531,75.7096354 65.4677083,75.8372396 65.6109375,76.0195312 C65.7541667,76.2018229 65.9364583,76.4648438 66.1578125,76.8085938 L66.1578125,76.8085938 L66.915625,78 L67.86875,78 L66.8726563,76.4414062 C66.6747396,76.1367188 66.4651042,75.8828125 66.24375,75.6796875 C66.1395833,75.5859375 65.9872396,75.4908854 65.7867188,75.3945312 C66.3361979,75.3190104 66.7424479,75.1419271 67.0054688,74.8632812 C67.2684896,74.5846354 67.4,74.2421875 67.4,73.8359375 C67.4,73.5208333 67.3205729,73.2330729 67.1617188,72.9726562 C67.0028646,72.7122396 66.790625,72.530599 66.525,72.4277344 C66.259375,72.3248698 65.8713542,72.2734375 65.3609375,72.2734375 L65.3609375,72.2734375 L62.821875,72.2734375 L62.821875,78 L63.5796875,78 Z M65.2085938,74.8007812 L63.5796875,74.8007812 L63.5796875,72.90625 L65.3921875,72.90625 C65.8166667,72.90625 66.1272135,72.9934896 66.3238281,73.1679688 C66.5204427,73.3424479 66.61875,73.5651042 66.61875,73.8359375 C66.61875,74.0208333 66.5679688,74.1920573 66.4664063,74.3496094 C66.3648438,74.5071615 66.2164063,74.6217448 66.0210938,74.6933594 C65.8257813,74.764974 65.5549479,74.8007812 65.2085938,74.8007812 L65.2085938,74.8007812 Z M75.2265625,78 L75.2265625,77.3242188 L71.7109375,77.3242188 L71.7109375,75.375 L74.8789062,75.375 L74.8789062,74.703125 L71.7109375,74.703125 L71.7109375,72.9492188 L75.09375,72.9492188 L75.09375,72.2734375 L70.953125,72.2734375 L70.953125,78 L75.2265625,78 Z" id="MEASURE" fill="#FFFFFF" fill-rule="nonzero"></path>
            <path d="M27.9351562,68.6445312 L28.4273437,67.6523438 C28.2554687,67.5768229 28.11875,67.5104167 28.0171875,67.453125 C27.9494792,67.4140625 27.8049479,67.3177083 27.5835937,67.1640625 C28.0002604,66.65625 28.2085937,65.9791667 28.2085937,65.1328125 C28.2085937,64.1822917 27.9501302,63.4518229 27.4332031,62.9414062 C26.916276,62.4309896 26.1825521,62.1757812 25.2320312,62.1757812 C24.2997396,62.1757812 23.5738281,62.436849 23.0542969,62.9589844 C22.5347656,63.4811198 22.275,64.2135417 22.275,65.15625 C22.275,66.1276042 22.571875,66.8815104 23.165625,67.4179688 C23.6682292,67.8710938 24.3544271,68.0976562 25.2242187,68.0976562 C25.8127604,68.0976562 26.3023437,68.0130208 26.6929687,67.84375 C26.7893229,67.9270833 26.9585937,68.0514323 27.2007812,68.2167969 C27.4429687,68.3821615 27.6877604,68.5247396 27.9351562,68.6445312 L27.9351562,68.6445312 Z M25.24375,66.7734375 C24.8713542,66.7734375 24.5783854,66.6471354 24.3648437,66.3945312 C24.1513021,66.1419271 24.0445312,65.703125 24.0445312,65.078125 C24.0445312,64.5416667 24.1539062,64.1471354 24.3726562,63.8945312 C24.5914062,63.6419271 24.8765625,63.515625 25.228125,63.515625 C25.6057292,63.515625 25.9019531,63.6393229 26.1167969,63.8867188 C26.3316406,64.1341146 26.4390625,64.546875 26.4390625,65.125 C26.4390625,65.6276042 26.36875,66.0052083 26.228125,66.2578125 C26.1578125,66.2135417 26.0927083,66.1705729 26.0328125,66.1289062 C25.7802083,65.9518229 25.6102865,65.8424479 25.5230469,65.8007812 C25.4358073,65.7591146 25.3140625,65.7239583 25.1578125,65.6953125 L25.1578125,65.6953125 L24.8804687,66.3320312 C25.2007812,66.4596354 25.4351562,66.5950521 25.5835937,66.7382812 C25.4768229,66.7617188 25.3635417,66.7734375 25.24375,66.7734375 Z M34.4023437,68.1015625 C34.8841146,68.1015625 35.296875,68.0377604 35.640625,67.9101562 C35.8880208,67.8190104 36.124349,67.6608073 36.3496094,67.4355469 C36.5748698,67.2102865 36.7402344,66.9472656 36.8457031,66.6464844 C36.9511719,66.3457031 37.0039062,66.0260417 37.0039062,65.6875 L37.0039062,65.6875 L37.0039062,62.2734375 L35.2382812,62.2734375 L35.2382812,65.7695312 C35.2382812,66.0872396 35.1516927,66.3326823 34.9785156,66.5058594 C34.8053385,66.6790365 34.5664062,66.765625 34.2617187,66.765625 C33.9544271,66.765625 33.7141927,66.6777344 33.5410156,66.5019531 C33.3678385,66.3261719 33.28125,66.0820312 33.28125,65.7695312 L33.28125,65.7695312 L33.28125,62.2734375 L31.515625,62.2734375 L31.515625,65.6875 C31.515625,65.96875 31.5703125,66.2916667 31.6796875,66.65625 C31.7473958,66.8828125 31.8730469,67.1028646 32.0566406,67.3164062 C32.2402344,67.5299479 32.4427083,67.6946615 32.6640625,67.8105469 C32.8854167,67.9264323 33.1608073,68.0039062 33.4902344,68.0429688 C33.8196615,68.0820312 34.1236979,68.1015625 34.4023437,68.1015625 Z M41.4828125,68 L41.7601562,67.0546875 L43.7757812,67.0546875 L44.0570312,68 L45.9085937,68 L43.75625,62.2734375 L41.8265625,62.2734375 L39.6742187,68 L41.4828125,68 Z M43.4046875,65.8164062 L42.1429687,65.8164062 L42.771875,63.7578125 L43.4046875,65.8164062 Z M53.35625,68 L53.35625,66.5898438 L50.5945312,66.5898438 L50.5945312,62.2734375 L48.825,62.2734375 L48.825,68 L53.35625,68 Z M58.3546875,68 L58.3546875,62.2734375 L56.58125,62.2734375 L56.58125,68 L58.3546875,68 Z M65.1460938,68 L65.1460938,63.6875 L66.9507813,63.6875 L66.9507813,62.2734375 L61.571875,62.2734375 L61.571875,63.6875 L63.3765625,63.6875 L63.3765625,68 L65.1460938,68 Z M73.5273438,68 L73.5273438,65.6015625 L75.7539062,62.2734375 L73.8007812,62.2734375 L72.6445312,64.2070312 L71.4882812,62.2734375 L69.5234375,62.2734375 L71.7539062,65.6015625 L71.7539062,68 L73.5273438,68 Z" id="QUALITY" fill="#FFFFFF" fill-rule="nonzero"></path>
            <g id="Group" transform="translate(19.000000, 25.000000)" fill="#FFFFFF">
                <g id="Combined-Shape" transform="translate(0.666667, 0.102431)">
                    <path d="M16.5508951,5.81107562 L13.5109348,5.81107562 L13.5109348,4.569875 C13.5109348,3.6974238 12.8052136,2.99016512 11.9346591,2.99016512 L4.95400942,2.99016512 C4.08345486,2.99016512 3.3777337,3.6974238 3.3777337,4.569875 L3.3777337,14.7251528 C3.3777337,15.597604 4.08345486,16.3048627 4.95400942,16.3048627 L11.9346591,16.3048627 C12.8052136,16.3048627 13.5109348,15.597604 13.5109348,14.7251528 L13.5109348,13.2582793 L16.5508951,13.2582793 L16.5508951,14.3866435 C16.5508951,17.0974821 14.3581267,19.2950278 11.6531812,19.2950278 L4.89771386,19.2950278 C2.19276842,19.2950278 0,17.0974821 0,14.3866435 L0,4.90838426 C0,2.19754569 2.19276842,0 4.89771386,0 L11.6531812,0 C14.3581267,0 16.5508951,2.19754569 16.5508951,4.90838426 L16.5508951,5.81107562 Z" id="Path"></path>
                </g>
                <g id="Rectangle-Copy-3" transform="translate(18.666667, 0.102431)">
                    <rect id="Rectangle" x="0" y="0" width="3.6559" height="19.2950278"></rect>
                </g>
                <g id="Rectangle-Copy" transform="translate(25.666667, 8.102431)">
                    <path d="M0,5.19823281 L3.43402926,5.19823281 L3.43402926,6.74056563 C3.43402926,7.49773679 4.03892507,8.11152813 4.78512274,8.11152813 L11.6531813,8.11152813 C12.3993789,8.11152813 13.0042747,7.49773679 13.0042747,6.74056563 L13.0042747,4.34138125 C13.0042747,3.58421009 12.3993789,2.97041875 11.6531813,2.97041875 L4.89771386,2.97041875 L4.89771386,0.913975 L2.06655377,0.913975 C2.86595075,0.33834212 3.84290392,0 4.89771386,0 L11.6531813,0 C14.3581267,0 16.5508951,2.22501501 16.5508951,4.96973906 L16.5508951,6.397825 C16.5508951,9.14254905 14.3581267,11.3675641 11.6531813,11.3675641 L4.89771386,11.3675641 C2.19276842,11.3675641 0,9.14254905 0,6.397825 L0,5.19823281 Z" id="Path"></path>
                </g>
                <g id="Rectangle-Copy-8" transform="translate(25.666667, 0.102431)">
                    <path d="M16.548024,6.19979708 L13.0042747,6.19979708 L13.0042747,4.30076014 C13.0042747,3.560415 12.3993789,2.96026347 11.6531813,2.96026347 L4.78512274,2.96026347 C4.03892507,2.96026347 3.43402926,3.560415 3.43402926,4.30076014 L3.43402926,6.64662931 C3.43402926,7.38697444 4.03892507,7.98712597 4.78512274,7.98712597 L11.5968857,7.98712597 L11.5968857,10.3888492 L13.8250077,10.3888492 C13.1705155,10.7106242 12.4331563,10.8915354 11.6531813,10.8915354 L4.89771386,10.8915354 C2.19276842,10.8915354 0,8.71596518 0,6.032235 L0,4.85930042 C0,2.17557024 2.19276842,0 4.89771386,0 L11.6531813,0 C14.3581267,0 16.5508951,2.17557024 16.5508951,4.85930042 L16.5508951,6.032235 C16.5508951,6.08831244 16.5499381,6.14416647 16.548024,6.19979708 L16.548024,6.19979708 Z" id="Path"></path>
                </g>
                <g id="Combined-Shape1" transform="translate(44.666667, 0.102431)">
                    <path d="M6.53028514,16.141814 L6.53028514,13.5166747 L9.90801884,13.5166747 L9.90801884,16.141814 L11.7657724,16.141814 C12.6361018,16.141814 13.3420481,15.4416279 13.3420481,14.5779013 L13.3420481,4.52417625 C13.3420481,3.66044956 12.6361018,2.96026347 11.7657724,2.96026347 L4.78512274,2.96026347 C3.91456817,2.96026347 3.20884701,3.66044956 3.20884701,4.52417625 L3.20884701,14.5779013 C3.20884701,15.4416279 3.91456817,16.141814 4.78512274,16.141814 L6.53028514,16.141814 Z M9.90801884,19.1020775 L9.90801884,21.6713628 L6.53028514,21.6713628 L6.53028514,19.1020775 L4.89771386,19.1020775 C2.19276842,19.1020775 0,16.9265073 0,14.2427771 L0,4.85930042 C0,2.17557024 2.19276842,0 4.89771386,0 L11.6531812,0 C14.358183,0 16.5508951,2.17557024 16.5508951,4.85930042 L16.5508951,14.2427771 C16.5508951,16.9265073 14.358183,19.1020775 11.6531812,19.1020775 L9.90801884,19.1020775 Z" id="Shape"></path>
                </g>
            </g>
        </g>
    </g>
</svg>