<?xml version="1.0" encoding="UTF-8"?>
<svg width="92px" height="92px" viewBox="0 0 92 92" version="1.1" xmlns="http://www.w3.org/2000/svg" xmlns:xlink="http://www.w3.org/1999/xlink">
    <!-- Generator: Sketch 52.2 (67145) - http://www.bohemiancoding.com/sketch -->
    <title>cwetop25</title>
    <desc>Created with Sketch.</desc>
    <g id="cwetop25" stroke="none" stroke-width="1" fill="none" fill-rule="evenodd">
        <g id="owasp_logo_Mx_2016" fill="#1A1919">
            <path d="M69,45.005003 C55.6997511,45.2713204 45,56.1362451 45,69.5001249 C45,70.003777 45.015198,70.5038799 45.0451604,71 L8,71 C3.581722,71 5.41083001e-16,67.418278 0,63 L0,8 C-5.41083001e-16,3.581722 3.581722,8.11624501e-16 8,0 L61,0 C65.418278,-8.11624501e-16 69,3.581722 69,8 L69,45.005003 Z M17.0258789,31.0876465 L8.81835938,31.0876465 L8.81835938,34.1535645 L7.72021484,34.1535645 L7.72021484,26.7775879 L8.81835938,26.7775879 L8.81835938,29.8562012 L17.0258789,29.8562012 L17.0258789,31.0876465 Z M12.4936523,26.1237793 C10.9490483,26.1237793 9.73983184,25.7090699 8.8659668,24.8796387 C7.99210175,24.0502074 7.55517578,22.9795801 7.55517578,21.6677246 C7.55517578,20.8086708 7.76041461,20.0342645 8.17089844,19.3444824 C8.58138226,18.6547003 9.15372354,18.1289081 9.88793945,17.7670898 C10.6221554,17.4052716 11.4547479,17.2243652 12.3857422,17.2243652 C13.3294318,17.2243652 14.1736616,17.414793 14.918457,17.7956543 C15.6632524,18.1765156 16.2271302,18.716061 16.6101074,19.4143066 C16.9930846,20.1125523 17.1845703,20.8658 17.1845703,21.6740723 C17.1845703,22.5500532 16.9729839,23.332923 16.5498047,24.0227051 C16.1266255,24.7124872 15.5489945,25.2351056 14.8168945,25.5905762 C14.0847945,25.9460467 13.3103882,26.1237793 12.4936523,26.1237793 Z M12.5126953,24.854248 C13.6341202,24.854248 14.5174935,24.5527374 15.1628418,23.949707 C15.8081901,23.3466767 16.1308594,22.5902552 16.1308594,21.6804199 C16.1308594,20.7536575 15.8050163,19.9908884 15.1533203,19.3920898 C14.5016243,18.7932913 13.5769917,18.4938965 12.3793945,18.4938965 C11.6219038,18.4938965 10.9606962,18.6219063 10.395752,18.8779297 C9.83080772,19.1339531 9.39282382,19.5084611 9.08178711,20.0014648 C8.7707504,20.4944686 8.61523438,21.0477671 8.61523438,21.661377 C8.61523438,22.5331261 8.91462917,23.2832 9.51342773,23.9116211 C10.1122263,24.5400422 11.1119722,24.854248 12.5126953,24.854248 Z M17.0258789,15.6374512 L7.72021484,15.6374512 L7.72021484,12.1271973 C7.72021484,11.5093556 7.74983694,11.0375179 7.80908203,10.7116699 C7.88525429,10.2546364 8.03019099,9.87166496 8.24389648,9.56274414 C8.45760198,9.25382333 8.75699677,9.00520927 9.14208984,8.81689453 C9.52718292,8.62857979 9.95035577,8.53442383 10.4116211,8.53442383 C11.2029662,8.53442383 11.8726372,8.78621167 12.4206543,9.28979492 C12.9686714,9.79337817 13.2426758,10.7031998 13.2426758,12.0192871 L13.2426758,14.4060059 L17.0258789,14.4060059 L17.0258789,15.6374512 Z M12.1445312,14.4060059 L12.1445313,12.0002441 C12.1445313,11.2046672 11.9964208,10.6397315 11.7001953,10.3054199 C11.4039699,9.97110835 10.9871446,9.80395508 10.449707,9.80395508 C10.0603822,9.80395508 9.72713355,9.90234277 9.44995117,10.0991211 C9.1727688,10.2958994 8.98974654,10.5550928 8.90087891,10.876709 C8.84586561,11.0840668 8.81835938,11.4670382 8.81835938,12.0256348 L8.81835938,14.4060059 L12.1445312,14.4060059 Z M36.7397461,28.5395508 L36.7397461,33 L19.90625,33 C20.0885426,31.3137937 20.6354121,29.7159092 21.546875,28.2062988 C22.4583379,26.6966884 24.2584501,24.6943484 26.9472656,22.1992188 C29.11199,20.1826071 30.4392879,18.8154333 30.9291992,18.0976562 C31.5900098,17.1064404 31.9204102,16.1266324 31.9204102,15.1582031 C31.9204102,14.0872342 31.632734,13.2640817 31.057373,12.6887207 C30.4820121,12.1133598 29.6873423,11.8256836 28.6733398,11.8256836 C27.6707307,11.8256836 26.8732126,12.1276011 26.2807617,12.7314453 C25.6883108,13.3352895 25.3465174,14.3378836 25.2553711,15.7392578 L20.4702148,15.2607422 C20.755047,12.6174998 21.6494065,10.7205461 23.1533203,9.56982422 C24.6572341,8.41910232 26.5370981,7.84375 28.7929688,7.84375 C31.2653118,7.84375 33.207838,8.51024724 34.6206055,9.84326172 C36.0333729,11.1762762 36.7397461,12.8339745 36.7397461,14.8164062 C36.7397461,15.9443416 36.5375183,17.0181427 36.1330566,18.0378418 C35.728595,19.0575409 35.0877323,20.1256455 34.2104492,21.2421875 C33.6293916,21.9827511 32.581225,23.0480074 31.065918,24.4379883 C29.5506109,25.8279692 28.590741,26.7508115 28.1862793,27.206543 C27.7818176,27.6622744 27.4542656,28.1066059 27.2036133,28.5395508 L36.7397461,28.5395508 Z M40.0551758,26.5571289 L44.840332,26.0615234 C44.9770515,27.1438856 45.3815071,28.0012175 46.0537109,28.6335449 C46.7259148,29.2658723 47.5006467,29.5820312 48.3779297,29.5820312 C49.3805389,29.5820312 50.229326,29.1747274 50.9243164,28.3601074 C51.6193069,27.5454875 51.9667969,26.3178793 51.9667969,24.6772461 C51.9667969,23.1391525 51.6221551,21.9855995 50.9328613,21.2165527 C50.2435675,20.4475059 49.3463597,20.0629883 48.2412109,20.0629883 C46.8626233,20.0629883 45.6264703,20.6725199 44.5327148,21.8916016 L40.6362305,21.3276367 L43.097168,8.28808594 L55.7949219,8.28808594 L55.7949219,12.7827148 L46.7373047,12.7827148 L45.9853516,17.0380859 C47.0563205,16.5026015 48.1500595,16.2348633 49.2666016,16.2348633 C51.3971461,16.2348633 53.2029548,17.0095951 54.684082,18.559082 C56.1652092,20.1085689 56.9057617,22.1194538 56.9057617,24.5917969 C56.9057617,26.6539817 56.3076232,28.4939698 55.1113281,30.1118164 C53.4820882,32.3221139 51.2205548,33.4272461 48.3266602,33.4272461 C46.0138231,33.4272461 44.1282625,32.8063213 42.6699219,31.5644531 C41.2115813,30.3225849 40.3400079,28.6534936 40.0551758,26.5571289 Z M15.3515625,56.6484375 L15.3515625,58 L7.78125,58 C7.77083328,57.6614566 7.82552023,57.3359391 7.9453125,57.0234375 C8.1380218,56.5078099 8.44661246,56.0000025 8.87109375,55.5 C9.29557504,54.9999975 9.90885016,54.4218783 10.7109375,53.765625 C11.9557354,52.7447866 12.7968728,51.9362009 13.234375,51.3398438 C13.6718772,50.7434866 13.890625,50.1796902 13.890625,49.6484375 C13.890625,49.091143 13.6914082,48.6210957 13.2929688,48.2382812 C12.8945293,47.8554668 12.3750032,47.6640625 11.734375,47.6640625 C11.0572883,47.6640625 10.515627,47.8671855 10.109375,48.2734375 C9.70312297,48.6796895 9.49739586,49.2421839 9.4921875,49.9609375 L8.046875,49.8125 C8.14583383,48.7343696 8.51822594,47.9127632 9.1640625,47.3476562 C9.80989906,46.7825493 10.6770779,46.5 11.765625,46.5 C12.8645888,46.5 13.7343718,46.8046845 14.375,47.4140625 C15.0156282,48.0234405 15.3359375,48.7786413 15.3359375,49.6796875 C15.3359375,50.1380231 15.2421884,50.5885395 15.0546875,51.03125 C14.8671866,51.4739605 14.5559918,51.9401017 14.1210938,52.4296875 C13.6861957,52.9192733 12.9635467,53.5911416 11.953125,54.4453125 C11.1093708,55.1536494 10.5677095,55.6341133 10.328125,55.8867188 C10.0885405,56.1393242 9.89062578,56.3932279 9.734375,56.6484375 L15.3515625,56.6484375 Z M16.859375,52.3515625 C16.859375,50.9973891 16.9986965,49.9075562 17.2773438,49.0820312 C17.555991,48.2565063 17.9700493,47.6197939 18.5195312,47.171875 C19.0690132,46.7239561 19.7604125,46.5 20.59375,46.5 C21.2083364,46.5 21.7473935,46.6236967 22.2109375,46.8710938 C22.6744815,47.1184908 23.0572902,47.4752581 23.359375,47.9414062 C23.6614598,48.4075544 23.8984366,48.9752571 24.0703125,49.6445312 C24.2421884,50.3138054 24.328125,51.2161402 24.328125,52.3515625 C24.328125,53.6953192 24.1901055,54.7799438 23.9140625,55.6054688 C23.6380195,56.4309937 23.2252632,57.0690082 22.6757812,57.5195312 C22.1262993,57.9700543 21.4322959,58.1953125 20.59375,58.1953125 C19.4895778,58.1953125 18.622399,57.7994831 17.9921875,57.0078125 C17.2369754,56.0546827 16.859375,54.5026149 16.859375,52.3515625 Z M18.3046875,52.3515625 C18.3046875,54.2317802 18.5247374,55.4830698 18.9648438,56.1054688 C19.4049501,56.7278677 19.9479134,57.0390625 20.59375,57.0390625 C21.2395866,57.0390625 21.7825499,56.7265656 22.2226562,56.1015625 C22.6627626,55.4765594 22.8828125,54.2265719 22.8828125,52.3515625 C22.8828125,50.4661364 22.6627626,49.2135448 22.2226562,48.59375 C21.7825499,47.9739552 21.2343783,47.6640625 20.578125,47.6640625 C19.9322884,47.6640625 19.4166686,47.9374973 19.03125,48.484375 C18.5468726,49.1822952 18.3046875,50.4713448 18.3046875,52.3515625 Z M31.0546875,58 L29.6484375,58 L29.6484375,49.0390625 C29.3098941,49.3619808 28.8658882,49.6848942 28.3164062,50.0078125 C27.7669243,50.3307308 27.2734397,50.5729159 26.8359375,50.734375 L26.8359375,49.375 C27.6223998,49.0052065 28.3098929,48.5572943 28.8984375,48.03125 C29.4869821,47.5052057 29.9036446,46.9947941 30.1484375,46.5 L31.0546875,46.5 L31.0546875,58 Z M38.765625,58 L37.359375,58 L37.359375,49.0390625 C37.0208316,49.3619808 36.5768257,49.6848942 36.0273438,50.0078125 C35.4778618,50.3307308 34.9843772,50.5729159 34.546875,50.734375 L34.546875,49.375 C35.3333373,49.0052065 36.0208304,48.5572943 36.609375,48.03125 C37.1979196,47.5052057 37.6145821,46.9947941 37.859375,46.5 L38.765625,46.5 L38.765625,58 Z" id="Fill-1"></path>
            <path d="M69.1444107,92 C56.5214185,92 46.2885884,81.7670411 46.2885884,69.1444107 C46.2885884,56.5215472 56.5214185,46.2885884 69.1444107,46.2885884 C81.7669368,46.2885884 92,56.5215472 92,69.1444107 C92,81.7670411 81.7669368,92 69.1444107,92 M69.1444209,48.1170448 C80.75711,48.1170448 90.1715435,57.5314216 90.1715435,69.1442942 C90.1715435,80.7571667 80.75711,90.1715435 69.1444209,90.1715435 C57.5314784,90.1715435 48.1170448,80.7571667 48.1170448,69.1442942 C48.1170448,57.5314216 57.5314784,48.1170448 69.1444209,48.1170448 Z" id="Fill-1-Copy"></path>
        </g>
        <g id="CWE" transform="translate(50.000000, 62.000000)">
            <g id="C">
                <path d="M6.42857143,0.65625 L6.42857143,3.0625 C4.06163679,3.0625 2.14285714,4.92331651 2.14285714,7.21875 C2.14285714,9.51418349 4.06163679,11.375 6.42857143,11.375 L6.42857143,13.78125 C2.87816947,13.78125 0,10.8431187 0,7.21875 C0,3.59438133 2.87816947,0.65625 6.42857143,0.65625 Z" id="Combined-Shape-Copy-3" fill="#D0D0D0"></path>
                <path d="M7.71428571,0.65625 L8.48711944,3.0625 L6.42857143,3.0625 L6.42857143,0.65625 L7.71428571,0.65625 Z M11.1569087,11.375 L11.9297424,13.78125 L6.42857143,13.78125 L6.42857143,11.375 L11.1569087,11.375 Z" id="Combined-Shape-Copy-2" fill="#D0D0D0"></path>
                <path d="M6.42857143,0.21875 L6.42857143,2.625 C4.06163679,2.625 2.14285714,4.48581651 2.14285714,6.78125 C2.14285714,9.07668349 4.06163679,10.9375 6.42857143,10.9375 L6.42857143,13.34375 C2.87816947,13.34375 0,10.4056187 0,6.78125 C0,3.15688133 2.87816947,0.21875 6.42857143,0.21875 Z" id="Combined-Shape" fill="#000000"></path>
                <path d="M7.71428571,0.21875 L8.48711944,2.625 L6.42857143,2.625 L6.42857143,0.21875 L7.71428571,0.21875 Z M11.1569087,10.9375 L11.9297424,13.34375 L6.42857143,13.34375 L6.42857143,10.9375 L11.1569087,10.9375 Z" id="Combined-Shape" fill="#000000"></path>
            </g>
            <g id="E" transform="translate(24.000000, 0.000000)">
                <path d="M11.0572359,6.0375005 L10.083223,8.09375 L5.6875,8.09375 L5.46875,8.09375 L3.71875,11.7250005 L8.80416644,11.7250005 L7.85763889,13.78125 L0.201388889,13.78125 L6.24305556,0.65625 L13.8993056,0.65625 L12.8923611,2.84375 L8.3125,2.84375 L7.875,2.84375 L6.34375,6.0375005 L11.0572359,6.0375005 Z" id="Combined-Shape-Copy" fill="#D0D0D0"></path>
                <path d="M11.0572359,5.6000005 L10.083223,7.65625 L5.6875,7.65625 L5.46875,7.65625 L3.71875,11.2875005 L8.80416644,11.2875005 L7.85763889,13.34375 L0.201388889,13.34375 L6.24305556,0.21875 L13.8993056,0.21875 L12.8923611,2.40625 L8.3125,2.40625 L7.875,2.40625 L6.34375,5.6000005 L11.0572359,5.6000005 Z" id="Combined-Shape-Copy-5" fill="#000000"></path>
            </g>
            <g id="W" transform="translate(9.000000, 0.000000)">
                <path d="M9.83132334,0.65625 C10.0843271,1.61011775 11.2098167,5.25595109 13.2077922,11.59375 L18.039725,0.65625 L20.9220779,0.65625 L20.9220779,0.912715517 L15.1193568,13.78125 L11.2716362,13.78125 L10.2077922,10.0625 L8.70779221,13.78125 L5.1038961,13.78125 L0.428571429,0.65625 L3.404911,0.65625 C3.67081512,1.61011775 4.86701362,5.25595109 6.99350649,11.59375 L8.92207792,7 L6.72880061,0.65625 L9.83132334,0.65625 Z" id="Combined-Shape" fill="#D0D0D0"></path>
                <path d="M9.48067399,0.21875 C9.73367777,1.17261775 10.8591674,4.81845109 12.8571429,11.15625 L17.6890756,0.21875 L20.5714286,0.21875 L20.5714286,0.475215517 L14.7687075,13.34375 L10.9209869,13.34375 L9.85714286,9.625 L8.35714286,13.34375 L4.75324675,13.34375 L0.0779220779,0.21875 L3.05426165,0.21875 C3.32016577,1.17261775 4.51636427,4.81845109 6.64285714,11.15625 L8.57142857,6.5625 L6.37815126,0.21875 L9.48067399,0.21875 Z" id="Combined-Shape-Copy-4" stroke="#000000" stroke-width="0.5" fill="#FFFFFF"></path>
                <polygon id="Rectangle-5" fill="#FFFFFF" transform="translate(9.999653, 6.950835) rotate(23.000000) translate(-9.999653, -6.950835) " points="8.69106811 4.23272855 9.27756651 3.50849208 11.3539216 5.95411031 10.9002436 6.1466852 10.7950569 10.393177 8.64538409 10.3771203"></polygon>
            </g>
        </g>
    </g>
</svg>