<?xml version="1.0" encoding="UTF-8"?>
<svg width="98px" height="98px" viewBox="0 0 98 98" version="1.1" xmlns="http://www.w3.org/2000/svg" xmlns:xlink="http://www.w3.org/1999/xlink">
    <!-- Generator: Sketch 52.2 (67145) - http://www.bohemiancoding.com/sketch -->
    <title>cwe inverted</title>
    <desc>Created with Sketch.</desc>
    <g id="cwe-inverted" stroke="none" stroke-width="1" fill="none" fill-rule="evenodd">
        <rect id="Rectangle" fill="#000000" x="0" y="0" width="98" height="98"></rect>
        <path d="M19,35 L19,40.5 C13.4771525,40.5 9,44.7532949 9,50 C9,55.2467051 13.4771525,59.5 19,59.5 L19,65 C10.7157288,65 4,58.2842712 4,50 C4,41.7157288 10.7157288,35 19,35 Z" id="Combined-Shape-Copy-3" fill="#606060"></path>
        <path d="M22,35 L23.8032787,40.5 L19,40.5 L19,35 L22,35 Z M30.0327869,59.5 L31.8360656,65 L19,65 L19,59.5 L30.0327869,59.5 Z" id="Combined-Shape-Copy-2" fill="#606060"></path>
        <path d="M19,34 L19,39.5 C13.4771525,39.5 9,43.7532949 9,49 C9,54.2467051 13.4771525,58.5 19,58.5 L19,64 C10.7157288,64 4,57.2842712 4,49 C4,40.7157288 10.7157288,34 19,34 Z" id="Combined-Shape" fill="#FFFFFF"></path>
        <path d="M22,34 L23.8032787,39.5 L19,39.5 L19,34 L22,34 Z M30.0327869,58.5 L31.8360656,64 L19,64 L19,58.5 L30.0327869,58.5 Z" id="Combined-Shape" fill="#FFFFFF"></path>
        <path d="M86.8133647,47.3000011 L84.5870494,52 L74.5396825,52 L74.0396825,52 L70.0396825,60.3000011 L81.6634915,60.3000011 L79.5,65 L62,65 L75.8095238,35 L93.3095238,35 L91.0079365,40 L80.5396825,40 L79.5396825,40 L76.0396825,47.3000011 L86.8133647,47.3000011 Z" id="Combined-Shape-Copy" fill="#606060"></path>
        <path d="M86.8133647,46.3000011 L84.5870494,51 L74.5396825,51 L74.0396825,51 L70.0396825,59.3000011 L81.6634915,59.3000011 L79.5,64 L62,64 L75.8095238,34 L93.3095238,34 L91.0079365,39 L80.5396825,39 L79.5396825,39 L76.0396825,46.3000011 L86.8133647,46.3000011 Z" id="Combined-Shape-Copy-5" fill="#FFFFFF"></path>
        <g id="Group" transform="translate(24.000000, 33.000000)">
            <path d="M22.9397545,1.5 C23.5300966,3.68026915 26.1562391,12.0136025 30.8181818,26.5 L42.0926916,1.5 L48.8181818,1.5 L48.8181818,2.0862069 L35.2784993,31.5 L26.3004845,31.5 L23.8181818,23 L20.3181818,31.5 L11.9090909,31.5 L1,1.5 L7.94479234,1.5 C8.56523529,3.68026915 11.3563651,12.0136025 16.3181818,26.5 L20.8181818,16 L15.7005348,1.5 L22.9397545,1.5 Z" id="Combined-Shape" fill="#FFFFFF" opacity="0.44796317"></path>
            <path d="M22.1215726,0.5 C22.7119148,2.68026915 25.3380573,11.0136025 30,25.5 L41.2745098,0.5 L48,0.5 L48,1.0862069 L34.4603175,30.5 L25.4823027,30.5 L23,22 L19.5,30.5 L11.0909091,30.5 L0.181818182,0.5 L7.12661052,0.5 C7.74705347,2.68026915 10.5381833,11.0136025 15.5,25.5 L20,15 L14.8823529,0.5 L22.1215726,0.5 Z" id="Combined-Shape-Copy-4" stroke="#FFFFFF" stroke-width="0.5" fill="#000000" opacity="0.0593377976"></path>
        </g>
    </g>
</svg>