<!-- Generated by IcoMoon.io -->
<svg version="1.1" xmlns="http://www.w3.org/2000/svg" width="512" height="512" viewBox="0 0 512 512">
<title></title>
<g id="icomoon-ignore">
</g>
<path fill="#000" d="M272.416 32.032c-114.88 1.536-206.72 95.904-205.216 210.784 1.536 114.848 95.904 206.656 210.752 205.152 114.848-1.568 206.72-95.904 205.216-210.752-1.504-114.816-95.872-206.72-210.752-205.184zM289.824 86.016c28.448 0 36.864 16.512 36.864 35.36 0 23.584-18.88 45.376-51.104 45.376-26.912 0-39.744-13.568-39.008-35.968 0-18.848 15.84-44.768 53.248-44.768zM239.136 388c-16.576 0-28.704-10.048-17.12-54.24l19.040-78.4c3.296-12.576 3.84-17.6 0-17.6-4.96 0-26.496 8.672-39.2 17.216l-8.256-13.568c40.256-33.664 86.624-53.408 106.464-53.408 16.576 0 19.296 19.616 11.040 49.76l-21.76 82.368c-3.84 14.56-2.208 19.616 1.664 19.616 4.96 0 21.28-6.016 37.248-18.624l9.376 12.64c-39.168 39.104-81.92 54.24-98.496 54.24z"></path>
</svg>
