<?xml version="1.0" encoding="UTF-8"?>
<svg width="500px" height="500px" viewBox="0 0 500 500" version="1.1" xmlns="http://www.w3.org/2000/svg" xmlns:xlink="http://www.w3.org/1999/xlink">
    <!-- Generator: Sketch 62 (91390) - https://sketch.com -->
    <title>Maintainabiliy in App</title>
    <desc>Created with Sketch.</desc>
    <g id="Maintainabiliy-in-App" stroke="none" stroke-width="1" fill="none" fill-rule="evenodd">
        <path d="M868.5,432.999 C767.708,432.999 686,351.291 686,250.498 C686,149.707 767.708,67.998 868.5,67.998 C969.292,67.998 1051,149.706 1051,250.498 C1050.999,351.291 969.291,432.999 868.5,432.999 L868.5,432.999 Z M868.5,78.28 C773.386,78.28 696.281,155.385 696.281,250.498 C696.281,345.612 773.386,422.717 868.5,422.717 C963.614,422.717 1040.718,345.613 1040.718,250.498 C1040.718,155.385 963.613,78.28 868.5,78.28 L868.5,78.28 Z M951.821,262.667 L951.422,265.854 L951.356,266.584 L951.356,299.819 C951.356,313.229 946.191,319.933 935.862,319.933 L915.182,319.933 L915.182,312.432 L922.829,312.432 L925.023,312.432 L926.819,312.299 C929.389,311.945 930.675,309.533 930.675,305.064 L930.675,303.537 L930.675,270.568 C930.675,262.957 933.445,257.158 938.988,253.175 C933.446,249.547 930.675,243.749 930.675,235.783 L930.675,202.947 L930.675,201.486 C930.675,198.079 930.187,195.976 929.213,195.18 C928.237,194.383 925.622,193.985 921.366,193.985 L915.249,193.985 L915.249,186.683 L938.323,186.683 C947.011,186.683 951.356,193.189 951.356,206.2 L951.356,239.7 C951.356,246.428 953.573,250.255 958.005,251.184 L958.005,256.627 C954.237,257.468 952.175,259.481 951.821,262.667 L951.821,262.667 Z M849.486,275.916 L824.107,250.68 L841.209,250.768 L858.022,267.487 L897.119,228.88 L914.165,228.88 L857.993,284.375 L849.486,275.916 L849.486,275.916 Z M814.9,194.183 L813.105,194.316 C810.533,194.671 809.249,197.082 809.249,201.551 L809.249,203.078 L809.249,236.047 C809.249,243.659 806.478,249.456 800.936,253.44 C806.477,257.114 809.249,262.91 809.249,270.833 L809.249,303.735 L809.249,305.195 C809.249,308.602 809.736,310.705 810.711,311.501 C811.686,312.297 814.302,312.696 818.558,312.696 L824.675,312.696 L824.675,320 L801.601,319.933 C792.912,319.933 788.568,313.428 788.568,300.416 L788.568,266.916 C788.568,260.189 786.374,256.361 781.985,255.432 L781.985,249.989 C785.709,249.149 787.747,247.135 788.103,243.947 L788.502,240.761 L788.568,240.031 L788.568,206.797 C788.568,193.388 793.732,186.682 804.062,186.682 L824.809,186.682 L824.809,194.183 L817.162,194.183 L814.9,194.183 L814.9,194.183 Z M868.5,-321.001 C767.708,-321.001 686,-402.709 686,-503.501 C686,-604.293 767.708,-686.001 868.5,-686.001 C969.292,-686.001 1051,-604.293 1051,-503.501 C1050.999,-402.709 969.291,-321.001 868.5,-321.001 L868.5,-321.001 Z M868.5,-675.719 C773.386,-675.719 696.281,-598.615 696.281,-503.501 C696.281,-408.388 773.386,-331.283 868.5,-331.283 C963.614,-331.283 1040.718,-408.387 1040.718,-503.501 C1040.718,-598.615 963.613,-675.719 868.5,-675.719 L868.5,-675.719 Z M896.015,-492.007 L937,-492.007 L937,-473 L896.015,-473 L896.015,-492.007 L896.015,-492.007 Z M896.015,-532.014 L937,-532.014 L937,-513.008 L896.015,-513.008 L896.015,-532.014 L896.015,-532.014 Z M896.015,-571.991 L937,-571.991 L937,-553.015 L896.015,-553.015 L896.015,-571.991 L896.015,-571.991 Z M848.505,-420.003 C832.762,-420.003 820.001,-432.739 820.001,-448.45 C820.001,-460.267 827.722,-470.703 838,-475 L838,-585 L859,-563 L859,-475 C869.263,-470.696 877.009,-460.256 877.009,-448.45 C877.009,-432.739 864.247,-420.003 848.505,-420.003 L848.505,-420.003 Z M1018.819,-1154 L1050,-1154 L1050,-1145.001 L1002,-1145.001 L1002,-1193.001 L1011,-1193.001 L1011,-1160.79 C1029.748,-1188.361 1040.718,-1221.648 1040.718,-1257.501 C1040.718,-1342.368 979.329,-1412.894 898.535,-1427.104 L899.865,-1437.306 C985.71,-1422.435 1050.999,-1347.597 1050.999,-1257.501 C1050.999,-1219.067 1039.109,-1183.413 1018.819,-1154 L1018.819,-1154 Z M868.5,-1829.001 C767.708,-1829.001 686,-1910.709 686,-2011.501 C686,-2112.293 767.708,-2194.001 868.5,-2194.001 C969.292,-2194.001 1051,-2112.294 1051,-2011.501 C1050.999,-1910.709 969.291,-1829.001 868.5,-1829.001 L868.5,-1829.001 Z M868.5,-2183.72 C773.386,-2183.72 696.281,-2106.616 696.281,-2011.501 C696.281,-1916.388 773.386,-1839.282 868.5,-1839.282 C963.614,-1839.282 1040.718,-1916.387 1040.718,-2011.501 C1040.718,-2106.615 963.613,-2183.72 868.5,-2183.72 L868.5,-2183.72 Z M937.117,-1962.952 L937.036,-1962.952 C933.953,-1963.004 931.609,-1965.158 931.346,-1968.198 C931.245,-1969.393 931.478,-1970.671 931.722,-1972.022 L931.914,-1973.084 C933.912,-1984.647 934.703,-1996.874 934.267,-2009.417 L934.206,-2011.375 C934.074,-2015.868 933.942,-2020.372 933.435,-2024.823 C931.884,-2038.448 926.285,-2050.619 916.793,-2061.003 C906.56,-2072.165 893.954,-2078.998 879.345,-2081.322 C875.669,-2081.904 872.014,-2082.197 868.473,-2082.197 C853.291,-2082.197 839.302,-2076.833 826.894,-2066.254 C824.019,-2063.792 821.468,-2060.895 819.004,-2058.097 L817.528,-2056.427 C813.014,-2050.599 810.012,-2045.595 808.02,-2040.628 C804.841,-2031.91 803.406,-2022.727 803.629,-2012.514 C803.69,-2009.802 803.664,-2007.093 803.629,-2004.383 C803.583,-2001.116 801.104,-1998.653 797.869,-1998.653 C794.801,-1998.653 792.306,-2000.812 792.184,-2003.568 C791.637,-2015.545 791.743,-2031.148 797.458,-2045.623 C800.044,-2051.77 805.221,-2059.433 807.325,-2062.437 C813.192,-2069.923 820.378,-2076.772 827.014,-2081.167 C837.748,-2088.304 849.265,-2092.499 861.242,-2093.633 C863.945,-2093.89 866.612,-2094.014 869.249,-2094.014 C886.49,-2094.014 902.29,-2088.464 916.214,-2077.514 C930.696,-2066.105 940.046,-2051.033 944.022,-2032.713 C945.493,-2026.009 945.665,-2019.042 945.828,-2012.308 L945.899,-2008.051 C946.264,-1994.221 945.27,-1981.122 942.948,-1968.28 C942.36,-1964.993 940.128,-1962.952 937.117,-1962.952 L937.117,-1962.952 Z M799.563,-1982.337 C801.109,-1982.843 808.588,-1985.161 808.588,-1985.161 C809.785,-1985.542 810.956,-1986.057 812.112,-1986.593 C817.006,-1988.851 819.612,-1992.943 819.86,-1998.755 L819.901,-2000.187 C819.926,-2001.202 819.942,-2002.212 820.089,-2003.206 C820.529,-2006.066 822.934,-2008.22 825.682,-2008.22 C829.323,-2007.927 831.579,-2005.469 831.609,-2002.222 L831.609,-2000.805 C831.407,-1995.446 830.601,-1988.582 826.118,-1982.955 C822.954,-1978.997 818.533,-1976.112 812.194,-1973.886 C809.101,-1972.804 805.931,-1971.865 802.762,-1971 C802.235,-1970.855 801.707,-1970.785 801.185,-1970.785 L801.18,-1970.785 C798.624,-1970.785 796.409,-1972.473 795.668,-1974.999 C794.721,-1978.205 796.358,-1981.287 799.563,-1982.337 L799.563,-1982.337 Z M819.816,-1958.355 C828.359,-1961.663 834.653,-1965.684 839.622,-1971.012 C845.975,-1977.803 849.586,-1985.924 850.351,-1995.127 C850.771,-2000.204 850.787,-2005.316 850.797,-2010.422 L850.827,-2015.451 C850.899,-2021.135 852.324,-2025.716 855.182,-2029.458 C858.783,-2034.177 864.284,-2036.878 870.279,-2036.878 C872.043,-2036.878 873.818,-2036.641 875.557,-2036.171 C883.147,-2034.135 889.136,-2027.4 889.805,-2020.15 C890.494,-2012.936 890.637,-2005.582 890.748,-1998.054 C890.758,-1996.498 890.17,-1995.025 889.095,-1993.911 C888.01,-1992.808 886.529,-1992.168 885.018,-1992.168 C881.489,-1992.293 879.137,-1994.94 879.065,-1998.605 C878.953,-2004.325 878.74,-2010.05 878.527,-2015.771 L878.476,-2017.244 C878.334,-2021.335 875.373,-2024.443 871.108,-2024.964 C871.053,-2024.964 870.997,-2024.969 870.941,-2024.969 C866.728,-2024.969 863.96,-2022.727 862.965,-2019.286 C862.701,-2018.347 862.549,-2017.306 862.538,-2016.27 C862.503,-2014.277 862.523,-2005.985 862.523,-2005.985 C862.801,-1998.116 861.996,-1990.893 860.125,-1984.461 C855.576,-1968.878 845.74,-1957.583 830.05,-1949.905 C828.057,-1948.946 825.994,-1948.091 823.93,-1947.318 C823.184,-1947.041 822.424,-1946.896 821.668,-1946.896 C819.244,-1946.896 817.13,-1948.39 816.278,-1950.699 C815.715,-1952.214 815.756,-1953.822 816.394,-1955.233 C817.042,-1956.655 818.259,-1957.757 819.816,-1958.355 L819.816,-1958.355 Z M856.989,-1939 C865.265,-1949.533 871.177,-1961.354 874.554,-1974.144 C875.346,-1977.143 877.333,-1978.905 880.01,-1978.998 L880.015,-1978.998 C882.925,-1978.998 885.03,-1977.473 885.841,-1974.918 C885.962,-1974.516 886.013,-1974.113 886.094,-1973.618 L885.749,-1971.073 C885.466,-1969.96 885.151,-1968.775 884.816,-1967.61 C880.982,-1954.624 874.679,-1942.505 866.08,-1931.59 C864.761,-1929.911 863.026,-1928.993 861.206,-1928.993 C859.929,-1928.993 858.686,-1929.457 857.615,-1930.342 C854.94,-1932.518 854.687,-1936.074 856.989,-1939 L856.989,-1939 Z M901.896,-1967.323 C905.211,-1980.514 906.5,-1992.119 906.337,-2007.377 C906.256,-2008.923 906.216,-2010.432 906.175,-2011.942 C906.084,-2015.317 905.992,-2018.811 905.435,-2022.202 C902.941,-2037.46 894.005,-2047.554 878.895,-2052.202 C875.599,-2053.212 872.232,-2053.728 868.885,-2053.728 C863.494,-2053.728 858.034,-2052.409 852.649,-2049.806 C848.623,-2047.839 845.059,-2045.195 842.051,-2041.938 C836.285,-2035.724 832.878,-2028.544 831.884,-2020.558 C831.499,-2017.486 829.065,-2015.167 826.226,-2015.167 C821.906,-2015.771 819.876,-2018.65 820.369,-2022.397 C821.611,-2031.719 825.273,-2040.124 831.241,-2047.374 L832.321,-2048.601 C837.29,-2053.883 844.586,-2059.205 850.465,-2061.808 C854.775,-2063.596 859.465,-2064.808 863.658,-2065.204 C865.469,-2065.379 867.258,-2065.467 869.023,-2065.467 C879.61,-2065.467 889.239,-2062.277 897.647,-2055.985 C910.507,-2046.359 917.21,-2033.332 917.555,-2017.26 L917.676,-2012.602 C917.798,-2008.175 917.93,-2003.748 917.819,-1999.333 C917.312,-1977.083 912.505,-1956.542 903.529,-1938.28 C902.343,-1935.838 900.284,-1934.385 898.022,-1934.385 C896.775,-1934.385 895.528,-1934.837 894.413,-1935.704 C892.202,-1937.423 891.615,-1940.434 892.973,-1943.216 C896.946,-1951.368 899.867,-1959.252 901.896,-1967.323 L901.896,-1967.323 Z M1006.711,-2881.998 C985.025,-2881.998 967.436,-2899.452 967.436,-2921.005 C967.436,-2942.528 985.025,-2959.999 1006.711,-2959.999 C1028.395,-2959.999 1045.984,-2942.529 1045.984,-2921.005 C1045.984,-2899.451 1028.396,-2881.998 1006.711,-2881.998 L1006.711,-2881.998 Z M743.098,-2601.004 L782.187,-2755.819 L703.995,-2755.819 L762.643,-2930.001 L919.041,-2930.001 L840.834,-2819.94 L943.611,-2819.94 L743.098,-2601.004 L743.098,-2601.004 Z M832.132,-1311.301 L852.827,-1311.301 L852.827,-1303.776 L845.199,-1303.776 L842.944,-1303.776 L841.153,-1303.644 C838.588,-1303.288 837.306,-1300.869 837.306,-1296.385 L837.306,-1294.853 L837.306,-1271.811 C837.306,-1264.176 834.541,-1258.36 829.014,-1254.365 C834.541,-1250.679 837.306,-1244.864 837.306,-1236.917 L837.306,-1213.942 L837.306,-1212.477 C837.306,-1209.06 837.791,-1206.95 838.764,-1206.151 C839.736,-1205.351 842.346,-1204.952 846.591,-1204.952 L852.694,-1204.952 L852.694,-1197.627 L829.677,-1197.693 C821.01,-1197.693 816.676,-1204.219 816.676,-1217.272 L816.676,-1240.846 C816.676,-1247.594 814.487,-1251.434 810.11,-1252.367 L810.11,-1257.827 C813.824,-1258.67 815.858,-1260.691 816.213,-1263.887 L816.61,-1267.084 L816.676,-1267.816 L816.676,-1291.124 C816.677,-1304.575 821.828,-1311.301 832.132,-1311.301 L832.132,-1311.301 Z M898.431,-1272.077 L898.431,-1294.985 L898.431,-1296.45 C898.431,-1299.869 897.944,-1301.977 896.972,-1302.777 C895.999,-1303.576 893.39,-1303.976 889.144,-1303.976 L883.042,-1303.976 L883.042,-1311.301 L906.059,-1311.301 C914.726,-1311.301 919.06,-1304.775 919.06,-1291.722 L919.06,-1268.148 C919.06,-1261.398 921.271,-1257.56 925.693,-1256.627 L925.693,-1251.167 C921.934,-1250.323 919.878,-1248.303 919.524,-1245.106 L919.126,-1241.91 L919.06,-1241.177 L919.06,-1217.869 C919.06,-1204.417 913.908,-1197.692 903.605,-1197.692 L882.976,-1197.692 L882.976,-1205.217 L890.604,-1205.217 L892.792,-1205.217 L894.584,-1205.35 C897.148,-1205.706 898.431,-1208.125 898.431,-1212.609 L898.431,-1214.14 L898.431,-1237.182 C898.431,-1244.817 901.194,-1250.634 906.722,-1254.629 C901.193,-1258.27 898.431,-1264.086 898.431,-1272.077 L898.431,-1272.077 Z M769.11,-1070.968 L761.452,-1118.353 L808.837,-1126.011 L810.273,-1117.126 L776.794,-1111.715 C803.348,-1094.976 834.79,-1085.283 868.499,-1085.283 C905.573,-1085.283 939.908,-1096.999 968.01,-1116.929 L974.302,-1108.785 C944.457,-1087.514 907.94,-1075.001 868.498,-1075.001 C833.578,-1075.001 800.969,-1084.838 773.235,-1101.851 L777.994,-1072.402 L769.11,-1070.968 L769.11,-1070.968 Z M732.297,-1152.109 L724.034,-1145.989 C700.193,-1176.83 685.999,-1215.506 685.999,-1257.501 C685.999,-1346.106 749.148,-1419.949 832.892,-1436.513 L809.076,-1454.584 L814.516,-1461.754 L852.755,-1432.739 L823.741,-1394.501 L816.571,-1399.941 L836.968,-1426.823 C756.915,-1412.009 696.281,-1341.842 696.281,-1257.5 C696.281,-1217.798 709.724,-1181.239 732.297,-1152.109 L732.297,-1152.109 Z M249.434,-321.914 C149.199,-321.914 67.941,-403.201 67.941,-503.474 C67.941,-603.747 149.199,-685.033 249.434,-685.033 C349.669,-685.033 430.926,-603.746 430.926,-503.474 C430.926,-403.202 349.669,-321.914 249.434,-321.914 L249.434,-321.914 Z M248.517,-660.359 C161.774,-660.359 91.456,-589.846 91.456,-502.861 C91.456,-415.878 161.774,-345.364 248.517,-345.364 C335.258,-345.364 405.578,-415.877 405.578,-502.861 C405.577,-589.846 335.258,-660.359 248.517,-660.359 L248.517,-660.359 Z M298.993,-489.009 L351,-489.009 L351,-465.01 L298.993,-465.01 L298.993,-489.009 L298.993,-489.009 Z M298.993,-539.009 L351,-539.009 L351,-515.009 L298.993,-515.009 L298.993,-539.009 L298.993,-539.009 Z M298.993,-589.009 L351,-589.009 L351,-565.01 L298.993,-565.01 L298.993,-589.009 L298.993,-589.009 Z M243.006,-398.005 C223.121,-398.005 207.001,-414.059 207.001,-433.863 C207.001,-448.76 216.017,-461.583 229,-467 L229,-606 L257,-578 L257,-467 C269.964,-461.575 279.011,-448.747 279.011,-433.863 C279.011,-414.059 262.891,-398.005 243.006,-398.005 L243.006,-398.005 Z M249.434,-1829.914 C149.199,-1829.914 67.941,-1911.201 67.941,-2011.473 C67.941,-2111.745 149.199,-2193.032 249.434,-2193.032 C349.669,-2193.032 430.926,-2111.745 430.926,-2011.473 C430.926,-1911.201 349.669,-1829.914 249.434,-1829.914 L249.434,-1829.914 Z M248.517,-2168.358 C161.774,-2168.358 91.456,-2097.845 91.456,-2010.861 C91.456,-1923.878 161.774,-1853.364 248.517,-1853.364 C335.258,-1853.364 405.578,-1923.878 405.578,-2010.861 C405.577,-2097.845 335.258,-2168.358 248.517,-2168.358 L248.517,-2168.358 Z M308.271,-1968.631 L308.201,-1968.631 C305.518,-1968.676 303.479,-1970.556 303.25,-1973.21 C303.162,-1974.252 303.365,-1975.368 303.577,-1976.546 L303.744,-1977.473 C305.483,-1987.564 306.171,-1998.235 305.792,-2009.181 L305.738,-2010.89 C305.624,-2014.812 305.509,-2018.743 305.068,-2022.628 C303.717,-2034.518 298.846,-2045.141 290.588,-2054.203 C281.684,-2063.943 270.715,-2069.907 258.003,-2071.935 C254.805,-2072.442 251.624,-2072.699 248.543,-2072.699 C235.333,-2072.699 223.16,-2068.017 212.363,-2058.785 C209.862,-2056.635 207.642,-2054.108 205.498,-2051.665 L204.214,-2050.208 C200.287,-2045.123 197.675,-2040.754 195.941,-2036.42 C193.174,-2028.811 191.926,-2020.797 192.12,-2011.883 C192.173,-2009.516 192.151,-2007.152 192.12,-2004.787 C192.08,-2001.936 189.922,-1999.786 187.108,-1999.786 C184.439,-1999.786 182.268,-2001.67 182.162,-2004.077 C181.685,-2014.528 181.778,-2028.145 186.751,-2040.778 C189.001,-2046.144 193.506,-2052.831 195.337,-2055.453 C200.442,-2061.986 206.694,-2067.964 212.469,-2071.8 C221.81,-2078.029 231.83,-2081.69 242.251,-2082.679 C244.604,-2082.904 246.924,-2083.012 249.218,-2083.012 C264.22,-2083.012 277.968,-2078.169 290.084,-2068.612 C302.686,-2058.655 310.821,-2045.501 314.28,-2029.513 C315.559,-2023.662 315.71,-2017.582 315.851,-2011.705 L315.913,-2007.989 C316.231,-1995.919 315.366,-1984.488 313.345,-1973.281 C312.833,-1970.412 310.891,-1968.631 308.271,-1968.631 L308.271,-1968.631 Z M188.581,-1985.549 C189.927,-1985.991 196.435,-1988.014 196.435,-1988.014 C197.476,-1988.346 198.496,-1988.796 199.501,-1989.264 C203.759,-1991.234 206.027,-1994.804 206.243,-1999.877 L206.278,-2001.127 C206.299,-2002.013 206.313,-2002.894 206.442,-2003.761 C206.825,-2006.257 208.917,-2008.137 211.308,-2008.137 C214.476,-2007.881 216.44,-2005.736 216.466,-2002.902 L216.466,-2001.666 C216.29,-1996.989 215.589,-1990.999 211.688,-1986.088 C208.934,-1982.634 205.088,-1980.116 199.572,-1978.172 C196.881,-1977.228 194.124,-1976.41 191.366,-1975.654 C190.907,-1975.528 190.448,-1975.466 189.993,-1975.466 L189.989,-1975.466 C187.765,-1975.466 185.837,-1976.941 185.193,-1979.145 C184.367,-1981.943 185.792,-1984.631 188.581,-1985.549 L188.581,-1985.549 Z M206.203,-1964.619 C213.638,-1967.506 219.113,-1971.014 223.437,-1975.665 C228.965,-1981.591 232.107,-1988.679 232.773,-1996.71 C233.139,-2001.141 233.152,-2005.602 233.162,-2010.058 L233.188,-2014.447 C233.25,-2019.407 234.49,-2023.406 236.978,-2026.671 C240.111,-2030.79 244.898,-2033.147 250.113,-2033.147 C251.648,-2033.147 253.193,-2032.94 254.707,-2032.531 C261.311,-2030.755 266.522,-2024.876 267.104,-2018.549 C267.704,-2012.253 267.828,-2005.836 267.925,-1999.265 C267.933,-1997.907 267.422,-1996.621 266.487,-1995.649 C265.543,-1994.687 264.254,-1994.128 262.939,-1994.128 C259.869,-1994.238 257.821,-1996.548 257.759,-1999.746 C257.662,-2004.738 257.476,-2009.734 257.291,-2014.726 L257.247,-2016.012 C257.123,-2019.583 254.547,-2022.295 250.836,-2022.749 C250.788,-2022.749 250.74,-2022.754 250.691,-2022.754 C247.025,-2022.754 244.616,-2020.798 243.751,-2017.794 C243.522,-2016.975 243.389,-2016.067 243.38,-2015.163 C243.349,-2013.423 243.367,-2006.186 243.367,-2006.186 C243.609,-1999.319 242.908,-1993.015 241.28,-1987.402 C237.322,-1973.802 228.762,-1963.944 215.111,-1957.243 C213.377,-1956.406 211.581,-1955.66 209.786,-1954.986 C209.137,-1954.743 208.475,-1954.617 207.818,-1954.617 C205.709,-1954.617 203.869,-1955.922 203.128,-1957.936 C202.638,-1959.258 202.673,-1960.662 203.229,-1961.894 C203.79,-1963.135 204.849,-1964.098 206.203,-1964.619 L206.203,-1964.619 Z M238.549,-1947.728 C245.75,-1956.92 250.895,-1967.236 253.833,-1978.398 C254.521,-1981.015 256.251,-1982.553 258.581,-1982.635 L258.585,-1982.635 C261.117,-1982.635 262.949,-1981.303 263.654,-1979.073 C263.759,-1978.722 263.804,-1978.371 263.875,-1977.939 L263.575,-1975.718 C263.328,-1974.747 263.055,-1973.712 262.764,-1972.696 C259.428,-1961.363 253.944,-1950.785 246.461,-1941.26 C245.313,-1939.793 243.804,-1938.993 242.22,-1938.993 C241.109,-1938.993 240.028,-1939.398 239.096,-1940.172 C236.767,-1942.07 236.546,-1945.173 238.549,-1947.728 L238.549,-1947.728 Z M277.623,-1972.445 C280.509,-1983.957 281.63,-1994.085 281.488,-2007.401 C281.417,-2008.75 281.383,-2010.067 281.347,-2011.385 C281.267,-2014.33 281.188,-2017.38 280.702,-2020.339 C278.532,-2033.655 270.757,-2042.464 257.61,-2046.521 C254.742,-2047.402 251.812,-2047.853 248.9,-2047.853 C244.21,-2047.853 239.458,-2046.701 234.773,-2044.431 C231.269,-2042.712 228.168,-2040.406 225.551,-2037.564 C220.534,-2032.139 217.57,-2025.875 216.704,-2018.904 C216.369,-2016.224 214.251,-2014.199 211.78,-2014.199 C208.021,-2014.726 206.256,-2017.24 206.683,-2020.509 C207.764,-2028.645 210.951,-2035.979 216.143,-2042.306 L217.083,-2043.377 C221.406,-2047.986 227.755,-2052.632 232.87,-2054.903 C236.62,-2056.464 240.702,-2057.521 244.35,-2057.867 C245.925,-2058.02 247.482,-2058.096 249.018,-2058.096 C258.23,-2058.096 266.609,-2055.312 273.924,-2049.821 C285.113,-2041.421 290.946,-2030.051 291.246,-2016.025 L291.351,-2011.96 C291.457,-2008.096 291.572,-2004.233 291.475,-2000.38 C291.034,-1980.962 286.851,-1963.035 279.041,-1947.097 C278.009,-1944.966 276.217,-1943.698 274.249,-1943.698 C273.164,-1943.698 272.079,-1944.093 271.108,-1944.849 C269.184,-1946.35 268.673,-1948.978 269.855,-1951.406 C273.316,-1958.521 275.858,-1965.403 277.623,-1972.445 L277.623,-1972.445 Z M172.098,-2601.004 L211.186,-2755.819 L132.994,-2755.819 L191.642,-2930.001 L348.04,-2930.001 L269.833,-2819.94 L372.61,-2819.94 L172.098,-2601.004 L172.098,-2601.004 Z M212.132,-1311.301 L232.827,-1311.301 L232.827,-1303.776 L225.199,-1303.776 L222.944,-1303.776 L221.153,-1303.644 C218.588,-1303.288 217.306,-1300.869 217.306,-1296.385 L217.306,-1294.853 L217.306,-1271.811 C217.306,-1264.176 214.542,-1258.36 209.014,-1254.365 C214.541,-1250.679 217.306,-1244.864 217.306,-1236.917 L217.306,-1213.942 L217.306,-1212.477 C217.306,-1209.06 217.792,-1206.95 218.765,-1206.151 C219.737,-1205.351 222.347,-1204.952 226.592,-1204.952 L232.695,-1204.952 L232.695,-1197.627 L209.678,-1197.693 C201.011,-1197.693 196.678,-1204.219 196.678,-1217.272 L196.678,-1240.846 C196.678,-1247.594 194.489,-1251.434 190.111,-1252.367 L190.111,-1257.827 C193.825,-1258.67 195.859,-1260.691 196.214,-1263.887 L196.612,-1267.084 L196.678,-1267.816 L196.678,-1291.124 C196.677,-1304.575 201.828,-1311.301 212.132,-1311.301 L212.132,-1311.301 Z M249.434,-1075.914 C211.012,-1075.914 175.387,-1087.868 146.049,-1108.246 L142.239,-1125.127 L159.29,-1127.244 C184.632,-1109.669 215.372,-1099.365 248.517,-1099.365 C282.482,-1099.365 313.928,-1110.179 339.621,-1128.557 L339.309,-1112.706 L353.896,-1108.994 C324.356,-1088.157 288.326,-1075.914 249.434,-1075.914 L249.434,-1075.914 Z M278.431,-1272.077 L278.431,-1294.985 L278.431,-1296.45 C278.431,-1299.869 277.944,-1301.977 276.972,-1302.777 C275.998,-1303.576 273.39,-1303.976 269.144,-1303.976 L263.042,-1303.976 L263.042,-1311.301 L286.059,-1311.301 C294.726,-1311.301 299.06,-1304.775 299.06,-1291.722 L299.06,-1268.148 C299.06,-1261.398 301.271,-1257.56 305.693,-1256.627 L305.693,-1251.167 C301.934,-1250.323 299.878,-1248.303 299.525,-1245.106 L299.127,-1241.91 L299.061,-1241.177 L299.061,-1217.869 C299.061,-1204.417 293.909,-1197.692 283.606,-1197.692 L262.977,-1197.692 L262.977,-1205.217 L270.605,-1205.217 L272.793,-1205.217 L274.585,-1205.35 C277.149,-1205.706 278.432,-1208.125 278.432,-1212.609 L278.432,-1214.14 L278.432,-1237.182 C278.432,-1244.817 281.195,-1250.634 286.723,-1254.629 C281.193,-1258.27 278.431,-1264.086 278.431,-1272.077 L278.431,-1272.077 Z M273.986,-1412.287 L285.44,-1422.498 L276.924,-1436.96 C364.114,-1423.707 430.926,-1348.396 430.926,-1257.473 C430.926,-1216.261 417.192,-1178.265 394.065,-1147.793 L377.403,-1147.359 L373.947,-1162.069 C393.8,-1188.443 405.577,-1221.271 405.577,-1256.86 C405.577,-1335.148 348.614,-1400.082 273.986,-1412.287 L273.986,-1412.287 Z M123.675,-1161.299 L107.586,-1162.047 L104.832,-1147.755 C81.687,-1178.234 67.941,-1216.245 67.941,-1257.474 C67.941,-1348.783 135.325,-1424.338 223.058,-1437.117 L235.39,-1425.928 L225.96,-1412.737 C149.906,-1401.767 91.456,-1336.165 91.456,-1256.862 C91.456,-1220.923 103.468,-1187.803 123.675,-1161.299 L123.675,-1161.299 Z M249.434,68.968 C349.669,68.968 430.926,150.255 430.926,250.527 C430.926,350.799 349.669,432.086 249.434,432.086 C149.198,432.086 67.94,350.799 67.94,250.527 C67.94,150.255 149.198,68.968 249.434,68.968 L249.434,68.968 Z M248.516,408.636 C335.258,408.636 405.577,338.122 405.577,251.138 C405.577,164.154 335.258,93.64 248.516,93.64 C161.773,93.64 91.455,164.154 91.455,251.138 C91.456,338.122 161.773,408.636 248.516,408.636 L248.516,408.636 Z M166.213,244.113 L166.611,240.917 L166.677,240.185 L166.677,206.877 C166.677,193.424 171.828,186.7 182.132,186.7 L202.828,186.7 L202.828,194.224 L195.2,194.224 L192.945,194.224 L191.154,194.358 C188.589,194.713 187.306,197.133 187.306,201.617 L187.306,203.149 L187.306,236.19 C187.306,243.827 184.542,249.642 179.015,253.638 C184.542,257.324 187.306,263.138 187.306,271.085 L187.306,304.06 L187.306,305.525 C187.306,308.943 187.792,311.052 188.765,311.851 C189.737,312.651 192.347,313.051 196.592,313.051 L202.695,313.051 L202.695,320.376 L179.678,320.31 C171.011,320.31 166.677,313.784 166.677,300.732 L166.677,267.157 C166.677,260.409 164.489,256.569 160.111,255.636 L160.111,250.175 C163.825,249.331 165.858,247.31 166.213,244.113 L166.213,244.113 Z M219.187,250.955 L235.958,267.727 L274.958,228.999 L291.961,228.999 L235.929,284.667 L227.444,276.182 L202.129,250.866 L219.187,250.955 L219.187,250.955 Z M302.792,312.783 L304.583,312.649 C307.147,312.294 308.431,309.874 308.431,305.39 L308.431,303.858 L308.431,270.816 C308.431,263.182 311.194,257.365 316.722,253.37 C311.194,249.729 308.431,243.913 308.431,235.922 L308.431,203.014 L308.431,201.548 C308.431,198.131 307.944,196.022 306.972,195.222 C305.999,194.423 303.39,194.023 299.145,194.023 L293.042,194.023 L293.042,186.698 L316.059,186.698 C324.726,186.698 329.06,193.224 329.06,206.276 L329.06,239.849 C329.06,246.598 331.27,250.438 335.693,251.37 L335.693,256.83 C331.934,257.674 329.878,259.694 329.524,262.89 L329.126,266.087 L329.06,266.819 L329.06,300.127 C329.06,313.579 323.908,320.305 313.605,320.305 L292.976,320.305 L292.976,312.78 L300.604,312.78 L302.792,312.78 L302.792,312.783 Z M-369.504,-307.008 C-478.576,-307.008 -566.997,-395.43 -566.997,-504.505 C-566.997,-613.579 -478.576,-702.001 -369.504,-702.001 C-260.432,-702.001 -172.012,-613.579 -172.012,-504.505 C-172.013,-395.43 -260.433,-307.008 -369.504,-307.008 L-369.504,-307.008 Z M-370.502,-675.162 C-464.892,-675.162 -541.409,-598.458 -541.409,-503.84 C-541.409,-409.221 -464.892,-332.518 -370.502,-332.518 C-276.114,-332.518 -199.596,-409.221 -199.596,-503.84 C-199.596,-598.458 -276.114,-675.162 -370.502,-675.162 L-370.502,-675.162 Z M-315.576,-488.771 L-258.984,-488.771 L-258.984,-462.666 L-315.576,-462.666 L-315.576,-488.771 L-315.576,-488.771 Z M-315.576,-543.16 L-258.984,-543.16 L-258.984,-517.054 L-315.576,-517.054 L-315.576,-543.16 L-315.576,-543.16 Z M-315.576,-597.549 L-258.984,-597.549 L-258.984,-571.444 L-315.576,-571.444 L-315.576,-597.549 L-315.576,-597.549 Z M-376.499,-389.778 C-398.137,-389.778 -415.678,-407.242 -415.678,-428.784 C-415.678,-444.989 -405.866,-458.937 -391.74,-464.829 L-391.74,-616.03 L-361.271,-585.572 L-361.271,-464.829 C-347.165,-458.928 -337.32,-444.974 -337.32,-428.784 C-337.319,-407.242 -354.86,-389.778 -376.499,-389.778 L-376.499,-389.778 Z M-255.998,-1215.003 L-255.62,-1215.003 L-231.52,-1190.903 C-222.216,-1210.658 -216.999,-1232.717 -216.999,-1256 C-216.999,-1328.457 -267.367,-1389.145 -334.999,-1404.973 L-334.999,-1435.642 C-250.676,-1419.308 -186.999,-1345.097 -186.999,-1256 C-186.999,-1224.338 -195.053,-1194.563 -209.207,-1168.59 L-182.997,-1142.381 L-182.997,-1142.003 L-255.997,-1142.003 L-255.997,-1215.003 L-255.998,-1215.003 Z M-553,-1256 C-553,-1340.454 -495.787,-1411.534 -418.009,-1432.625 L-418.009,-1467.728 L-417.746,-1467.989 L-366.988,-1417.499 L-417.746,-1367.01 L-418.009,-1367.271 L-418.009,-1401.297 C-478.987,-1381.16 -523,-1323.727 -523,-1256 C-523,-1244.938 -521.815,-1234.154 -519.585,-1223.758 L-550.174,-1223.802 C-552.03,-1234.255 -553,-1245.014 -553,-1256 L-553,-1256 Z M-406.868,-1311.301 L-386.172,-1311.301 L-386.172,-1303.776 L-393.8,-1303.776 L-396.055,-1303.776 L-397.846,-1303.644 C-400.411,-1303.288 -401.694,-1300.869 -401.694,-1296.385 L-401.694,-1294.853 L-401.694,-1271.811 C-401.694,-1264.176 -404.458,-1258.36 -409.985,-1254.365 C-404.458,-1250.679 -401.694,-1244.864 -401.694,-1236.917 L-401.694,-1213.942 L-401.694,-1212.477 C-401.694,-1209.06 -401.208,-1206.95 -400.235,-1206.151 C-399.263,-1205.351 -396.653,-1204.952 -392.408,-1204.952 L-386.305,-1204.952 L-386.305,-1197.627 L-409.322,-1197.693 C-417.989,-1197.693 -422.323,-1204.219 -422.323,-1217.272 L-422.323,-1240.846 C-422.323,-1247.594 -424.511,-1251.434 -428.889,-1252.367 L-428.889,-1257.827 C-425.174,-1258.67 -423.141,-1260.691 -422.786,-1263.887 L-422.388,-1267.084 L-422.322,-1267.816 L-422.322,-1291.124 C-422.323,-1304.575 -417.172,-1311.301 -406.868,-1311.301 L-406.868,-1311.301 Z M-270.668,-1102.288 C-299.277,-1083.763 -333.38,-1073 -370,-1073 C-430.13,-1073 -483.461,-1102.02 -516.819,-1146.798 L-541.619,-1121.998 L-541.996,-1121.998 L-541.996,-1194.998 L-468.996,-1194.998 L-468.996,-1194.62 L-495.344,-1168.272 C-467.674,-1128.81 -421.857,-1103 -370,-1103 C-341.701,-1103 -315.203,-1110.692 -292.465,-1124.085 L-270.668,-1102.288 L-270.668,-1102.288 Z M-319.94,-1291.722 L-319.94,-1268.148 C-319.94,-1261.398 -317.729,-1257.56 -313.307,-1256.627 L-313.307,-1251.167 C-317.066,-1250.323 -319.122,-1248.303 -319.475,-1245.106 L-319.873,-1241.91 L-319.939,-1241.177 L-319.939,-1217.869 C-319.939,-1204.417 -325.091,-1197.692 -335.394,-1197.692 L-356.023,-1197.692 L-356.023,-1205.217 L-348.395,-1205.217 L-346.207,-1205.217 L-344.415,-1205.35 C-341.851,-1205.706 -340.568,-1208.125 -340.568,-1212.609 L-340.568,-1214.14 L-340.568,-1237.182 C-340.568,-1244.817 -337.805,-1250.634 -332.277,-1254.629 C-337.805,-1258.269 -340.568,-1264.085 -340.568,-1272.076 L-340.568,-1294.984 L-340.568,-1296.449 C-340.568,-1299.868 -341.055,-1301.976 -342.027,-1302.776 C-343,-1303.575 -345.609,-1303.975 -349.854,-1303.975 L-355.957,-1303.975 L-355.957,-1311.3 L-332.94,-1311.3 C-324.275,-1311.301 -319.94,-1304.775 -319.94,-1291.722 L-319.94,-1291.722 Z M-336.886,-1915.708 C-345.277,-1887.218 -359.069,-1860.628 -377.887,-1836.683 C-380.773,-1832.996 -384.569,-1830.985 -388.552,-1830.985 C-391.347,-1830.985 -394.065,-1832.004 -396.408,-1833.946 C-402.266,-1838.718 -402.821,-1846.518 -397.783,-1852.941 C-379.673,-1876.047 -366.735,-1901.983 -359.345,-1930.042 C-357.614,-1936.622 -353.264,-1940.489 -347.405,-1940.692 L-347.394,-1940.692 C-341.026,-1940.692 -336.42,-1937.346 -334.645,-1931.738 C-334.379,-1930.856 -334.268,-1929.974 -334.091,-1928.888 L-334.845,-1923.304 C-335.466,-1920.864 -336.154,-1918.264 -336.886,-1915.708 L-336.886,-1915.708 Z M-327.521,-1973.411 C-329.896,-1970.991 -333.137,-1969.588 -336.443,-1969.588 C-344.166,-1969.861 -349.315,-1975.67 -349.469,-1983.709 C-349.715,-1996.258 -350.18,-2008.819 -350.646,-2021.368 L-350.758,-2024.601 C-351.069,-2033.577 -357.548,-2040.396 -366.881,-2041.537 C-367.002,-2041.537 -367.124,-2041.549 -367.247,-2041.549 C-376.467,-2041.549 -382.525,-2036.631 -384.7,-2029.078 C-385.278,-2027.019 -385.612,-2024.737 -385.634,-2022.463 C-385.711,-2018.089 -385.666,-1999.898 -385.666,-1999.898 C-385.057,-1982.635 -386.82,-1966.786 -390.915,-1952.676 C-400.869,-1918.488 -422.394,-1893.707 -456.728,-1876.863 C-461.089,-1874.758 -465.604,-1872.883 -470.12,-1871.186 C-471.751,-1870.577 -473.415,-1870.26 -475.07,-1870.26 C-480.374,-1870.26 -485.001,-1873.538 -486.864,-1878.604 C-488.095,-1881.926 -488.007,-1885.455 -486.61,-1888.551 C-485.201,-1891.672 -482.538,-1894.091 -479.131,-1895.402 C-460.435,-1902.661 -446.663,-1911.48 -435.79,-1923.17 C-421.887,-1938.069 -413.985,-1955.888 -412.31,-1976.078 C-411.39,-1987.214 -411.356,-1998.43 -411.333,-2009.632 L-411.267,-2020.666 C-411.11,-2033.137 -407.993,-2043.187 -401.736,-2051.396 C-393.857,-2061.75 -381.818,-2067.675 -368.7,-2067.675 C-364.839,-2067.675 -360.955,-2067.154 -357.148,-2066.126 C-340.539,-2061.66 -327.433,-2046.883 -325.969,-2030.977 C-324.46,-2015.149 -324.149,-1999.016 -323.903,-1982.5 C-323.883,-1979.085 -325.169,-1975.854 -327.521,-1973.411 L-327.521,-1973.411 Z M-503.698,-1954.214 C-501.079,-1955.049 -498.516,-1956.179 -495.986,-1957.355 C-485.278,-1962.307 -479.574,-1971.284 -479.031,-1984.037 L-478.942,-1987.179 C-478.888,-1989.407 -478.853,-1991.622 -478.531,-1993.803 C-477.567,-2000.078 -472.306,-2004.803 -466.293,-2004.803 C-458.326,-2004.159 -453.387,-1998.767 -453.321,-1991.645 L-453.321,-1988.536 C-453.764,-1976.778 -455.528,-1961.72 -465.338,-1949.374 C-472.263,-1940.692 -481.937,-1934.362 -495.809,-1929.477 C-502.578,-1927.103 -509.513,-1925.045 -516.448,-1923.146 C-517.602,-1922.829 -518.757,-1922.672 -519.899,-1922.672 L-519.91,-1922.672 C-525.502,-1922.672 -530.351,-1926.378 -531.972,-1931.919 C-534.047,-1938.95 -530.463,-1945.711 -523.45,-1948.018 C-520.065,-1949.127 -503.698,-1954.214 -503.698,-1954.214 L-503.698,-1954.214 Z M-228.809,-2011.725 C-229.098,-2021.583 -229.387,-2031.463 -230.496,-2041.231 C-233.892,-2071.122 -246.142,-2097.825 -266.913,-2120.606 C-289.307,-2145.094 -316.893,-2160.084 -348.86,-2165.183 C-356.905,-2166.46 -364.905,-2167.104 -372.652,-2167.104 C-405.874,-2167.104 -436.487,-2155.335 -463.642,-2132.126 C-469.932,-2126.722 -475.513,-2120.369 -480.906,-2114.229 L-484.135,-2110.566 C-494.011,-2097.781 -500.58,-2086.801 -504.941,-2075.902 C-511.899,-2056.776 -515.039,-2036.63 -514.55,-2014.221 C-514.417,-2008.273 -514.473,-2002.328 -514.55,-1996.382 C-514.65,-1989.214 -520.076,-1983.81 -527.155,-1983.81 C-533.868,-1983.81 -539.328,-1988.548 -539.594,-1994.595 C-540.792,-2020.869 -540.559,-2055.102 -528.054,-2086.859 C-522.394,-2100.346 -511.065,-2117.159 -506.46,-2123.749 C-493.621,-2140.174 -477.897,-2155.2 -463.374,-2164.843 C-439.883,-2180.502 -414.683,-2189.703 -388.474,-2192.191 C-382.559,-2192.756 -376.723,-2193.028 -370.953,-2193.028 C-333.224,-2193.028 -298.648,-2180.851 -268.178,-2156.828 C-236.488,-2131.798 -216.026,-2098.73 -207.327,-2058.537 C-204.109,-2043.831 -203.731,-2028.545 -203.375,-2013.77 L-203.22,-2004.43 C-202.42,-1974.088 -204.595,-1945.349 -209.678,-1917.177 C-210.965,-1909.965 -215.848,-1905.487 -222.438,-1905.487 L-222.615,-1905.487 C-229.363,-1905.6 -234.489,-1910.326 -235.066,-1916.996 C-235.287,-1919.617 -234.777,-1922.421 -234.244,-1925.384 L-233.823,-1927.714 C-229.451,-1953.083 -227.719,-1979.909 -228.674,-2007.427 L-228.809,-2011.725 L-228.809,-2011.725 Z M-290.149,-2012.968 C-290.349,-2020.373 -290.549,-2028.039 -291.77,-2035.478 C-297.228,-2068.954 -316.781,-2091.1 -349.846,-2101.296 C-357.059,-2103.512 -364.427,-2104.644 -371.751,-2104.644 C-383.548,-2104.644 -395.497,-2101.75 -407.282,-2096.04 C-416.093,-2091.722 -423.892,-2085.922 -430.473,-2078.777 C-443.09,-2065.142 -450.546,-2049.394 -452.721,-2031.87 C-453.564,-2025.133 -458.89,-2020.043 -465.104,-2020.043 C-474.558,-2021.367 -478.998,-2027.686 -477.921,-2035.905 C-475.203,-2056.357 -467.191,-2074.797 -454.13,-2090.703 L-451.767,-2093.393 C-440.893,-2104.981 -424.926,-2116.659 -412.064,-2122.37 C-402.633,-2126.292 -392.368,-2128.95 -383.191,-2129.821 C-379.23,-2130.206 -375.315,-2130.398 -371.451,-2130.398 C-348.283,-2130.398 -327.212,-2123.399 -308.813,-2109.595 C-280.672,-2088.477 -266.002,-2059.896 -265.249,-2024.636 L-264.983,-2014.416 C-264.717,-2004.703 -264.429,-1994.993 -264.672,-1985.305 C-265.781,-1936.488 -276.301,-1891.425 -295.942,-1851.358 C-298.538,-1846.001 -303.044,-1842.812 -307.994,-1842.812 C-310.723,-1842.812 -313.452,-1843.806 -315.893,-1845.707 C-320.731,-1849.481 -322.017,-1856.084 -319.044,-1862.19 C-310.345,-1880.074 -303.952,-1897.372 -299.514,-1915.077 C-292.258,-1944.018 -289.437,-1969.478 -289.795,-2002.954 C-289.972,-2006.343 -290.061,-2009.654 -290.149,-2012.968 L-290.149,-2012.968 Z M-301.5,-2595.692 L-301.5,-2619.742 C-247.383,-2645.686 -210.012,-2700.978 -210.012,-2765 C-210.012,-2853.918 -282.094,-2926.001 -371.012,-2926.001 C-459.93,-2926.001 -532.012,-2853.918 -532.012,-2765 C-532.012,-2679.099 -464.737,-2608.919 -380,-2604.254 L-380,-2700 L-432,-2700 L-432,-2798 L-412,-2798 L-412,-2818 L-411.977,-2818 C-411.718,-2823.569 -407.123,-2828.005 -401.49,-2828.005 C-395.857,-2828.005 -391.261,-2823.569 -391.003,-2818 L-391,-2818 L-391,-2817.908 C-390.995,-2817.774 -390.99,-2817.64 -390.99,-2817.505 C-390.99,-2817.37 -390.995,-2817.235 -391,-2817.101 L-391,-2798 L-349,-2798 L-349,-2818 L-348.977,-2818 C-348.718,-2823.569 -344.123,-2828.005 -338.49,-2828.005 C-332.857,-2828.005 -328.261,-2823.569 -328.003,-2818 L-328,-2818 L-328,-2817.908 C-327.995,-2817.774 -327.99,-2817.64 -327.99,-2817.505 C-327.99,-2817.37 -327.995,-2817.235 -328,-2817.101 L-328,-2798 L-308,-2798 L-308,-2700 L-359,-2700 L-359,-2604 L-359,-2582 C-362.819,-2581.762 -367.166,-2582 -371.044,-2582 C-472.112,-2582 -554.044,-2663.932 -554.044,-2765 C-554.044,-2866.069 -472.112,-2948.001 -371.044,-2948.001 C-269.976,-2948.001 -188.044,-2866.069 -188.044,-2765 C-188.044,-2688.554 -234.925,-2623.069 -301.5,-2595.692 L-301.5,-2595.692 Z M-976.212,-2594.79 L-976.668,-2594.372 L-988.835,-2581.009 L-991.168,-2581.009 L-1003.393,-2594.432 L-1003.78,-2594.79 L-1003.75,-2594.83 L-1214,-2826 L-1092.452,-2948.996 L-887.55,-2948.996 L-766,-2826 L-976.253,-2594.83 L-976.212,-2594.79 L-976.212,-2594.79 Z M-793,-2826 L-896,-2929 L-1084,-2929 L-1186,-2826 L-990.001,-2609.926 L-793,-2826 L-793,-2826 Z M-1002,-2728 L-1002,-2790 L-1064,-2790 L-1064,-2816 L-1002,-2816 L-1002,-2878 L-976,-2878 L-976,-2816 L-914,-2816 L-914,-2790 L-976,-2790 L-976,-2728 L-1002,-2728 L-1002,-2728 Z M-1566.005,3375.99 C-1603.061,3375.99 -1636.935,3362.371 -1662.898,3339.867 L-1779.155,3456.124 L-1796.125,3439.153 L-1679.703,3322.731 C-1701.116,3297.061 -1714.005,3264.033 -1714.005,3227.99 C-1714.005,3146.252 -1647.743,3079.99 -1566.005,3079.99 C-1484.267,3079.99 -1418.005,3146.253 -1418.005,3227.99 C-1418.005,3309.729 -1484.267,3375.99 -1566.005,3375.99 L-1566.005,3375.99 Z M-1566.004,3101.992 C-1635.592,3101.992 -1692.004,3158.404 -1692.004,3227.992 C-1692.004,3297.58 -1635.592,3353.992 -1566.004,3353.992 C-1496.416,3353.992 -1440.004,3297.579 -1440.004,3227.992 C-1440.004,3158.404 -1496.417,3101.992 -1566.004,3101.992 L-1566.004,3101.992 Z M-1799,-2839.182 L-1799,-2871.989 L-1609.994,-2964.014 L-1421,-2872.933 L-1421,-2839.183 L-1609.994,-2747.689 L-1799,-2839.182 L-1799,-2839.182 Z M-1609.994,-2939.014 L-1780.147,-2855.32 L-1609.994,-2772.676 L-1438.91,-2856.769 L-1609.994,-2939.014 L-1609.994,-2939.014 Z M-2216.212,-2594.79 L-2216.668,-2594.372 L-2228.834,-2581.009 L-2231.168,-2581.009 L-2243.393,-2594.432 L-2243.78,-2594.79 L-2243.75,-2594.83 L-2454,-2826 L-2332.452,-2948.996 L-2127.55,-2948.996 L-2006,-2826 L-2216.253,-2594.83 L-2216.212,-2594.79 L-2216.212,-2594.79 Z M-2136,-2929 L-2324,-2929 L-2420,-2832 L-2040,-2832 L-2136,-2929 L-2136,-2929 Z M-2045,-2813 L-2414,-2813 L-2230.001,-2609.926 L-2045,-2813 L-2045,-2813 Z M-2374.116,303.262 C-2366.642,303.262 -2359.501,304.669 -2352.923,307.21 L-2277.364,176.373 C-2285.795,166.187 -2290.864,153.116 -2290.864,138.86 C-2290.864,106.346 -2264.507,79.989 -2231.995,79.989 C-2199.483,79.989 -2173.126,106.346 -2173.126,138.86 C-2173.126,171.373 -2199.482,197.73 -2231.995,197.73 C-2242.804,197.73 -2252.923,194.804 -2261.629,189.72 L-2335.533,317.691 C-2323.112,328.484 -2315.248,344.385 -2315.248,362.133 C-2315.248,394.647 -2341.604,421.005 -2374.117,421.005 C-2406.629,421.005 -2432.986,394.647 -2432.986,362.133 C-2432.985,329.619 -2406.628,303.262 -2374.116,303.262 L-2374.116,303.262 Z M-2234.044,3831.999 C-2132.976,3831.999 -2051.044,3913.931 -2051.044,4014.999 C-2051.044,4116.067 -2132.976,4197.999 -2234.044,4197.999 C-2335.112,4197.999 -2417.044,4116.067 -2417.044,4014.999 C-2417.044,3913.931 -2335.112,3831.999 -2234.044,3831.999 L-2234.044,3831.999 Z M-2234.011,4175.999 C-2145.093,4175.999 -2073.011,4103.917 -2073.011,4014.999 C-2073.011,3926.081 -2145.093,3853.999 -2234.011,3853.999 C-2322.929,3853.999 -2395.011,3926.081 -2395.011,4014.999 C-2395.011,4103.917 -2322.929,4175.999 -2234.011,4175.999 L-2234.011,4175.999 Z M-2235.89,3929.985 C-2207.858,3929.985 -2171.087,3944.75 -2172.003,3978.204 C-2172.697,4002.887 -2191.297,4010.73 -2208.532,4018.121 C-2220.489,4022.968 -2231.511,4027.814 -2231.511,4038.878 L-2231.511,4044.419 C-2231.511,4053.868 -2248.073,4054.337 -2248.073,4044.419 L-2248.073,4038.634 C-2248.073,4018.816 -2231.754,4011.885 -2216.129,4005.197 C-2202.786,3999.655 -2189.239,3993.654 -2188.769,3977.744 C-2188.321,3954.442 -2216.577,3944.984 -2236.115,3944.984 C-2252.656,3944.984 -2274.962,3949.135 -2280.707,3967.355 C-2283.233,3975.434 -2298.616,3971.282 -2295.64,3962.05 C-2287.127,3935.987 -2257.953,3929.985 -2235.89,3929.985 L-2235.89,3929.985 Z M-2230.145,4086.497 L-2230.145,4092.471 C-2230.145,4103.102 -2249.213,4101.938 -2249.213,4092.471 L-2249.213,4086.497 C-2249.213,4076.334 -2230.145,4075.865 -2230.145,4086.497 L-2230.145,4086.497 Z M-2221.731,2578.45 C-2222.576,2578.29 -2223.344,2577.929 -2223.934,2577.329 L-2312.406,2487.364 C-2314.883,2484.843 -2313.665,2479.483 -2309.672,2475.425 C-2305.681,2471.364 -2300.429,2470.124 -2297.932,2472.644 L-2217.13,2554.811 L-2059.479,2394.486 C-2054.878,2389.806 -2047.916,2389.317 -2043.943,2393.376 C-2039.932,2397.437 -2040.405,2404.527 -2045.006,2409.196 L-2208.753,2575.73 C-2212.49,2579.531 -2217.74,2580.41 -2221.731,2578.45 L-2221.731,2578.45 Z M-2049,-1231.522 L-2195,-1377.522 L-2195,-1075.001 L-2221,-1075.001 L-2221,-1440.001 L-2049,-1268.292 L-2049,-1231.522 L-2049,-1231.522 Z M-2070.001,-1954.016 L-2229.921,-1851.002 L-2389.998,-1954.082 L-2389.998,-2171.009 L-2070.002,-2171.009 L-2070.002,-1954.016 L-2070.001,-1954.016 Z M-2230.015,-2149.002 L-2230,-1877 L-2092,-1966 L-2091.996,-2149.002 L-2230.015,-2149.002 L-2230.015,-2149.002 Z M-2412,-1283.48 L-2266,-1137.48 L-2266,-1440.001 L-2240,-1440.001 L-2240,-1075.001 L-2412,-1246.71 L-2412,-1283.48 L-2412,-1283.48 Z M-2164.18,-653.447 L-2051.774,-682.434 L-2080.761,-570.027 L-2092.776,-582.042 L-2070.151,-664.055 L-2122.47,-611.736 L-2164.18,-653.447 L-2164.18,-653.447 Z M-2123.244,291.7 L-2140.827,301.849 L-2196.66,205.168 L-2179.077,195.019 L-2123.244,291.7 L-2123.244,291.7 Z M-2177.182,370.254 L-2288.849,370.254 L-2288.849,349.957 L-2177.182,349.957 L-2177.182,370.254 L-2177.182,370.254 Z M-2340.354,854.081 C-2252.531,910.642 -2240.26,945.845 -2239.021,1011.986 C-2239.021,1024.461 -2238.989,1037.505 -2238.989,1049.994 C-2242.061,1048.168 -2245,1046.385 -2247.939,1044.603 C-2253.289,1041.472 -2258.397,1038.215 -2266.698,1032.876 C-2354.491,976.323 -2366.752,941.122 -2367.982,874.98 C-2367.982,861.819 -2368.021,849.989 -2368.021,836.99 C-2364.933,838.828 -2361.974,840.62 -2359.03,842.412 C-2353.12,845.916 -2347.406,849.483 -2340.354,854.081 L-2340.354,854.081 Z M-2367.982,1034.981 C-2367.982,1021.82 -2368.021,1009.99 -2368.021,996.991 C-2364.933,998.828 -2361.974,1000.62 -2359.03,1002.412 C-2353.121,1005.915 -2347.407,1009.482 -2340.355,1014.081 C-2252.532,1070.641 -2240.261,1105.844 -2239.022,1171.985 C-2239.022,1184.46 -2238.99,1197.505 -2238.99,1209.993 C-2242.062,1208.166 -2245.001,1206.384 -2247.94,1204.602 C-2253.29,1201.471 -2258.398,1198.214 -2266.699,1192.875 C-2354.491,1136.323 -2366.752,1101.123 -2367.982,1034.981 L-2367.982,1034.981 Z M-2192.302,982.876 C-2200.603,988.215 -2205.711,991.472 -2211.061,994.603 C-2214,996.384 -2216.938,998.166 -2220.011,999.994 C-2220.011,987.506 -2219.979,974.461 -2219.979,961.987 C-2218.74,895.845 -2206.469,860.643 -2118.646,804.081 C-2111.595,799.483 -2105.881,795.915 -2099.971,792.414 C-2097.027,790.622 -2094.068,788.831 -2090.98,786.992 C-2090.98,799.992 -2091.018,811.82 -2091.018,824.982 C-2092.248,891.123 -2104.51,926.323 -2192.302,982.876 L-2192.302,982.876 Z M-2128.661,833.708 C-2181.377,869.978 -2196.986,901.107 -2196.986,941.943 C-2196.828,950.492 -2197.007,951.435 -2197.007,959.995 C-2194.936,958.744 -2192.954,957.521 -2190.973,956.301 C-2187.366,954.155 -2183.489,952.511 -2178.325,948.263 C-2136.13,913.499 -2112.034,886.567 -2112.034,857.034 C-2112.199,848.014 -2112.008,850.405 -2112.008,823.994 C-2113.014,824.603 -2122.918,829.708 -2128.661,833.708 L-2128.661,833.708 Z M-2091.018,984.981 C-2092.248,1051.123 -2104.509,1086.323 -2192.302,1142.876 C-2200.603,1148.215 -2205.711,1151.472 -2211.061,1154.604 C-2214,1156.385 -2216.938,1158.167 -2220.011,1159.994 C-2220.011,1147.506 -2219.979,1134.46 -2219.979,1121.987 C-2218.74,1055.845 -2206.469,1020.643 -2118.646,964.081 C-2111.595,959.483 -2105.881,955.915 -2099.971,952.413 C-2097.027,950.621 -2094.068,948.83 -2090.98,946.991 C-2090.98,959.991 -2091.018,971.82 -2091.018,984.981 L-2091.018,984.981 Z M-2102,1573 L-2102,1635 L-2066,1622.185 L-2066,1883.247 L-2230,1940 L-2395,1883.247 L-2395,1622.185 L-2230,1679 L-2102,1573 L-2102,1573 Z M-2124,1621 L-2172.756,1659.168 L-2124,1642 L-2124,1621 L-2124,1621 Z M-2230,1917 L-2088,1868 L-2088,1652 L-2230,1703 L-2230,1917 L-2230,1917 Z M-2229,2329.999 C-2197.219,2329.999 -2167.333,2338.106 -2141.288,2352.356 L-2149.687,2372.867 C-2173.099,2359.588 -2200.161,2351.998 -2229,2351.998 C-2317.918,2351.998 -2390,2424.08 -2390,2512.998 C-2390,2601.916 -2317.918,2673.998 -2229,2673.998 C-2159.776,2673.998 -2100.762,2630.307 -2078.014,2568.998 L-2054.741,2568.998 C-2078.399,2642.672 -2147.467,2695.998 -2229.001,2695.998 C-2330.069,2695.998 -2412.001,2614.066 -2412.001,2512.998 C-2412,2411.931 -2330.068,2329.999 -2229,2329.999 L-2229,2329.999 Z M-2212.988,3058.009 L-2212.988,3058.98 L-2212.012,3058.009 L-2052.309,3217.01 L-2051.998,3217.01 L-2051.998,3462 L-2410.01,3462 L-2410.01,3217.01 L-2409.678,3217.01 L-2249.994,3058.039 L-2249.994,3058.009 L-2212.988,3058.009 L-2212.988,3058.009 Z M-2386.993,3225.905 L-2386.993,3438.988 L-2252.988,3438.988 L-2252.988,3351.009 L-2206.987,3351.009 L-2206.987,3438.988 L-2075.014,3438.988 L-2075.014,3225.884 L-2221.564,3079.988 L-2240.422,3079.988 L-2386.993,3225.905 L-2386.993,3225.905 Z M-2267.918,-403.614 L-2347.097,-382.404 L-2325.887,-461.583 L-2267.918,-403.614 L-2267.918,-403.614 Z M-2227.22,-590.427 L-2164.197,-653.45 L-2122.478,-611.731 L-2275.92,-458.289 L-2246.221,-428.59 L-2092.779,-582.033 L-2080.758,-570.012 L-2142.898,-507.872 L-2163.492,-321.834 L-2246.213,-404.556 L-2246.22,-404.549 L-2329.659,-487.988 L-2329.652,-487.996 L-2411.666,-570.009 L-2227.22,-590.427 L-2227.22,-590.427 Z M-2317.639,-500.008 L-2244.1,-573.547 L-2376.329,-558.698 L-2317.639,-500.008 L-2317.639,-500.008 Z M-2148.743,362.132 C-2148.743,329.619 -2122.386,303.261 -2089.874,303.261 C-2057.362,303.261 -2031.005,329.618 -2031.005,362.132 C-2031.005,394.646 -2057.361,421.004 -2089.874,421.004 C-2122.386,421.004 -2148.743,394.646 -2148.743,362.132 L-2148.743,362.132 Z M-1619.93,-2670.19 L-1798.763,-2757.533 L-1798.763,-2783.145 L-1619.93,-2695.801 L-1619.93,-2670.19 L-1619.93,-2670.19 Z M-1610.566,-2193.032 C-1510.331,-2193.032 -1429.074,-2111.745 -1429.074,-2011.473 C-1429.074,-1911.201 -1510.331,-1829.914 -1610.566,-1829.914 C-1710.802,-1829.914 -1792.059,-1911.201 -1792.059,-2011.473 C-1792.059,-2111.745 -1710.802,-2193.032 -1610.566,-2193.032 L-1610.566,-2193.032 Z M-1611.484,-1853.364 C-1524.742,-1853.364 -1454.423,-1923.878 -1454.423,-2010.861 C-1454.423,-2097.845 -1524.742,-2168.358 -1611.484,-2168.358 C-1698.226,-2168.358 -1768.545,-2097.845 -1768.545,-2010.861 C-1768.544,-1923.878 -1698.226,-1853.364 -1611.484,-1853.364 L-1611.484,-1853.364 Z M-1546,-1982.196 L-1609.968,-1940.989 L-1673.999,-1982.222 L-1673.999,-2068.993 L-1546,-2068.993 L-1546,-1982.196 L-1546,-1982.196 Z M-1553,-2062 L-1610,-2062 L-1609.968,-1950.037 L-1552.911,-1985.622 L-1553,-2062 L-1553,-2062 Z M-1610.566,-1439.032 C-1510.331,-1439.032 -1429.074,-1357.746 -1429.074,-1257.474 C-1429.074,-1157.201 -1510.331,-1075.914 -1610.566,-1075.914 C-1710.802,-1075.914 -1792.059,-1157.201 -1792.059,-1257.474 C-1792.06,-1357.746 -1710.802,-1439.032 -1610.566,-1439.032 L-1610.566,-1439.032 Z M-1611.484,-1099.364 C-1524.742,-1099.364 -1454.423,-1169.879 -1454.423,-1256.862 C-1454.423,-1343.846 -1524.742,-1414.36 -1611.484,-1414.36 C-1698.226,-1414.36 -1768.545,-1343.846 -1768.545,-1256.862 C-1768.544,-1169.878 -1698.226,-1099.364 -1611.484,-1099.364 L-1611.484,-1099.364 Z M-1627,-1344 L-1614.975,-1344.001 L-1614.975,-1172.001 L-1696,-1252.916 L-1696,-1270.243 L-1627,-1201 L-1627,-1344 L-1627,-1344 Z M-1525,-1245.759 L-1594,-1315 L-1594,-1172 L-1606.025,-1172 L-1606.025,-1344 L-1525,-1263.085 L-1525,-1245.759 L-1525,-1245.759 Z M-1490.864,-576.589 L-1497.441,-583.153 L-1485.056,-627.959 L-1513.696,-599.376 L-1536.529,-622.163 L-1474.996,-637.999 L-1490.864,-576.589 L-1490.864,-576.589 Z M-1601.037,-557.733 L-1536.537,-622.164 L-1513.7,-599.372 L-1627.696,-485.543 L-1611.439,-469.318 L-1497.443,-583.146 L-1490.862,-576.58 L-1554.879,-512.631 L-1566.152,-410.995 L-1611.435,-456.187 L-1611.439,-456.184 L-1657.114,-501.768 L-1657.11,-501.772 L-1702.006,-546.578 L-1601.037,-557.733 L-1601.037,-557.733 Z M-1650.534,-508.335 L-1610.278,-548.511 L-1682.662,-540.399 L-1650.534,-508.335 L-1650.534,-508.335 Z M-1610.566,-685.032 C-1584.314,-685.032 -1559.368,-679.448 -1536.839,-669.415 L-1556.012,-650.242 C-1573.262,-656.774 -1591.954,-660.359 -1611.483,-660.359 C-1698.225,-660.359 -1768.544,-589.846 -1768.544,-502.861 C-1768.544,-478.743 -1763.135,-455.895 -1753.469,-435.463 L-1700.656,-432.642 L-1659.959,-473.339 L-1644.403,-457.783 L-1686.231,-415.954 L-1683.393,-362.822 C-1661.846,-351.671 -1637.402,-345.365 -1611.483,-345.365 C-1524.741,-345.365 -1454.422,-415.878 -1454.422,-502.862 C-1454.422,-522.656 -1458.074,-541.592 -1464.721,-559.043 L-1445.254,-578.51 C-1434.864,-555.638 -1429.073,-530.234 -1429.073,-503.474 C-1429.073,-403.202 -1510.33,-321.914 -1610.565,-321.914 C-1687.14,-321.914 -1752.634,-369.357 -1779.29,-436.46 L-1779.694,-436.865 L-1779.45,-436.852 C-1787.587,-457.479 -1792.059,-479.954 -1792.059,-503.474 C-1792.06,-603.746 -1710.802,-685.032 -1610.566,-685.032 L-1610.566,-685.032 Z M-1610.566,69.968 C-1510.331,69.968 -1429.074,151.254 -1429.074,251.527 C-1429.074,351.799 -1510.331,433.086 -1610.566,433.086 C-1710.802,433.086 -1792.059,351.799 -1792.059,251.527 C-1792.06,151.254 -1710.802,69.968 -1610.566,69.968 L-1610.566,69.968 Z M-1611.484,409.635 C-1524.742,409.635 -1454.423,339.121 -1454.423,252.138 C-1454.423,165.154 -1524.742,94.64 -1611.484,94.64 C-1698.226,94.64 -1768.545,165.153 -1768.545,252.138 C-1768.544,339.122 -1698.226,409.635 -1611.484,409.635 L-1611.484,409.635 Z M-1681.998,263.994 C-1678.317,263.994 -1674.799,264.687 -1671.559,265.939 L-1634.343,201.479 C-1638.496,196.461 -1640.992,190.021 -1640.992,182.997 C-1640.992,166.979 -1628.011,153.993 -1611.997,153.993 C-1595.983,153.993 -1583.002,166.979 -1583.002,182.997 C-1583.002,199.016 -1595.983,212.001 -1611.997,212.001 C-1617.32,212.001 -1622.305,210.559 -1626.593,208.055 L-1662.993,271.103 C-1656.875,276.42 -1653.002,284.254 -1653.002,292.998 C-1653.002,309.017 -1665.983,322.001 -1681.997,322.001 C-1698.01,322.001 -1710.992,309.016 -1710.992,292.998 C-1710.992,276.98 -1698.011,263.994 -1681.998,263.994 L-1681.998,263.994 Z M-1585,297 L-1640,297 L-1640,287 L-1585,287 L-1585,297 L-1585,297 Z M-1585.934,210.666 L-1558.434,258.298 L-1567.095,263.298 L-1594.595,215.666 L-1585.934,210.666 L-1585.934,210.666 Z M-1541.998,263.994 C-1525.984,263.994 -1513.003,276.979 -1513.003,292.997 C-1513.003,309.015 -1525.984,322 -1541.998,322 C-1558.012,322 -1570.993,309.015 -1570.993,292.997 C-1570.993,276.979 -1558.011,263.994 -1541.998,263.994 L-1541.998,263.994 Z M-1610.566,1577.969 C-1510.331,1577.969 -1429.074,1659.254 -1429.074,1759.528 C-1429.074,1859.8 -1510.331,1941.087 -1610.566,1941.087 C-1710.802,1941.087 -1792.059,1859.8 -1792.059,1759.528 C-1792.06,1659.254 -1710.802,1577.969 -1610.566,1577.969 L-1610.566,1577.969 Z M-1611.484,1917.636 C-1524.742,1917.636 -1454.423,1847.122 -1454.423,1760.139 C-1454.423,1673.155 -1524.742,1602.64 -1611.484,1602.64 C-1698.226,1602.64 -1768.545,1673.155 -1768.545,1760.139 C-1768.544,1847.122 -1698.226,1917.636 -1611.484,1917.636 L-1611.484,1917.636 Z M-1542,1658.999 L-1542,1691.551 L-1523,1684.999 L-1523,1822.999 L-1610,1852.999 L-1697,1822.999 L-1697,1684.999 L-1610,1714.999 L-1542,1658.999 L-1542,1658.999 Z M-1554,1684.999 L-1579.269,1704.402 L-1554,1695.688 L-1554,1684.999 L-1554,1684.999 Z M-1610,1840.999 L-1535,1814.999 L-1535,1700.999 L-1610,1727.999 L-1610,1840.999 L-1610,1840.999 Z M-1610.566,823.967 C-1510.331,823.967 -1429.074,905.254 -1429.074,1005.527 C-1429.074,1105.798 -1510.331,1187.086 -1610.566,1187.086 C-1710.802,1187.086 -1792.059,1105.799 -1792.059,1005.527 C-1792.06,905.254 -1710.802,823.967 -1610.566,823.967 L-1610.566,823.967 Z M-1611.484,1163.636 C-1524.742,1163.636 -1454.423,1093.122 -1454.423,1006.139 C-1454.423,919.155 -1524.742,848.642 -1611.484,848.642 C-1698.226,848.642 -1768.545,919.155 -1768.545,1006.139 C-1768.544,1093.122 -1698.226,1163.636 -1611.484,1163.636 L-1611.484,1163.636 Z M-1668.715,931.889 C-1623.387,961.305 -1617.053,979.614 -1616.414,1014.014 C-1616.414,1020.502 -1616.397,1027.286 -1616.397,1033.782 C-1617.982,1032.832 -1619.499,1031.905 -1621.016,1030.978 C-1623.777,1029.35 -1626.413,1027.656 -1630.698,1024.879 C-1676.01,995.466 -1682.339,977.159 -1682.974,942.758 C-1682.974,935.913 -1682.994,929.761 -1682.994,923 C-1681.4,923.956 -1679.873,924.887 -1678.353,925.819 C-1675.304,927.641 -1672.355,929.497 -1668.715,931.889 L-1668.715,931.889 Z M-1668.715,1015.104 C-1623.387,1044.521 -1617.053,1062.83 -1616.414,1097.229 C-1616.414,1103.717 -1616.397,1110.502 -1616.397,1116.996 C-1617.982,1116.046 -1619.499,1115.12 -1621.016,1114.193 C-1623.777,1112.565 -1626.413,1110.871 -1630.698,1108.094 C-1676.01,1078.681 -1682.339,1060.373 -1682.974,1025.974 C-1682.974,1019.128 -1682.994,1012.976 -1682.994,1006.215 C-1681.4,1007.172 -1679.873,1008.103 -1678.353,1009.035 C-1675.304,1010.856 -1672.355,1012.711 -1668.715,1015.104 L-1668.715,1015.104 Z M-1554.285,905.884 C-1550.646,903.492 -1547.697,901.637 -1544.647,899.816 C-1543.127,898.884 -1541.6,897.952 -1540.006,896.996 C-1540.006,903.756 -1540.026,909.909 -1540.026,916.754 C-1540.661,951.155 -1546.989,969.462 -1592.301,998.875 C-1596.585,1001.651 -1599.221,1003.346 -1601.983,1004.974 C-1603.5,1005.901 -1605.017,1006.828 -1606.602,1007.778 C-1606.602,1001.283 -1606.586,994.498 -1606.586,988.01 C-1605.946,953.609 -1599.613,935.3 -1554.285,905.884 L-1554.285,905.884 Z M-1591.615,985.052 C-1589.753,983.936 -1587.752,983.081 -1585.087,980.871 C-1563.309,962.79 -1550.872,948.784 -1550.872,933.424 C-1550.957,928.733 -1550.859,929.976 -1550.859,916.24 C-1551.378,916.557 -1556.49,919.212 -1559.454,921.292 C-1586.662,940.156 -1594.718,956.347 -1594.718,977.585 C-1594.637,982.03 -1594.729,982.522 -1594.729,986.974 C-1593.661,986.322 -1592.638,985.688 -1591.615,985.052 L-1591.615,985.052 Z M-1554.285,989.099 C-1550.646,986.707 -1547.697,984.852 -1544.647,983.031 C-1543.127,982.098 -1541.6,981.167 -1540.006,980.211 C-1540.006,986.971 -1540.026,993.125 -1540.026,999.969 C-1540.661,1034.368 -1546.989,1052.676 -1592.301,1082.089 C-1596.585,1084.866 -1599.221,1086.56 -1601.983,1088.188 C-1603.5,1089.115 -1605.017,1090.042 -1606.602,1090.993 C-1606.602,1084.497 -1606.586,1077.713 -1606.586,1071.225 C-1605.946,1036.825 -1599.613,1018.516 -1554.285,989.099 L-1554.285,989.099 Z M-1600.069,-2717.638 L-1421.235,-2804.631 L-1421.235,-2657.793 L-1520.587,-2608.735 L-1520.587,-2634.397 L-1441.106,-2673.385 L-1441.106,-2769.715 L-1580.199,-2702.033 L-1580.199,-2579.313 L-1598.788,-2571.014 L-1798.764,-2668.304 L-1798.764,-2693.915 L-1600.07,-2596.152 L-1600.07,-2717.638 L-1600.069,-2717.638 Z M-1602,3833 L-1602,4089.686 L-1506,3993.686 L-1506,4026.314 L-1612.912,4133.225 L-1613.5,4132.637 L-1614.088,4133.225 L-1720,4027.313 L-1720,3994.686 L-1626,4088.686 L-1626,3833 L-1602,3833 L-1602,3833 Z M-1771,4172.999 L-1455,4172.999 L-1455,4066.999 L-1431,4066.999 L-1431,4196.999 L-1795,4196.999 L-1795,4066.999 L-1771,4066.999 L-1771,4172.999 L-1771,4172.999 Z M-991.5,1941.998 C-1092.292,1941.998 -1174,1860.29 -1174,1759.498 C-1174,1658.706 -1092.292,1576.998 -991.5,1576.998 C-890.708,1576.998 -809,1658.706 -809,1759.498 C-809,1860.291 -890.708,1941.998 -991.5,1941.998 L-991.5,1941.998 Z M-991.5,1587.28 C-1086.614,1587.28 -1163.719,1664.384 -1163.719,1759.498 C-1163.719,1854.612 -1086.614,1931.716 -991.5,1931.716 C-896.386,1931.716 -819.282,1854.612 -819.282,1759.498 C-819.282,1664.384 -896.387,1587.28 -991.5,1587.28 L-991.5,1587.28 Z M-1077,1823 L-1077,1685 L-990,1715 L-922,1659 L-922,1691.552 L-903,1685 L-903,1823 L-990,1853 L-1077,1823 L-1077,1823 Z M-934,1684.999 L-959.269,1704.402 L-934,1695.688 L-934,1684.999 L-934,1684.999 Z M-915,1700.999 L-990,1727.999 L-990,1840.999 L-915,1814.999 L-915,1700.999 L-915,1700.999 Z M-991.5,1187.999 C-1092.292,1187.999 -1174,1106.291 -1174,1005.499 C-1174,904.708 -1092.292,822.999 -991.5,822.999 C-890.708,822.999 -809,904.707 -809,1005.499 C-809,1106.291 -890.708,1187.999 -991.5,1187.999 L-991.5,1187.999 Z M-991.5,833.28 C-1086.614,833.28 -1163.719,910.384 -1163.719,1005.498 C-1163.719,1100.612 -1086.614,1177.717 -991.5,1177.717 C-896.386,1177.717 -819.282,1100.612 -819.282,1005.498 C-819.282,910.384 -896.387,833.28 -991.5,833.28 L-991.5,833.28 Z M-971.301,1082.089 C-975.585,1084.866 -978.221,1086.56 -980.983,1088.188 C-982.5,1089.115 -984.017,1090.042 -985.602,1090.993 C-985.602,1084.497 -985.585,1077.713 -985.585,1071.225 C-984.945,1036.826 -978.612,1018.517 -933.284,989.1 C-929.645,986.708 -926.696,984.853 -923.646,983.032 C-922.126,982.099 -920.599,981.168 -919.005,980.212 C-919.005,986.972 -919.025,993.126 -919.025,999.97 C-919.66,1034.368 -925.989,1052.676 -971.301,1082.089 L-971.301,1082.089 Z M-971.301,998.874 C-975.585,1001.65 -978.221,1003.345 -980.983,1004.973 C-982.5,1005.9 -984.017,1006.827 -985.602,1007.777 C-985.602,1001.282 -985.585,994.497 -985.585,988.009 C-984.945,953.609 -978.612,935.3 -933.284,905.884 C-929.645,903.492 -926.696,901.637 -923.646,899.816 C-922.126,898.884 -920.599,897.952 -919.005,896.996 C-919.005,903.756 -919.025,909.909 -919.025,916.754 C-919.66,951.154 -925.989,969.46 -971.301,998.874 L-971.301,998.874 Z M-938.454,921.292 C-965.662,940.156 -973.718,956.347 -973.718,977.585 C-973.637,982.03 -973.729,982.522 -973.729,986.974 C-972.66,986.323 -971.637,985.688 -970.614,985.052 C-968.752,983.936 -966.751,983.081 -964.086,980.871 C-942.308,962.79 -929.871,948.784 -929.871,933.424 C-929.956,928.733 -929.858,929.976 -929.858,916.24 C-930.378,916.557 -935.49,919.212 -938.454,921.292 L-938.454,921.292 Z M-1009.699,1108.094 C-1055.011,1078.681 -1061.34,1060.373 -1061.975,1025.974 C-1061.975,1019.128 -1061.995,1012.976 -1061.995,1006.215 C-1060.401,1007.172 -1058.874,1008.103 -1057.354,1009.035 C-1054.304,1010.856 -1051.355,1012.711 -1047.715,1015.103 C-1002.387,1044.52 -996.053,1062.829 -995.414,1097.228 C-995.414,1103.716 -995.397,1110.501 -995.397,1116.995 C-996.982,1116.045 -998.499,1115.119 -1000.016,1114.192 C-1002.779,1112.564 -1005.415,1110.871 -1009.699,1108.094 L-1009.699,1108.094 Z M-1009.699,1024.878 C-1055.011,995.465 -1061.34,977.158 -1061.975,942.757 C-1061.975,935.912 -1061.995,929.76 -1061.995,922.999 C-1060.401,923.955 -1058.874,924.886 -1057.354,925.818 C-1054.304,927.639 -1051.355,929.496 -1047.715,931.887 C-1002.387,961.303 -996.053,979.612 -995.414,1014.012 C-995.414,1020.5 -995.397,1027.284 -995.397,1033.78 C-996.982,1032.83 -998.499,1031.903 -1000.016,1030.976 C-1002.779,1029.35 -1005.415,1027.655 -1009.699,1024.878 L-1009.699,1024.878 Z M-991.5,433.998 C-1092.292,433.998 -1174,352.291 -1174,251.498 C-1174,150.706 -1092.292,68.998 -991.5,68.998 C-890.708,68.998 -809,150.706 -809,251.498 C-809,352.291 -890.708,433.998 -991.5,433.998 L-991.5,433.998 Z M-991.5,79.28 C-1086.614,79.28 -1163.719,156.384 -1163.719,251.498 C-1163.719,346.612 -1086.614,423.716 -991.5,423.716 C-896.386,423.716 -819.282,346.612 -819.282,251.498 C-819.282,156.384 -896.387,79.28 -991.5,79.28 L-991.5,79.28 Z M-921.998,322.001 C-938.012,322.001 -950.993,309.016 -950.993,292.998 C-950.993,276.98 -938.012,263.995 -921.998,263.995 C-905.985,263.995 -893.003,276.98 -893.003,292.998 C-893.003,309.016 -905.984,322.001 -921.998,322.001 L-921.998,322.001 Z M-974.594,215.666 L-965.934,210.666 L-938.434,258.298 L-947.095,263.298 L-974.594,215.666 L-974.594,215.666 Z M-991.998,212.001 C-997.322,212.001 -1002.306,210.559 -1006.594,208.055 L-1042.994,271.103 C-1036.876,276.42 -1033.003,284.254 -1033.003,292.998 C-1033.003,309.017 -1045.984,322.001 -1061.998,322.001 C-1078.011,322.001 -1090.993,309.016 -1090.993,292.998 C-1090.993,276.98 -1078.011,263.995 -1061.998,263.995 C-1058.317,263.995 -1054.8,264.688 -1051.56,265.94 L-1014.344,201.48 C-1018.497,196.462 -1020.993,190.022 -1020.993,182.998 C-1020.993,166.98 -1008.012,153.994 -991.998,153.994 C-975.984,153.994 -963.003,166.98 -963.003,182.998 C-963.003,199.016 -975.984,212.001 -991.998,212.001 L-991.998,212.001 Z M-965,297 L-1020,297 L-1020,287 L-965,287 L-965,297 L-965,297 Z M-991.5,-321.001 C-1092.292,-321.001 -1174,-402.709 -1174,-503.501 C-1174,-604.293 -1092.292,-686.001 -991.5,-686.001 C-961.319,-686.001 -932.853,-678.668 -907.775,-665.697 L-915.433,-658.039 C-938.373,-669.352 -964.191,-675.718 -991.499,-675.718 C-1086.613,-675.718 -1163.718,-598.614 -1163.718,-503.5 C-1163.718,-408.387 -1086.613,-331.282 -991.499,-331.282 C-896.385,-331.282 -819.281,-408.386 -819.281,-503.5 C-819.281,-531.175 -825.819,-557.319 -837.419,-580.489 L-829.78,-588.128 C-816.515,-562.831 -809,-534.045 -809,-503.5 C-809,-402.709 -890.708,-321.001 -991.5,-321.001 L-991.5,-321.001 Z M-879.864,-576.589 L-886.441,-583.153 L-874.056,-627.959 L-902.696,-599.376 L-925.529,-622.163 L-863.996,-637.999 L-879.864,-576.589 L-879.864,-576.589 Z M-1091.348,-401.294 L-1068.724,-486.129 L-1006.513,-423.918 L-1091.348,-401.294 L-1091.348,-401.294 Z M-925.538,-622.164 L-902.701,-599.372 L-1016.697,-485.543 L-1000.44,-469.318 L-886.444,-583.146 L-879.863,-576.58 L-943.88,-512.631 L-955.153,-410.995 L-1000.436,-456.187 L-1000.44,-456.184 L-1046.115,-501.768 L-1046.111,-501.772 L-1091.007,-546.578 L-990.038,-557.734 L-925.538,-622.164 L-925.538,-622.164 Z M-1071.662,-540.399 L-1039.534,-508.335 L-999.278,-548.511 L-1071.662,-540.399 L-1071.662,-540.399 Z M-991.5,-1829.001 C-1092.292,-1829.001 -1174,-1910.709 -1174,-2011.501 C-1174,-2112.293 -1092.292,-2194.001 -991.5,-2194.001 C-890.708,-2194.001 -809,-2112.294 -809,-2011.501 C-809,-1910.709 -890.708,-1829.001 -991.5,-1829.001 L-991.5,-1829.001 Z M-991.5,-2183.72 C-1086.614,-2183.72 -1163.719,-2106.616 -1163.719,-2011.501 C-1163.719,-1916.388 -1086.614,-1839.282 -991.5,-1839.282 C-896.386,-1839.282 -819.282,-1916.387 -819.282,-2011.501 C-819.282,-2106.615 -896.387,-2183.72 -991.5,-2183.72 L-991.5,-2183.72 Z M-1063.999,-1976.341 L-1063.999,-2075.992 L-917,-2075.992 L-917,-1976.311 L-990.463,-1928.989 L-1063.999,-1976.341 L-1063.999,-1976.341 Z M-990,-1940 L-924.937,-1980.244 L-925,-2068 L-990,-2068 L-990,-1940 L-990,-1940 Z M-991.5,-1075.001 C-1092.292,-1075.001 -1174,-1156.708 -1174,-1257.501 C-1174,-1358.293 -1092.292,-1440.001 -991.5,-1440.001 C-890.708,-1440.001 -809,-1358.293 -809,-1257.501 C-809,-1156.708 -890.708,-1075.001 -991.5,-1075.001 L-991.5,-1075.001 Z M-991.5,-1429.719 C-1086.614,-1429.719 -1163.719,-1352.615 -1163.719,-1257.501 C-1163.719,-1162.387 -1086.614,-1085.283 -991.5,-1085.283 C-896.386,-1085.283 -819.282,-1162.387 -819.282,-1257.501 C-819.282,-1352.615 -896.387,-1429.719 -991.5,-1429.719 L-991.5,-1429.719 Z M-974,-1172 L-986.025,-1172 L-986.025,-1344 L-905,-1263.085 L-905,-1245.757 L-974,-1315 L-974,-1172 L-974,-1172 Z M-1076,-1270.243 L-1007,-1201 L-1007,-1344 L-994.975,-1344.001 L-994.975,-1172.001 L-1076,-1252.916 L-1076,-1270.243 L-1076,-1270.243 Z M-1095.005,3227.99 C-1095.005,3146.252 -1028.743,3079.99 -947.005,3079.99 C-865.267,3079.99 -799.005,3146.252 -799.005,3227.99 C-799.005,3309.729 -865.267,3375.99 -947.005,3375.99 C-984.061,3375.99 -1017.935,3362.372 -1043.898,3339.867 L-1160.155,3456.124 L-1177.125,3439.153 L-1060.703,3322.731 C-1082.116,3297.062 -1095.005,3264.033 -1095.005,3227.99 L-1095.005,3227.99 Z M-947.004,3353.992 C-877.416,3353.992 -821.004,3297.579 -821.004,3227.991 C-821.004,3158.404 -877.416,3101.992 -947.004,3101.992 C-1016.592,3101.992 -1073.004,3158.404 -1073.004,3227.991 C-1073.004,3297.58 -1016.592,3353.992 -947.004,3353.992 L-947.004,3353.992 Z M-954,3157 L-938,3157 L-938,3219 L-876,3219 L-876,3235 L-938,3235 L-938,3297 L-954,3297 L-954,3235 L-1016,3235 L-1016,3219 L-954,3219 L-954,3157 L-954,3157 Z M-189.074,1758.527 C-189.074,1858.799 -270.331,1940.086 -370.567,1940.086 C-470.802,1940.086 -552.06,1858.799 -552.06,1758.527 C-552.06,1658.255 -470.802,1576.968 -370.567,1576.968 C-270.331,1576.968 -189.074,1658.254 -189.074,1758.527 L-189.074,1758.527 Z M-528.544,1759.138 C-528.544,1846.121 -458.226,1916.635 -371.483,1916.635 C-284.742,1916.635 -214.422,1846.121 -214.422,1759.138 C-214.422,1672.154 -284.741,1601.64 -371.483,1601.64 C-458.226,1601.641 -528.544,1672.154 -528.544,1759.138 L-528.544,1759.138 Z M-385,1756 L-246,1756 L-246,1774 L-400,1774 L-385,1756 L-385,1756 Z M-477.219,1715.004 L-370.496,1715.004 L-423.857,1781.992 L-477.219,1715.004 L-477.219,1715.004 Z M-447,1775 L-495,1775 L-495,1757 L-462,1757 L-447,1775 L-447,1775 Z M-514.335,116.984 L-475.66,116.984 L-475.66,131.019 L-489.915,131.019 L-494.13,131.019 L-497.477,131.268 C-502.271,131.931 -504.666,136.443 -504.666,144.806 L-504.666,147.662 L-504.666,220.637 C-504.666,234.879 -509.832,245.725 -520.161,253.178 C-509.831,260.053 -504.666,270.898 -504.666,285.719 L-504.666,358.569 L-504.666,361.301 C-504.666,367.676 -503.758,371.61 -501.939,373.101 C-500.122,374.591 -495.245,375.336 -487.311,375.336 L-475.908,375.336 L-475.908,388.998 L-518.921,388.874 C-535.119,388.874 -543.217,376.703 -543.217,352.358 L-543.217,278.39 C-543.217,265.805 -547.307,258.641 -555.489,256.903 L-555.489,246.718 C-548.547,245.146 -544.747,241.377 -544.084,235.416 L-543.34,229.454 L-543.216,228.088 L-543.216,154.617 C-543.217,129.529 -533.591,116.984 -514.335,116.984 L-514.335,116.984 Z M-404.611,284.796 L-446.995,242.359 L-418.434,242.506 L-390.355,270.621 L-325.376,206.012 L-296.91,206.012 L-390.405,299.019 L-404.611,284.796 L-404.611,284.796 Z M-223.933,1028.137 C-254.149,1058.354 -296.465,1069.055 -335.282,1060.305 L-460.809,1185.832 L-552.733,1093.909 L-426.322,967.498 C-434.152,929.314 -423.263,888.056 -393.638,858.431 C-364.02,828.813 -322.776,817.937 -284.597,825.758 L-352.128,893.288 L-327.998,962.253 L-260.883,985.597 L-191.746,916.75 C-182.983,955.577 -193.708,997.912 -223.933,1028.137 L-223.933,1028.137 Z M-393.638,1028.137 C-403.291,1018.484 -410.951,1007.594 -416.627,995.978 L-514.571,1093.923 L-460.831,1147.663 L-363.341,1050.173 C-374.256,1044.6 -384.504,1037.271 -393.638,1028.137 L-393.638,1028.137 Z M-241.437,220.14 L-241.437,147.414 L-241.437,144.682 C-241.437,138.307 -242.347,134.374 -244.164,132.883 C-245.983,131.393 -250.858,130.648 -258.791,130.648 L-270.196,130.648 L-270.196,116.986 L-227.182,116.986 C-210.986,116.986 -202.887,129.157 -202.887,153.502 L-202.887,227.47 C-202.887,240.057 -198.755,247.219 -190.491,248.957 L-190.491,259.141 C-197.515,260.715 -201.358,264.482 -202.018,270.444 L-202.762,276.406 L-202.886,277.772 L-202.886,351.242 C-202.886,376.331 -212.514,388.876 -231.768,388.876 L-270.319,388.876 L-270.319,374.841 L-256.064,374.841 L-251.974,374.841 L-248.627,374.592 C-243.835,373.928 -241.438,369.417 -241.438,361.054 L-241.438,358.198 L-241.438,285.224 C-241.438,270.983 -236.274,260.134 -225.943,252.682 C-236.273,245.893 -241.437,235.044 -241.437,220.14 L-241.437,220.14 Z M-476.005,3227.99 C-476.005,3146.252 -409.743,3079.99 -328.005,3079.99 C-246.267,3079.99 -180.005,3146.252 -180.005,3227.99 C-180.005,3309.729 -246.267,3375.99 -328.005,3375.99 C-365.06,3375.99 -398.935,3362.372 -424.898,3339.867 L-541.155,3456.124 L-558.125,3439.153 L-441.703,3322.731 C-463.116,3297.062 -476.005,3264.033 -476.005,3227.99 L-476.005,3227.99 Z M-328.004,3353.992 C-258.417,3353.992 -202.004,3297.579 -202.004,3227.991 C-202.004,3158.404 -258.417,3101.992 -328.004,3101.992 C-397.592,3101.992 -454.004,3158.404 -454.004,3227.991 C-454.004,3297.58 -397.593,3353.992 -328.004,3353.992 L-328.004,3353.992 Z M-258,3235 L-398,3235 L-398,3219 L-258,3219 L-258,3235 L-258,3235 Z M249.434,823.967 C349.669,823.967 430.926,905.254 430.926,1005.527 C430.926,1105.798 349.669,1187.086 249.434,1187.086 C149.198,1187.086 67.94,1105.799 67.94,1005.527 C67.94,905.254 149.198,823.967 249.434,823.967 L249.434,823.967 Z M155.733,1133.216 L242.386,1046.589 C235.189,1043.103 228.436,1038.392 222.462,1032.421 C216.924,1026.885 212.466,1020.682 209.065,1014.076 L122.695,1100.42 C132.026,1112.922 143.172,1123.979 155.733,1133.216 L155.733,1133.216 Z M113.352,1086.379 L202.812,996.949 C197.342,973.106 203.881,947.067 222.462,928.494 C240.608,910.356 265.876,903.696 289.266,908.485 L247.893,949.84 L262.676,992.074 L303.795,1006.369 L346.139,964.221 C351.503,987.994 344.948,1013.912 326.433,1032.419 C308.354,1050.49 283.204,1057.172 259.887,1052.484 L169.859,1142.483 C192.99,1155.93 219.855,1163.634 248.517,1163.634 C335.259,1163.634 405.578,1093.12 405.578,1006.137 C405.578,919.153 335.259,848.64 248.517,848.64 C161.774,848.64 91.456,919.153 91.456,1006.137 C91.456,1035.446 99.448,1062.878 113.352,1086.379 L113.352,1086.379 Z M151.372,1670.385 L186.326,1670.385 C191.724,1639.76 203.509,1615.704 221.68,1598.224 C239.85,1580.744 261.332,1572.003 286.131,1572.003 C298.528,1572.003 311.425,1574.244 324.828,1578.727 L307.421,1610.101 C299.285,1607.115 291.481,1605.619 284.013,1605.619 C271.018,1605.619 259.429,1610.55 249.251,1620.41 C239.07,1630.271 232.653,1642.747 229.992,1657.836 C229.281,1661.869 228.917,1666.054 228.9,1670.385 L277.747,1670.385 L271.427,1706.242 L222.581,1706.242 L186.586,1910.399 L144.014,1910.399 L180.008,1706.242 L145.054,1706.242 L151.372,1670.385 L151.372,1670.385 Z M369.81,1775.948 C370.43,1775.948 371.025,1776.348 371.595,1777.147 C376.52,1784.961 378.599,1791.044 377.833,1795.393 C377.175,1799.122 374.86,1802.942 370.888,1806.848 C366.776,1811.022 357.588,1818.834 343.319,1830.289 C329.57,1841.299 321.707,1847.869 319.735,1850 C320.326,1859.235 321.691,1871.132 323.83,1885.693 C324.843,1889.51 326.416,1891.419 328.547,1891.419 C329.879,1891.419 332.45,1890.177 336.262,1887.69 C337.273,1886.981 338.267,1886.625 339.245,1886.625 C340.93,1886.625 341.633,1887.424 341.353,1889.022 C341.211,1889.821 340.76,1890.62 339.999,1891.419 C330.619,1900.299 323.657,1905.047 319.109,1905.669 C314.028,1906.29 310.815,1903.359 309.473,1896.879 C307.482,1887.024 305.984,1875.127 304.979,1861.186 C265.297,1896.436 243.458,1922.627 239.459,1939.764 C238.421,1944.647 238.502,1948.465 239.705,1951.218 C241.183,1954.415 240.723,1956.013 238.326,1956.013 C237.35,1956.013 236.439,1955.391 235.592,1954.148 C232.486,1949.62 230.594,1946.244 229.92,1944.026 C228.813,1940.74 228.751,1936.568 229.731,1931.506 C231.192,1924.225 239.485,1912.681 254.611,1896.878 C268.451,1882.317 284.843,1867.4 303.781,1852.128 C302.141,1830.199 299.913,1816.658 297.093,1811.508 C295.797,1809.29 294.484,1808.178 293.152,1808.178 C291.82,1808.178 289.702,1809.111 286.8,1810.975 C285.61,1811.687 284.57,1812.04 283.683,1812.04 C282.351,1812.04 281.78,1811.508 281.967,1810.442 C282.171,1809.289 283.18,1808.09 284.998,1806.846 C294.109,1800.986 300.834,1797.08 305.174,1795.126 C308.353,1793.707 310.342,1792.995 311.142,1792.995 C313.006,1792.995 314.197,1794.55 314.714,1797.657 C315.488,1801.831 317.048,1815.636 319.398,1839.076 C335.227,1825.315 345.953,1815.592 351.571,1809.909 C361.074,1800.32 366.504,1792.685 367.861,1787.001 C368.57,1783.984 368.671,1781.408 368.158,1779.277 C367.571,1777.06 368.122,1775.948 369.81,1775.948 L369.81,1775.948 Z M424.899,3280.593 L265.093,3440.399 L77.002,3252.309 L77.002,3092.503 L236.808,3092.503 L424.899,3280.593 L424.899,3280.593 Z M181.301,3140.232 C165.486,3124.417 139.842,3124.417 124.026,3140.232 C108.21,3156.049 108.21,3181.692 124.026,3197.508 C139.842,3213.324 165.486,3213.324 181.301,3197.508 C197.117,3181.692 197.117,3156.049 181.301,3140.232 L181.301,3140.232 Z M868.5,822.999 C969.292,822.999 1051,904.707 1051,1005.499 C1051,1106.292 969.292,1187.999 868.5,1187.999 C767.708,1187.999 686,1106.291 686,1005.499 C685.999,904.707 767.707,822.999 868.5,822.999 L868.5,822.999 Z M759.806,1139.077 L852.279,1046.589 C845.085,1043.103 838.334,1038.393 832.363,1032.421 C826.828,1026.885 822.372,1020.682 818.972,1014.076 L727.978,1105.085 C737.011,1117.806 747.731,1129.24 759.806,1139.077 L759.806,1139.077 Z M718.87,1090.813 L812.723,996.949 C807.255,973.106 813.79,947.067 832.364,928.494 C850.502,910.356 875.759,903.696 899.138,908.485 L857.784,949.84 L872.56,992.074 L913.66,1006.369 L955.985,964.221 C961.347,987.994 954.794,1013.912 936.288,1032.419 C918.218,1050.49 893.08,1057.172 869.772,1052.484 L773.27,1148.999 C800.548,1167.138 833.287,1177.715 868.501,1177.715 C963.615,1177.715 1040.719,1100.61 1040.719,1005.496 C1040.719,910.382 963.615,833.278 868.501,833.278 C773.387,833.278 696.282,910.382 696.282,1005.496 C696.281,1036.541 704.498,1065.662 718.87,1090.813 L718.87,1090.813 Z M841.987,1731.988 L694,1731.988 L694,1584 L841.987,1584 L841.987,1731.988 L841.987,1731.988 Z M841.987,1932.989 L694,1932.989 L694,1785 L841.987,1785 L841.987,1932.989 L841.987,1932.989 Z M895,1584 L1042.987,1584 L1042.987,1932.974 L895,1932.974 L895,1584 L895,1584 Z M911,1917.004 L1026.989,1917.004 L1026.989,1600 L911,1600 L911,1917.004 L911,1917.004 Z M935,1766 L1003,1766 L1003,1780 L935,1780 L935,1766 L935,1766 Z M935,1738 L1003,1738 L1003,1752 L935,1752 L935,1738 L935,1738 Z M857.729,3089.583 L857.809,3089.503 L1028.928,3260.622 L1045.899,3277.593 L1028.928,3294.563 L903.063,3420.428 L886.093,3437.399 L869.122,3420.428 L698.002,3249.308 L698.082,3249.229 L698.002,3249.229 L698.002,3089.502 L857.729,3089.502 L857.729,3089.583 L857.729,3089.583 Z M722.003,3113.503 L722.003,3239.368 L886.094,3403.458 L1011.958,3277.593 L847.868,3113.503 L722.003,3113.503 L722.003,3113.503 Z M813.26,3206.259 C799.007,3220.513 775.896,3220.513 761.642,3206.259 C747.388,3192.005 747.388,3168.894 761.642,3154.64 C775.896,3140.387 799.007,3140.387 813.26,3154.64 C827.515,3168.894 827.515,3192.005 813.26,3206.259 L813.26,3206.259 Z" id="Shape-Copy" fill="#000000"></path>
    </g>
</svg>