<?xml version="1.0" encoding="UTF-8"?>
<svg width="512px" height="512px" viewBox="0 0 512 512" version="1.1" xmlns="http://www.w3.org/2000/svg" xmlns:xlink="http://www.w3.org/1999/xlink">
    <title>com.castsoftware.mips-redux-index</title>
    <defs>
        <filter x="-1.5%" y="-1.5%" width="102.9%" height="102.9%" filterUnits="objectBoundingBox" id="filter-1">
            <feOffset dx="0" dy="3" in="SourceAlpha" result="shadowOffsetOuter1"></feOffset>
            <feColorMatrix values="0 0 0 0 1   0 0 0 0 1   0 0 0 0 1  0 0 0 1 0" type="matrix" in="shadowOffsetOuter1" result="shadowMatrixOuter1"></feColorMatrix>
            <feMerge>
                <feMergeNode in="shadowMatrixOuter1"></feMergeNode>
                <feMergeNode in="SourceGraphic"></feMergeNode>
            </feMerge>
        </filter>
    </defs>
    <g id="com.castsoftware.mips-redux-index" stroke="none" stroke-width="1" fill="none" fill-rule="evenodd">
        <g id="Group-2" filter="url(#filter-1)" transform="translate(34.000000, 34.000000)" fill="#000000">
            <g id="Group">
                <rect id="Rectangle-2" x="0" y="205" width="48" height="34"></rect>
                <rect id="Rectangle-2-Copy" x="0" y="263" width="48" height="34"></rect>
                <rect id="Rectangle-2-Copy-2" x="0" y="321" width="48" height="34"></rect>
                <rect id="Rectangle-2-Copy-3" x="0" y="147" width="48" height="34"></rect>
                <rect id="Rectangle-2-Copy-4" x="0" y="89" width="48" height="34"></rect>
                <rect id="Rectangle-2-Copy-9" transform="translate(420.000000, 222.000000) scale(-1, 1) translate(-420.000000, -222.000000) " x="396" y="205" width="48" height="34"></rect>
                <rect id="Rectangle-2-Copy-8" transform="translate(420.000000, 280.000000) scale(-1, 1) translate(-420.000000, -280.000000) " x="396" y="263" width="48" height="34"></rect>
                <rect id="Rectangle-2-Copy-7" transform="translate(420.000000, 338.000000) scale(-1, 1) translate(-420.000000, -338.000000) " x="396" y="321" width="48" height="34"></rect>
                <rect id="Rectangle-2-Copy-6" transform="translate(420.000000, 164.000000) scale(-1, 1) translate(-420.000000, -164.000000) " x="396" y="147" width="48" height="34"></rect>
                <rect id="Rectangle-2-Copy-5" transform="translate(420.000000, 106.000000) scale(-1, 1) translate(-420.000000, -106.000000) " x="396" y="89" width="48" height="34"></rect>
                <rect id="Rectangle-2-Copy-14" transform="translate(222.000000, 420.000000) scale(-1, -1) rotate(90.000000) translate(-222.000000, -420.000000) " x="198" y="403" width="48" height="34"></rect>
                <rect id="Rectangle-2-Copy-15" transform="translate(280.000000, 420.000000) scale(-1, -1) rotate(90.000000) translate(-280.000000, -420.000000) " x="256" y="403" width="48" height="34"></rect>
                <rect id="Rectangle-2-Copy-16" transform="translate(338.000000, 420.000000) scale(-1, -1) rotate(90.000000) translate(-338.000000, -420.000000) " x="314" y="403" width="48" height="34"></rect>
                <rect id="Rectangle-2-Copy-17" transform="translate(164.000000, 420.000000) scale(-1, -1) rotate(90.000000) translate(-164.000000, -420.000000) " x="140" y="403" width="48" height="34"></rect>
                <rect id="Rectangle-2-Copy-18" transform="translate(106.000000, 420.000000) scale(-1, -1) rotate(90.000000) translate(-106.000000, -420.000000) " x="82" y="403" width="48" height="34"></rect>
                <rect id="Rectangle-2-Copy-23" transform="translate(222.000000, 24.000000) scale(-1, 1) rotate(90.000000) translate(-222.000000, -24.000000) " x="198" y="7" width="48" height="34"></rect>
                <rect id="Rectangle-2-Copy-22" transform="translate(280.000000, 24.000000) scale(-1, 1) rotate(90.000000) translate(-280.000000, -24.000000) " x="256" y="7" width="48" height="34"></rect>
                <rect id="Rectangle-2-Copy-21" transform="translate(338.000000, 24.000000) scale(-1, 1) rotate(90.000000) translate(-338.000000, -24.000000) " x="314" y="7" width="48" height="34"></rect>
                <rect id="Rectangle-2-Copy-20" transform="translate(164.000000, 24.000000) scale(-1, 1) rotate(90.000000) translate(-164.000000, -24.000000) " x="140" y="7" width="48" height="34"></rect>
                <rect id="Rectangle-2-Copy-19" transform="translate(106.000000, 24.000000) scale(-1, 1) rotate(90.000000) translate(-106.000000, -24.000000) " x="82" y="7" width="48" height="34"></rect>
            </g>
            <path d="M396,48 L396,396 L48,396 L48,48 L396,48 Z M381,64 L63,64 L63,382 L381,382 L381,64 Z" id="Combined-Shape"></path>
            <path d="M372,72 L372,372 L72,372 L72,72 L372,72 Z M242.832857,257.296 L239.412857,257.296 L239.412857,273.712 C239.412857,277.144 240.342857,279.646 242.202857,281.218 C244.062857,282.79 246.648857,283.576 249.960857,283.576 C253.200857,283.576 255.696857,282.754 257.448857,281.11 C259.200857,279.466 260.076857,277 260.076857,273.712 L260.076857,257.296 L256.656857,257.296 L256.656857,273.712 C256.656857,276.016 256.086857,277.762 254.946857,278.95 C253.806857,280.138 252.144857,280.732 249.960857,280.732 C247.656857,280.732 245.892857,280.138 244.668857,278.95 C243.444857,277.762 242.832857,276.016 242.832857,273.712 L242.832857,257.296 Z M163.195714,257.296 L151.099714,257.296 L151.099714,283 L154.519714,283 L154.519714,272.02 L162.871714,272.02 C163.711714,272.02 164.383714,272.146 164.887714,272.398 C165.391714,272.65 165.799714,272.986 166.111714,273.406 C166.423714,273.826 166.651714,274.318 166.795714,274.882 C166.939714,275.446 167.059714,276.04 167.155714,276.664 C167.275714,277.288 167.347714,277.924 167.371714,278.572 C167.395714,279.22 167.419714,279.826 167.443714,280.39 C167.467714,280.954 167.521714,281.464 167.605714,281.92 C167.689714,282.376 167.851714,282.736 168.091714,283 L171.907714,283 C171.547714,282.568 171.277714,282.07 171.097714,281.506 C170.917714,280.942 170.779714,280.348 170.683714,279.724 C170.587714,279.1 170.527714,278.464 170.503714,277.816 C170.479714,277.168 170.443714,276.532 170.395714,275.908 C170.323714,275.284 170.221714,274.684 170.089714,274.108 C169.957714,273.532 169.753714,273.01 169.477714,272.542 C169.201714,272.074 168.829714,271.672 168.361714,271.336 C167.893714,271 167.287714,270.76 166.543714,270.616 L166.543714,270.544 C168.103714,270.112 169.237714,269.308 169.945714,268.132 C170.653714,266.956 171.007714,265.588 171.007714,264.028 C171.007714,261.94 170.317714,260.296 168.937714,259.096 C167.557714,257.896 165.643714,257.296 163.195714,257.296 Z M198.993428,257.296 L181.245428,257.296 L181.245428,283 L199.101428,283 L199.101428,280.12 L184.665428,280.12 L184.665428,271.228 L198.021428,271.228 L198.021428,268.348 L184.665428,268.348 L184.665428,260.176 L198.993428,260.176 L198.993428,257.296 Z M217.547143,257.296 L208.727143,257.296 L208.727143,283 L217.547143,283 C219.683143,283 221.531143,282.7 223.091143,282.1 C224.651143,281.5 225.935143,280.63 226.943143,279.49 C227.951143,278.35 228.695143,276.946 229.175143,275.278 C229.655143,273.61 229.895143,271.696 229.895143,269.536 C229.895143,265.408 228.827143,262.336 226.691143,260.32 C224.555143,258.304 221.507143,257.296 217.547143,257.296 Z M272.798572,257.296 L268.694572,257.296 L277.154572,269.788 L268.226572,283 L272.042572,283 L279.170572,272.38 L286.082572,283 L290.258572,283 L281.222572,269.788 L289.718572,257.296 L285.902572,257.296 L279.206572,267.34 L272.798572,257.296 Z M217.907143,260.176 C219.491143,260.176 220.823143,260.398 221.903143,260.842 C222.983143,261.286 223.865143,261.934 224.549143,262.786 C225.233143,263.638 225.725143,264.67 226.025143,265.882 C226.325143,267.094 226.475143,268.468 226.475143,270.004 C226.475143,271.588 226.313143,272.938 225.989143,274.054 C225.665143,275.17 225.251143,276.1 224.747143,276.844 C224.243143,277.588 223.673143,278.176 223.037143,278.608 C222.401143,279.04 221.759143,279.37 221.111143,279.598 C220.463143,279.826 219.851143,279.97 219.275143,280.03 C218.699143,280.09 218.219143,280.12 217.835143,280.12 L212.147143,280.12 L212.147143,260.176 L217.907143,260.176 Z M163.015714,260.176 C164.623714,260.176 165.787714,260.584 166.507714,261.4 C167.227714,262.216 167.587714,263.272 167.587714,264.568 C167.587714,265.504 167.425714,266.266 167.101714,266.854 C166.777714,267.442 166.345714,267.91 165.805714,268.258 C165.265714,268.606 164.635714,268.84 163.915714,268.96 C163.195714,269.08 162.439714,269.14 161.647714,269.14 L154.519714,269.14 L154.519714,260.176 L163.015714,260.176 Z M302.6,163.368 C300.296,163.368 297.992,163.68 295.688,164.304 C293.384,164.928 291.32,165.888 289.496,167.184 C287.672,168.48 286.196,170.1 285.068,172.044 C283.94,173.988 283.376,176.28 283.376,178.92 C283.376,181.272 283.82,183.276 284.708,184.932 C285.596,186.588 286.76,187.968 288.2,189.072 C289.64,190.176 291.272,191.076 293.096,191.772 C294.92,192.468 296.792,193.056 298.712,193.536 C300.584,194.064 302.432,194.544 304.256,194.976 C306.08,195.408 307.712,195.912 309.152,196.488 C310.592,197.064 311.756,197.784 312.644,198.648 C313.532,199.512 313.976,200.64 313.976,202.032 C313.976,203.328 313.64,204.396 312.968,205.236 C312.296,206.076 311.456,206.736 310.448,207.216 C309.44,207.696 308.36,208.02 307.208,208.188 C306.056,208.356 304.976,208.44 303.968,208.44 C302.48,208.44 301.04,208.26 299.648,207.9 C298.256,207.54 297.044,206.988 296.012,206.244 C294.98,205.5 294.152,204.528 293.528,203.328 C292.904,202.128 292.592,200.664 292.592,198.936 L281.648,198.936 C281.6,202.104 282.176,204.84 283.376,207.144 C284.576,209.448 286.196,211.344 288.236,212.832 C290.276,214.32 292.628,215.412 295.292,216.108 C297.956,216.804 300.704,217.152 303.536,217.152 C307.04,217.152 310.124,216.744 312.788,215.928 C315.452,215.112 317.684,213.972 319.484,212.508 C321.284,211.044 322.64,209.304 323.552,207.288 C324.464,205.272 324.92,203.088 324.92,200.736 C324.92,197.856 324.308,195.492 323.084,193.644 C321.86,191.796 320.408,190.32 318.728,189.216 C317.048,188.112 315.356,187.308 313.652,186.804 C311.948,186.3 310.616,185.952 309.656,185.76 C306.44,184.944 303.836,184.272 301.844,183.744 C299.852,183.216 298.292,182.688 297.164,182.16 C296.036,181.632 295.28,181.056 294.896,180.432 C294.512,179.808 294.32,178.992 294.32,177.984 C294.32,176.88 294.56,175.968 295.04,175.248 C295.52,174.528 296.132,173.928 296.876,173.448 C297.62,172.968 298.448,172.632 299.36,172.44 C300.272,172.248 301.184,172.152 302.096,172.152 C303.488,172.152 304.772,172.272 305.948,172.512 C307.124,172.752 308.168,173.16 309.08,173.736 C309.992,174.312 310.724,175.104 311.276,176.112 C311.828,177.12 312.152,178.392 312.248,179.928 L323.192,179.928 C323.192,176.952 322.628,174.42 321.5,172.332 C320.372,170.244 318.848,168.528 316.928,167.184 C315.008,165.84 312.812,164.868 310.34,164.268 C307.868,163.668 305.288,163.368 302.6,163.368 Z M124.232,164.592 L108.32,164.592 L108.32,216 L118.904,216 L118.904,179.928 L119.048,179.928 L131.648,216 L140.36,216 L152.96,179.568 L153.104,179.568 L153.104,216 L163.688,216 L163.688,164.592 L147.776,164.592 L136.4,199.944 L136.256,199.944 L124.232,164.592 Z M198.928,164.592 L187.624,164.592 L187.624,216 L198.928,216 L198.928,164.592 Z M246.048,164.592 L222.864,164.592 L222.864,216 L234.168,216 L234.168,197.568 L246.048,197.568 C249.264,197.568 252,197.1 254.256,196.164 C256.512,195.228 258.348,193.992 259.764,192.456 C261.18,190.92 262.212,189.156 262.86,187.164 C263.508,185.172 263.832,183.144 263.832,181.08 C263.832,178.968 263.508,176.928 262.86,174.96 C262.212,172.992 261.18,171.24 259.764,169.704 C258.348,168.168 256.512,166.932 254.256,165.996 C252,165.06 249.264,164.592 246.048,164.592 Z M242.952,173.376 C244.248,173.376 245.496,173.472 246.696,173.664 C247.896,173.856 248.952,174.228 249.864,174.78 C250.776,175.332 251.508,176.112 252.06,177.12 C252.612,178.128 252.888,179.448 252.888,181.08 C252.888,182.712 252.612,184.032 252.06,185.04 C251.508,186.048 250.776,186.828 249.864,187.38 C248.952,187.932 247.896,188.304 246.696,188.496 C245.496,188.688 244.248,188.784 242.952,188.784 L234.168,188.784 L234.168,173.376 L242.952,173.376 Z" id="Rectangle-5"></path>
        </g>
    </g>
</svg>