<?xml version="1.0" encoding="UTF-8"?>
<svg width="92px" height="92px" viewBox="0 0 92 92" version="1.1" xmlns="http://www.w3.org/2000/svg" xmlns:xlink="http://www.w3.org/1999/xlink">
    <!-- Generator: Sketch 62 (91390) - https://sketch.com -->
    <title>misra-c-2012</title>
    <desc>Created with Sketch.</desc>
    <g id="misra-c-2012" stroke="none" stroke-width="1" fill="none" fill-rule="evenodd">
        <g id="owasp_logo_Mx_2016">
            <path d="M61,0 C65.418278,-8.11624501e-16 69,3.581722 69,8 L69.0006918,45.0049891 C55.7001221,45.2709437 45,56.1360134 45,69.5001249 C45,70.0041447 45.0152202,70.5046101 45.045226,71.0010866 L8,71 C3.581722,71 5.41083001e-16,67.418278 0,63 L0,8 C-5.41083001e-16,3.581722 3.581722,8.11624501e-16 8,0 L61,0 Z" id="Fill-1" fill="#1A1919"></path>
            <path d="M36,12 L62,53 L10,53 L36,12 Z M35.0195312,42.7089844 C34.1796875,42.7089844 33.5039062,42.9130859 32.9921875,43.3212891 C32.4804688,43.7294922 32.2246094,44.2773438 32.2246094,44.9648438 C32.2246094,45.4804688 32.3837891,45.9335938 32.7021484,46.3242188 C33.0205078,46.7148438 33.5019531,47.0566406 34.1464844,47.3496094 C34.6894531,47.6113281 35.1328125,47.8359375 35.4765625,48.0234375 C35.890625,48.2617188 36.0976562,48.5703125 36.0976562,48.9492188 C36.0976562,49.2265625 35.9785156,49.4492188 35.7402344,49.6171875 C35.5019531,49.7851562 35.1894531,49.8691406 34.8027344,49.8691406 C34.09375,49.8691406 33.3420953,49.5638835 32.5477702,48.9533691 L32.3300781,48.7792969 L32.3300781,50.3378906 C32.7988281,50.6191406 33.2216797,50.8173828 33.5986328,50.9326172 C33.9755859,51.0478516 34.4257812,51.1054688 34.9492188,51.1054688 C35.7539062,51.1054688 36.4091797,50.8896484 36.9150391,50.4580078 C37.4208984,50.0263672 37.6738281,49.4589844 37.6738281,48.7558594 C37.6738281,48.2128906 37.5253906,47.7480469 37.2285156,47.3613281 C36.9316406,46.9746094 36.4472656,46.6230469 35.7753906,46.3066406 C34.9902344,45.9472656 34.5390625,45.7285156 34.421875,45.6503906 C34.0039062,45.3886719 33.7949219,45.1035156 33.7949219,44.7949219 C33.7949219,44.5371094 33.9072266,44.3310547 34.1318359,44.1767578 C34.3564453,44.0224609 34.6679688,43.9453125 35.0664062,43.9453125 C35.6570313,43.9453125 36.3251758,44.1525586 37.0708398,44.5670508 L37.3222656,44.7128906 L37.3222656,43.3066406 C36.5839844,42.9082031 35.8164062,42.7089844 35.0195312,42.7089844 Z M18.34375,42.8144531 L16.9199219,42.8144531 L16.9199219,51 L18.5019531,51 L18.5019531,45.2519531 L18.5488281,45.2519531 L20.9160156,48.1347656 L21.1386719,48.1347656 L23.5058594,45.2519531 L23.5527344,45.2519531 L23.5527344,51 L25.1347656,51 L25.1347656,42.8144531 L23.7226562,42.8144531 L21.0332031,46.0429688 L18.34375,42.8144531 Z M29.6816406,42.8144531 L28.0996094,42.8144531 L28.0996094,51 L29.6816406,51 L29.6816406,42.8144531 Z M43.1289062,42.8144531 L40.1816406,42.8144531 L40.1816406,51 L41.7636719,51 L41.7636719,47.5429688 L42.3378906,47.5429688 C42.5917969,47.5429688 42.8164062,47.6064453 43.0117188,47.7333984 C43.2070312,47.8603516 43.4101562,48.0751953 43.6210938,48.3779297 C43.8320312,48.6806641 44.1640625,49.2675781 44.6171875,50.1386719 C44.7946429,50.4768415 44.9405293,50.736089 45.0548469,50.9164142 L45.109375,51 L46.8730469,51 C46.6308594,50.625 46.2597656,49.9414062 45.7597656,48.9492188 C45.4589844,48.375 45.2070312,47.9667969 45.0039062,47.7246094 C44.8007812,47.4824219 44.5683594,47.2910156 44.3066406,47.1503906 C44.7792969,46.9511719 45.1357422,46.6787109 45.3759766,46.3330078 C45.6162109,45.9873047 45.7363281,45.5820312 45.7363281,45.1171875 C45.7363281,44.4335938 45.4941406,43.8789062 45.0097656,43.453125 C44.5738281,43.0699219 44.0224023,42.8591602 43.3554883,42.8208398 L43.1289062,42.8144531 Z M53.1835938,42.8144531 L51.5664062,42.8144531 L48.1914062,51 L49.8496094,51 L50.640625,49.0078125 L54.2792969,49.0078125 L55.1289062,51 L56.7988281,51 L53.1835938,42.8144531 Z M52.38,44.567 L53.7636719,47.8066406 L51.1210938,47.8066406 L52.38,44.567 Z M42.7480469,44.0273438 C43.1816406,44.0273438 43.515625,44.1201172 43.75,44.3056641 C43.984375,44.4912109 44.1015625,44.7714844 44.1015625,45.1464844 C44.1015625,45.5058594 43.9833984,45.7890625 43.7470703,45.9960938 C43.5107422,46.203125 43.1855469,46.3066406 42.7714844,46.3066406 L41.7636719,46.3066406 L41.7636719,44.0273438 L42.7480469,44.0273438 Z" id="Triangle-3" fill="#FFFFFF"></path>
            <path d="M64.5228865,54.5 L6.47711347,54.5 L35.5,8.30030307 L64.5228865,54.5 Z" id="Triangle" stroke="#FFFFFF" stroke-width="5" stroke-linejoin="round"></path>
            <path d="M69.1444107,92 C56.5214185,92 46.2885884,81.7670411 46.2885884,69.1444107 C46.2885884,56.5215472 56.5214185,46.2885884 69.1444107,46.2885884 C81.7669368,46.2885884 92,56.5215472 92,69.1444107 C92,81.7670411 81.7669368,92 69.1444107,92 M69.1444209,48.1170448 C80.75711,48.1170448 90.1715435,57.5314216 90.1715435,69.1442942 C90.1715435,80.7571667 80.75711,90.1715435 69.1444209,90.1715435 C57.5314784,90.1715435 48.1170448,80.7571667 48.1170448,69.1442942 C48.1170448,57.5314216 57.5314784,48.1170448 69.1444209,48.1170448 Z" id="Fill-1-Copy" fill="#1A1919"></path>
        </g>
        <path d="M67.265543,51.5142494 C68.4051537,50.8464699 69.5183464,50.8224697 70.666471,51.4807982 C74.9251747,53.9229808 79.1893874,56.3552151 83.4494683,58.7949107 C83.965561,59.091743 84.3503142,59.4671669 84.6072337,59.915089 C84.8687858,60.3705966 84.9981219,60.9013383 84.9983723,61.5019667 C85,66.4084669 85,76.2186071 85,76.2186071 C85,76.8061784 84.875672,77.3265987 84.6260144,77.7752669 C84.3689696,78.2363705 83.9788326,78.6223644 83.4508455,78.9257875 C79.1901386,81.365483 74.9256755,83.797593 70.6668466,86.2399 C69.5183464,86.8984772 68.4051537,86.8746013 67.2650421,86.2064488 C65.5697741,85.212987 57.0791605,80.3825913 54.5492797,78.9272797 C54.0212926,78.6237323 53.6311556,78.2379871 53.3741109,77.7765105 C53.1240776,77.3278423 53,76.807422 53,76.219975 C53.0016277,71.3134748 53,66.4072234 53.0016277,61.5008475 C53.0018781,60.3092902 53.5088308,59.3925546 54.5506569,58.7935428 C57.0804125,57.3382313 65.5698993,52.5074625 67.265543,51.5142494 Z M68.9628562,58.4418605 C63.023727,58.4418605 58.2093023,63.1064768 58.2093023,68.8604037 C58.2093023,70.7481003 58.7276268,72.5183222 59.6335226,74.0452475 C61.4891521,77.1729955 64.9722266,79.2790698 68.9628562,79.2790698 C72.9608343,79.2790698 76.4493568,77.1645255 78.3023256,74.0275711 L73.6289166,71.4042154 C72.7106043,72.9820833 70.9655828,74.0484391 68.9628562,74.0484391 C66.9724193,74.0484391 65.2372803,72.9954633 64.3142801,71.4342899 C63.8506071,70.6509247 63.6071,69.7634379 63.6080615,68.8604037 C63.6080615,65.9952245 66.0055813,63.6724911 68.9628562,63.6724911 C70.9404965,63.6724911 72.6665131,64.7123323 73.5940745,66.2575478 L78.2744519,63.6463447 C76.4141346,60.5350457 72.9409426,58.4418605 68.9628562,58.4418605 Z" id="Path-2" fill="#1A1919" fill-rule="nonzero"></path>
    </g>
</svg>