<?xml version="1.0" encoding="UTF-8"?>
<svg width="92px" height="92px" viewBox="0 0 92 92" version="1.1" xmlns="http://www.w3.org/2000/svg" xmlns:xlink="http://www.w3.org/1999/xlink">
    <!-- Generator: Sketch 62 (91390) - https://sketch.com -->
    <title>owasp_logo_APIx_2019</title>
    <desc>Created with Sketch.</desc>
    <g id="owasp_logo_APIx_2019" stroke="none" stroke-width="1" fill="none" fill-rule="evenodd">
        <g>
            <path d="M61,0 C65.418278,-8.11624501e-16 69,3.581722 69,8 L69.0006918,45.0049891 C55.7001221,45.2709437 45,56.1360134 45,69.5001249 C45,70.0041447 45.0152202,70.5046101 45.045226,71.0010866 L8,71 C3.581722,71 5.41083001e-16,67.418278 0,63 L0,8 C-5.41083001e-16,3.581722 3.581722,8.11624501e-16 8,0 L61,0 Z M21.4375,46.0625 C20.5,46.0625 19.722168,46.3144531 19.1040039,46.8183594 C18.4858398,47.3222656 18.0200195,48.0385742 17.706543,48.9672852 C17.3930664,49.8959961 17.2363281,51.1220703 17.2363281,52.6455078 C17.2363281,55.0654297 17.6611328,56.8115234 18.5107422,57.8837891 C19.2197266,58.7744141 20.1953125,59.2197266 21.4375,59.2197266 C22.3808594,59.2197266 23.1616211,58.9663086 23.7797852,58.4594727 C24.3979492,57.9526367 24.8623047,57.2348633 25.1728516,56.3061523 C25.4833984,55.3774414 25.6386719,54.1572266 25.6386719,52.6455078 C25.6386719,51.3681641 25.5419922,50.3530273 25.3486328,49.6000977 C25.1552734,48.847168 24.8886719,48.2084961 24.5488281,47.684082 C24.2089844,47.159668 23.7783203,46.7583008 23.2568359,46.4799805 C22.7353516,46.2016602 22.1289062,46.0625 21.4375,46.0625 Z M41.3095703,46.0625 C40.1494141,46.0625 39.184082,46.4609375 38.4135742,47.2578125 C37.6430664,48.0546875 37.2578125,49.1064453 37.2578125,50.4130859 C37.2578125,51.6787109 37.6269531,52.6982422 38.3652344,53.4716797 C39.1035156,54.2451172 40.0058594,54.6318359 41.0722656,54.6318359 C41.7109375,54.6318359 42.3041992,54.4750977 42.8520508,54.1616211 C43.3999023,53.8481445 43.8320312,53.4394531 44.1484375,52.9355469 C44.1542969,53.0761719 44.1572266,53.1816406 44.1572266,53.2519531 C44.1572266,53.9082031 44.078125,54.5527344 43.9199219,55.1855469 C43.7617188,55.8183594 43.5654297,56.3208008 43.3310547,56.6928711 C43.0966797,57.0649414 42.7963867,57.3623047 42.4301758,57.5849609 C42.0639648,57.8076172 41.6376953,57.9189453 41.1513672,57.9189453 C40.5830078,57.9189453 40.1171875,57.7578125 39.7539062,57.4355469 C39.4309896,57.1490885 39.2006655,56.7075376 39.062934,56.1108941 L39.015625,55.8798828 L37.4951172,56.0205078 C37.6240234,57.0341797 38.0078125,57.8208008 38.6464844,58.3803711 C39.2851562,58.9399414 40.1083984,59.2197266 41.1162109,59.2197266 C42.0654297,59.2197266 42.8930664,58.9648438 43.5991211,58.4550781 C44.3051758,57.9453125 44.8369141,57.2026367 45.1943359,56.2270508 C45.5517578,55.2514648 45.7304688,53.9404297 45.7304688,52.2939453 C45.7304688,50.7119141 45.550293,49.503418 45.1899414,48.668457 C44.8295898,47.8334961 44.3022461,47.1904297 43.6079102,46.7392578 C42.9135742,46.2880859 42.1474609,46.0625 41.3095703,46.0625 Z M11.5058594,46.0625 C10.28125,46.0625 9.30566406,46.3803711 8.57910156,47.0161133 C7.90842849,47.6029522 7.4998671,48.4356769 7.35341739,49.5142873 L7.32226563,49.7890625 L8.94824219,49.9560547 C8.95410156,49.1474609 9.18554688,48.5146484 9.64257813,48.0576172 C10.0996094,47.6005859 10.7089844,47.3720703 11.4707031,47.3720703 C12.1914062,47.3720703 12.7758789,47.5874023 13.2241211,48.0180664 C13.6723633,48.4487305 13.8964844,48.9775391 13.8964844,49.6044922 C13.8964844,50.2021484 13.6503906,50.8364258 13.1582031,51.5073242 C12.6660156,52.1782227 11.7197266,53.0878906 10.3193359,54.2363281 C9.41699219,54.9746094 8.72705078,55.625 8.24951172,56.1875 C7.77197266,56.75 7.42480469,57.3212891 7.20800781,57.9013672 C7.10019531,58.1826172 7.03925781,58.4732422 7.02519531,58.7732422 L7.0234375,59 L15.5400391,59 L15.5400391,57.4794922 L9.22070313,57.4794922 C9.39648438,57.1923828 9.61914063,56.9067383 9.88867188,56.6225586 C10.1582031,56.3383789 10.7675781,55.7978516 11.7167969,55.0009766 C12.8535156,54.0400391 13.6665039,53.2841797 14.1557617,52.7333984 C14.6450195,52.1826172 14.9951172,51.6582031 15.2060547,51.1601562 C15.4169922,50.6621094 15.5224609,50.1552734 15.5224609,49.6396484 C15.5224609,48.6259766 15.1621094,47.7763672 14.4414062,47.0908203 C13.7207031,46.4052734 12.7421875,46.0625 11.5058594,46.0625 Z M33.2060547,46.0625 L32.1865234,46.0625 C31.9111328,46.6191406 31.4423828,47.1933594 30.7802734,47.7851562 C30.2127511,48.2924107 29.5634367,48.7350925 28.8323302,49.1132015 L28.4599609,49.296875 L28.4599609,50.8261719 C28.9521484,50.6445312 29.5073242,50.3720703 30.1254883,50.0087891 C30.6553432,49.6974051 31.098025,49.3860212 31.4535336,49.0746373 L31.6240234,48.9189453 L31.6240234,59 L33.2060547,59 L33.2060547,46.0625 Z M21.4199219,47.3720703 C22.1582031,47.3720703 22.7749023,47.7207031 23.2700195,48.4179688 C23.7651367,49.1152344 24.0126953,50.5244141 24.0126953,52.6455078 C24.0126953,54.7548828 23.7651367,56.1611328 23.2700195,56.8642578 C22.7749023,57.5673828 22.1640625,57.9189453 21.4375,57.9189453 C20.7109375,57.9189453 20.1000977,57.5688477 19.6049805,56.8686523 C19.1098633,56.168457 18.8623047,54.7607422 18.8623047,52.6455078 C18.8623047,50.5302734 19.1347656,49.0800781 19.6796875,48.2949219 C20.1132812,47.6796875 20.6933594,47.3720703 21.4199219,47.3720703 Z M41.5029297,47.3720703 C42.1826172,47.3720703 42.7641602,47.6386719 43.2475586,48.171875 C43.730957,48.7050781 43.9726562,49.4257812 43.9726562,50.3339844 C43.9726562,51.2421875 43.7368164,51.9526367 43.2651367,52.465332 C42.793457,52.9780273 42.1914063,53.234375 41.4589844,53.234375 C40.7324219,53.234375 40.121582,52.9780273 39.6264648,52.465332 C39.1313477,51.9526367 38.8837891,51.2861328 38.8837891,50.4658203 C38.8837891,49.5517578 39.1445312,48.8076172 39.6660156,48.2333984 C40.1875,47.6591797 40.7998047,47.3720703 41.5029297,47.3720703 Z M14.0874023,15.5253906 L11.0258789,15.5253906 L2.77880859,37 L5.79638672,37 L8.15478516,30.4960938 L17.1342773,30.4960938 L19.6391602,37 L22.8764648,37 L14.0874023,15.5253906 Z M33.2475586,15.5253906 L25.1469727,15.5253906 L25.1469727,37 L27.9887695,37 L27.9887695,28.2695312 L33.496582,28.2695312 C36.5336914,28.2695312 38.6333008,27.637207 39.7954102,26.3725586 C40.9575195,25.1079102 41.5385742,23.5625 41.5385742,21.7363281 C41.5385742,20.671875 41.3212891,19.6953125 40.8867188,18.8066406 C40.4521484,17.9179688 39.878418,17.2270508 39.1655273,16.7338867 C38.4526367,16.2407227 37.5688477,15.90625 36.5141602,15.7304688 C35.8248698,15.6051432 34.852478,15.5372586 33.5969849,15.5268148 L33.2475586,15.5253906 Z M48.4819336,15.5253906 L45.6401367,15.5253906 L45.6401367,37 L48.4819336,37 L48.4819336,15.5253906 Z M55.1176758,21.4433594 L51.8217773,21.4433594 L57.0805664,28.9140625 L51.3969727,37 L54.590332,37 L58.6772461,30.8623047 L59.5268555,32.1660156 L62.7202148,37 L65.9575195,37 L60.1713867,28.7675781 L65.5473633,21.4433594 L62.3979492,21.4433594 L59.7758789,25.1201172 C59.4145508,25.6181641 59.019043,26.1894531 58.5893555,26.8339844 C58.3549805,26.4321987 58.0560328,25.9479034 57.6925124,25.3810985 L57.5053711,25.0908203 L55.1176758,21.4433594 Z M12.4907227,17.78125 C12.7950846,18.8465169 13.2471517,20.1825765 13.8469238,21.7894287 L14.0141602,22.234375 L16.2553711,28.1816406 L8.97509766,28.1816406 L11.3334961,21.8828125 C11.831543,20.5253906 12.2172852,19.1582031 12.4907227,17.78125 Z M33.4819336,18.0595703 C34.7709961,18.0595703 35.6547852,18.1230469 36.1333008,18.25 C36.8754883,18.4550781 37.4736328,18.8774414 37.9277344,19.5170898 C38.3818359,20.1567383 38.6088867,20.9257812 38.6088867,21.8242188 C38.6088867,23.0644531 38.2231445,24.0263672 37.4516602,24.7099609 C36.6801758,25.3935547 35.3764648,25.7353516 33.5405273,25.7353516 L27.9887695,25.7353516 L27.9887695,18.0595703 L33.4819336,18.0595703 Z" id="Fill-1" fill="#1A1919"></path>
            <path d="M69.1444107,92 C56.5214185,92 46.2885884,81.7670411 46.2885884,69.1444107 C46.2885884,56.5215472 56.5214185,46.2885884 69.1444107,46.2885884 C81.7669368,46.2885884 92,56.5215472 92,69.1444107 C92,81.7670411 81.7669368,92 69.1444107,92 M69.1444209,48.1170448 C80.75711,48.1170448 90.1715435,57.5314216 90.1715435,69.1442942 C90.1715435,80.7571667 80.75711,90.1715435 69.1444209,90.1715435 C57.5314784,90.1715435 48.1170448,80.7571667 48.1170448,69.1442942 C48.1170448,57.5314216 57.5314784,48.1170448 69.1444209,48.1170448 Z" id="Fill-1-Copy" fill="#1A1919"></path>
            <path d="M76.2398514,85.2556934 C75.5151628,85.2552312 72.8743014,80.5551985 72.5193519,79.215138 C71.7773318,76.4095381 71.9370128,75.2243044 71.9813815,74.8453254 C72.1172607,73.688284 73.2398809,73.11011 73.3078205,71.5454352 C73.3288494,71.0622369 73.5728772,68.646477 73.7676835,66.7594389 C73.2870227,66.6656185 72.8082106,66.4483988 72.3825484,66.1124016 C73.6604591,67.8263572 71.7796427,69.8804695 69.0468087,72.6135089 C66.1459745,75.5140846 59.7078927,78.206222 59.7078927,78.206222 C59.7078927,78.206222 62.4002865,71.7679698 65.3006585,68.867394 C67.4328976,66.7354061 69.151491,65.1219724 70.6179687,65.1219724 C71.0313832,65.1219724 71.4249242,65.2502244 71.801827,65.5309924 C71.4653644,65.1055653 71.248836,64.6269888 71.1545525,64.1463325 C69.2674967,64.3415992 66.8514829,64.5853936 66.3685112,64.6064223 C64.8035905,64.6743612 64.225411,65.7969709 63.0690521,65.9326177 C62.935946,65.9483314 62.7032414,65.9783724 62.3360443,65.9783724 C61.657342,65.9783724 60.5190078,65.876233 58.6989672,65.3946524 C57.2415019,65.009203 51.8107281,61.9195999 52.7713564,61.5313775 C53.2612607,61.3331068 54.8222529,61.1990776 56.8782333,61.1990776 C58.855413,61.1990776 61.2901449,61.3229391 63.6684915,61.6328237 C66.6340301,62.0191974 69.3532299,62.5079417 71.206316,62.871438 C71.2363573,62.7718405 71.2724068,62.6750159 71.3156201,62.5809645 L69.4211695,61.6730325 C69.4211695,61.6730325 67.9080123,59.9366617 68.0695421,59.8169598 C68.0757814,59.8123381 68.0838694,59.8100272 68.093344,59.8100272 C68.3306703,59.8100272 69.5411036,61.1939938 69.6575714,61.3515936 C69.7472331,61.3814035 70.2604772,61.5526373 70.8002963,61.7321902 L70.2644057,61.2635503 C70.2644057,61.2635503 69.5309358,58.5471491 69.7220447,58.4831386 C69.7243555,58.4824453 69.7268975,58.4819832 69.7296705,58.4819832 C69.9309472,58.4819832 70.5964776,60.8439004 70.6535561,61.0139788 C70.7843513,61.1285968 71.2261895,61.3005239 71.7782561,61.6189586 L71.1977658,60.125689 C71.1977658,60.125689 71.4605116,57.6620945 71.6571666,57.6620945 C71.6587842,57.6620945 71.6601707,57.6623255 71.6617883,57.6625566 C71.8598298,57.7020721 71.6229657,59.7173622 71.5728199,59.9685514 C71.6446879,60.0785477 72.0899924,60.7616342 72.5364523,61.4465694 C72.8112147,61.3430434 73.1067749,61.2919737 73.410192,61.2919737 C73.75844,61.2919737 74.1166247,61.3594505 74.4641795,61.4923242 C74.0191061,60.5446456 74.0528447,59.5569894 74.6430408,58.9672611 C74.829759,58.7800825 75.0566864,58.6495196 75.3094955,58.5721062 C75.3399989,58.399717 75.419955,58.2363401 75.5509813,58.1050839 C75.7217545,57.9343123 75.9466021,57.8495042 76.1742227,57.8495042 C76.4124734,57.8495042 76.6539592,57.9426314 76.8388287,58.1277302 C77.0160724,58.3045101 77.108045,58.5330529 77.115902,58.7609024 C77.4008321,58.173485 77.7370636,57.3810954 77.7134927,57.1243603 C77.6587251,56.5434132 76.9848757,55.5150861 76.9786363,55.5049183 C76.9347298,55.4383659 76.9529857,55.348705 77.0197698,55.3045678 C77.0440339,55.288623 77.0715333,55.2809972 77.0988015,55.2809972 C77.1457122,55.2809972 77.1916985,55.3038746 77.2191978,55.3461631 C77.249008,55.3905314 77.9394958,56.4449711 78.0009649,57.0975544 C78.0351657,57.4709874 77.6064995,58.4119645 77.3728706,58.8926208 C77.7010141,59.0721736 78.0208384,59.3092666 78.3129322,59.6013577 C78.604795,59.8932177 78.8418902,60.2132701 79.0216758,60.5414104 C79.4840808,60.316565 80.3712235,59.9114734 80.771235,59.9114734 C80.78718,59.9114734 80.8024317,59.9121667 80.8167591,59.9133221 C81.4693486,59.9747906 82.5237982,60.6652719 82.5679358,60.6948507 C82.6344888,60.7382947 82.6529758,60.8279555 82.6090693,60.8945079 C82.5813389,60.9365654 82.5353526,60.9594428 82.4884419,60.9594428 C82.4614047,60.9594428 82.4339054,60.951817 82.4096413,60.9358721 C82.3992424,60.9289396 81.3711366,60.2553275 80.789953,60.2010226 C80.7811717,60.2000983 80.7716971,60.1996361 80.7617604,60.1996361 C80.4791411,60.1996361 79.7202516,60.5226926 79.1531643,60.7981456 C79.3812471,60.8060025 79.6097921,60.8982053 79.7863425,61.0754473 C80.1484557,61.4370949 80.1583924,62.0134203 79.8092201,62.3625894 C79.6781938,62.4938455 79.5148153,62.5744941 79.3424245,62.6045351 C79.2645482,62.8575729 79.133753,63.0844981 78.9470348,63.2712146 C78.6216644,63.596813 78.1756666,63.7527952 77.6816028,63.7527952 C77.2799737,63.7527952 76.8466857,63.6495003 76.4217168,63.4500742 C76.6705974,64.0998845 76.6895466,64.7878238 76.4677031,65.3775521 C77.1521826,65.8240078 77.8361999,66.2695392 77.9457351,66.3414066 C78.1255207,66.3055884 79.2051589,66.1745634 79.8214677,66.1745634 C80.0678064,66.1745634 80.2404283,66.195361 80.2515205,66.2517457 C80.2914985,66.4495542 77.7888271,66.7166882 77.7888271,66.7166882 L76.2953123,66.1355101 C76.6139812,66.6880337 76.7854477,67.1296367 76.9002979,67.2606617 C77.0729198,67.3184329 79.4944797,68.0010573 79.4306997,68.1921643 C79.423536,68.2143485 79.381016,68.224054 79.3114588,68.224054 C78.777648,68.224054 76.650724,67.6495774 76.650724,67.6495774 L76.1816175,67.1136918 C76.3616342,67.6537369 76.5324075,68.1665139 76.5626799,68.256637 C76.7267516,68.3777254 78.216569,69.6821988 78.097097,69.8441892 C78.0908577,69.8525083 78.0806899,69.8562056 78.0665936,69.8562056 C77.8052343,69.8562056 76.2412379,68.4930367 76.2412379,68.4930367 L75.3330663,66.5983728 C75.239245,66.6418168 75.1421885,66.6774038 75.042359,66.7076759 C75.4058587,68.5607445 75.8948386,71.2799188 76.2816782,74.2451983 C76.9134698,79.0968226 76.7713513,84.1811493 76.3831253,85.1424618 C76.3519286,85.2198752 76.3031692,85.2556934 76.2398514,85.2556934" id="Fill-4" fill="#000000"></path>
        </g>
    </g>
</svg>