<?xml version="1.0" encoding="UTF-8"?>
<svg width="160px" height="160px" viewBox="0 0 160 160" version="1.1" xmlns="http://www.w3.org/2000/svg" xmlns:xlink="http://www.w3.org/1999/xlink">
    <title>owasp-2017-index</title>
    <g id="owasp-2017-index" stroke="none" stroke-width="1" fill="none" fill-rule="evenodd">
        <path d="M80,7 C120.316787,7 153,39.6832133 153,80 C153,120.316787 120.316787,153 80,153 C39.6832133,153 7,120.316787 7,80 C7,39.6832133 39.6832133,7 80,7 Z M80,18 C45.7583455,18 18,45.7583455 18,80 C18,114.241654 45.7583455,142 80,142 C114.241654,142 142,114.241654 142,80 C142,45.7583455 114.241654,18 80,18 Z" id="Combined-Shape" fill="#000000"></path>
        <g id="com.castsoftware.owasp-2017-index" transform="translate(31.000000, 32.000000)" fill="#000000">
            <g id="Group-2" transform="translate(0.000000, 57.188679)">
                <path d="M13.1754932,5.62100829 C13.1754932,3.18210396 12.7574276,1.87335445 7.76801993,1.87335445 C2.80837205,1.87335445 2.39006841,3.18210396 2.39006841,5.62100829 L2.39006841,14.6617743 C2.39006841,17.1004424 2.80837205,18.4091919 7.76801993,18.4091919 C12.7574276,18.4091919 13.1754932,17.1004424 13.1754932,14.6617743 L13.1754932,5.62100829 Z M7.76801993,20.2830189 C0.806371323,20.2830189 0,18.1415361 0,14.9296664 L0,5.35311624 C0,2.17077604 0.806371323,0 7.76801993,0 C14.7591903,0 15.5660377,2.17077604 15.5660377,5.35311624 L15.5660377,14.9296664 C15.5660377,18.1415361 14.7591903,20.2830189 7.76801993,20.2830189 L7.76801993,20.2830189 Z" id="Fill-5"></path>
                <path d="M32.0756731,0.471698113 L32.0756731,14.6982217 C32.0756731,17.1084166 32.5474047,18.401652 36.0851574,18.401652 C39.6816415,18.401652 40.0946417,17.1084166 40.0946417,14.6982217 L40.0946417,0.471698113 L42.4528302,0.471698113 L42.4528302,14.9921707 C42.4528302,18.1665395 41.6275347,20.2830189 36.0851574,20.2830189 C32.9305693,20.2830189 31.5156092,18.98955 30.8963439,17.9902635 C30.2773135,18.98955 28.8621185,20.2830189 25.7075304,20.2830189 C20.1651531,20.2830189 19.3396226,18.1665395 19.3396226,14.9921707 L19.3396226,0.471698113 L21.6980461,0.471698113 L21.6980461,14.6982217 C21.6980461,17.1084166 22.1110462,18.401652 25.7075304,18.401652 C29.245283,18.401652 29.7170147,17.1084166 29.7170147,14.6982217 L29.7170147,0.471698113 L32.0756731,0.471698113" id="Fill-6"></path>
                <path d="M59.3789646,5.54727239 C59.3789646,3.1403614 59.0472301,1.84877995 54.0091936,1.84877995 C48.9713974,1.84877995 48.639663,3.1403614 48.639663,5.54727239 L48.639663,10.5072716 L59.3789646,10.5072716 L59.3789646,5.54727239 Z M61.7924528,19.8113208 L59.3789646,19.8113208 L59.3789646,12.5619119 L48.639663,12.5619119 L48.639663,19.8113208 L46.2264151,19.8113208 L46.2264151,5.28289453 C46.2264151,2.14229999 46.98051,0 54.0091936,0 C61.0383579,0 61.7924528,2.14229999 61.7924528,5.28289453 L61.7924528,19.8113208 L61.7924528,19.8113208 Z" id="Fill-7"></path>
                <path d="M73.3490566,20.2830189 C66.3201326,20.2830189 65.5660377,18.1120066 65.5660377,14.9299026 L65.5660377,13.3537335 L67.9792856,13.3537335 L67.9792856,14.6620106 C67.9792856,17.1009149 68.3112604,18.4094282 73.3490566,18.4094282 C78.3868528,18.4094282 78.7188276,17.1009149 78.7188276,14.6620106 L78.7188276,14.364589 C78.7188276,12.5505299 77.8135291,11.8368598 75.9736049,11.5394382 L69.6987758,10.557876 C66.8331191,10.1118618 65.5660377,8.53569268 65.5660377,6.33491462 L65.5660377,5.35335248 C65.5660377,2.1412465 66.3201326,0 73.3490566,0 C80.3779806,0 81.1320755,2.1412465 81.1320755,5.35335248 L81.1320755,6.03749302 L78.7188276,6.03749302 L78.7188276,5.62100829 C78.7188276,3.1823402 78.3868528,1.87382692 73.3490566,1.87382692 C68.3112604,1.87382692 67.9792856,3.1823402 67.9792856,5.62100829 L67.9792856,6.09678835 C67.9792856,7.40530163 68.4622236,8.2085053 70.2418107,8.50569066 L76.9390002,9.57655014 C79.6839825,10.0225644 81.1320755,11.3906093 81.1320755,13.8592794 L81.1320755,14.9299026 C81.1320755,18.1120066 80.3779806,20.2830189 73.3490566,20.2830189" id="Fill-8"></path>
                <path d="M97.5865117,5.58400328 C97.5865117,3.14849264 96.4703936,1.8714008 93.5443997,1.8714008 L86.8474505,1.8714008 L86.8474505,12.2372436 L93.5443997,12.2372436 C96.5006824,12.2372436 97.5865117,10.9306605 97.5865117,8.4949139 L97.5865117,5.58400328 Z M93.5443997,14.1086444 L86.8474505,14.1086444 L86.8474505,19.8113208 L84.4339623,19.8113208 L84.4339623,0 L93.5443997,0 C98.4915698,0 100,2.13871006 100,5.34642126 L100,8.76222317 C100,11.9402071 98.4915698,14.1086444 93.5443997,14.1086444 L93.5443997,14.1086444 Z" id="Fill-9"></path>
            </g>
            <g id="Group" transform="translate(23.679245, 0.000000)">
                <g id="Fill-4" transform="translate(0.062893, 0.452830)">
                    <path d="M37.6471184,47.6277693 C36.5008206,47.6277693 32.3187478,40.1869677 31.7579852,38.0655285 C30.5824106,33.6244689 30.8368932,31.7485041 30.906707,31.1494566 C31.1206526,29.3162809 32.8975268,28.4019451 33.0056257,25.9246806 C33.0394065,25.1589807 33.4245086,21.3349852 33.7330406,18.3487555 C32.9740968,18.2001197 32.2151531,17.8555547 31.5417876,17.3240689 C33.5641362,20.0377995 30.5869147,23.2897721 26.2607102,27.6159766 C21.6687627,32.2079241 11.4759455,36.4688189 11.4759455,36.4688189 C11.4759455,36.4688189 15.7390924,26.2760018 20.3310399,21.6863064 C23.7068757,18.3104705 26.4273625,15.7566361 28.7469829,15.7566361 C29.4023319,15.7566361 30.0261521,15.9593214 30.6229477,16.4029769 C30.0892098,15.7296114 29.7468969,14.9729197 29.598261,14.2117239 C26.6097793,14.5202559 22.7857838,14.90761 22.0200839,14.9391388 C19.5428194,15.0472376 18.6284836,16.8241119 16.79756,17.0403095 C16.5858665,17.0650821 16.2187809,17.1123754 15.6377498,17.1123754 C14.5635179,17.1123754 12.761871,16.9502271 9.87923599,16.1867793 C7.573128,15.5764714 -1.0252317,10.6872522 0.497159905,10.0724402 C1.27186806,9.757152 3.74237633,9.5454585 6.996601,9.5454585 C10.1269624,9.5454585 13.9824867,9.74138759 17.7456766,10.2323364 C22.4412188,10.8448963 26.7449028,11.6173524 29.6793351,12.1938794 C29.7266283,12.0362353 29.7829298,11.8830953 29.8527436,11.7344594 L26.8530016,10.295394 C26.8530016,10.295394 24.4568112,7.54788253 24.7135459,7.35870961 C24.7225542,7.34970137 24.7360665,7.34744931 24.7518309,7.34744931 C25.1279247,7.34744931 27.0421745,9.53870232 27.2268433,9.78642877 C27.368723,9.833722 28.1817162,10.1062211 29.0374984,10.3899805 L28.1884723,9.64905319 C28.1884723,9.64905319 27.0264101,5.34762128 27.330438,5.24627865 C27.3326901,5.24627865 27.3371942,5.24402659 27.3416983,5.24402659 C27.6592386,5.24402659 28.713202,8.98469591 28.8032843,9.25269088 C29.0104737,9.43510763 29.7108639,9.70760671 30.5846627,10.2098158 L29.6658228,7.84740632 C29.6658228,7.84740632 30.0824536,3.94684084 30.3932377,3.94684084 C30.3954897,3.94684084 30.3977418,3.94684084 30.3999939,3.94684084 C30.71303,4.00989848 30.3391883,7.2010655 30.2603662,7.59742782 C30.3729692,7.77308839 31.0778635,8.85407651 31.7850099,9.93731669 C32.2196572,9.77291641 32.6880854,9.69409436 33.1677739,9.69409436 C33.7195282,9.69409436 34.287047,9.79994112 34.8365493,10.0093826 C34.1316549,8.50951154 34.1857044,6.94658288 35.1203087,6.01197857 C35.4153283,5.71695889 35.7734057,5.5097695 36.1742721,5.38815834 C36.2238174,5.11340719 36.3499327,4.85667251 36.5571221,4.64723106 C36.8273691,4.37698403 37.1831943,4.24411257 37.5435237,4.24411257 C37.9196175,4.24411257 38.3024675,4.39049638 38.5952351,4.683264 C38.8767424,4.96477132 39.0208741,5.3251007 39.0343865,5.68543007 C39.4847982,4.75532987 40.0185361,3.50093324 39.9802511,3.09556269 C39.8924208,2.17672279 38.8271971,0.548484428 38.8159368,0.532720018 C38.7483751,0.426873264 38.7753998,0.284993573 38.8812465,0.215179757 C38.9195315,0.190407112 38.9645727,0.176894761 39.0073618,0.176894761 C39.0816797,0.176894761 39.1537456,0.212927698 39.1987868,0.280489456 C39.2438279,0.350303272 40.3383284,2.01907869 40.4351669,3.05277358 C40.4892164,3.64506499 39.8113467,5.13367572 39.4420091,5.89487152 C39.9599826,6.1786309 40.4666958,6.55472469 40.9283678,7.0163967 C41.3922918,7.47806871 41.7661336,7.98478189 42.052145,8.50500743 C42.7840641,8.14918217 44.1870966,7.50734547 44.819925,7.50734547 C44.8469497,7.50734547 44.8694703,7.50959753 44.8919909,7.50959753 C45.9256858,7.60868811 47.5944612,8.70093652 47.664275,8.74822976 C47.7701218,8.81579151 47.7993985,8.9576712 47.7295847,9.06351796 C47.6867956,9.13107972 47.6124777,9.16711265 47.5381597,9.16711265 C47.4953706,9.16711265 47.4525815,9.1536003 47.4142965,9.12882766 C47.3985321,9.11756736 45.7702937,8.05234365 44.8514538,7.96676542 C44.8356894,7.96451337 44.8221771,7.96451337 44.8064127,7.96451337 C44.358253,7.96451337 43.1579058,8.47573067 42.2593344,8.91037797 C42.6196638,8.92389033 42.9822452,9.07027413 43.2615005,9.3495294 C43.8357754,9.92380434 43.8515398,10.8358881 43.2975334,11.3876424 C43.090344,11.5948318 42.8313573,11.7231992 42.5588582,11.7704924 C42.434995,12.1713588 42.2278056,12.5316882 41.9327859,12.8267079 C41.4170645,13.3424293 40.7121702,13.5879037 39.9307058,13.5879037 C39.2933732,13.5879037 38.6087474,13.4257554 37.9353819,13.1104672 C38.3294922,14.137406 38.3587689,15.2274023 38.0074478,16.1597546 C39.090688,16.866901 40.1739281,17.5717953 40.3473367,17.6866503 C40.6333481,17.6303488 42.3426606,17.4231594 43.3178019,17.4231594 C43.7074081,17.4231594 43.9799072,17.4546883 43.9979236,17.5447706 C44.0609813,17.8578068 40.0996102,18.2811938 40.0996102,18.2811938 L37.7349487,17.3601018 C38.2394098,18.2361526 38.5119089,18.9342908 38.6920736,19.1414801 C38.9668247,19.2338146 42.7998285,20.3148027 42.6984858,20.6165785 C42.6872255,20.6503594 42.6196638,20.6661238 42.5093129,20.6661238 C41.6647909,20.6661238 38.2979633,19.7562921 38.2979633,19.7562921 L37.554784,18.9095181 C37.8407954,19.7630483 38.1110425,20.5760415 38.1583357,20.7179212 C38.4173224,20.9093461 40.7774798,22.9744839 40.5883069,23.2312185 C40.5770466,23.2447309 40.5612822,23.2514871 40.5387616,23.2514871 C40.1243829,23.2514871 37.6493705,21.0917629 37.6493705,21.0917629 L36.2125571,18.0942729 C36.0639212,18.1618347 35.9107812,18.2181361 35.7508851,18.2654294 C36.3274121,21.1998617 37.1021202,25.5035457 37.7146802,30.1990878 C38.7145942,37.8786076 38.4893883,45.927465 37.8745763,47.4498566 C37.825031,47.5714678 37.748461,47.6277693 37.6471184,47.6277693" id="Path"></path>
                </g>
            </g>
        </g>
    </g>
</svg>