<?xml version="1.0" encoding="UTF-8" standalone="no"?>
<!DOCTYPE svg PUBLIC "-//W3C//DTD SVG 1.1//EN" "http://www.w3.org/Graphics/SVG/1.1/DTD/svg11.dtd">
<svg width="100%" height="100%" viewBox="0 0 1024 1024" version="1.1" xmlns="http://www.w3.org/2000/svg" xmlns:xlink="http://www.w3.org/1999/xlink" xml:space="preserve" xmlns:serif="http://www.serif.com/" style="fill-rule:evenodd;clip-rule:evenodd;stroke-linejoin:round;stroke-miterlimit:1.41421;">
    <path d="M288.742,792.986C281.222,780.604 275.766,766.858 272.408,751.818C269.05,736.778 267.336,720.758 267.336,703.724L267.336,618.8C267.336,605.788 266.006,593.266 263.384,581.234C260.762,569.202 256.634,558.184 251.002,548.18C245.37,538.142 238.166,529.222 229.386,521.318C220.606,513.414 210.218,506.978 198.186,501.94C210.218,497.184 220.606,490.852 229.386,482.982C238.13,475.112 245.37,466.228 251.002,456.294C256.634,446.396 260.76,435.518 263.384,423.59C266.008,411.698 267.336,399.106 267.336,385.814L267.336,300.19C267.336,283.156 268.98,267.066 272.232,251.922C275.45,236.742 280.802,222.822 288.182,210.194C295.562,197.532 305.076,186.514 316.724,177.14C328.372,167.766 342.468,160.42 358.976,155.14L349.218,125.444C324.944,132.72 304.622,142.164 288.358,153.81C272.058,165.458 259.048,178.854 249.288,194.034C239.53,209.18 232.568,225.724 228.442,243.632C224.316,261.54 222.252,280.392 222.252,300.19L222.252,385.848C222.252,400.644 220.608,413.9 217.356,425.686C214.104,437.472 208.962,447.616 201.966,456.116C194.936,464.65 185.912,471.156 174.928,475.668C163.91,480.18 150.758,482.454 135.474,482.454L135.474,521.524C150.758,521.524 163.91,523.832 174.928,528.484C185.91,533.1 194.97,539.606 201.966,548.036C208.962,556.396 214.104,566.608 217.356,578.64C220.608,590.672 222.252,604.068 222.252,618.828L222.252,703.752C222.252,723.304 224.316,742.016 228.442,759.926C232.568,777.836 239.53,794.204 249.324,809.138C259.082,824.038 272.094,837.33 288.394,848.976C304.658,860.624 324.98,870.068 349.254,877.378L360.166,847.332C343.622,841.806 329.492,834.496 317.704,825.332C305.916,816.168 296.264,805.36 288.744,792.978L288.742,792.986Z" style="fill-rule:nonzero;"/>
    <path d="M833.228,475.64C822.21,471.162 813.186,464.622 806.19,456.088C799.16,447.588 794.018,437.446 790.8,425.658C787.512,413.906 785.904,400.614 785.904,385.82L785.904,300.196C785.904,280.4 783.806,261.582 779.678,243.638C775.55,225.694 768.626,209.186 758.832,194.04C749.074,178.86 736.026,165.498 719.762,153.816C703.462,142.168 683.176,132.724 658.902,125.45L649.108,155.146C665.862,160.428 680.098,167.738 691.744,177.146C703.39,186.554 712.87,197.538 720.11,210.2C727.386,222.826 732.632,236.748 735.92,251.892C739.172,267.038 740.816,283.162 740.816,300.16L740.816,385.818C740.816,399.354 742.18,412.19 744.908,424.328C747.672,436.5 752.008,447.588 757.884,457.592C763.76,467.63 771.28,476.444 780.444,484.07C789.608,491.73 800.556,497.78 813.322,502.294C800.556,506.806 789.572,512.962 780.444,520.726C771.28,528.49 763.76,537.376 757.884,547.414C752.008,557.418 747.67,568.47 744.908,580.468C742.18,592.5 740.816,605.266 740.816,618.802L740.816,703.726C740.816,720.76 739.102,736.78 735.71,751.82C732.318,766.86 726.896,780.572 719.376,792.988C711.82,805.37 702.202,816.142 690.45,825.306C678.662,834.47 664.498,841.78 647.952,847.306L658.9,877.352C683.174,870.042 703.46,860.598 719.76,848.95C736.024,837.302 749.07,824.012 758.83,809.112C768.588,794.176 775.55,777.772 779.676,759.9C783.804,741.956 785.902,723.244 785.902,703.726L785.902,618.802C785.902,604.006 787.51,590.61 790.798,578.614C794.05,566.582 799.158,556.368 806.188,548.01C813.184,539.58 822.208,533.074 833.226,528.458C844.208,523.806 857.396,521.498 872.68,521.498L872.68,482.428C857.396,482.428 844.208,480.154 833.226,475.642L833.228,475.64Z" style="fill-rule:nonzero;"/>
    <path d="M682.058,394.668C675.658,388.338 665.338,388.338 658.974,394.668L474.26,578.228L364.572,469.24C358.206,462.91 347.852,462.91 341.488,469.24C335.122,475.606 335.122,485.854 341.488,492.184L462.718,612.61C469.118,618.94 479.438,618.94 485.802,612.61L682.058,417.614C688.458,411.284 688.458,401 682.058,394.67L682.058,394.668Z" style="fill-rule:nonzero;"/>
</svg>
