<?xml version="1.0" encoding="UTF-8"?>
<svg width="160px" height="160px" viewBox="0 0 160 160" version="1.1" xmlns="http://www.w3.org/2000/svg" xmlns:xlink="http://www.w3.org/1999/xlink">
    <title>indexes</title>
    <g id="indexes" stroke="none" stroke-width="1" fill="none" fill-rule="evenodd">
        <path d="M80,7 C120.316787,7 153,39.6832133 153,80 C153,120.316787 120.316787,153 80,153 C39.6832133,153 7,120.316787 7,80 C7,39.6832133 39.6832133,7 80,7 Z M80,18 C45.7583455,18 18,45.7583455 18,80 C18,114.241654 45.7583455,142 80,142 C114.241654,142 142,114.241654 142,80 C142,45.7583455 114.241654,18 80,18 Z" id="Combined-Shape" fill="#000000"></path>
        <polygon id="Rectangle" fill="#000000" points="38 64 81 64 60 91"></polygon>
        <polygon id="Rectangle" fill="#000000" points="31 79 44 79 50 87 31 87"></polygon>
        <polygon id="Rectangle-Copy" fill="#000000" points="74.7575758 79 131 79 131 87 69 87"></polygon>
    </g>
</svg>