<?xml version="1.0" encoding="UTF-8" standalone="no"?>
<!DOCTYPE svg PUBLIC "-//W3C//DTD SVG 1.1//EN" "http://www.w3.org/Graphics/SVG/1.1/DTD/svg11.dtd">
<svg width="100%" height="100%" viewBox="0 0 26 26" version="1.1" xmlns="http://www.w3.org/2000/svg" xmlns:xlink="http://www.w3.org/1999/xlink" xml:space="preserve" xmlns:serif="http://www.serif.com/" style="fill-rule:evenodd;clip-rule:evenodd;stroke-linejoin:round;stroke-miterlimit:1.41421;">
    <g id="Group" transform="matrix(1,0,0,1,4,0)">
        <g id="Shape" transform="matrix(1,0,0,1,4.85154,19.8322)">
            <path d="M5.407,5.167L3.063,5.167C2.569,5.167 2.143,4.836 2.015,4.363L1.785,3.491C1.048,3.376 0.487,2.748 0.487,1.978L0.487,1.018C0.487,0.504 0.9,0.092 1.413,0.092L7.057,0.092C7.57,0.099 7.983,0.511 7.983,1.025L7.983,1.984C7.983,2.748 7.422,3.383 6.692,3.491L6.455,4.363C6.327,4.836 5.901,5.167 5.407,5.167Z" style="fill:rgb(26,26,26);"/>
        </g>
        <g id="Shape1" serif:id="Shape" transform="matrix(1,0,0,1,0.5901,0)">
            <path d="M7.323,18.694L5.986,18.694C5.331,18.694 4.763,18.221 4.668,17.573C4.432,16.065 3.736,14.633 2.668,13.531C1.289,12.098 0.431,10.152 0.41,8.009C0.369,4.057 3.126,0.766 6.846,0L2.834,4.012C2.533,3.885 2.171,3.943 1.927,4.188C1.604,4.511 1.604,5.035 1.927,5.358C2.249,5.68 2.774,5.68 3.096,5.358C3.341,5.113 3.399,4.752 3.272,4.45L7.58,0.143L8.092,0.654L6.219,2.528C6.16,2.586 6.128,2.665 6.128,2.747L6.128,3.634C6.009,3.673 5.897,3.739 5.803,3.833C5.48,4.155 5.481,4.68 5.803,5.002C6.126,5.325 6.65,5.325 6.973,5.002C7.295,4.68 7.295,4.155 6.973,3.833C6.905,3.766 6.829,3.714 6.748,3.674L6.748,2.876L8.531,1.093L10.313,2.875L10.313,3.674C10.232,3.713 10.156,3.766 10.089,3.833C9.766,4.156 9.766,4.68 10.089,5.003C10.411,5.325 10.936,5.325 11.258,5.003C11.581,4.68 11.581,4.155 11.258,3.833C11.164,3.739 11.052,3.673 10.933,3.634L10.933,2.747C10.933,2.665 10.901,2.586 10.843,2.528L8.969,0.654L9.481,0.143L13.789,4.45C13.662,4.752 13.72,5.113 13.965,5.358C14.288,5.68 14.812,5.68 15.135,5.358C15.457,5.035 15.457,4.511 15.135,4.188C14.89,3.943 14.528,3.885 14.227,4.012L10.231,0.016C13.868,0.806 16.59,4.046 16.59,7.921C16.59,10.104 15.725,12.085 14.319,13.538C13.251,14.646 12.562,16.059 12.332,17.566C12.231,18.215 11.67,18.694 11.008,18.694L9.783,18.694L9.503,18.415L8.991,17.903L10.864,16.029C10.923,15.971 10.955,15.893 10.955,15.81L10.955,14.924C11.074,14.884 11.186,14.819 11.28,14.724C11.603,14.402 11.602,13.877 11.28,13.555C10.958,13.232 10.433,13.232 10.111,13.555C9.788,13.877 9.788,14.402 10.111,14.724C10.178,14.791 10.254,14.844 10.335,14.883L10.335,15.682L8.552,17.464L6.77,15.682L6.77,14.883C6.851,14.844 6.927,14.791 6.994,14.724C7.317,14.402 7.317,13.877 6.994,13.555C6.672,13.232 6.147,13.232 5.825,13.555C5.503,13.877 5.502,14.402 5.825,14.724C5.919,14.818 6.031,14.884 6.15,14.924L6.15,15.81C6.15,15.893 6.182,15.971 6.241,16.03L8.114,17.903L7.602,18.415L7.323,18.694ZM6.264,14.286C6.183,14.205 6.183,14.074 6.264,13.993C6.344,13.913 6.475,13.913 6.556,13.993C6.637,14.074 6.637,14.205 6.556,14.286C6.475,14.366 6.344,14.366 6.264,14.286ZM10.549,13.993C10.63,13.913 10.761,13.913 10.842,13.993C10.922,14.074 10.922,14.205 10.842,14.286C10.761,14.366 10.63,14.366 10.549,14.286C10.469,14.205 10.469,14.074 10.549,13.993ZM2.365,4.919C2.284,4.839 2.284,4.707 2.365,4.627C2.446,4.546 2.577,4.546 2.658,4.627C2.738,4.707 2.738,4.839 2.658,4.919C2.577,5 2.446,5 2.365,4.919ZM14.696,4.627C14.777,4.707 14.777,4.839 14.696,4.919C14.615,5 14.484,5 14.403,4.919C14.323,4.839 14.323,4.707 14.403,4.627C14.484,4.546 14.615,4.546 14.696,4.627ZM10.82,4.272C10.9,4.352 10.9,4.483 10.82,4.564C10.739,4.645 10.608,4.645 10.527,4.564C10.447,4.483 10.447,4.352 10.527,4.272C10.608,4.191 10.739,4.191 10.82,4.272ZM6.534,4.564C6.453,4.645 6.322,4.645 6.241,4.564C6.161,4.483 6.161,4.352 6.241,4.272C6.322,4.191 6.453,4.191 6.534,4.272C6.614,4.352 6.614,4.483 6.534,4.564Z" style="fill:rgb(26,26,26);"/>
        </g>
    </g>
</svg>
